<svg width="437" height="280" viewBox="0 0 437 280" fill="none" xmlns="http://www.w3.org/2000/svg">
  <g clip-path="url(#clip0_1978_82796)">
    <path d="M239.534 264.949C238.644 264.928 237.548 264.857 236.971 265.823C237.823 264.24 240.087 262.867 239.722 260.64C239.488 259.209 238.091 258.609 237.017 258.663C235.575 258.734 234.361 259.619 233.519 260.934C234.393 259.397 235.531 257.23 235.187 255.557C234.835 253.85 233.439 253.768 232.324 254.515C231.053 255.368 230.116 256.828 229.39 258.306C229.651 257.15 229.611 256.018 229.591 254.836C229.575 253.841 229.784 253.055 229.51 252.054C228.751 249.279 226.239 249.389 224.794 251.185C223.98 252.195 223.504 254.302 223.365 255.651C223.21 257.167 223.393 258.705 223.561 260.207C223.882 263.054 224.297 266.181 225.705 268.472C222.479 272.418 218.309 274.468 213.771 276.519C212.461 277.11 211.132 277.742 209.824 278.446C211.507 276.696 213.266 275.137 214.655 272.963C215.262 272.752 215.913 272.689 216.488 272.493C219.69 271.325 221.33 269.036 221.096 264.923C221.024 263.782 220.92 262.641 220.738 261.517C220.429 259.603 220.032 257.622 219.465 255.793C219.289 255.224 218.971 254.008 218.373 253.866C217.805 253.732 217.427 254.695 217.191 255.157C215.786 258.148 214.575 261.746 214.77 265.203C214.887 267.166 215.356 268.988 214.887 270.952C214.871 271.02 214.849 271.083 214.829 271.148C214.676 271.491 214.517 271.832 214.341 272.169C212.872 274.992 210.506 276.72 208.656 279.1C206.107 280.581 203.69 282.38 201.721 284.758C203.203 280.969 204.382 277.004 205.282 272.933C205.339 272.854 205.38 272.756 205.383 272.634C205.384 272.576 205.383 272.519 205.384 272.462C206.234 268.512 206.827 264.467 207.189 260.393C208.535 257.924 210.545 256.436 212.54 254.778C214.473 253.17 216.279 251.281 217.992 249.355C218.154 249.175 218.314 248.989 218.474 248.801C219.48 248.233 220.612 248.056 221.706 247.758C221.789 247.736 221.873 247.719 221.957 247.697C222.255 247.908 222.529 248.158 222.776 248.381C223.44 248.941 224.184 249.316 224.988 249.44C226.338 249.65 227.742 249.271 229.019 248.751C229.698 248.474 230.316 248.12 231.026 247.953C231.316 247.885 232.326 247.672 231.701 247.087C231.376 246.784 230.838 246.624 230.471 246.373C228.791 245.204 226.956 243.242 224.885 244.223C223.715 244.818 222.388 246.067 221.541 247.307C220.815 247.492 219.99 247.627 219.224 247.903C220.766 245.99 222.234 243.792 223.313 241.408C223.537 241.499 223.761 241.578 223.985 241.637C226.297 242.245 228.657 241.236 230.61 239.717C231.573 238.969 232.66 237.965 232.834 236.508C232.986 235.245 232.376 233.836 231.397 233.3C230.326 232.713 228.724 233.637 228.161 234.832C228.293 233.554 229.418 230.451 227.924 229.765C226.512 229.053 225.234 232.054 224.744 233.091C226.026 229.37 224.242 225.592 222.078 230.329C222.316 229.81 221.822 228.044 221.631 227.528C221.367 226.814 220.925 226.199 220.281 225.973C218.734 225.425 217.763 227.148 217.758 228.796C217.753 231.086 218.35 233.745 219.074 235.844C219.76 237.838 220.806 239.858 222.41 240.933C222.092 241.661 221.752 242.382 221.367 243.085C219.865 245.833 217.87 248.168 215.824 250.331C215.193 250.999 214.538 251.627 213.877 252.242C213.945 251.717 213.954 251.164 214.003 250.671C214.026 250.442 214.049 250.214 214.072 249.985C214.346 249.696 214.636 249.42 214.928 249.129C216.646 247.354 217.584 245.625 217.077 242.821C216.745 240.94 216.1 239.32 215.409 237.609C215.213 237.124 214.959 235.884 214.46 235.706C214.005 235.542 213.688 236.26 213.53 236.659C213.241 237.388 212.924 238.104 212.584 238.802C211.062 241.933 211.296 243.195 212.273 246.513C212.59 247.619 213.1 248.751 213.438 249.909C213.407 250.944 213.352 252.051 213.121 252.94C212.102 253.858 211.065 254.743 210.027 255.642C209.028 256.508 208.026 257.473 207.327 258.682C207.755 252.826 207.717 246.935 207.291 241.205C207.293 241.183 207.297 241.164 207.295 241.138C206.727 235.827 207.538 231.004 209.029 226.343C211.604 223.223 214.537 221.894 218.04 220.625C219.648 220.043 221.401 219.422 222.942 218.435C223.674 219.49 224.605 220.324 225.661 220.872C228.118 222.146 231.301 222.019 233.641 220.48C233.979 220.257 234.313 219.998 234.646 219.701C235.805 218.669 237.219 216.852 235.943 215.122C234.724 213.465 232.557 214.291 231.241 215.294C232.003 214.154 234.009 212.604 233.472 210.894C232.671 208.353 229.601 211.242 228.913 212.523C228.951 211.94 229.245 211.585 229.525 211.14C230.069 210.277 230.464 209.262 230.425 208.151C230.302 204.709 226.683 207.986 225.974 209.439C225.878 209.07 225.947 208.654 225.934 208.272C225.897 207.2 225.648 206.159 225.519 205.108C225.408 204.205 225.063 203.48 224.248 203.225C223.283 202.922 222.098 204.168 221.696 205.057C221.122 206.333 220.898 207.918 220.727 209.338C220.379 212.241 221.103 215.222 222.46 217.65C220.293 218.935 218.014 219.797 215.614 220.742C213.478 221.584 211.146 222.722 209.573 224.722C210.399 222.388 211.379 220.086 212.423 217.775C213.94 214.418 215.605 211.217 216.557 207.548C217.466 204.046 217.162 200.226 216.988 196.597C217.43 196.581 217.864 196.506 218.286 196.349C218.898 196.122 219.487 195.73 220.042 195.108C221.73 193.228 224.314 190.833 224.797 187.991C224.988 186.864 224.641 185.026 223.835 184.27C221.667 182.237 219.676 185.741 219.208 187.915C219.266 186.303 218.857 182.938 216.864 183.148C215.048 183.359 215.458 187.003 215.575 188.545C215.282 187.283 213.35 183.218 211.943 183.709C210.421 184.199 211.885 187.214 212.002 188.335C210.947 186.793 208.84 184.48 207.022 185.111C205.283 185.716 205.447 187.93 206.102 189.458C206.884 191.281 208.286 192.744 209.695 193.854C210.701 194.647 211.846 195.313 213.004 195.72C214.204 196.141 215.401 196.538 216.55 196.59C216.457 200.546 216.639 204.453 215.642 208.301C214.903 211.154 213.63 213.86 212.339 216.522C212.477 215.198 212.427 213.773 212.243 212.356C212.346 211.847 212.518 211.345 212.661 210.859C213.48 208.336 214.574 205.16 213.91 202.354C213.558 200.766 212.27 199.784 211.293 198.71C210.611 197.954 210.071 196.998 209.387 196.268C208.853 195.701 208.446 196.105 208.259 196.823C208.068 197.564 207.733 198.264 207.427 198.943C206.725 200.532 205.359 202.494 205.749 204.41C206.022 205.859 207.232 206.981 207.896 208.102C208.971 209.95 210.361 211.695 211.426 213.545C211.502 215.099 211.418 216.64 211.525 218.198C211.062 219.158 210.609 220.114 210.195 221.071C208.639 224.66 207.006 229.08 206.449 233.475C204.663 220.865 200.811 208.59 195.021 197.85C197.48 196.67 198.507 193.693 199.311 190.782C200.075 188.014 201.803 184.369 200.761 181.421C200.338 180.221 198.806 179.027 197.656 179.564C195.948 180.358 194.748 182.576 194.428 184.657C194.174 182.921 192.998 176.8 190.82 177.898C188.137 179.25 189.128 185.149 189.898 187.559C189.337 186.092 186.738 180.552 185.156 182.295C183.276 184.363 184.41 188.823 186.201 190.382C184.452 189.157 182.489 187.981 180.488 187.53C177.796 186.924 177.407 189.151 178.788 191.516C180.299 194.102 182.959 195.192 185.358 196.214C185.461 196.257 185.562 196.302 185.663 196.344C188.297 197.473 191.244 198.933 194.093 198.193C197.075 203.96 199.54 210.07 201.472 216.418C200.988 216.069 200.468 215.788 199.979 215.563C199.783 215.472 199.594 215.382 199.402 215.291C199.241 214.89 199.077 214.473 198.914 214.083C197.899 211.56 197.782 209.083 195.478 207.635C194.678 207.124 193.744 206.732 192.864 206.472C192.049 206.231 191.215 206.168 190.386 206.043C189.529 205.914 188.697 205.635 187.844 205.491C187.338 205.404 186.59 205.319 186.462 206.091C186.33 206.887 186.941 207.745 187.239 208.383C188.917 211.981 190.871 216.513 194.775 216.701C195.91 216.77 197.088 216.061 198.213 215.831C198.877 216.114 199.539 216.399 200.185 216.735C200.976 217.146 201.536 217.761 202.077 218.44C204.128 225.659 205.489 233.166 206.122 240.811C206.881 249.967 206.428 258.968 204.898 267.712C203.95 263.145 201.766 258.732 199.667 254.712C199.326 252.651 198.946 250.632 198.775 248.546C199.181 248.17 199.68 247.895 200.086 247.448C201.804 245.439 203.639 241.981 203.053 239.036C202.651 236.846 201.917 234.713 201.645 232.489C201.577 231.935 201.386 230.29 200.639 230.511C200.006 230.698 199.432 232.11 199.084 232.678C198.508 233.618 197.857 234.496 197.301 235.453C196.709 236.47 196.251 237.729 196.052 238.952C195.635 241.521 196.13 243.732 197.143 246C197.362 246.488 197.572 246.981 197.787 247.468C197.832 249.083 198.025 250.691 198.369 252.23C198.214 251.933 198.06 251.638 197.91 251.346C194.856 245.406 191.438 239.643 187.222 234.81C189.77 232.716 190.822 229.169 190.656 225.326C190.611 224.297 190.192 222.707 189.39 222.128C187.43 220.713 185.594 223.451 185.578 225.59C185.237 224.33 184.119 221.441 182.659 222.367C180.942 223.456 182.112 227.751 183.227 228.915C182.39 227.897 179.975 225.827 178.818 227.132C177.852 228.222 178.765 230.224 179.692 231.409C179.941 231.728 180.19 231.988 180.406 232.154C178.966 231.069 176.181 230.541 175.251 232.793C174.094 235.593 177.4 237.455 179.204 237.468C181.267 237.483 183.831 236.734 185.74 235.78C186.138 235.579 186.507 235.347 186.855 235.094C190.802 239.802 193.966 245.263 196.881 250.963C198.445 254.02 200.012 257.083 201.398 260.262C199.856 258.62 197.899 257.301 195.808 256.298C195.557 256.028 195.321 255.735 195.086 255.389C193.328 252.959 192.313 249.08 189.423 248.286C187.472 247.726 185.246 248.427 183.254 248.427C182.179 248.454 181.101 248.274 180.025 248.299C178.666 248.329 177.831 248.818 178.049 250.583C178.198 251.801 178.581 253.073 179.115 254.127C181.458 258.753 185.324 259.64 189.463 259.034C191.706 258.684 193.868 257.659 196.128 257.781C198.383 259 200.325 260.622 202.29 262.472C203.267 265.246 203.765 268.078 204.265 271.011C203.171 276.285 201.684 281.46 199.833 286.511C198.993 282.067 197.785 277.442 196.04 273.239C196.241 273.032 196.43 272.817 196.603 272.589C198.192 270.489 198.632 267.537 198.5 264.755C198.435 263.383 198.245 261.756 197.276 260.851C196.435 260.065 195.109 260.002 194.235 260.753C193.278 261.573 193.152 263.695 193.739 264.874C192.877 264.102 191.184 261.392 189.947 262.603C188.73 263.718 190.271 266.535 190.782 267.557C188.718 264.379 185.092 264.358 187.454 268.956C187.196 268.452 185.669 268.088 185.201 268.03C184.551 267.949 183.885 268.104 183.401 268.661C182.236 269.996 183.004 271.86 184.197 272.682C185.857 273.826 188.081 274.525 189.963 274.817C191.715 275.087 193.658 275.011 195.219 273.94C195.712 275.168 196.182 276.409 196.61 277.679C197.669 280.83 198.46 284.093 199.362 287.308C199.385 287.39 199.425 287.445 199.47 287.486C198.839 289.159 198.171 290.818 197.462 292.463C197.296 292.848 197.744 293.157 197.944 292.8C198.986 290.935 199.934 289.003 200.792 287.018C202.155 285.469 203.543 284.019 205.029 282.716C205.074 282.76 205.129 282.794 205.2 282.8C206.453 282.895 207.631 283.113 208.772 283.432C209.902 285.404 210.667 287.413 212.307 289.033C215.001 291.604 218.164 292.165 221.522 292.025C222.108 291.977 224.998 292.118 225.232 291.183C225.466 290.341 223.319 288.987 222.928 288.613C220.389 286.229 218.398 281.464 214.884 281.229C213.197 281.088 211.354 282.313 209.607 282.59C208.335 282.275 207.022 282.141 205.754 282.102C206.795 281.243 207.885 280.453 209.06 279.759C211.744 278.178 214.625 277.083 217.402 275.764C220.567 274.262 223.942 272.314 226.247 269.251C226.709 269.829 227.254 270.336 227.907 270.738C228.532 271.122 229.174 271.395 229.827 271.582C231.172 271.967 232.568 271.991 233.979 271.882C235.33 271.777 236.762 271.69 238.06 271.218C239.533 270.683 241.862 269.945 242.668 268.22C243.744 265.928 240.902 264.983 239.534 264.949Z" fill="#76DCB1"/>
    <path d="M237.077 419.01C174.138 453.77 103.681 464.507 33.0792 450.024C16.612 446.653 -0.339134 442.715 -16.5451 434.997C-32.0319 427.623 -47.7917 414.444 -55.9969 392.14C-57.8146 387.188 -59.2801 381.825 -59.9356 376.452C-60.0591 375.455 -59.9252 370.229 -60.2798 369.624C-59.2865 371.349 -62.7284 379.825 -60.3019 373.272C-56.8842 364.07 -51.273 357.201 -45.1517 352.066C-31.3582 340.482 -14.29 336.943 1.89335 334.154C67.3143 322.855 137.817 341.998 200.289 313.28C214.444 306.776 229.382 298.232 240.299 283.915C251.216 269.598 257.238 246.898 257.429 223.88C257.594 203.629 248.906 188.623 236.57 179.007C222.819 168.274 207.603 162.332 193.385 153.64C162.246 134.63 132.063 111.027 103.453 83.3963C89.0122 69.4327 74.9751 54.4562 61.4155 38.5058C47.8558 22.5554 34.7906 5.59466 24.2871 -14.7028C19.1664 -24.5925 14.6614 -35.2235 11.4494 -46.5161C8.23755 -57.8087 7.31413 -67.9533 6.86326 -79.4609C6.7745 -81.6677 7.11603 -80.1449 6.72361 -78.8455C7.05414 -79.9657 7.33547 -81.1119 7.6932 -82.2025C9.08796 -86.508 10.9354 -90.4441 12.91 -94.146C17.1348 -102.017 22.507 -108.543 28.2975 -113.847C41.9728 -126.395 58.4832 -131.542 75.0109 -134.148C92.4844 -136.903 110.315 -137.68 128.061 -138.275C198.759 -140.624 270.559 -132.196 341.969 -113.229C360.001 -108.444 378.005 -102.976 395.967 -96.84C411.022 -91.7039 427.044 -87.5848 441.349 -77.0581C447.126 -72.7984 453.061 -67.1737 457.043 -59.3592C458.824 -55.8595 460.227 -51.9613 461.091 -47.9102C461.221 -47.3034 461.884 -42.2375 461.923 -42.2096C460.94 -42.5802 464.746 -52.8942 462.776 -49.3794C458.42 -41.6234 454.482 -34.5095 449.051 -28.2114C442.655 -20.8118 435.954 -13.9234 429.386 -6.83558C415.01 8.7051 400.635 24.2458 386.248 39.7882C373.316 53.762 358.491 66.5254 347.595 83.9077C336.7 101.29 330.904 127.718 332.952 152.281C334.469 170.554 343.236 182.836 354.737 189.38C365.285 195.379 376.552 197.434 386.752 205.37C399.69 215.451 405.666 235.479 402.847 254.623C399.273 278.92 392.86 302.359 387.836 325.817C382.453 350.925 377.071 376.05 371.688 401.158C366.304 426.266 360.923 451.391 355.539 476.499C354.662 480.587 351.444 494.267 353.885 498.527C356.028 502.258 358.534 489.199 358.771 488.06C370.075 435.318 381.369 382.577 392.673 329.835C398.297 303.604 404.985 277.545 408.665 250.213C411.424 229.757 413.845 202.725 402.901 183.565C394.693 169.178 382.344 164.836 371.085 160.119C359.827 155.401 347.095 149.78 341.81 132.627C341.067 130.201 340.481 127.632 340.192 125.083C340.077 124.067 340.205 122.589 339.976 121.642C338.984 117.493 340.018 128.196 338.987 127.443C338.539 127.107 345.407 114.988 346.088 114.016C351.936 105.719 358.796 98.9757 365.356 91.9061C380.299 75.7504 395.245 59.6111 410.178 43.4571C423.775 28.7682 438.609 15.2064 450.931 -1.70574C462.226 -17.2014 468.692 -39.0897 469.167 -63.2373C470.138 -112.112 427.534 -122.212 403.508 -130.493C329.229 -156.077 254.116 -170.221 179.836 -172.647C161.529 -173.253 143.278 -173.138 125.107 -172.307C106.936 -171.476 88.1747 -170.739 70.2967 -166.547C54.4185 -162.823 38.7825 -155.848 26.4723 -141.718C15.2017 -128.786 7.6326 -110.962 3.47521 -90.3697C-1.21783 -67.0996 -2.41101 -41.4316 4.1832 -16.5508C10.301 6.52339 21.6798 26.8693 33.8064 44.4527C58.9794 80.9494 89.485 111.384 119.502 137.572C149.987 164.162 181.813 185.674 214.549 203.093C226.828 209.634 243.058 218.433 248.635 238.151C249.243 240.293 249.331 242.991 249.981 244.974C251.192 248.648 250.961 237.462 251.479 237.245C250.897 237.489 249.452 241.904 249.131 242.514C247.999 244.693 246.725 246.691 245.377 248.582C240.241 255.749 234.097 261.024 227.711 265.692C166.672 310.358 90.456 290.149 22.0899 297.708C-8.22665 301.064 -46.7284 305.83 -60.5096 349.012C-67.0042 369.362 -71.2094 397.369 -63.8029 420.969C-56.3963 444.569 -41.7979 458.745 -26.5908 467.062C-9.75216 476.29 8.28542 480.329 25.541 483.982C43.4845 487.781 61.4551 489.966 79.3072 490.541C115.349 491.69 150.921 486.284 184.935 474.428C201.387 468.698 217.457 461.468 233.09 452.832C236.543 450.932 237.578 437.342 238.132 432.559C238.35 430.727 239.75 417.521 237.055 419.014L237.077 419.01Z" fill="#BBEDD8"/>
    <path d="M240.801 131.107C244.361 133.482 247.529 136.372 250.846 139.08C251.063 139.209 251.281 139.333 251.498 139.464C253.773 140.836 257.216 142.806 259.731 145.29C259.051 143.761 258.318 142.258 257.519 140.793C254.707 135.635 251.122 131.062 247.713 126.355C246.384 126.045 245.06 125.569 243.778 125.213C239.934 124.173 237.443 120.649 235.168 117.413C233.869 115.622 228.02 108.052 233.597 108.976C238.417 109.728 243.182 113.022 245.294 117.759C245.963 119.294 246.241 121.6 246.865 123.562C249.543 127.154 252.277 130.702 254.799 134.412C254.065 131.983 254.053 129.376 254.453 126.776C254.264 125.511 254.055 124.253 253.959 123.017C253.688 120.186 253.688 104.297 258.237 105.972C261.757 107.301 260.24 116.142 259.645 118.626C258.765 122.081 257.332 125.325 255.786 128.466C255.518 131.128 255.603 133.84 256.458 136.803C256.472 136.855 256.472 136.901 256.465 136.945C257.348 138.336 258.199 139.754 258.994 141.212C259.794 142.681 260.52 144.192 261.183 145.736C261.192 144.67 261.279 143.585 261.408 142.507C260.89 140.905 260.784 138.938 260.504 137.354C260.275 136.064 260.015 134.698 259.965 133.352C259.551 133.34 259.137 133.224 258.77 132.981C256.428 131.431 258.935 127.102 261.32 128.341C262.02 128.705 262.318 129.388 262.338 130.113C262.542 130.828 262.446 131.598 261.986 132.301C261.648 132.815 261.147 133.144 260.602 133.282C260.836 134.774 260.96 136.301 261.214 137.782C261.346 138.545 261.557 139.367 261.734 140.199C261.898 139.157 262.073 138.14 262.223 137.176C262.692 134.146 263.955 131.46 265.35 128.837C264.26 128.273 263.439 126.949 263.597 125.682C263.802 124.044 265.265 123.106 266.698 122.971C268.08 122.841 269.641 123.846 270.126 125.235C270.247 125.579 270.249 125.917 270.185 126.241C270.343 126.801 270.231 127.403 269.719 127.993C268.828 129.021 267.268 129.324 266.031 129.09C265.886 129.063 265.744 129.013 265.605 128.958C264.37 131.631 263.353 134.383 262.816 137.351C262.444 139.402 262.58 141.548 262.665 143.675C263.084 142.999 263.666 142.385 264.268 141.846C263.265 140.195 263.979 137.577 265.922 137.044C267.174 136.699 268.323 137.682 268.934 138.758C269.433 139.635 269.37 140.636 268.867 141.457C268.771 141.727 268.631 141.989 268.429 142.227C267.559 143.256 266.237 143.434 265.129 142.733C264.947 142.618 264.79 142.479 264.647 142.331C264.409 142.59 264.174 142.857 263.956 143.14C263.275 144.021 263.057 144.957 262.712 145.958C262.7 146.962 262.629 147.952 262.442 148.918C264.758 155.286 266.079 162.098 266.783 168.83C266.827 169.249 266.866 169.673 266.906 170.094C267.307 166.576 268.161 163.129 269.202 159.717C269.251 158.28 269.273 156.839 269.393 155.432C269.718 151.792 269.555 148.21 269.934 144.627C270.259 141.507 271.775 131.684 275.566 131.163C277.515 130.933 278.869 133.937 279.518 135.439C280.764 138.617 280.818 141.969 279.897 145.262C278.182 151.668 274.304 157.821 270.104 162.791C268.888 167.176 267.832 171.61 267.408 176.233C267.401 176.305 267.377 176.363 267.347 176.413C267.527 180.434 267.519 184.519 267.315 188.616C267.577 188.142 267.865 187.679 268.164 187.223C269.467 185.233 270.805 183.265 272.123 181.285C272.435 180.816 272.752 180.339 273.073 179.859C273.073 179.824 273.066 179.791 273.074 179.754C273.347 178.339 273.539 176.924 273.667 175.497C272.536 175.623 271.297 174.944 270.913 173.778C269.964 170.895 274.134 167.939 276.091 170.402C276.739 171.218 276.601 172.274 276.08 173.197C275.827 174.017 275.306 174.746 274.578 175.197C274.542 175.22 274.499 175.23 274.46 175.25C274.439 176.227 274.363 177.198 274.226 178.163C275.737 175.977 277.38 173.821 279.236 172.016C278.507 171.268 278.216 170.144 278.47 169.089C278.785 167.792 280.012 167.217 281.174 167.324C282.363 167.432 283.53 168.077 283.687 169.434C283.725 169.753 283.664 170.068 283.548 170.367C283.613 170.971 283.491 171.58 283.059 172.076C282.266 172.988 280.939 173.07 279.924 172.536C277.613 175.387 275.238 178.14 273.135 181.216C272.388 182.309 271.66 183.417 270.924 184.52C272.491 183.61 274.412 183.117 276.13 182.518C275.796 181.189 276.484 179.532 277.629 178.799C279.541 177.576 281.982 180.055 281.199 182.183C281.076 182.516 280.871 182.828 280.614 183.103C280.577 183.16 280.549 183.22 280.507 183.277C279.715 184.333 278.431 184.641 277.304 184.031C276.843 183.781 276.527 183.429 276.323 183.027C275.597 183.386 274.858 183.711 274.093 184.016C272.574 184.623 271.223 185.475 269.783 186.2C269.748 186.249 269.716 186.3 269.682 186.348C268.829 187.553 267.826 188.797 267.227 190.196C266.647 199.526 265.034 208.875 262.254 217.613C263.359 215.872 264.538 214.203 265.652 212.613C265.682 212.569 265.714 212.524 265.744 212.481C266.101 210.769 266.371 209.031 266.842 207.344C267.315 205.653 267.858 203.959 268.482 202.325C269.584 199.442 271.27 197.008 273.045 194.565C274.539 192.507 276.362 190.276 279.031 190.215C286.665 190.041 283.363 200.5 280.655 204.082C276.991 208.898 271.712 212.375 266.045 213.762C263.497 217.387 261.461 221.177 259.502 225.123C258.836 226.72 257.994 228.474 257.237 230.008C257.276 229.222 257.304 228.906 257.296 228.676C257.662 227.86 257.604 227.883 257.947 227.056C257.917 227.009 257.904 226.948 257.921 226.874C258.266 225.414 258.432 223.976 258.471 222.555C258.44 222.54 258.416 222.512 258.403 222.466C257.51 219.099 255.402 217.291 253.017 215.471C252.737 215.797 252.406 216.093 252.032 216.338C250.103 217.609 247.108 216.76 246.643 214.188C246.266 212.105 248.062 210.107 249.886 209.763C250.995 209.553 252.026 210.044 252.77 210.914C252.851 211.009 252.912 211.114 252.975 211.217C254.195 212.308 254.144 213.775 253.383 214.975C255.723 216.519 257.717 218.777 258.477 221.577C258.375 215.182 255.596 209.173 252.845 203.437C252.07 204.144 251.003 204.453 249.951 204.3C248.597 204.103 247.515 202.758 247.278 201.376C246.999 199.751 247.946 198.507 249.299 197.927C250.544 197.392 251.89 197.774 252.799 198.723C253.852 199.397 254.212 200.817 253.74 202.109C253.595 202.508 253.388 202.853 253.137 203.148C255.181 206.1 256.613 209.646 257.672 213.132C257.647 211.13 257.84 209.059 258.294 207.089C257.084 206.711 256.141 205.543 256.32 204.012C256.549 202.046 258.412 200.447 260.259 200.797C261.276 200.99 262.094 202.046 262.226 203.103C262.249 203.292 262.24 203.542 262.205 203.813C262.418 205.103 261.515 206.456 260.232 207.002C259.839 207.17 259.432 207.234 259.033 207.218C258.621 209.719 258.31 212.207 258.194 214.8C258.193 214.832 258.185 214.858 258.176 214.884C258.91 217.691 259.353 220.737 259.052 223.655C259.362 222.888 259.711 222.133 260.088 221.389C262.001 215.807 263.45 210.026 264.453 204.139C264.098 200.643 263.128 197.446 261.803 194.42C260.863 193.874 259.786 193.588 258.833 193.103C255.909 191.542 252.93 189.52 250.168 187.613C247.027 185.533 244.374 182.759 242.479 179.408C241.016 176.924 238.633 172.244 239.879 169.181C242.695 162.189 256.287 176.345 258.128 179.004C261.062 183.289 261.401 187.536 262.122 192.21C263.475 195.25 264.463 198.398 264.854 201.55C266.084 193.273 266.485 184.837 266.182 176.528C265.131 174.24 264.01 172.039 262.765 169.917C261.671 169.653 260.614 168.921 259.591 168.463C258.706 168.066 257.777 167.817 256.863 167.524C256.723 168.347 256.101 168.989 255.447 169.41C253.76 170.492 251.396 169.964 250.956 167.718C250.626 166.029 251.615 164.359 253.08 163.722C254.492 163.11 256.088 164.011 256.524 165.531C256.585 165.743 256.607 165.957 256.613 166.171C256.706 166.321 256.772 166.485 256.819 166.657C257.846 166.83 258.855 167.192 259.832 167.535C260.468 167.758 261.183 168.022 261.831 168.381C261.016 167.086 260.15 165.82 259.208 164.587C257.054 161.767 254.509 159.426 252.037 156.973C251.814 157.244 251.545 157.479 251.256 157.672C249.874 158.597 247.729 158.614 246.476 157.453C245.736 156.767 245.656 155.632 245.872 154.682C246.188 153.292 247.175 152.146 248.496 151.835C249.852 151.517 251.343 152.136 251.843 153.583C251.865 153.644 251.869 153.712 251.885 153.775C252.309 154.272 252.62 154.862 252.598 155.564C252.588 155.821 252.533 156.06 252.447 156.282C254.963 158.267 257.317 160.67 259.408 163.332C258.716 161.3 258.324 158.94 258.464 156.864C258.359 156.872 258.253 156.877 258.149 156.871C255.71 156.75 254.731 152.91 256.214 151.11C257.549 149.49 259.985 151.051 260.727 152.528C260.975 153.02 261.075 153.571 261.009 154.094C261.024 154.536 260.938 154.985 260.72 155.429C260.405 156.067 259.8 156.511 259.142 156.726C259.36 157.959 259.446 159.219 259.64 160.457C259.855 161.838 260.187 163.19 260.356 164.578C262.712 167.787 264.685 171.31 266.113 174.884C266.036 173.257 265.941 171.635 265.811 170.021C265.265 163.236 263.916 156.483 261.653 150.107C258.866 146.034 255.213 143.248 251.266 140.868C249.928 140.528 248.504 140.481 247.189 140.234C244.374 139.713 241.504 139.425 238.742 138.673C235.981 137.864 225.962 134.918 227.208 130.237C228.725 124.463 238.309 129.49 240.801 131.107ZM273.083 174.003C273.064 173.996 273.048 173.986 273.03 173.979C273.031 173.986 273.032 173.992 273.032 173.999C273.048 174.001 273.065 174.001 273.083 174.003ZM280.319 168.926C280.349 168.902 280.38 168.878 280.411 168.855C280.28 168.803 280.34 168.783 280.319 168.926ZM248.299 212.21C248.301 212.206 248.304 212.202 248.305 212.197C248.292 212.216 248.278 212.234 248.265 212.254C248.274 212.239 248.287 212.225 248.299 212.21ZM250.909 211.112C250.923 211.108 250.935 211.105 250.948 211.102C250.936 211.098 250.923 211.098 250.911 211.094C250.91 211.1 250.911 211.106 250.909 211.112ZM258.068 202.798C258.069 202.796 258.071 202.794 258.072 202.792C258.069 202.794 258.067 202.797 258.065 202.799L258.068 202.798Z" fill="#76DCB1"/>
    <path d="M84.7856 86.4286C85.673 85.7193 86.8516 85.2249 87.6167 84.4801C89.1356 82.9685 90.4267 80.9559 90.9234 78.8883C91.7498 75.3709 90.2809 69.1619 85.6043 69.7677C80.9269 70.3735 77.8449 76.321 78.8754 80.6274C79.583 83.4561 81.5732 85.4755 83.3421 87.6763C82.877 90.6827 82.4829 93.7011 82.1348 96.6731C81.6237 101.042 81.3741 105.894 82.8077 110.157C80.0913 106.195 77.6906 102.02 75.635 97.6536C72.6503 91.3122 70.4864 84.6473 68.1442 78.0549C68.5651 77.0664 69.0899 76.1784 69.5959 75.2716C70.8863 73.1873 71.7831 71.2922 71.1864 68.7436C70.3946 65.4419 66.7889 62.2009 63.3704 64.2943C59.5241 66.6145 60.4712 72.0419 63.0222 74.9093C64.2628 76.2713 65.8283 77.0017 67.2829 77.9533C68.1984 80.9169 69.1708 83.8421 70.2222 86.7225C69.3383 85.8048 68.4424 84.8923 67.4811 84.0691C67.2967 83.0215 67.2036 81.9473 66.8325 80.9598C65.6774 77.5928 60.2132 73.4901 57.3345 77.1602C52.5312 83.2642 62.5236 87.0527 67.3431 85.4241C68.4946 86.462 69.6448 87.5022 70.8732 88.4663C71.8114 90.9442 72.8139 93.3871 73.8917 95.7908C68.9115 91.2781 62.0912 88.5848 55.369 87.3437C54.5385 86.5132 53.9444 85.4973 53.095 84.6838C51.5489 83.2741 49.6043 81.7645 47.4412 81.8112C45.1338 81.861 41.8163 83.628 41.7651 86.2627C41.6866 89.2953 45.3067 91.5616 48.0773 91.1776C50.4669 90.8221 52.0979 88.934 54.236 88.0601C57.0576 88.7714 59.8483 89.5892 62.5785 90.616C61.7069 90.6882 60.8218 90.8369 59.9571 91.0192C59.2652 90.7269 58.6174 90.3005 57.9011 90.064C55.286 89.2545 48.4503 91.8185 50.7291 95.4137C53.2392 99.3321 59.6836 95.2178 60.7798 91.8853C61.1309 91.8414 61.4795 91.7854 61.8316 91.7496C62.8813 91.6408 63.9495 91.6649 65.0074 91.6273C68.4015 93.1828 71.4944 95.2084 74.5897 97.3223C78.1723 105.019 82.5722 112.293 88.2775 118.987C92.022 123.382 96.2328 127.526 100.77 131.344C96.2354 128.975 91.3134 127.267 86.4851 125.743C86.3853 125.712 86.2838 125.683 86.1835 125.652C84.2156 123.896 81.7472 122.571 79.6895 120.912C79.1651 120.489 78.65 120.058 78.1367 119.626C77.4687 118.264 77.4635 116.586 77.2027 115.118C76.8709 113.105 76.2423 110.738 74.0261 110.028C71.8836 109.388 69.4563 110.595 68.4148 112.494C66.7851 115.524 68.0825 118.815 71.3518 119.826C73.3517 120.445 75.4709 120.153 77.4998 120.495C78.2571 121.135 79.0182 121.767 79.7904 122.389C80.6844 123.11 81.6462 123.895 82.6587 124.6C78.368 123.369 74.0345 122.31 69.6852 121.311C68.6937 120.708 67.8829 119.829 67.1122 118.944C63.8178 115.083 58.2059 109.142 54.3194 116.297C51.441 121.663 54.9779 126.746 60.8535 126.511C64.2161 126.336 68.4164 125.022 71.0772 122.71C75.4234 123.937 79.7949 125.073 84.1322 126.347C87.0231 127.196 89.8411 128.158 92.605 129.229C91.449 129.5 90.2704 130.015 89.1137 130.65C87.9523 130.338 86.8479 129.695 85.6648 129.44C81.7887 128.694 74.9784 132.412 76.9894 137.023C78.4316 140.311 82.5979 141.122 85.3277 138.863C86.638 137.782 87.487 136.272 88.1629 134.738C88.4689 134.042 88.7305 133.319 89.0644 132.645C89.2255 132.32 89.3464 131.938 89.4965 131.577C91.4576 130.709 93.2677 130.349 95.3667 130.344C98.9593 131.852 102.47 133.554 105.941 135.443C112.298 140.185 119.161 144.264 126.243 147.465C123.303 147.057 120.289 147.007 117.491 147.058C115.82 147.089 114.16 147.224 112.511 147.439C110.791 147.439 109.06 146.705 107.386 145.868C106.815 144.966 106.703 143.823 106.409 142.809C105.706 140.299 104.421 137.585 102.225 136.117C99.6619 134.369 96.9094 135.546 96.5437 138.656C95.8561 144.678 101.756 146.11 106.346 146.124C107.719 146.833 109.139 147.469 110.608 147.72C108.859 148.02 107.13 148.425 105.421 148.909C104.429 148.62 103.467 148.164 102.48 147.874C99.3546 146.858 91.1161 147.938 92.6292 152.847C93.7554 156.54 98.6656 156.722 101.481 155.11C103.765 153.837 105.292 151.59 106.871 149.553C110.055 148.831 113.29 148.362 116.585 148.212C117.196 148.184 117.81 148.179 118.424 148.179C116.88 148.732 115.372 149.615 113.947 150.628C110.244 151.26 104.624 153.232 103.935 156.826C103.385 159.759 106.791 160.48 109.021 160.143C112.186 159.714 114.523 157.643 115.396 154.666C115.779 153.361 115.884 152.006 116.321 150.71C118.043 149.8 119.841 148.996 121.779 148.284C123.138 148.371 124.495 148.497 125.842 148.663C128.995 149.054 131.914 150.063 135 150.698C135.2 150.74 135.296 150.475 135.125 150.37C133.446 149.344 131.583 148.628 129.633 148.125C127.774 147.125 125.932 146.114 124.108 145.088C121.061 142.56 118.82 139.539 117.134 136.207C117.575 133.573 118.616 131.315 119.803 129.131C120.816 128.82 121.936 128.86 122.989 128.671C126.041 127.992 128.59 125.772 129.789 122.824C130.919 120.022 130.671 115.192 126.87 114.589C120.407 113.563 118.308 123.207 118.756 128.247C117.562 130.473 116.671 132.797 116.576 135.049C113.713 128.824 112.585 121.639 111.583 114.64C112.144 113.914 112.809 113.249 113.368 112.535C115.162 110.368 116.513 107.778 116.307 104.896C116.124 101.472 113.384 96.5166 109.261 97.7235C104.314 99.2015 103.108 106.876 105.108 110.909C106.119 112.858 108.376 115.208 110.787 115.244C111.359 119.486 112.103 123.703 113.184 127.857C113.299 128.295 113.417 128.734 113.543 129.173C112.109 126.83 110.21 124.709 108.638 122.502C107.86 121.411 107.103 120.3 106.332 119.2C106.579 117.525 106.803 115.79 106.441 114.163C105.719 110.787 100.489 104.154 96.6889 106.942C93.4214 109.321 94.2452 114.066 96.6473 116.72C99.012 119.267 102.317 120.313 105.71 120.385L105.821 120.356C106.466 121.244 107.108 122.137 107.745 123.035C109.963 126.158 112.9 129.002 114.597 132.444C116.074 136.543 118.164 140.482 121.255 143.461C109.686 136.764 98.9247 129.254 89.7803 119.058C87.726 116.768 85.8089 114.373 84.0186 111.891C83.2258 109.292 82.8196 106.716 82.6956 104.126C84.0428 101.2 85.8271 98.9979 87.8571 96.96C89.0335 97.0499 90.4826 97.7047 91.3323 97.7855C94.8758 98.1427 98.9202 96.6479 100.36 93.1532C101.768 89.8399 99.772 85.9507 96.0826 85.5249C89.6998 84.802 87.6343 92.3886 85.948 97.1613C84.5896 98.7336 83.4574 100.485 82.6567 102.363C82.6528 99.9821 82.8486 97.5805 83.1849 95.1249C83.5735 92.2681 84.2657 89.351 84.7856 86.4286Z" fill="#76DCB1"/>
    <path d="M397.258 97.1041C397.258 97.1041 387.682 92.8111 390.937 88.9351C394.192 85.0581 399.032 92.4821 399.685 94.2351C399.685 94.2351 398.209 85.1851 403.847 84.0791C409.485 82.9721 407.113 93.9921 406.639 94.0761C406.165 94.1591 412.427 87.2831 415.713 93.2271C419 99.1721 407.663 100.389 407.663 100.389C407.663 100.389 417.082 101.175 412.715 106.569C408.348 111.963 403.331 105.001 403.331 105.001C403.331 105.001 402.167 115.866 396.418 112.423C390.669 108.98 396.977 101.061 396.977 101.061C396.977 101.061 387.361 105.855 386.397 100.537C385.433 95.2181 397.258 97.1041 397.258 97.1041Z" fill="#BBEDD8"/>
    <path d="M401.517 95.9101C407.132 94.7501 409.677 99.1731 403.85 101.577C398.022 103.98 395.902 97.0691 401.517 95.9101Z" fill="#76DCB1"/>
    <path d="M127.914 177.152C127.914 177.152 118.338 172.859 121.593 168.983C124.848 165.106 129.688 172.53 130.341 174.283C130.341 174.283 128.865 165.233 134.503 164.127C140.141 163.02 137.769 174.04 137.295 174.124C136.821 174.207 143.083 167.331 146.369 173.275C149.656 179.22 138.319 180.437 138.319 180.437C138.319 180.437 147.738 181.223 143.371 186.617C139.004 192.011 133.987 185.049 133.987 185.049C133.987 185.049 132.823 195.914 127.074 192.471C121.325 189.028 127.633 181.109 127.633 181.109C127.633 181.109 118.017 185.903 117.053 180.585C116.089 175.266 127.914 177.152 127.914 177.152Z" fill="#BBEDD8"/>
    <path d="M132.173 175.958C137.788 174.798 140.333 179.221 134.506 181.625C128.678 184.028 126.558 177.117 132.173 175.958Z" fill="#76DCB1"/>
    <path d="M22.0831 158.635C22.0831 158.635 15.5308 155.698 17.758 153.046C19.9852 150.393 23.297 155.473 23.7438 156.672C23.7438 156.672 22.7338 150.48 26.5916 149.723C30.4494 148.965 28.8264 156.506 28.5021 156.563C28.1777 156.62 32.4625 151.915 34.7109 155.982C36.96 160.05 29.2027 160.883 29.2027 160.883C29.2027 160.883 35.6476 161.421 32.6595 165.112C29.6714 168.802 26.2386 164.039 26.2386 164.039C26.2386 164.039 25.4421 171.473 21.5084 169.117C17.5746 166.761 21.8909 161.343 21.8909 161.343C21.8909 161.343 15.3111 164.623 14.6515 160.984C13.9919 157.345 22.0831 158.635 22.0831 158.635Z" fill="#BBEDD8"/>
    <path d="M24.9977 157.818C28.8398 157.025 30.5812 160.051 26.5941 161.696C22.6063 163.34 21.1557 158.611 24.9977 157.818Z" fill="#76DCB1"/>
    <path d="M309.552 193.077C309.552 193.077 301.551 189.49 304.271 186.252C306.99 183.012 311.034 189.215 311.58 190.68C311.58 190.68 310.347 183.118 315.058 182.194C319.768 181.269 317.786 190.477 317.39 190.547C316.994 190.616 322.226 184.871 324.972 189.838C327.718 194.805 318.246 195.822 318.246 195.822C318.246 195.822 326.116 196.479 322.467 200.985C318.818 205.492 314.626 199.675 314.626 199.675C314.626 199.675 313.654 208.754 308.85 205.877C304.047 203 309.317 196.383 309.317 196.383C309.317 196.383 301.283 200.389 300.477 195.946C299.672 191.501 309.552 193.077 309.552 193.077Z" fill="#76DCB1"/>
    <path d="M313.111 192.079C317.803 191.11 319.929 194.806 315.061 196.814C310.191 198.822 308.42 193.048 313.111 192.079Z" fill="#BBEDD8"/>
    <path d="M158.147 128.918C158.147 128.918 148.34 124.521 151.674 120.551C155.007 116.581 159.964 124.184 160.633 125.979C160.633 125.979 159.121 116.711 164.895 115.578C170.67 114.444 168.24 125.73 167.755 125.816C167.269 125.901 173.683 118.859 177.048 124.947C180.414 131.036 168.804 132.282 168.804 132.282C168.804 132.282 178.45 133.087 173.978 138.611C169.505 144.135 164.367 137.005 164.367 137.005C164.367 137.005 163.175 148.133 157.287 144.607C151.399 141.08 157.86 132.97 157.86 132.97C157.86 132.97 148.011 137.88 147.024 132.434C146.037 126.986 158.147 128.918 158.147 128.918Z" fill="#76DCB1"/>
    <path d="M162.51 127.695C168.26 126.507 170.867 131.037 164.899 133.499C158.93 135.96 156.759 128.882 162.51 127.695Z" fill="#BBEDD8"/>
    <path d="M355.989 64.8896C355.989 64.8896 349.535 61.9966 351.729 59.3846C353.922 56.772 357.184 61.7749 357.624 62.9562C357.624 62.9562 356.629 56.8575 360.429 56.1122C364.228 55.3662 362.63 62.7924 362.31 62.849C361.991 62.905 366.211 58.2713 368.425 62.2769C370.64 66.2832 363 67.1033 363 67.1033C363 67.1033 369.348 67.6329 366.405 71.2679C363.462 74.9028 360.081 70.2112 360.081 70.2112C360.081 70.2112 359.297 77.533 355.422 75.2128C351.548 72.8926 355.799 67.5561 355.799 67.5561C355.799 67.5561 349.319 70.7867 348.67 67.203C348.02 63.6186 355.989 64.8896 355.989 64.8896Z" fill="#76DCB1"/>
    <path d="M358.859 64.0848C362.643 63.3031 364.358 66.2837 360.431 67.9037C356.504 69.5231 355.075 64.8658 358.859 64.0848Z" fill="#BBEDD8"/>
    <path d="M314.805 80.3142C314.914 79.8914 315.514 79.8914 315.623 80.3142L316.682 84.4375C316.72 84.5866 316.837 84.7031 316.986 84.7414L321.109 85.8004C321.532 85.909 321.532 86.5096 321.109 86.6182L316.986 87.6772C316.837 87.7155 316.72 87.8319 316.682 87.981L315.623 92.1044C315.514 92.5272 314.914 92.5272 314.805 92.1044L313.746 87.981C313.708 87.8319 313.592 87.7155 313.442 87.6772L309.319 86.6182C308.896 86.5096 308.896 85.909 309.319 85.8004L313.442 84.7414C313.592 84.7031 313.708 84.5866 313.746 84.4375L314.805 80.3142Z" fill="#BBEDD8"/>
    <path d="M151.306 58.6204C151.354 58.4364 151.615 58.4364 151.662 58.6204L152.123 60.415C152.14 60.4799 152.191 60.5306 152.256 60.5472L154.05 61.0081C154.234 61.0554 154.234 61.3168 154.05 61.364L152.256 61.8249C152.191 61.8416 152.14 61.8923 152.123 61.9572L151.662 63.7517C151.615 63.9358 151.354 63.9358 151.306 63.7517L150.846 61.9572C150.829 61.8923 150.778 61.8416 150.713 61.8249L148.919 61.364C148.735 61.3168 148.735 61.0554 148.919 61.0081L150.713 60.5472C150.778 60.5306 150.829 60.4799 150.846 60.415L151.306 58.6204Z" fill="#BBEDD8"/>
    <path d="M408.641 58.8072C408.752 58.3742 409.367 58.3742 409.478 58.8072L410.563 63.0295C410.602 63.1822 410.721 63.3014 410.874 63.3406L415.096 64.4251C415.529 64.5363 415.529 65.1513 415.096 65.2625L410.874 66.347C410.721 66.3862 410.602 66.5054 410.563 66.6581L409.478 70.8804C409.367 71.3134 408.752 71.3134 408.641 70.8804L407.556 66.6581C407.517 66.5054 407.398 66.3862 407.245 66.347L403.023 65.2625C402.59 65.1513 402.59 64.5363 403.023 64.4251L407.245 63.3406C407.398 63.3014 407.517 63.1822 407.556 63.0295L408.641 58.8072Z" fill="#76DCB1"/>
    <path d="M208.539 70.771C208.651 70.338 209.266 70.338 209.377 70.771L210.461 74.9934C210.5 75.1461 210.62 75.2653 210.772 75.3045L214.995 76.389C215.428 76.5002 215.428 77.1152 214.995 77.2264L210.772 78.3108C210.62 78.35 210.5 78.4693 210.461 78.622L209.377 82.8443C209.266 83.2773 208.651 83.2773 208.539 82.8443L207.455 78.622C207.416 78.4693 207.296 78.35 207.144 78.3108L202.921 77.2264C202.488 77.1152 202.488 76.5002 202.921 76.389L207.144 75.3045C207.296 75.2653 207.416 75.1461 207.455 74.9934L208.539 70.771Z" fill="#76DCB1"/>
    <path d="M21.2587 56.5738C21.4111 55.9806 22.2536 55.9806 22.4059 56.5738L23.8917 62.3584C23.9454 62.5676 24.1088 62.731 24.318 62.7847L30.1026 64.2704C30.6958 64.4228 30.6958 65.2653 30.1026 65.4177L24.318 66.9034C24.1088 66.9571 23.9454 67.1205 23.8917 67.3297L22.4059 73.1143C22.2536 73.7075 21.4111 73.7075 21.2587 73.1143L19.773 67.3297C19.7193 67.1205 19.5559 66.9571 19.3467 66.9034L13.5621 65.4177C12.9689 65.2653 12.9689 64.4228 13.5621 64.2704L19.3467 62.7847C19.5559 62.731 19.7193 62.5676 19.773 62.3584L21.2587 56.5738Z" fill="#76DCB1"/>
    <path d="M17.2864 190.115C17.376 189.766 17.8716 189.766 17.9613 190.115L18.8353 193.518C18.8669 193.641 18.963 193.737 19.086 193.769L22.4889 194.643C22.8378 194.732 22.8378 195.228 22.4889 195.318L19.086 196.192C18.963 196.223 18.8669 196.319 18.8353 196.442L17.9613 199.845C17.8716 200.194 17.376 200.194 17.2864 199.845L16.4124 196.442C16.3808 196.319 16.2847 196.223 16.1616 196.192L12.7588 195.318C12.4098 195.228 12.4098 194.732 12.7588 194.643L16.1616 193.769C16.2847 193.737 16.3808 193.641 16.4124 193.518L17.2864 190.115Z" fill="#76DCB1"/>
    <path d="M46.686 170.366C46.8125 169.873 47.5125 169.873 47.6391 170.366L48.8734 175.172C48.9181 175.345 49.0538 175.481 49.2276 175.526L54.0335 176.76C54.5264 176.887 54.5264 177.587 54.0335 177.713L49.2276 178.948C49.0538 178.992 48.9181 179.128 48.8734 179.302L47.6391 184.108C47.5125 184.601 46.8125 184.601 46.686 184.108L45.4516 179.302C45.407 179.128 45.2712 178.992 45.0974 178.948L40.2915 177.713C39.7987 177.587 39.7987 176.887 40.2915 176.76L45.0974 175.526C45.2712 175.481 45.407 175.345 45.4516 175.172L46.686 170.366Z" fill="#BBEDD8"/>
    <path d="M82.9614 206.81C83.0879 206.317 83.7879 206.317 83.9145 206.81L85.1488 211.616C85.1935 211.789 85.3292 211.925 85.503 211.97L90.3089 213.204C90.8018 213.331 90.8018 214.031 90.3089 214.157L85.503 215.392C85.3292 215.436 85.1935 215.572 85.1488 215.746L83.9145 220.552C83.7879 221.044 83.0879 221.044 82.9614 220.552L81.727 215.746C81.6824 215.572 81.5466 215.436 81.3728 215.392L76.5669 214.157C76.0741 214.031 76.0741 213.331 76.5669 213.204L81.3728 211.97C81.5466 211.925 81.6824 211.789 81.727 211.616L82.9614 206.81Z" fill="#BBEDD8"/>
    <path d="M299.955 61.5557C300.081 61.0628 300.781 61.0628 300.908 61.5557L302.142 66.3616C302.187 66.5354 302.322 66.6711 302.496 66.7158L307.302 67.9501C307.795 68.0767 307.795 68.7767 307.302 68.9033L302.496 70.1376C302.322 70.1823 302.187 70.318 302.142 70.4918L300.908 75.2977C300.781 75.7906 300.081 75.7906 299.955 75.2977L298.72 70.4918C298.676 70.318 298.54 70.1823 298.366 70.1376L293.56 68.9033C293.067 68.7767 293.067 68.0767 293.56 67.9501L298.366 66.7158C298.54 66.6711 298.676 66.5354 298.72 66.3616L299.955 61.5557Z" fill="#BBEDD8"/>
    <path d="M439.747 207.061C437.951 210.793 436.707 214.664 435.187 218.533C433.114 223.924 429.934 228.624 427.447 233.875C424.545 239.958 422.748 246.454 420.398 252.673C419.21 255.982 417.759 260.274 415.541 263.706C413.701 265.256 411.867 266.814 410.063 268.41C408.455 269.835 406.782 271.22 405.392 272.823C411.049 254.679 414.261 235.483 414.96 216.591C415.674 213.45 417.57 210.553 419.191 207.846C420.378 205.864 421.568 203.884 422.756 201.902C423.705 201.093 424.718 200.343 425.649 199.598C433.251 193.377 438.504 186.743 440.163 176.514C442.098 164.49 440.439 149.562 437.122 137.951C436.293 142.927 434.91 147.627 433.251 152.465C428.553 165.457 425.927 177.482 424.821 191.304C424.616 194.377 423.635 196.909 422.494 199.353C422.49 199.361 422.485 199.369 422.48 199.375C420.327 203.016 416.846 207.639 415.079 212.281C415.244 202.302 414.479 192.24 412.529 182.462C413.315 178.14 414.697 173.872 416.12 169.603C416.414 169.21 416.717 168.821 417.012 168.428C420.882 163.245 423.715 158.614 423.853 151.98C423.992 146.935 423.715 142.167 422.748 137.191C421.919 132.906 421.712 127.792 419.707 123.784C419.639 126.478 419.224 129.175 418.809 131.869C417.288 142.029 413.626 151.565 414.178 161.933C414.257 163.743 414.716 166.74 414.779 169.509C413.627 173.153 412.617 176.843 412.153 180.627C410.677 173.788 408.607 167.102 405.856 160.691C405.597 158.642 405.546 156.55 405.333 154.539C403.122 134.774 386.121 119.708 372.713 106.301C372.99 109.756 374.787 113.212 375.893 116.391C380.039 128.831 381.284 141.271 391.649 150.393C395.805 154.159 400.444 157.444 404.772 161.264C408.155 169.561 410.457 178.24 411.856 187.11C410.777 185.542 409.346 184.156 407.854 182.849C406.845 181.194 406.139 179.438 405.197 177.76C401.325 170.435 396.627 162.28 390.406 156.751C381.284 148.458 371.055 143.344 360.689 136.986C363.453 139.75 364.974 144.035 366.77 147.629C373.267 160.759 381.698 170.158 394.138 177.899C397.739 180.179 401.653 181.212 405.427 182.891C408.415 185.41 411.341 188.174 412.473 191.495C413.334 198.439 413.673 205.48 413.565 212.531C413.394 223.621 412.043 234.505 410.039 245.277C409.432 242.166 408.127 239.131 406.688 236.204C406.67 234.8 406.791 233.352 406.715 231.943C406.44 224.617 403.951 219.089 401.049 212.455C398.422 206.511 394.829 201.949 391.235 196.558C386.674 189.509 383.08 182.46 377.137 176.379C377.827 181.77 379.762 186.882 380.73 192.272C382.251 200.98 382.528 209.965 386.811 217.981C391.417 226.812 399.812 231.973 405.969 239.27C407.495 242.866 408.647 246.574 409.014 250.496C407.23 259.19 405.076 267.821 402.809 276.439C402.43 274.517 401.689 272.625 400.852 270.769C400.825 269.479 400.887 268.146 400.703 267.187C399.735 261.381 398.905 255.991 395.589 250.947C393.378 247.698 391.166 244.243 388.678 241.133C386.191 237.886 382.942 235.328 380.178 232.357C380.592 234.016 381.075 235.605 381.768 237.263C385.43 246.247 386.743 257.029 393.033 264.769C395.12 267.363 397.727 269.894 400.274 272.161C401.23 274.264 402.014 276.385 402.272 278.478C401.779 280.342 401.284 282.206 400.785 284.07C400.667 284.513 401.302 284.671 401.461 284.256C402.493 281.538 403.464 278.787 404.381 276.009C406.682 272.765 409.739 269.954 412.979 267.316L413.49 267.049C416.116 265.667 417.775 263.733 420.677 262.765C429.11 260 439.061 256.683 440.444 246.456C441.273 240.098 440.719 233.186 440.444 226.828C440.162 220.329 441.129 213.418 439.747 207.061Z" fill="#76DCB1"/>
  </g>
  <defs>
    <clipPath id="clip0_1978_82796">
      <rect width="436" height="280" fill="white" transform="translate(0.271484)"/>
    </clipPath>
  </defs>
</svg>
