<svg width="146" height="120" viewBox="0 0 146 120" fill="none" xmlns="http://www.w3.org/2000/svg">
<g clip-path="url(#clip0_1642_13764)">
<path d="M174.662 319.101C125.975 339.544 72.5329 347.779 19.931 342.906C7.66184 341.774 -4.95025 340.364 -16.8591 336.961C-28.2395 333.71 -39.6069 327.45 -44.9439 316.161C-46.1258 313.655 -47.0271 310.922 -47.3183 308.153C-47.3738 307.639 -47.0762 304.916 -47.3204 304.615C-46.6376 305.475 -49.5476 310.012 -47.4743 306.513C-44.5552 301.6 -40.0726 297.817 -35.2714 294.916C-24.452 288.374 -11.4704 285.891 0.816988 283.831C50.4893 275.494 102.841 282.794 150.949 265.509C161.849 261.594 173.416 256.59 182.173 248.734C190.93 240.879 196.318 228.849 197.328 216.873C198.215 206.337 192.239 198.861 183.315 194.325C173.368 189.262 162.137 186.746 151.762 182.761C129.037 174.049 107.204 162.912 86.7078 149.622C76.3627 142.905 66.3597 135.646 56.7529 127.863C47.1461 120.079 37.9494 111.752 30.8068 101.593C27.3244 96.6439 24.3333 91.2857 22.3406 85.5348C20.3478 79.7839 20.0346 74.5437 20.1284 68.5771C20.1447 67.433 20.3444 68.2119 20.0001 68.9023C20.2911 68.3074 20.546 67.7008 20.8564 67.1203C22.0684 64.8291 23.6073 62.7129 25.233 60.7137C28.7096 56.4619 32.9994 52.8662 37.5579 49.8905C48.3246 42.8509 60.9469 39.5535 73.4866 37.5762C86.7438 35.4858 100.195 34.4104 113.577 33.4333C166.884 29.5504 220.616 31.23 273.658 38.4038C287.051 40.2134 300.398 42.3788 313.689 44.893C324.828 46.9968 336.734 48.5355 347.106 53.4706C351.294 55.468 355.551 58.1693 358.254 62.0827C359.462 63.8354 360.372 65.8095 360.87 67.8834C360.945 68.1941 361.254 70.8032 361.281 70.8163C360.556 70.6606 363.809 65.1544 362.193 67.0561C358.623 71.2529 355.39 75.1002 351.065 78.5795C345.972 82.6678 340.668 86.5018 335.457 90.4345C324.05 99.0564 312.644 107.678 301.229 116.301C290.968 124.054 279.328 131.249 270.472 140.697C261.615 150.146 256.258 164.105 256.874 176.801C257.329 186.245 263.466 192.301 271.877 195.271C279.592 197.993 287.996 198.637 295.375 202.38C304.735 207.135 308.48 217.324 305.637 227.384C302.032 240.152 296.322 252.582 291.657 264.968C286.659 278.226 281.663 291.493 276.665 304.751C271.667 318.009 266.671 331.276 261.673 344.534C260.859 346.693 257.921 353.927 259.598 356.05C261.071 357.909 263.449 351.025 263.67 350.424C274.165 322.574 284.652 294.725 295.147 266.875C300.368 253.024 306.383 239.222 310.183 224.872C313.03 214.132 315.869 199.985 308.352 190.434C302.715 183.263 293.583 181.47 285.285 179.44C276.988 177.411 267.616 174.968 264.282 166.247C263.814 165.014 263.47 163.7 263.349 162.386C263.3 161.862 263.452 161.089 263.316 160.605C262.725 158.485 263.1 164.011 262.352 163.659C262.028 163.501 267.655 156.94 268.204 156.409C272.918 151.875 278.336 148.111 283.54 144.188C295.397 135.225 307.256 126.27 319.105 117.308C329.893 109.159 341.57 101.549 351.483 92.2908C360.568 83.8084 366.26 72.1837 367.526 59.6098C370.097 34.1597 338.407 30.5122 320.632 27.1103C265.68 16.6039 209.669 12.0768 153.845 13.6115C140.087 13.9858 126.344 14.7324 112.634 15.8485C98.9237 16.9646 84.7733 18.0543 71.1575 20.9071C59.0647 23.4413 47.0318 27.6567 37.2331 35.4673C28.2621 42.6158 21.8934 52.1687 17.9886 63.0324C13.5799 75.3088 11.7154 88.7003 15.7427 101.389C19.4794 113.157 27.2791 123.308 35.7458 131.994C53.3213 150.024 75.1394 164.7 96.7491 177.188C118.697 189.866 141.845 199.854 165.832 207.679C174.828 210.617 186.715 214.581 190.171 224.624C190.548 225.715 190.512 227.115 190.927 228.121C191.7 229.986 191.947 224.179 192.345 224.046C191.899 224.195 190.645 226.545 190.38 226.874C189.445 228.05 188.411 229.137 187.326 230.171C183.19 234.091 178.366 237.065 173.383 239.733C125.753 265.255 69.1409 257.616 17.3923 264.12C-5.55542 267.007 -34.7178 270.934 -46.7174 293.906C-52.3724 304.732 -56.5923 319.453 -51.9053 331.446C-47.2183 343.438 -36.7627 350.26 -25.6282 354.012C-13.3 358.176 0.126107 359.597 12.9781 360.847C26.3424 362.147 39.7879 362.607 53.2048 362.234C80.293 361.474 107.274 357.325 133.325 349.879C145.925 346.28 158.294 341.916 170.387 336.837C173.058 335.719 174.349 328.614 174.946 326.106C175.179 325.145 176.73 318.226 174.645 319.103L174.662 319.101Z" fill="#BBEDD8"/>
<path d="M141.254 109.915C140.119 111.266 139.196 112.733 138.16 114.17C136.735 116.178 134.925 117.783 133.344 119.689C131.503 121.894 130.075 124.387 128.448 126.707C127.608 127.948 126.555 129.567 125.277 130.75C124.353 131.196 123.432 131.645 122.518 132.114C121.704 132.533 120.866 132.928 120.123 133.443C124.375 126.548 127.729 118.96 130.012 111.233C130.639 110.011 131.728 109.015 132.683 108.068C133.382 107.375 134.083 106.683 134.783 105.99C135.26 105.756 135.758 105.553 136.221 105.344C140.017 103.578 142.887 101.393 144.652 97.3443C146.721 92.5834 147.612 86.2437 147.469 81.0987C146.601 83.066 145.533 84.8608 144.337 86.6834C141.025 91.5523 138.671 96.2407 136.755 101.832C136.346 103.079 135.673 104.021 134.944 104.91C134.941 104.913 134.938 104.915 134.936 104.917C133.662 106.194 131.737 107.735 130.517 109.465C131.639 105.362 132.385 101.126 132.613 96.8824C133.394 95.1806 134.415 93.5641 135.453 91.9515C135.616 91.8202 135.782 91.6916 135.946 91.5605C138.091 89.8288 139.75 88.2156 140.508 85.4907C141.098 83.4221 141.487 81.4239 141.613 79.267C141.723 77.4099 142.178 75.2763 141.773 73.4094C141.461 74.5147 141.004 75.5846 140.549 76.6533C138.848 80.6882 136.328 84.2394 135.461 88.5791C135.303 89.3349 135.176 90.621 134.91 91.7711C134.049 93.1542 133.242 94.5713 132.651 96.0849C132.764 93.1049 132.615 90.1253 132.156 87.1874C132.265 86.3139 132.465 85.4447 132.59 84.5917C133.764 76.1963 128.334 68.1795 124.213 61.2273C123.963 62.6832 124.34 64.3002 124.461 65.7297C124.859 71.3046 124.06 76.5731 127.377 81.4346C128.695 83.4286 130.264 85.275 131.648 87.3095C132.169 91.093 132.203 94.9201 131.844 98.7307C131.564 97.9692 131.119 97.2458 130.641 96.5485C130.399 95.7585 130.293 94.9588 130.081 94.1664C129.256 90.7327 128.177 86.869 126.192 83.9289C123.301 79.541 119.617 76.349 116.008 72.6288C116.857 74.0621 117.033 75.9922 117.395 77.666C118.691 83.7741 121.18 88.5457 125.5 93.056C126.746 94.3778 128.253 95.2177 129.635 96.3095C130.602 97.6653 131.519 99.1157 131.636 100.607C131.258 103.565 130.654 106.508 129.865 109.409C128.623 113.97 126.916 118.322 124.951 122.559C125.029 121.21 124.81 119.819 124.525 118.458C124.666 117.876 124.869 117.291 124.986 116.701C125.647 113.647 125.202 111.102 124.705 108.056C124.248 105.324 123.246 103.06 122.331 100.455C121.192 97.0621 120.452 93.7717 118.64 90.633C118.356 92.932 118.615 95.2474 118.445 97.5754C118.154 101.332 117.319 105.072 118.242 108.834C119.211 112.967 122.133 115.985 123.905 119.648C124.155 121.294 124.239 122.947 123.977 124.606C122.322 128.007 120.521 131.344 118.675 134.663C118.721 133.83 118.615 132.97 118.465 132.115C118.59 131.58 118.757 131.036 118.782 130.62C118.995 128.121 119.222 125.807 118.385 123.374C117.815 121.799 117.267 120.139 116.568 118.592C115.884 116.988 114.812 115.589 113.984 114.07C113.98 114.799 114.012 115.506 114.123 116.264C114.686 120.361 114.09 124.952 115.87 128.812C116.458 130.104 117.267 131.424 118.08 132.629C118.252 133.599 118.352 134.557 118.238 135.449C117.837 136.166 117.436 136.884 117.033 137.601C116.937 137.771 117.183 137.904 117.293 137.749C118.006 136.736 118.697 135.702 119.369 134.652C120.662 133.555 122.221 132.717 123.838 131.97L124.077 131.914C125.307 131.62 126.197 130.997 127.497 130.904C131.272 130.652 135.731 130.334 137.382 126.256C138.396 123.718 138.897 120.806 139.455 118.151C140.025 115.438 141.154 112.686 141.254 109.915Z" fill="#76DCB1"/>
<path d="M28.821 66.551C31.3623 68.2459 33.6235 70.3091 35.9908 72.2418C36.1457 72.3336 36.3016 72.4224 36.4565 72.5158C38.0798 73.4954 40.538 74.901 42.333 76.6744C41.8476 75.5831 41.3241 74.5101 40.7536 73.4642C38.7468 69.7831 36.1883 66.5189 33.7545 63.1592C32.8063 62.9383 31.8615 62.598 30.9464 62.3444C28.2023 61.602 26.4245 59.0868 24.8007 56.7766C23.8736 55.4985 19.6989 50.0955 23.6795 50.7552C27.1198 51.2914 30.5208 53.6424 32.0284 57.024C32.5061 58.1194 32.704 59.7653 33.1497 61.1658C35.0613 63.7296 37.0126 66.2617 38.8128 68.9102C38.2883 67.1765 38.2797 65.3153 38.5656 63.4597C38.4303 62.5566 38.2816 61.6592 38.2128 60.7771C38.0196 58.7561 38.0196 47.4149 41.2662 48.6108C43.7789 49.5593 42.6959 55.8694 42.2713 57.6429C41.6435 60.1087 40.6207 62.424 39.5167 64.6658C39.3259 66.5658 39.3866 68.5015 39.9967 70.6168C40.0068 70.6535 40.0063 70.6867 40.0015 70.7178C40.6322 71.7107 41.239 72.7229 41.8065 73.7637C42.3779 74.8117 42.8957 75.8907 43.3691 76.9923C43.3758 76.2316 43.4379 75.4576 43.5297 74.6877C43.1601 73.5443 43.0846 72.1403 42.8843 71.0102C42.7207 70.0887 42.5357 69.1143 42.4998 68.1535C42.2043 68.1449 41.9088 68.0622 41.6468 67.8888C39.9752 66.7821 41.7644 63.6923 43.4671 64.577C43.9663 64.8362 44.1795 65.324 44.1934 65.8413C44.3392 66.352 44.2709 66.9015 43.9424 67.403C43.7009 67.7704 43.3433 68.0051 42.9541 68.1035C43.1214 69.1683 43.2099 70.2581 43.3916 71.3153C43.4853 71.8596 43.6364 72.4469 43.7621 73.0403C43.8793 72.2964 44.0045 71.5709 44.1112 70.8826C44.4464 68.7204 45.3477 66.803 46.3436 64.9311C45.5652 64.5281 44.979 63.5832 45.0923 62.6791C45.2386 61.5097 46.2825 60.8403 47.3052 60.7439C48.2921 60.651 49.4057 61.3684 49.7524 62.3597C49.8384 62.6051 49.8403 62.8464 49.7944 63.0781C49.9073 63.4775 49.8269 63.9071 49.4616 64.3286C48.8257 65.0622 47.7126 65.278 46.8294 65.1112C46.7257 65.0918 46.6248 65.0561 46.5253 65.0168C45.6436 66.925 44.9183 68.8893 44.5348 71.0076C44.269 72.4719 44.3665 74.003 44.4272 75.5214C44.7261 75.0392 45.1416 74.6004 45.571 74.2158C44.8552 73.0377 45.3649 71.1693 46.7515 70.7882C47.6452 70.5423 48.4657 71.2438 48.9017 72.0117C49.2575 72.6382 49.2125 73.3525 48.8534 73.9382C48.7851 74.1311 48.6851 74.3178 48.5412 74.4882C47.9201 75.2224 46.9762 75.3494 46.1859 74.8494C46.0558 74.7668 45.9439 74.6678 45.8416 74.5622C45.6714 74.7474 45.504 74.9377 45.3481 75.1397C44.8623 75.7683 44.7065 76.4367 44.4602 77.1509C44.4521 77.8678 44.4014 78.5744 44.268 79.2637C45.921 83.8086 46.8634 88.6708 47.3664 93.4758C47.3975 93.7753 47.4257 94.0774 47.4539 94.3784C47.7398 91.8672 48.3499 89.407 49.0925 86.9718C49.1279 85.9458 49.1432 84.9172 49.2288 83.9131C49.4607 81.3147 49.3445 78.7581 49.6151 76.2009C49.847 73.9739 50.9291 66.9627 53.6349 66.5913C55.0263 66.4265 55.9927 68.5709 56.456 69.6433C57.3453 71.9112 57.3836 74.3035 56.7266 76.6545C55.5021 81.2264 52.7346 85.6182 49.7366 89.1657C48.8687 92.2958 48.1147 95.46 47.812 98.76C47.8073 98.8115 47.79 98.8523 47.769 98.8886C47.8972 101.758 47.8914 104.674 47.7456 107.598C47.933 107.26 48.1386 106.929 48.3519 106.604C49.2819 105.184 50.2367 103.779 51.1777 102.366C51.4005 102.031 51.6267 101.691 51.8557 101.348C51.8557 101.323 51.8509 101.3 51.8567 101.273C52.0513 100.263 52.1885 99.2534 52.2794 98.2345C51.4723 98.3248 50.5877 97.8401 50.3137 97.008C49.6366 94.9498 52.6131 92.8401 54.0098 94.5983C54.4726 95.1804 54.3736 95.934 54.0021 96.5932C53.8214 97.1784 53.4494 97.6983 52.9301 98.0207C52.9038 98.0371 52.8737 98.0437 52.846 98.0585C52.8307 98.7559 52.7766 99.4488 52.6786 100.138C53.7568 98.5768 54.9297 97.0381 56.2542 95.7503C55.734 95.2161 55.5265 94.4136 55.7082 93.661C55.9324 92.735 56.8084 92.3248 57.638 92.4009C58.4862 92.4784 59.3196 92.9386 59.4315 93.907C59.4583 94.135 59.4147 94.3595 59.332 94.5728C59.3789 95.0039 59.2919 95.4386 58.9835 95.7932C58.4173 96.4437 57.4701 96.5024 56.7457 96.1212C55.0961 98.1559 53.4011 100.121 51.9002 102.317C51.3671 103.097 50.8473 103.888 50.3218 104.675C51.4402 104.025 52.8115 103.674 54.0375 103.246C53.7994 102.297 54.29 101.115 55.1076 100.592C56.4722 99.7187 58.2146 101.488 57.6556 103.007C57.5681 103.244 57.4214 103.467 57.2382 103.664C57.2119 103.704 57.1914 103.747 57.1617 103.788C56.5961 104.541 55.6799 104.761 54.8757 104.326C54.5463 104.147 54.3211 103.896 54.1757 103.609C53.6574 103.866 53.1295 104.097 52.5839 104.315C51.4995 104.748 50.5351 105.356 49.5071 105.874C49.4822 105.909 49.4597 105.945 49.4353 105.979C48.8267 106.84 48.1109 107.727 47.6829 108.726C47.2693 115.385 46.118 122.058 44.1336 128.295C44.9226 127.052 45.7637 125.861 46.5588 124.726C46.5803 124.695 46.6033 124.663 46.6248 124.632C46.8792 123.41 47.0723 122.17 47.4085 120.965C47.7456 119.758 48.1334 118.55 48.579 117.383C49.3651 115.325 50.569 113.588 51.8356 111.844C52.9019 110.376 54.2029 108.783 56.1079 108.74C61.5573 108.616 59.2001 116.08 57.2674 118.637C54.6519 122.075 50.8841 124.557 46.8395 125.547C45.0206 128.134 43.5675 130.839 42.1694 133.655C41.6942 134.795 41.1887 135.915 40.6484 137.01C40.5299 137.25 40.2028 137.039 40.3104 136.799C40.5715 136.217 40.8148 135.626 41.0592 135.035C41.0376 135.002 41.029 134.958 41.041 134.905C41.2872 133.863 41.4054 132.837 41.4336 131.823C41.4116 131.812 41.3939 131.792 41.3848 131.759C40.7474 129.356 39.2432 128.065 37.5405 126.766C37.3406 126.999 37.1044 127.21 36.8376 127.385C35.4606 128.292 33.3232 127.686 32.9914 125.851C32.7222 124.364 34.0036 122.938 35.3056 122.692C36.0974 122.542 36.8333 122.893 37.3645 123.514C37.4224 123.581 37.4654 123.656 37.5104 123.73C38.3815 124.508 38.3447 125.556 37.8016 126.412C39.4722 127.514 40.8952 129.126 41.4374 131.124C41.3652 126.56 39.3813 122.271 37.4176 118.177C36.8644 118.682 36.1032 118.902 35.3525 118.793C34.3857 118.652 33.6135 117.693 33.4442 116.706C33.2453 115.546 33.9209 114.658 34.8868 114.244C35.7756 113.862 36.7362 114.135 37.3851 114.812C38.1363 115.293 38.3935 116.307 38.0569 117.229C37.9531 117.513 37.8054 117.76 37.6266 117.971C39.0849 120.078 40.1072 122.608 40.8631 125.097C40.8454 123.668 40.9831 122.189 41.3073 120.784C40.4433 120.513 39.7706 119.68 39.8982 118.587C40.0618 117.184 41.391 116.043 42.7093 116.293C43.4356 116.43 44.0194 117.184 44.1136 117.938C44.1298 118.073 44.1236 118.252 44.0983 118.446C44.2508 119.366 43.6063 120.332 42.6906 120.722C42.4099 120.841 42.1192 120.887 41.8342 120.876C41.5402 122.661 41.3188 124.436 41.2356 126.287C41.2347 126.31 41.2289 126.329 41.2227 126.347C41.7467 128.351 42.0628 130.525 41.8481 132.607C42.0695 132.06 42.3186 131.521 42.5878 130.99C43.9529 127.006 44.9871 122.88 45.7029 118.678C45.4495 116.182 44.7576 113.901 43.8119 111.741C43.141 111.351 42.3717 111.147 41.6918 110.801C39.6046 109.687 37.4788 108.244 35.5069 106.882C33.2654 105.398 31.3719 103.418 30.0188 101.026C28.975 99.2529 27.2742 95.9126 28.1635 93.7264C30.1732 88.7361 39.8743 98.8401 41.1883 100.738C43.2826 103.796 43.525 106.827 44.0395 110.164C45.0053 112.333 45.7101 114.58 45.9893 116.83C46.8672 110.922 47.1536 104.901 46.9375 98.9707C46.1873 97.3376 45.3869 95.7661 44.498 94.2519C43.7177 94.0631 42.9632 93.5412 42.2325 93.2141C41.6009 92.931 40.9382 92.7529 40.2855 92.5437C40.1861 93.1315 39.7419 93.5896 39.2752 93.8896C38.0712 94.6621 36.3834 94.2855 36.0697 92.6825C35.834 91.4769 36.5402 90.2845 37.5859 89.8305C38.5934 89.3932 39.7323 90.0366 40.0436 91.1213C40.0871 91.2723 40.1029 91.4254 40.1072 91.5779C40.1736 91.685 40.2205 91.8024 40.2545 91.9248C40.987 92.0488 41.7075 92.307 42.4047 92.5514C42.8589 92.7111 43.3691 92.8993 43.8315 93.1554C43.2496 92.231 42.6318 91.3274 41.9595 90.4473C40.4223 88.4351 38.6053 86.7642 36.841 85.0131C36.6822 85.2065 36.49 85.3739 36.2834 85.5121C35.297 86.1723 33.766 86.1846 32.8719 85.3555C32.3435 84.8657 32.2866 84.056 32.4411 83.3774C32.6663 82.3856 33.371 81.5678 34.3139 81.3458C35.2812 81.1188 36.3461 81.5606 36.7028 82.5933C36.7181 82.6371 36.7214 82.6851 36.7329 82.7305C37.0351 83.0851 37.2569 83.5065 37.2412 84.007C37.2345 84.1907 37.1953 84.3611 37.1341 84.5198C38.9295 85.9366 40.6097 87.6519 42.1025 89.5519C41.6086 88.1014 41.3284 86.4172 41.4283 84.9351C41.3532 84.9407 41.2777 84.9443 41.2036 84.9402C39.4626 84.854 38.7641 82.1126 39.8222 80.828C40.7751 79.6718 42.5137 80.7861 43.044 81.8402C43.2209 82.1912 43.2921 82.5846 43.2448 82.9581C43.2553 83.2739 43.1946 83.5943 43.0387 83.9111C42.814 84.3662 42.3822 84.6836 41.9127 84.8366C42.0676 85.7167 42.1293 86.6162 42.2674 87.4994C42.4214 88.4851 42.6581 89.4504 42.7791 90.4412C44.4602 92.7315 45.8688 95.2463 46.8883 97.7973C46.8328 96.636 46.7654 95.4779 46.6726 94.3264C46.2829 89.4835 45.3195 84.6631 43.7048 80.1122C41.7157 77.2055 39.1079 75.2168 36.2906 73.5178C35.3358 73.2749 34.3192 73.2418 33.3811 73.0652C31.3714 72.6938 29.323 72.4877 27.3516 71.9515C25.3807 71.3739 18.23 69.2709 19.1189 65.9301C20.2019 61.8087 27.0428 65.3969 28.821 66.551ZM51.8629 97.1682C51.8495 97.1636 51.838 97.1564 51.8251 97.1508C51.8256 97.1559 51.8261 97.1605 51.8261 97.1656C51.838 97.1666 51.85 97.1672 51.8629 97.1682ZM57.0274 93.5447C57.0489 93.5274 57.0709 93.51 57.0933 93.4937C56.9996 93.4565 57.0422 93.4427 57.0274 93.5447ZM34.1729 124.439C34.1743 124.436 34.1767 124.433 34.1777 124.429C34.1681 124.443 34.1581 124.456 34.1485 124.47C34.1552 124.459 34.1648 124.45 34.1729 124.439ZM36.0362 123.655C36.0458 123.652 36.0544 123.65 36.064 123.648C36.0554 123.645 36.0463 123.645 36.0372 123.642C36.0367 123.647 36.0372 123.651 36.0362 123.655ZM41.1457 117.721C41.1467 117.72 41.1476 117.718 41.1486 117.717C41.1467 117.718 41.1448 117.72 41.1433 117.722C41.1433 117.722 41.1448 117.721 41.1457 117.721Z" fill="#76DCB1"/>
<path d="M119.72 35.7687C119.72 35.7687 112.582 32.5685 115.008 29.6793C117.434 26.7892 121.042 32.3233 121.529 33.63C121.529 33.63 120.429 26.8839 124.631 26.0595C128.834 25.2343 127.066 33.4489 126.713 33.5115C126.359 33.5734 131.027 28.4478 133.477 32.8786C135.927 37.3102 127.476 38.2174 127.476 38.2174C127.476 38.2174 134.497 38.8033 131.242 42.8241C127.987 46.845 124.247 41.6553 124.247 41.6553C124.247 41.6553 123.379 49.7544 119.094 47.1879C114.808 44.6214 119.51 38.7183 119.51 38.7183C119.51 38.7183 112.342 42.2919 111.624 38.3277C110.905 34.3628 119.72 35.7687 119.72 35.7687Z" fill="#76DCB1"/>
<path d="M122.894 34.8785C127.08 34.0138 128.977 37.3108 124.634 39.1028C120.289 40.8941 118.709 35.7424 122.894 34.8785Z" fill="#BBEDD8"/>
<path d="M27.4372 15.4012C27.4372 15.4012 21.8155 13.8633 23.2707 11.4582C24.7258 9.0526 28.0159 12.7133 28.524 13.6195C28.524 13.6195 26.941 8.77918 29.9405 7.69067C32.9399 6.60161 32.5795 12.8516 32.3266 12.9382C32.0736 13.0243 34.9226 8.71606 37.2336 11.6973C39.5452 14.6789 33.4278 16.3152 33.4278 16.3152C33.4278 16.3152 38.6638 15.942 36.728 19.275C34.7923 22.6081 31.4444 19.2161 31.4444 19.2161C31.4444 19.2161 31.7337 25.2779 28.2847 23.8795C24.8358 22.4812 27.621 17.5967 27.621 17.5967C27.621 17.5967 22.7535 21.0488 21.7703 18.2128C20.7869 15.3763 27.4372 15.4012 27.4372 15.4012Z" fill="#76DCB1"/>
<path d="M29.6722 14.3821C32.6544 13.2659 34.4288 15.4757 31.4365 17.2927C28.4435 19.1092 26.6898 15.4977 29.6722 14.3821Z" fill="#BBEDD8"/>
<path d="M74.4386 59.4253C74.4386 59.4253 67.4743 63.4421 66.5297 59.6813C65.5844 55.92 72.366 56.2488 73.7474 56.6306C73.7474 56.6306 67.4669 53.4835 69.3117 49.4871C71.1559 45.4903 76.9316 51.9105 76.7709 52.2425C76.6096 52.574 75.1528 45.5996 80.3179 46.2286C85.4841 46.8574 81.1494 54.4412 81.1494 54.4412C81.1494 54.4412 85.8663 48.9473 87.2539 54.0799C88.6416 59.2126 82.0674 59.201 82.0674 59.201C82.0674 59.201 88.2892 64.8018 83.5708 66.8247C78.8523 68.8475 76.7688 61.3763 76.7688 61.3763C76.7688 61.3763 75.4272 69.4979 71.6932 67.7086C67.9586 65.9189 74.4386 59.4253 74.4386 59.4253Z" fill="#BBEDD8"/>
<path d="M75.6095 56.2449C77.4105 52.2386 81.2987 52.6446 80.1748 57.3411C79.0498 62.0378 73.8079 60.2508 75.6095 56.2449Z" fill="#76DCB1"/>
<path d="M99.9678 76.4418C100.091 75.9634 100.77 75.9634 100.893 76.4418L102.091 81.1066C102.134 81.2753 102.266 81.4071 102.435 81.4504L107.1 82.6485C107.578 82.7714 107.578 83.4508 107.1 83.5736L102.435 84.7718C102.266 84.8151 102.134 84.9468 102.091 85.1155L100.893 89.7804C100.77 90.2587 100.091 90.2587 99.9678 89.7804L98.7697 85.1155C98.7264 84.9468 98.5947 84.8151 98.426 84.7718L93.7611 83.5736C93.2827 83.4508 93.2828 82.7714 93.7611 82.6485L98.426 81.4504C98.5947 81.4071 98.7264 81.2753 98.7697 81.1066L99.9678 76.4418Z" fill="#76DCB1"/>
<path d="M61.9156 9.76014C62.2389 9.35901 62.884 9.65252 62.794 10.1598L61.9164 15.1065C61.8847 15.2853 61.9529 15.4673 62.0943 15.5814L66.0058 18.7341C66.4069 19.0574 66.1134 19.7025 65.6062 19.6125L60.6595 18.7349C60.4806 18.7031 60.2986 18.7713 60.1846 18.9128L57.0319 22.8243C56.7086 23.2254 56.0635 22.9319 56.1535 22.4246L57.0311 17.478C57.0628 17.2991 56.9946 17.1171 56.8532 17.0031L52.9417 13.8503C52.5406 13.527 52.8341 12.8819 53.3413 12.9719L58.288 13.8495C58.4669 13.8813 58.6489 13.8131 58.7629 13.6716L61.9156 9.76014Z" fill="#76DCB1"/>
<path d="M88.0831 92.6736C88.1852 92.2761 88.7497 92.2761 88.8517 92.6736L89.8471 96.5492C89.8831 96.6893 89.9926 96.7988 90.1328 96.8348L94.0084 97.8302C94.4058 97.9323 94.4058 98.4967 94.0084 98.5988L90.1328 99.5942C89.9926 99.6302 89.8831 99.7397 89.8471 99.8798L88.8517 103.755C88.7497 104.153 88.1852 104.153 88.0831 103.755L87.0877 99.8798C87.0517 99.7397 86.9423 99.6302 86.8021 99.5942L82.9265 98.5988C82.5291 98.4967 82.5291 97.9323 82.9265 97.8302L86.8021 96.8348C86.9423 96.7988 87.0517 96.6893 87.0877 96.5492L88.0831 92.6736Z" fill="#BBEDD8"/>
<path d="M24.0051 25.9278C24.2626 25.6083 24.7764 25.842 24.7047 26.2461L24.0057 30.1859C23.9804 30.3284 24.0347 30.4734 24.1474 30.5642L27.2628 33.0752C27.5823 33.3327 27.3485 33.8465 26.9445 33.7748L23.0046 33.0759C22.8621 33.0506 22.7172 33.1049 22.6264 33.2175L20.1153 36.3329C19.8578 36.6524 19.344 36.4187 19.4157 36.0146L20.1147 32.0748C20.14 31.9323 20.0857 31.7873 19.973 31.6965L16.8576 29.1855C16.5381 28.928 16.7719 28.4142 17.1759 28.4859L21.1158 29.1848C21.2583 29.2101 21.4032 29.1558 21.494 29.0431L24.0051 25.9278Z" fill="#BBEDD8"/>
<path d="M99.3619 38.2776C99.4464 37.9488 99.9133 37.9488 99.9977 38.2776L100.821 41.4833C100.851 41.5992 100.941 41.6897 101.057 41.7195L104.263 42.5429C104.592 42.6273 104.592 43.0942 104.263 43.1786L101.057 44.002C100.941 44.0317 100.851 44.1223 100.821 44.2382L99.9977 47.4439C99.9133 47.7727 99.4464 47.7727 99.3619 47.4439L98.5386 44.2382C98.5088 44.1223 98.4183 44.0317 98.3024 44.002L95.0967 43.1786C94.7679 43.0942 94.7679 42.6273 95.0967 42.5429L98.3024 41.7195C98.4183 41.6897 98.5088 41.5992 98.5386 41.4833L99.3619 38.2776Z" fill="#BBEDD8"/>
</g>
<defs>
<clipPath id="clip0_1642_13764">
<rect width="146" height="119" fill="white" transform="translate(0 0.818848)"/>
</clipPath>
</defs>
</svg>
