<svg width="146" height="120" viewBox="0 0 146 120" fill="none" xmlns="http://www.w3.org/2000/svg">
  <g clip-path="url(#clip0_1461_67553)">
    <path d="M93.0359 199.457C75.7634 205.768 56.0104 204.443 36.7747 195.485C27.9233 191.361 18.0751 185.691 11.1316 175.644C8.11729 171.281 5.24553 165.467 4.81996 159.923C4.8399 160.195 4.58182 160.749 4.92053 159.933C5.28653 159.052 5.34109 157.63 5.60596 156.631C6.30916 154.029 7.25655 151.641 8.42193 149.459C18.1241 131.271 39.1098 128.582 44.4665 105.016C47.1427 93.2262 45.8967 79.4641 43.81 66.2596C42.9053 60.5428 41.7943 54.7146 41.4889 49.046C41.2603 44.7997 42.4766 40.8549 43.7823 37.5158C51.0325 19.0105 69.2167 15.3762 85.1224 28.5999C93.6569 35.6934 99.0117 45.6712 103.271 57.4157C105.595 63.8202 107.891 70.4834 111.686 75.9049C114.594 80.0597 118.125 83.1644 121.891 85.0735C141.803 95.1447 154.625 73.9921 166.953 61.712C173.974 54.7162 182.641 48.8627 192.903 51.7887C200.878 54.0658 210.007 61.8651 212.41 73.541C212.666 74.7824 212.671 75.7735 212.506 76.8392C212.076 79.6236 211.31 82.2248 210.453 84.7127C208.668 89.8897 206.203 94.4387 204.053 99.2706C199.382 109.782 197.169 121.471 198.379 135.331C199.525 148.469 204.35 161 209.244 173.366C211.357 178.698 213.485 184.033 215.097 189.563C216.516 194.422 218.082 200.031 218.16 204.939C218.142 203.847 217.946 206.349 217.868 206.724C217.373 209.037 216.48 211.009 215.404 212.777C214.265 214.65 214.5 218.659 214.59 221.232C214.607 221.797 215.208 227.669 215.868 226.586C221.049 218.083 221.107 204.127 219.408 192.058C217.709 179.99 213.206 168.289 208.649 156.705C206.102 150.23 203.575 143.678 201.854 136.914C201.092 133.917 200.343 130.723 200.203 127.724C200.206 127.809 200.209 126.617 200.19 127.294C200.167 128.214 200.341 126.125 200.361 126.005C200.583 124.471 200.945 123.021 201.35 121.614C204.477 110.69 210.61 102.514 213.195 91.1171C215.695 80.1046 216.556 63.7059 209.978 51.8434C204.299 41.6001 194.48 36.3984 186.467 36.9142C164.842 38.3203 156.681 69.426 136.037 73.0948C128.269 74.4721 118.54 71.6158 112.043 62.0153C107.996 56.0268 105.699 48.6722 103.131 41.7407C100.869 35.63 98.2696 29.8778 94.6512 24.7768C81.0202 5.56145 60.8186 0.631459 48.817 14.5314C42.6801 21.6467 39.7696 32.4286 39.3679 44.2581C39.1193 51.5037 39.6865 58.9554 40.7632 66.463C41.6432 72.644 42.8665 78.8636 43.5234 85.0314C44.7679 96.7479 38.7941 104.937 33.0379 110.781C25.5893 118.336 16.3927 123.049 10.0018 132.321C3.9803 141.053 1.7927 153.825 2.98077 167.228C4.16883 180.631 10.2646 190.989 19.0602 198.618C27.8559 206.247 38.7655 211.245 48.6395 214.218C58.9931 217.336 69.3403 218.288 79.1764 217.003C83.9025 216.384 88.4857 215.233 92.9205 213.61C94.2374 213.126 94.0344 208.494 94.048 206.885C94.0531 206.406 93.7159 199.229 93.0289 199.48L93.0359 199.457Z" fill="#CAEEF3"/>
    <path d="M32.9497 59.6036C32.7055 58.1055 31.6402 56.8959 30.2197 56.3965C29.0656 55.997 27.7673 56.108 26.6353 56.574C25.7032 55.2091 24.2272 54.177 22.607 53.8441C21.4751 53.6111 20.3654 53.7665 19.6885 54.7874C19.4776 55.0981 19.3556 55.5198 19.2224 55.9193C18.1682 55.3423 16.8587 55.198 15.7268 55.6308C14.5616 56.0747 13.7071 56.9514 13.2521 58.05C12.3532 57.7836 11.41 57.6727 10.5 57.9612C9.29038 58.3496 8.26944 59.3816 8.14737 60.68C8.0253 61.9118 8.8132 63.0548 9.87853 63.5986C10.5888 63.9648 11.3434 64.0758 12.1091 64.0536C12.1424 64.786 12.4309 65.5073 12.9081 66.1066C13.7959 67.2052 15.2052 67.5936 16.5591 67.294C17.2582 67.1386 17.9018 66.7724 18.4456 66.3174C18.723 66.0844 18.9561 65.818 19.178 65.5295C19.2224 65.4629 19.2779 65.3963 19.3223 65.3298C19.3778 65.3852 19.4332 65.4296 19.4554 65.474C19.6552 65.7182 19.8438 65.9512 20.088 66.162C20.6317 66.6281 21.2865 66.9832 21.9967 67.1497C23.4282 67.4826 24.8709 67.0831 25.9584 66.1066C26.48 65.6405 26.8684 65.0412 27.1125 64.3865C27.1791 64.2089 27.2568 64.0092 27.3123 63.8205C27.4121 63.8427 27.512 63.8538 27.623 63.876C28.9547 64.0869 30.4306 64.0092 31.5514 63.1769C32.6944 62.3335 33.1605 60.9907 32.9385 59.6036H32.9497Z" fill="#CAEEF3"/>
    <path d="M70.5295 62.0455C70.2979 61.5824 69.9035 61.1708 69.4318 60.9307C69.7405 60.3647 69.912 59.7301 69.7663 59.087C69.6033 58.3667 69.0202 57.835 68.3427 57.5777C67.3051 57.1747 66.2847 57.5434 65.5043 58.2209C65.4443 58.058 65.3585 57.9036 65.247 57.7492C64.8526 57.2004 64.2094 56.8488 63.5234 56.8746C62.8888 56.9003 62.2971 57.2433 62.0227 57.8264C62.0056 57.8693 61.9884 57.9036 61.9712 57.9465C61.7826 57.8521 61.5768 57.775 61.371 57.7321C59.9303 57.4234 58.6783 58.401 58.2838 59.7559C58.2238 59.9788 58.1638 60.2532 58.1466 60.5448C57.1433 60.9221 56.3544 61.9169 56.483 63.0145C56.6288 64.2837 57.8636 65.1669 59.0814 65.1241C59.15 65.5528 59.3815 65.9816 59.6731 66.2903C60.2562 66.9163 61.0794 67.3022 61.9198 67.4223C63.4119 67.6195 64.8183 66.8734 65.5901 65.6472C66.7477 66.3075 68.2313 66.4447 69.3889 65.7072C70.6238 64.9182 71.2069 63.3918 70.5295 62.0455Z" fill="#CAEEF3"/>
    <path d="M108.344 10.2927C108.721 9.74494 109.563 9.86726 109.768 10.4997L110.617 13.113C110.699 13.3642 110.899 13.5591 111.152 13.6343L113.786 14.4164C114.423 14.6057 114.567 15.4438 114.029 15.8347L111.806 17.4497C111.592 17.6049 111.469 17.8553 111.475 18.1193L111.546 20.8661C111.562 21.5309 110.81 21.9265 110.272 21.5356L108.049 19.9205C107.835 19.7652 107.559 19.7251 107.31 19.813L104.719 20.7285C104.092 20.9501 103.483 20.3565 103.689 19.7241L104.538 17.1109C104.62 16.8597 104.573 16.5845 104.412 16.3749L102.741 14.1938C102.336 13.666 102.713 12.9035 103.378 12.9035L106.125 12.9036C106.389 12.9036 106.637 12.7737 106.786 12.5562L108.344 10.2927Z" fill="#82D7E2"/>
    <path d="M13.1726 29.1822C13.2462 28.6811 13.8621 28.4821 14.2149 28.8455L15.6727 30.3469C15.8128 30.4912 16.0149 30.5573 16.2131 30.5236L18.2752 30.1737C18.7742 30.0891 19.1539 30.6138 18.9177 31.0616L17.9416 32.9122C17.8478 33.0901 17.8475 33.3028 17.9408 33.481L18.9114 35.3353C19.1463 35.784 18.7651 36.3073 18.2662 36.2208L16.2052 35.8631C16.0071 35.8287 15.8049 35.8941 15.6643 36.0378L14.2021 37.5337C13.8482 37.8958 13.2329 37.6945 13.1608 37.1931L12.8631 35.1214C12.8345 34.9223 12.7098 34.75 12.5297 34.6607L10.6554 33.7309C10.2017 33.5059 10.2027 32.8582 10.657 32.6349L12.534 31.7122C12.7144 31.6236 12.8396 31.4517 12.8688 31.2527L13.1726 29.1822Z" fill="#82D7E2"/>
    <path d="M12.6025 95.5021C13.2032 94.7668 14.3856 95.0395 14.6034 95.9637L15.5034 99.7824C15.5899 100.149 15.8514 100.45 16.2025 100.587L19.8567 102.009C20.7411 102.353 20.8469 103.563 20.0358 104.056L16.6841 106.093C16.362 106.289 16.1568 106.631 16.1353 107.008L15.9118 110.925C15.8578 111.873 14.7407 112.348 14.0216 111.728L11.0502 109.169C10.7646 108.923 10.3763 108.834 10.0118 108.93L6.21953 109.929C5.30172 110.17 4.50556 109.254 4.87227 108.378L6.38747 104.759C6.53309 104.411 6.49835 104.014 6.29458 103.697L4.17426 100.397C3.6611 99.5981 4.2861 98.5571 5.23188 98.6351L9.13974 98.9576C9.51531 98.9886 9.88213 98.8326 10.1207 98.5406L12.6025 95.5021Z" fill="#82D7E2"/>
    <path fill-rule="evenodd" clip-rule="evenodd" d="M34.2551 23.2872C36.2891 22.988 37.7374 21.0332 37.4875 18.9235C37.4792 18.8535 37.4709 18.7834 37.4569 18.7139C37.2798 18.8171 37.0967 18.9156 36.9014 19.0097C37.1119 20.786 35.896 22.4275 34.1831 22.6794C32.4703 22.9314 30.9082 21.6985 30.6978 19.9222C30.4929 19.8869 30.2876 19.8458 30.0925 19.7971C30.0951 19.868 30.1034 19.938 30.1118 20.0084C30.3617 22.1177 32.2153 23.5872 34.2551 23.2872ZM33.9637 20.8273C34.916 20.6872 35.6506 20.1154 35.7331 19.5028C35.1434 19.7024 34.5205 19.8653 33.8613 19.9623C33.202 20.0593 32.5572 20.0828 31.9409 20.0606C32.1685 20.6275 33.0115 20.9673 33.9637 20.8273ZM33.8474 19.8455C37.5153 19.3061 40.2473 16.8174 40.0923 15.5087C39.9656 14.4394 38.0267 15.01 35.334 15.5548L35.4475 16.5131C35.6572 18.2837 31.7293 18.8556 31.5203 17.0908L31.4067 16.1324C28.6794 16.3845 26.6739 16.394 26.8006 17.4634C26.9557 18.7724 30.1736 20.3856 33.8474 19.8452L33.8474 19.8455ZM38.3705 16.3146C38.7087 16.2649 38.9715 16.1133 38.9556 15.9789C38.9396 15.8446 38.6503 15.7742 38.3124 15.8239C37.9745 15.8736 37.7059 16.026 37.7218 16.1604C37.7377 16.2948 38.027 16.3651 38.3705 16.3146ZM28.5498 17.7591C28.888 17.7094 29.1507 17.5578 29.1348 17.4234C29.1189 17.2891 28.8296 17.2187 28.4917 17.2684C28.1538 17.3181 27.8851 17.4705 27.901 17.6049C27.917 17.7392 28.2119 17.8088 28.5498 17.7591ZM35.1085 14.6184C35.84 14.0174 36.2656 13.1581 36.1604 12.2701C35.9864 10.8031 34.4309 9.81926 32.69 10.0753C30.9491 10.3314 29.6761 11.7313 29.8498 13.198C29.9551 14.0863 30.5606 14.7936 31.4069 15.1625L31.6333 17.0732C31.8236 18.68 35.5262 18.1416 35.3352 16.5287L35.1088 14.618L35.1085 14.6184ZM34.4674 11.4311C34.7829 11.3847 35.083 11.7389 35.1404 12.2239C35.1979 12.7088 34.9908 13.1376 34.6751 13.1841C34.3593 13.2305 34.0532 12.8713 33.9965 12.3921C33.9397 11.9129 34.1517 11.4775 34.4674 11.4311Z" fill="#CAEEF3"/>
    <path fill-rule="evenodd" clip-rule="evenodd" d="M131.551 24.8611C132.37 23.3841 131.815 21.4639 130.314 20.5752C130.264 20.5457 130.214 20.5162 130.161 20.4906C130.141 20.6577 130.114 20.8263 130.078 21.0008C131.342 21.749 131.808 23.3613 131.118 24.6051C130.429 25.849 128.845 26.2541 127.58 25.5058C127.455 25.622 127.326 25.7355 127.197 25.8386C127.244 25.8722 127.294 25.9017 127.344 25.9313C128.846 26.8199 130.73 26.3424 131.551 24.8611ZM129.8 23.8249C130.183 23.1333 130.176 22.3686 129.817 22.0093C129.653 22.4939 129.449 22.9818 129.184 23.4605C128.918 23.9393 128.612 24.372 128.29 24.7632C128.774 24.8973 129.416 24.5164 129.8 23.8249ZM129.101 23.4113C130.577 20.7477 130.315 17.7233 129.383 17.172C128.622 16.7215 128.027 18.2719 127.041 20.3015L127.723 20.7052C128.983 21.451 127.398 24.3005 126.142 23.5571L125.46 23.1534C124.264 25.0597 123.271 26.3737 124.032 26.8241C124.964 27.3756 127.621 26.0791 129.1 23.4112L129.101 23.4113ZM129.051 18.6979C129.187 18.4523 129.219 18.2052 129.123 18.1486C129.028 18.092 128.837 18.2458 128.701 18.4912C128.565 18.7365 128.531 18.9879 128.626 19.0445C128.722 19.1011 128.912 18.9473 129.051 18.6979ZM125.097 25.8296C125.233 25.584 125.265 25.3369 125.17 25.2803C125.074 25.2237 124.884 25.3775 124.748 25.6229C124.612 25.8683 124.577 26.1197 124.673 26.1763C124.769 26.2329 124.961 26.075 125.097 25.8296ZM126.317 19.9818C126.289 19.2046 125.94 18.4982 125.308 18.1242C124.264 17.5064 122.846 18.0313 122.145 19.2955C121.444 20.5598 121.723 22.0889 122.768 22.7067C123.4 23.0809 124.164 23.0383 124.826 22.6697L126.187 23.4746C127.331 24.1514 128.825 21.4657 127.677 20.7863L126.317 19.9814L126.317 19.9818ZM123.916 18.8111C124.043 18.5821 124.424 18.5627 124.769 18.767C125.115 18.9713 125.291 19.3203 125.164 19.5496C125.037 19.7789 124.65 19.7996 124.309 19.5978C123.968 19.3959 123.789 19.0404 123.916 18.8111Z" fill="#CAEEF3"/>
    <path d="M107.456 84.3018C106.862 81.7129 104.825 79.6332 102.405 78.6995C100.007 77.7871 97.3761 77.978 94.9146 78.5934C93.5564 75.4104 91.6041 72.2485 87.9542 71.5058C86.0019 71.1026 84.0496 71.5482 82.5642 72.9063C82.3732 73.0761 82.1822 73.2671 82.0337 73.4793C79.7843 71.2299 76.7285 69.7657 73.503 70.3386C70.7443 70.8267 68.2403 73.0336 67.3915 75.7074C64.2296 74.0522 60.4948 73.5854 57.3754 75.8135C55.5292 77.1292 54.3408 79.1452 54.3621 81.437C54.3621 82.2646 54.5318 83.0922 54.8289 83.8561C53.1949 84.0047 51.6458 84.8323 50.5636 86.0843C48.8023 88.1427 48.5476 90.8377 49.6299 93.2781C51.6671 97.8405 56.7175 98.944 61.1951 98.0315C61.8529 102 65.036 105.607 69.0467 106.35C72.9301 107.05 76.8559 105.331 79.1052 102.254C82.3095 105.098 87.0417 106.095 91.0736 104.376C95.3178 102.573 97.9279 98.0951 97.8218 93.5964C102.809 93.1932 108.729 89.9252 107.456 84.323V84.3018Z" fill="#CAEEF3"/>
    <path fill-rule="evenodd" clip-rule="evenodd" d="M83.4438 78.1728C85.4603 80.9405 89.465 81.5621 92.3825 79.5596C92.4794 79.4931 92.5763 79.4266 92.668 79.3522C92.3787 79.1709 92.0916 78.9772 91.8015 78.7621C89.3449 80.4483 85.9825 79.9266 84.2843 77.5958C82.5861 75.265 83.1943 72.0065 85.6508 70.3203C85.5441 69.9908 85.4457 69.6562 85.3665 69.3307C85.264 69.3896 85.1671 69.4561 85.0698 69.5229C82.1527 71.5252 81.4214 75.397 83.4438 78.1728ZM86.8457 75.8377C87.7899 77.1335 89.2022 77.774 90.1695 77.4212C89.4183 76.7062 88.6956 75.9137 88.0419 75.0166C87.3883 74.1195 86.8541 73.1868 86.4096 72.2607C85.7498 73.0356 85.9016 74.5419 86.8457 75.8377ZM88.2034 74.9058C91.84 79.897 97.6261 81.9983 99.4359 80.756C100.915 79.7409 98.5715 77.3235 95.6824 73.7746L94.3571 74.6843C91.9085 76.365 88.0228 71.0154 90.4634 69.3402L91.7888 68.4304C89.3045 64.6037 87.7371 61.6537 86.2582 62.6687C84.448 63.9113 84.5614 69.9063 88.2038 74.9055L88.2034 74.9058ZM96.9139 78.8412C97.2492 79.3014 97.6762 79.5714 97.862 79.4439C98.0478 79.3163 97.9275 78.8352 97.5925 78.3753C97.2575 77.9155 96.8246 77.6375 96.6388 77.765C96.453 77.8925 96.5733 78.3737 96.9139 78.8412ZM87.177 65.4773C87.5123 65.9375 87.9394 66.2075 88.1252 66.08C88.311 65.9525 88.1907 65.4713 87.8556 65.0115C87.5206 64.5517 87.0877 64.2736 86.9019 64.4011C86.7161 64.5286 86.842 65.0175 87.177 65.4773ZM96.8887 72.7169C98.3416 73.3301 99.9384 73.2922 101.167 72.4492C103.195 71.0563 103.441 68.0004 101.715 65.6314C99.9891 63.2624 96.9386 62.4694 94.9103 63.8616C93.6818 64.7049 93.1076 66.1457 93.2192 67.6796L90.5768 69.4933C88.3547 71.0185 92.0165 76.0617 94.247 74.5307L96.8894 72.717L96.8887 72.7169ZM101.092 69.3027C101.405 69.7319 101.115 70.4489 100.445 70.9092C99.774 71.3695 98.9812 71.3963 98.6682 70.9667C98.3551 70.537 98.6477 69.8074 99.3104 69.3525C99.9731 68.8976 100.779 68.873 101.092 69.3027Z" fill="#82D7E2"/>
    <path d="M120.152 44.4687C121.544 47.1554 124.773 47.7839 127.053 46.305C128.421 48.2399 130.245 49.8421 132.476 50.1995C134.386 50.5076 136.481 49.8297 137.788 48.2399C139.833 50.2857 142.508 51.6044 145.293 50.791C146.71 50.372 148.066 49.3737 148.682 47.8332C149.927 44.7152 154.327 43.5813 153.402 38.7502C152.552 34.3258 146.982 33.3892 143.481 34.3998C142.89 34.5723 142.335 34.8311 141.83 35.1762C141.473 34.3874 140.856 33.7219 140.129 33.3029C140.031 33.229 139.932 33.1673 139.809 33.1304C139.476 32.9825 139.119 32.8716 138.761 32.8346C137.208 32.6744 135.816 33.6603 134.854 35.0037C133.77 33.648 132.168 32.8592 130.504 33.0934C128.705 33.3522 127.25 34.6832 126.536 36.4579C125.463 35.928 124.243 35.8171 123.072 36.1621C119.893 37.0865 118.537 41.3383 120.152 44.4564V44.4687Z" fill="#CAEEF3"/>
  </g>
  <defs>
    <clipPath id="clip0_1461_67553">
      <rect width="146" height="119" fill="white" transform="translate(0 0.601074)"/>
    </clipPath>
  </defs>
</svg>
