<svg width="436" height="280" viewBox="0 0 436 280" fill="none" xmlns="http://www.w3.org/2000/svg">
  <g clip-path="url(#clip0_1978_79390)">
    <path d="M198.43 527.778C129.064 552.217 52.8966 555.731 -18.4417 537.227C-51.2671 528.705 -87.3898 516.132 -110.621 489.966C-120.706 478.604 -129.701 463.04 -129.302 447.342C-129.325 448.111 -130.532 449.791 -128.915 447.334C-127.169 444.677 -126.431 440.59 -125.034 437.637C-121.343 429.935 -116.783 422.753 -111.454 416.083C-67.0749 360.481 15.3617 345.03 44.8651 275.653C59.6111 240.946 59.8646 202.049 56.6496 165.058C55.2528 149.043 53.0965 132.786 54.0074 116.688C54.6906 104.629 60.8699 92.8974 67.1719 82.8651C102.152 27.2615 174.066 10.1432 230.903 42.0791C261.401 59.2093 278.493 85.7641 290.679 117.777C297.33 135.233 303.776 153.44 316.5 167.541C326.249 178.348 338.803 185.921 352.711 189.989C426.265 211.427 483.847 146.192 536.228 106.514C566.066 83.91 601.864 63.965 640.609 68.5377C670.717 72.1005 703.258 91.0299 708.267 123.533C708.8 126.988 708.455 129.821 707.422 132.929C704.723 141.051 700.785 148.774 696.54 156.206C687.699 171.671 676.45 185.593 666.321 200.206C644.305 231.994 631.395 266.243 630.964 305.432C630.553 342.582 644.646 376.634 659.064 410.189C665.291 424.657 671.577 439.126 675.79 454.345C679.501 467.715 683.502 483.179 681.991 497.186C682.324 494.07 680.638 501.297 680.197 502.397C677.42 509.197 673.226 515.167 668.397 520.619C663.285 526.398 662.712 537.777 662.109 545.102C661.969 546.711 662.126 563.283 665.09 559.94C688.342 533.708 693.727 493.773 691.597 459.888C689.466 426.002 676.318 394.204 662.915 362.761C655.428 345.185 648.042 327.381 643.865 308.673C642.015 300.384 640.292 291.527 640.856 283.003C640.837 283.244 641.289 279.835 640.965 281.777C640.536 284.416 641.984 278.379 642.104 278.028C643.535 273.559 645.475 269.278 647.566 265.103C663.742 232.707 690.568 207.056 704.814 173.507C718.589 141.089 727.996 93.8722 706.852 62.3799C688.6 35.1856 652.421 23.9405 621.131 28.379C536.687 40.3974 493.514 132.373 412.042 150.499C381.385 157.311 344.684 152.74 323.02 127.687C309.529 112.057 303.336 91.8735 295.934 72.9999C289.412 56.361 281.453 40.8716 269.297 27.6217C223.503 -22.2906 146.927 -28.919 95.2104 15.2711C68.7628 37.8892 53.4804 69.8004 47.5467 103.78C43.9026 124.593 43.3484 145.694 44.7501 166.766C45.8798 184.118 48.3271 201.452 48.5956 218.849C49.0923 251.896 22.8809 277.524 -1.61919 296.366C-33.3202 320.726 -70.7534 337.607 -98.9848 366.488C-125.582 393.686 -138.795 431.021 -139.141 468.913C-139.487 506.804 -119.661 534.172 -88.3472 552.738C-57.0338 571.303 -16.5438 581.561 20.6763 586.413C59.704 591.499 99.5079 590.396 138.155 583.084C156.726 579.565 174.938 574.58 192.749 568.298C198.038 566.427 198.963 553.254 199.611 548.649C199.808 547.276 201.154 526.876 198.395 527.849L198.43 527.778Z" fill="#CAEEF3"/>
    <path d="M166.238 87.7406C166.26 86.4096 167.798 85.6816 168.841 86.5088L173.151 89.9265C173.565 90.2549 174.115 90.3585 174.62 90.2035L179.879 88.5909C181.151 88.2006 182.319 89.439 181.855 90.6866L179.936 95.8415C179.752 96.3369 179.823 96.8913 180.126 97.3241L183.285 101.827C184.05 102.917 183.233 104.41 181.903 104.354L176.407 104.122C175.879 104.1 175.374 104.339 175.056 104.761L171.75 109.157C170.949 110.221 169.277 109.905 168.919 108.623L167.441 103.325C167.299 102.816 166.916 102.409 166.416 102.237L161.214 100.451C159.954 100.019 159.738 98.3305 160.847 97.5942L165.429 94.5515C165.869 94.2591 166.138 93.7687 166.146 93.2402L166.238 87.7406Z" fill="#82D7E2"/>
    <path d="M98.3064 197.793C98.8576 197.421 99.5962 197.842 99.5563 198.506L99.3914 201.249C99.3756 201.513 99.4904 201.767 99.6986 201.93L101.865 203.62C102.389 204.03 102.216 204.862 101.573 205.029L98.9131 205.72C98.6575 205.787 98.451 205.974 98.3607 206.223L97.4221 208.805C97.1949 209.43 96.3497 209.523 95.9918 208.963L94.513 206.647C94.3709 206.424 94.1283 206.286 93.8644 206.277L91.1183 206.182C90.4537 206.159 90.1039 205.384 90.5263 204.871L92.2719 202.749C92.4396 202.545 92.4963 202.271 92.4234 202.017L91.6649 199.376C91.4813 198.737 92.1103 198.165 92.7293 198.408L95.2869 199.412C95.5327 199.509 95.8103 199.478 96.0291 199.331L98.3064 197.793Z" fill="#82D7E2"/>
    <path d="M276.366 131.061C276.917 130.689 277.656 131.111 277.616 131.774L277.451 134.517C277.435 134.781 277.55 135.035 277.758 135.198L279.924 136.889C280.448 137.298 280.276 138.13 279.632 138.298L276.973 138.988C276.717 139.055 276.51 139.243 276.42 139.491L275.482 142.073C275.254 142.698 274.409 142.791 274.051 142.231L272.572 139.915C272.43 139.693 272.188 139.554 271.924 139.545L269.178 139.45C268.513 139.427 268.163 138.652 268.586 138.139L270.331 136.017C270.499 135.813 270.556 135.539 270.483 135.286L269.724 132.645C269.541 132.005 270.17 131.433 270.789 131.676L273.346 132.681C273.592 132.777 273.87 132.747 274.089 132.599L276.366 131.061Z" fill="#82D7E2"/>
    <path d="M336.07 202.33C336.621 201.958 337.36 202.379 337.32 203.043L337.155 205.786C337.139 206.049 337.254 206.304 337.462 206.466L339.628 208.157C340.152 208.566 339.98 209.399 339.336 209.566L336.677 210.257C336.421 210.323 336.214 210.511 336.124 210.759L335.186 213.342C334.958 213.967 334.113 214.06 333.755 213.5L332.276 211.184C332.134 210.961 331.892 210.823 331.628 210.814L328.882 210.719C328.217 210.696 327.867 209.921 328.29 209.407L330.035 207.285C330.203 207.081 330.26 206.808 330.187 206.554L329.428 203.913C329.245 203.274 329.874 202.702 330.493 202.945L333.05 203.949C333.296 204.046 333.574 204.015 333.793 203.867L336.07 202.33Z" fill="#CAEEF3"/>
    <path d="M39.2377 53.4456C39.7888 53.0735 40.5274 53.4949 40.4875 54.1587L40.3227 56.9015C40.3068 57.1651 40.4217 57.4196 40.6299 57.5821L42.7959 59.2728C43.3201 59.682 43.1475 60.5147 42.5039 60.6818L39.8444 61.3726C39.5888 61.439 39.3822 61.6269 39.292 61.8751L38.3534 64.4575C38.1262 65.0825 37.281 65.1757 36.9231 64.6152L35.4443 62.2994C35.3021 62.0768 35.0596 61.9384 34.7957 61.9293L32.0496 61.8346C31.385 61.8117 31.0352 61.0366 31.4576 60.5231L33.2031 58.401C33.3709 58.1971 33.4276 57.9236 33.3547 57.6698L32.5961 55.0289C32.4126 54.3897 33.0416 53.8175 33.6606 54.0606L36.2182 55.0649C36.464 55.1614 36.7415 55.1308 36.9604 54.9831L39.2377 53.4456Z" fill="#CAEEF3"/>
    <path d="M145.575 249.716C146.126 249.344 146.865 249.766 146.825 250.429L146.66 253.172C146.644 253.436 146.759 253.69 146.968 253.853L149.133 255.544C149.658 255.953 149.485 256.785 148.842 256.953L146.182 257.643C145.926 257.71 145.72 257.898 145.63 258.146L144.691 260.728C144.464 261.353 143.619 261.446 143.261 260.886L141.782 258.57C141.64 258.348 141.397 258.209 141.133 258.2L138.387 258.105C137.723 258.082 137.373 257.307 137.795 256.794L139.541 254.672C139.709 254.468 139.765 254.194 139.692 253.941L138.934 251.3C138.75 250.66 139.379 250.088 139.998 250.331L142.556 251.336C142.802 251.432 143.079 251.402 143.298 251.254L145.575 249.716Z" fill="#CAEEF3"/>
    <path d="M227.963 57.5681C228.514 57.196 229.253 57.6174 229.213 58.2812L229.048 61.024C229.032 61.2876 229.147 61.5421 229.355 61.7046L231.521 63.3953C232.045 63.8045 231.873 64.6372 231.229 64.8043L228.57 65.4951C228.314 65.5615 228.108 65.7494 228.017 65.9976L227.079 68.58C226.852 69.205 226.006 69.2982 225.648 68.7377L224.17 66.4219C224.027 66.1993 223.785 66.0609 223.521 66.0518L220.775 65.9571C220.11 65.9342 219.76 65.1591 220.183 64.6456L221.928 62.5235C222.096 62.3196 222.153 62.0461 222.08 61.7923L221.321 59.1514C221.138 58.5122 221.767 57.94 222.386 58.1831L224.944 59.1874C225.189 59.2839 225.467 59.2533 225.686 59.1056L227.963 57.5681Z" fill="#CAEEF3"/>
    <path d="M336.48 69.4372C336.857 68.8894 337.698 69.0117 337.904 69.6442L338.753 72.2575C338.834 72.5086 339.034 72.7035 339.287 72.7787L341.922 73.5609C342.559 73.7501 342.703 74.5883 342.165 74.9791L339.942 76.5941C339.728 76.7493 339.604 76.9997 339.611 77.2637L339.681 80.0105C339.698 80.6753 338.946 81.071 338.408 80.6801L336.185 79.0649C335.971 78.9097 335.695 78.8695 335.446 78.9575L332.855 79.873C332.228 80.0945 331.619 79.5009 331.825 78.8685L332.674 76.2553C332.755 76.0042 332.708 75.7289 332.548 75.5193L330.876 73.3383C330.472 72.8104 330.848 72.0479 331.513 72.0479L334.261 72.0481C334.525 72.0481 334.772 71.9181 334.922 71.7006L336.48 69.4372Z" fill="#82D7E2"/>
    <path d="M19.8327 66.6163C20.5064 65.6375 22.0099 65.8561 22.377 66.9861L23.8939 71.6553C24.0397 72.1041 24.3969 72.4524 24.8493 72.5867L29.5556 73.9841C30.6946 74.3224 30.9514 75.8199 29.9901 76.5182L26.0181 79.4037C25.6364 79.681 25.4156 80.1284 25.4276 80.6001L25.5529 85.5079C25.5832 86.6957 24.2383 87.4026 23.2771 86.7042L19.3054 83.8183C18.9237 83.541 18.43 83.4692 17.9851 83.6264L13.3562 85.2621C12.2359 85.658 11.148 84.5974 11.5152 83.4674L13.0325 78.7984C13.1783 78.3496 13.094 77.8579 12.807 77.4834L9.82098 73.5865C9.09828 72.6434 9.77076 71.2809 10.9589 71.281L15.8684 71.2812C16.3402 71.2812 16.7818 71.0491 17.0493 70.6604L19.8327 66.6163Z" fill="#82D7E2"/>
    <path d="M33.1552 132.59C33.0775 131.405 34.393 130.644 35.3814 131.304L39.4651 134.029C39.8576 134.291 40.3538 134.343 40.7921 134.168L45.3519 132.349C46.4555 131.908 47.585 132.925 47.2632 134.068L45.9335 138.794C45.8057 139.249 45.9096 139.737 46.2113 140.099L49.3506 143.874C50.1104 144.787 49.4929 146.176 48.3056 146.223L43.4001 146.419C42.9287 146.438 42.4967 146.687 42.2449 147.086L39.6252 151.238C38.9912 152.243 37.4801 152.085 37.0682 150.97L35.3661 146.365C35.2025 145.923 34.8316 145.589 34.3743 145.473L29.6159 144.265C28.4643 143.972 28.1479 142.486 29.0806 141.75L32.9341 138.708C33.3044 138.416 33.5072 137.96 33.4764 137.489L33.1552 132.59Z" fill="#82D7E2"/>
    <path fill-rule="evenodd" clip-rule="evenodd" d="M89.4984 152.474C89.1448 155.936 85.9473 158.532 82.3611 158.267C82.242 158.258 82.1229 158.25 82.0042 158.231C82.1655 157.924 82.3184 157.607 82.4629 157.27C85.4826 157.493 88.1674 155.314 88.4652 152.398C88.763 149.483 86.5612 146.933 83.5415 146.711C83.4666 146.367 83.3817 146.023 83.2847 145.696C83.4047 145.696 83.5238 145.704 83.6434 145.713C87.2292 145.978 89.853 149.002 89.4984 152.474ZM85.3166 152.166C85.1511 153.787 84.2391 155.072 83.2093 155.257C83.5028 154.245 83.7316 153.179 83.8463 152.057C83.9609 150.935 83.9524 149.843 83.8686 148.802C84.8445 149.145 85.4822 150.545 85.3166 152.166ZM83.6478 152.043C83.01 158.286 79.006 163.092 76.7814 162.928C74.9635 162.794 75.7833 159.472 76.503 154.878L78.1321 154.998C81.142 155.22 81.815 148.535 78.815 148.313L77.1858 148.193C77.4079 143.562 77.2739 140.17 79.0918 140.304C81.317 140.468 84.286 145.789 83.6472 152.043L83.6478 152.043ZM78.0153 159.956C77.9565 160.532 77.7198 160.987 77.4914 160.97C77.263 160.954 77.1224 160.47 77.1811 159.894C77.2399 159.319 77.4775 158.854 77.7059 158.87C77.9343 158.887 78.075 159.371 78.0153 159.956ZM79.7228 143.24C79.664 143.816 79.4273 144.271 79.1989 144.255C78.9705 144.238 78.8298 143.754 78.8886 143.179C78.9473 142.603 79.185 142.138 79.4134 142.155C79.6418 142.171 79.7815 142.665 79.7228 143.24ZM74.9026 154.567C73.9411 155.849 72.5197 156.633 71.0102 156.521C68.5164 156.337 66.7362 153.78 67.0388 150.817C67.3415 147.854 69.6136 145.596 72.1068 145.78C73.6169 145.891 74.8585 146.862 75.5457 148.266L78.7937 148.506C81.5252 148.707 80.8919 155.009 78.1501 154.807L74.9021 154.567L74.9026 154.567ZM69.4646 153.721C69.4098 154.258 70.0313 154.739 70.8556 154.8C71.68 154.861 72.3897 154.478 72.4446 153.941C72.4995 153.404 71.8691 152.913 71.0545 152.853C70.2399 152.793 69.5195 153.184 69.4646 153.721Z" fill="#CAEEF3"/>
    <path fill-rule="evenodd" clip-rule="evenodd" d="M380.866 123.902C378.602 121.26 374.495 120.951 371.7 123.214C371.607 123.289 371.514 123.364 371.427 123.447C371.735 123.607 372.041 123.78 372.352 123.975C374.706 122.07 378.154 122.329 380.061 124.554C381.968 126.779 381.613 130.129 379.26 132.034C379.394 132.359 379.521 132.69 379.627 133.014C379.726 132.946 379.819 132.871 379.912 132.795C382.707 130.533 383.138 126.552 380.866 123.902ZM377.607 126.54C376.547 125.303 375.065 124.768 374.113 125.203C374.931 125.867 375.727 126.611 376.461 127.468C377.195 128.324 377.811 129.226 378.336 130.129C378.942 129.291 378.667 127.777 377.607 126.54ZM376.306 127.593C372.222 122.828 366.192 121.163 364.459 122.567C363.042 123.714 365.609 125.975 368.821 129.339L370.09 128.311C372.436 126.412 376.801 131.52 374.463 133.412L373.193 134.44C376.017 138.118 377.841 140.981 379.258 139.834C380.992 138.43 380.397 132.366 376.306 127.593L376.306 127.593ZM367.167 124.305C366.79 123.865 366.336 123.626 366.158 123.77C365.98 123.914 366.141 124.392 366.517 124.831C366.893 125.27 367.354 125.517 367.532 125.373C367.71 125.229 367.549 124.751 367.167 124.305ZM378.102 137.062C377.725 136.623 377.271 136.384 377.093 136.528C376.915 136.672 377.076 137.15 377.452 137.589C377.828 138.028 378.289 138.275 378.467 138.131C378.645 137.986 378.478 137.501 378.102 137.062ZM367.683 130.507C366.162 130.002 364.548 130.168 363.371 131.121C361.428 132.694 361.423 135.81 363.362 138.071C365.3 140.333 368.454 140.892 370.397 139.319C371.574 138.366 372.04 136.861 371.804 135.316L374.336 133.267C376.465 131.543 372.351 126.728 370.214 128.458L367.683 130.507L367.683 130.507ZM363.698 134.302C363.347 133.893 363.583 133.143 364.226 132.623C364.868 132.103 365.669 132.012 366.021 132.422C366.372 132.833 366.135 133.595 365.5 134.109C364.865 134.623 364.05 134.713 363.698 134.302Z" fill="#82D7E2"/>
    <path d="M130.227 88.8916C129.537 87.2339 128.362 85.7604 126.957 84.9009C127.877 82.8748 128.388 80.6032 127.954 78.3008C127.468 75.7222 125.731 73.8189 123.713 72.898C120.622 71.4552 117.582 72.7752 115.258 75.2003C115.079 74.6171 114.824 74.0645 114.491 73.512C113.316 71.5473 111.4 70.2887 109.357 70.3808C107.467 70.4729 105.704 71.7008 104.887 73.7882C104.835 73.9417 104.784 74.0645 104.733 74.218C104.171 73.8803 103.558 73.6041 102.945 73.4506C98.6535 72.3454 94.9239 75.845 93.7489 80.6953C93.5701 81.4934 93.3912 82.4757 93.3402 83.5195C90.3514 84.8702 88.0012 88.4311 88.3844 92.3605C88.8187 96.9037 92.4972 100.066 96.1246 99.9121C96.3289 101.447 97.0186 102.982 97.8872 104.087C99.6242 106.328 102.077 107.709 104.58 108.139C109.025 108.845 113.214 106.175 115.513 101.785C118.962 104.148 123.381 104.64 126.83 102C130.508 99.1754 132.245 93.7112 130.227 88.8916Z" fill="#CAEEF3"/>
    <path d="M258.449 161.833C256.929 153.875 251.718 147.482 245.53 144.612C239.396 141.807 232.665 142.394 226.368 144.286C222.894 134.501 217.9 124.781 208.563 122.498C203.569 121.259 198.575 122.629 194.775 126.804C194.287 127.326 193.798 127.913 193.418 128.565C187.664 121.65 179.848 117.149 171.597 118.911C164.54 120.411 158.134 127.195 155.963 135.414C147.875 130.326 138.321 128.891 130.342 135.74C125.619 139.785 122.579 145.982 122.634 153.027C122.634 155.571 123.068 158.115 123.828 160.464C119.648 160.92 115.685 163.464 112.917 167.313C108.411 173.641 107.76 181.925 110.528 189.427C115.74 203.452 128.659 206.844 140.113 204.039C141.795 216.237 149.938 227.327 160.197 229.61C170.131 231.763 180.173 226.479 185.927 217.02C194.124 225.761 206.229 228.827 216.543 223.543C227.399 217.999 234.076 204.235 233.805 190.405C246.561 189.166 261.706 179.12 258.449 161.899V161.833Z" fill="#CAEEF3"/>
    <path d="M266.368 208.292C266.168 206.818 265.296 205.627 264.132 205.135C263.187 204.742 262.123 204.852 261.196 205.31C260.433 203.967 259.224 202.951 257.897 202.623C256.97 202.394 256.061 202.547 255.506 203.552C255.334 203.858 255.234 204.273 255.125 204.666C254.261 204.098 253.189 203.956 252.262 204.382C251.307 204.819 250.607 205.682 250.235 206.763C249.498 206.501 248.726 206.392 247.981 206.676C246.99 207.058 246.154 208.074 246.054 209.352C245.954 210.564 246.599 211.689 247.472 212.224C248.053 212.585 248.671 212.694 249.299 212.672C249.326 213.393 249.562 214.103 249.953 214.693C250.68 215.774 251.834 216.156 252.943 215.862C253.516 215.709 254.043 215.348 254.488 214.9C254.716 214.671 254.907 214.409 255.088 214.125C255.125 214.059 255.17 213.994 255.207 213.928C255.252 213.983 255.297 214.027 255.316 214.07C255.479 214.311 255.634 214.54 255.834 214.747C256.279 215.206 256.815 215.556 257.397 215.72C258.57 216.047 259.751 215.654 260.642 214.693C261.069 214.234 261.387 213.644 261.587 213C261.642 212.825 261.705 212.628 261.751 212.443C261.833 212.465 261.914 212.476 262.005 212.497C263.096 212.705 264.305 212.628 265.223 211.809C266.159 210.979 266.541 209.657 266.359 208.292H266.368Z" fill="#CAEEF3"/>
    <path d="M338.623 234.65C339.157 232.346 341.488 230.485 344.595 229.717C347.119 229.102 349.959 229.273 352.435 229.99C354.474 227.89 357.703 226.303 361.247 225.791C363.723 225.432 366.15 225.671 367.631 227.242C368.092 227.72 368.359 228.368 368.65 228.983C370.956 228.095 373.821 227.873 376.297 228.539C378.845 229.222 380.715 230.57 381.71 232.26C383.676 231.851 385.739 231.68 387.73 232.124C390.376 232.721 392.609 234.309 392.876 236.306C393.143 238.201 391.419 239.96 389.089 240.796C387.536 241.359 385.885 241.53 384.21 241.496C384.137 242.623 383.506 243.732 382.462 244.654C380.52 246.344 377.438 246.942 374.476 246.481C372.947 246.242 371.539 245.678 370.35 244.978C369.743 244.62 369.233 244.21 368.747 243.766C368.65 243.664 368.529 243.562 368.432 243.459C368.311 243.544 368.189 243.613 368.141 243.681C367.704 244.057 367.291 244.415 366.757 244.739C365.568 245.456 364.135 246.003 362.582 246.259C359.45 246.771 356.295 246.156 353.916 244.654C352.775 243.937 351.926 243.015 351.391 242.008C351.246 241.735 351.076 241.428 350.955 241.137C350.736 241.172 350.518 241.189 350.275 241.223C347.362 241.547 344.134 241.428 341.682 240.147C339.182 238.85 338.162 236.784 338.648 234.65H338.623Z" fill="#CAEEF3"/>
    <path fill-rule="evenodd" clip-rule="evenodd" d="M197.025 141.99C202.184 149.07 212.428 150.661 219.891 145.538C220.138 145.368 220.386 145.198 220.621 145.007C219.881 144.544 219.146 144.048 218.404 143.498C212.12 147.811 203.519 146.477 199.175 140.515C194.831 134.552 196.387 126.217 202.671 121.904C202.398 121.061 202.146 120.205 201.943 119.372C201.681 119.523 201.434 119.693 201.185 119.864C193.723 124.986 191.852 134.89 197.025 141.99ZM205.727 136.017C208.143 139.332 211.755 140.97 214.23 140.068C212.308 138.239 210.459 136.212 208.787 133.917C207.115 131.622 205.749 129.236 204.612 126.867C202.924 128.849 203.312 132.703 205.727 136.017ZM209.2 133.633C218.503 146.401 233.304 151.776 237.933 148.599C241.716 146.002 235.722 139.818 228.332 130.74L224.942 133.067C218.678 137.366 208.738 123.682 214.982 119.397L218.372 117.069C212.017 107.28 208.008 99.7342 204.225 102.331C199.594 105.509 199.884 120.845 209.201 133.633L209.2 133.633ZM231.482 143.7C232.34 144.877 233.432 145.568 233.907 145.242C234.383 144.916 234.075 143.685 233.218 142.509C232.361 141.333 231.254 140.621 230.778 140.947C230.303 141.274 230.611 142.505 231.482 143.7ZM206.575 109.515C207.433 110.692 208.525 111.383 209 111.057C209.476 110.731 209.168 109.5 208.311 108.324C207.454 107.147 206.347 106.436 205.871 106.762C205.396 107.088 205.718 108.339 206.575 109.515ZM231.418 128.034C235.134 129.603 239.219 129.506 242.36 127.35C247.549 123.786 248.179 115.969 243.764 109.909C239.349 103.85 231.545 101.821 226.357 105.382C223.214 107.539 221.746 111.225 222.031 115.149L215.272 119.788C209.587 123.69 218.955 136.59 224.66 132.674L231.419 128.034L231.418 128.034ZM242.171 119.301C242.971 120.399 242.229 122.233 240.514 123.41C238.798 124.588 236.77 124.656 235.97 123.557C235.169 122.458 235.917 120.592 237.612 119.428C239.308 118.264 241.37 118.201 242.171 119.301Z" fill="#82D7E2"/>
    <path d="M375.35 91.5096C378.679 99.227 386.397 101.032 391.846 96.7843C395.116 102.342 399.476 106.944 404.808 107.971C409.374 108.856 414.382 106.909 417.505 102.342C422.395 108.219 428.787 112.007 435.445 109.67C438.833 108.467 442.073 105.599 443.546 101.174C446.521 92.2177 457.038 88.9608 454.829 75.0837C452.796 62.3749 439.481 59.6844 431.115 62.5873C429.701 63.0829 428.375 63.8263 427.167 64.8175C426.313 62.5519 424.84 60.6403 423.102 59.4366C422.866 59.2242 422.631 59.0472 422.336 58.941C421.541 58.5162 420.686 58.1976 419.832 58.0914C416.12 57.6312 412.791 60.4633 410.494 64.3219C407.901 60.4279 404.072 58.1622 400.095 58.8348C395.794 59.5782 392.318 63.4015 390.609 68.4992C388.046 66.977 385.13 66.6584 382.331 67.6496C374.731 70.3046 371.491 82.5179 375.35 91.4742V91.5096Z" fill="#CAEEF3"/>
  </g>
  <defs>
    <clipPath id="clip0_1978_79390">
      <rect width="436" height="280" fill="white"/>
    </clipPath>
  </defs>
</svg>
