<svg xmlns="http://www.w3.org/2000/svg" width="146" height="120" fill="none" xmlns:v="https://vecta.io/nano"><g clip-path="url(#A)"><g fill="#ffcdda"><path d="M60.853 227.972c27.955 6.896 56.184 4.612 82.571-3.592s50.869-22.131 72.559-41.412c17.691-15.729 34.731-35.832 43.821-62.182 3.519-10.206 5.754-21.6 5.309-33.437-.27-7.274-1.571-14.57-3.122-21.718-1.4-6.442-3.145-12.792-5.739-18.725-14.308-32.756-44.975-45.586-70.178-45.549-15.159.021-30.606 2.729-44.481 9.206-15.576 7.269-29.733 21.369-32.933 44.292-1.597 11.443.438 23.561 3.52 35.001 2.342 8.701 8.575 19.67 15.571 12.911 3.051-2.948 4.099-7.954 3.64-13.132-.537-6.122-1.939-12.724-3.743-18.584-3.181-10.332-9.968-18.478-17.327-23.513-8.614-5.893-18.092-7.599-27.19-7.306-9.047.284-18.171 1.968-26.628 5.279-14.961 5.864-28.159 19.192-29.181 41.679-.229 5 .333 10.014 1.219 15.026 1.034 5.871 2.212 12.006 4.293 17.554 3.591 9.582 10.201 14.566 16.378 20.813 1.563 1.578 3.083 3.266 4.422 5.19.746 1.075 1.431 2.219 2.03 3.445-.009-.02.729 1.818.822 1.859-.457-.199-.972-9.119-.795-3.795.191 5.721-1.275 11.144-3.406 15.702-4.494 9.624-12.281 14.721-19.57 20.009-7.396 5.374-14.058 11.519-18.588 21.12-3.856 8.171-6.108 17.883-6.498 27.936-.459 11.814 1.73 24.245 4.9 35.763 2.783 10.108 7.095 19.557 12.889 27.421 2.756 3.747 5.807 7.098 9.085 9.951 3.455 3.002 6.989 4.762 10.766 6.594.31.153-.618-6.013-.714-6.475-.235-1.161-.795-5.704-1.859-6.22-7.549-3.664-15.042-10.961-20.627-18.848-2.649-3.745-5.011-7.841-7.013-12.205-.97-2.116-1.849-4.284-2.617-6.517-.389-1.126-.736-2.26-1.074-3.403-.111-.371-.201-.747-.297-1.121.023.097.228 1.497.151.647-1.848-20.26 2.685-39.734 14.069-51.923 11.603-12.418 30.183-17.168 33.05-40.103.637-5.096-.131-10.247-1.142-15.418s-2.128-10.947-4.71-15.539c-4.477-7.975-11.598-11.863-16.922-18.593-1.326-1.68-2.511-3.516-3.531-5.528s-1.564-4.736-2.614-6.677c.023.039 1.066 7.143.903 4.124-.03-.568-.114-1.14-.155-1.706-.079-1.125-.123-2.257-.131-3.373a55.16 55.16 0 0 1 .433-7.419c1.2-9.381 4.7-17.464 9.828-23.56 11.552-13.737 29.21-17.825 45.036-18.476s35.296 5.794 43.689 27.277c.111.284.408 1.464.597 1.625-.447-.375-.671-7.23-.845-3.721-.07 1.414-.031 2.778-.294 4.155-.437 2.28-1.365 4.294-2.631 5.833-2.362 2.873-5.811 3.834-9.034 1.595-1.685-1.171-3.06-3.053-4.14-5.133-.51-.973-.961-2.008-1.352-3.062-.178-.475-.311-1.053-.516-1.502-.804-1.79.281 3.52.322 1.748.048-2.6-.394-5.314-.315-7.949a61.57 61.57 0 0 1 .869-8.725c6.969-40.318 44.115-49.802 71.824-51.178 24.787-1.231 54.955 8.344 71.709 38.365 2.575 4.615 4.808 9.627 6.384 14.89.151.502.664 2.825.488 1.667-.129-.818-.603-3.736-.312-1.38.308 2.513.508 5.017.566 7.525.259 11.174-1.859 21.849-5.173 31.517-8.28 24.183-23.348 43.14-39.196 58.298-19.445 18.606-41.69 32.45-65.075 41.75-24.103 9.591-49.789 14.754-75.914 12.442a130.74 130.74 0 0 1-18.444-2.983c.29.07.779 11.079 2.325 11.463l-.009.009z"/><path d="M42.433 151.692c.144-.021.297 0 .445.008l1.186.158c1.163.211 2.154.954 2.91 1.838l.295.403-.151-.565-1.709-7.161c-2.291.487-4.503-1.227-5.428-3.253-.272-.581-.499-1.182-.717-1.785-.354-.902-.631-1.673.715-1.345.827.198 1.649.457 2.398.866.921.554 1.768 1.268 2.435 2.115l-.287-2.215-.235-3.402c-.631.021-1.441-.388-1.952-.667-1.245-.671-2.081-1.871-2.726-3.102-.358-.679-.61-1.402-.872-2.128l-.102-.288c-.051-.285.206-.378.44-.322a10.5 10.5 0 0 1 1.807.276c1.701.496 2.616 2.178 3.241 3.721l-.387-5.056-.042-2.077c-.017-.005-.032-.005-.044-.011-.318-.13-.623-.299-.916-.476-1.388-.742-2.411-2.022-3.07-3.439-.235-.624-.93-1.713.332-1.428 1.238.146 2.452.642 3.276 1.6a5.18 5.18 0 0 1 .501.653l.148-2.851a.31.31 0 0 1-.074-.122l-1.357-2.575-.219-.448-.171-.016c-.071-.017-.145-.044-.209-.073-.033.005-.062.01-.099.006-1.24-.326-2.58-1.154-3.121-2.357-.229-.575-.232-1.213-.065-1.804.167-.892.656-1.406 1.486-1.732 1.215-.584 2.72.21 3.149 1.44.373 1.182.002 2.441-.234 3.617a5.93 5.93 0 0 1-.195.585c.003.009.009.012.007.023.009.042.002.085-.011.124l.154.277c.38.653.714 1.335 1.011 2.028-.147-.344.061-1.178.084-1.558l.119-1.685.369-3.487.556-3.329c.072-.355.282-.678-.04-.934-.242-.193-1.015-.133-1.328-.11-1.308.098-2.739.596-4.003.944l-.433.123c-.006.012.001.035 0 .046.009 1.63-.574 3.339-1.85 4.41-1.244.996-3.348 1.062-4.589.027-.932-.918-1.012-2.41-.451-3.544.463-1.128 1.692-1.637 2.784-1.976.99-.267 3.465-.682 3.892.573 1.431-.584 2.973-.821 4.489-1.11l.813-.145-.22-.2c-.813-.735-1.686-1.406-2.579-2.044l-.309-.213c-.628-.015-1.248-.022-1.885.015-1.226.046-2.459-.007-3.681.118a5.9 5.9 0 0 1-1.47 2.33c-.411.458-.887.856-1.432 1.146-.387.205-.807.369-1.245.414-.837.037-1.701-.149-2.464-.493-.893-.468-2.084-1.644-1.97-2.731.015-.628.254-1.232.683-1.696.576-.667 1.313-1.219 2.178-1.436.986-.28 2.023-.085 2.971.24.957.322 1.955.801 2.457 1.726.019.074.112.02.186.016l1.955-.219 2.871.036.073.007-1.6-1.121c-.441-.326-.92-.615-1.315-1.001-.081-.095-.125-.216-.149-.339-.004-.014-.009-.012-.026-.002-1.311.189-2.639.689-3.973.367-1.589-.396-2.919-1.583-3.279-3.212-.536-1.848.829-3.014 2.493-3.405 1.585-.402 3.168.604 3.928 1.959.551.985.968 2.052 1.233 3.148.094.372.116.757.186 1.131.01.032.027.037.06.062 1.942 1.403 4.051 2.592 5.823 4.221-.438-.819-.753-1.724-.755-2.658-.041-.504.204-.995.121-1.49-.203-.524-.664-.898-.98-1.35-.364-.477-.675-.995-.844-1.569-.395-1.235.693-2.97 1.858-3.394.849-.267 1.705.288 2.302.851.924.845 1.184 2.32.358 3.318-.258.354-.574.656-.874.973-.438.452-.746 1.012-1.178 1.467-.278 1.346-.053 2.394.571 3.606l.874 1.555a1.43 1.43 0 0 1 .078.135l.21-.866.952-3.43c.386-2.491 1.822-4.697 2.25-7.162.011-.061.021-.126-.004-.183-.03-.069-.102-.108-.17-.142-1.031-.513-1.827-1.103-2.982-1.314-.867-.158-1.743-.257-2.621-.332l-1.318-.098c-.616-.015-.607.151-1.065.533-.518.437-1.148.729-1.801.903-.905.264-1.909.38-2.772-.088-.982-.57-1.798-1.786-1.604-2.954.302-1.569 2.233-2.302 3.674-2.116 1.522.156 3.395.999 3.529 2.72.036.049.067.099.072.163.01.017-.002.011.024.012l.78.097 3.576.643c.997.209 2.003.766 2.926 1.13.127.05.264.102.39.056.103-.038.177-.137.237-.232.666-.997 1.08-2.059 1.422-3.204-.219-.594-.379-2.338-.941-2.636-.184-.097-.397-.12-.599-.171-2.326-.585-3.477-3.899-2.446-5.899.748-1.331 2.435-2.007 3.906-1.67.683.188 1.285.639 1.755 1.167.606.7.935 1.665.828 2.589-.322 1.52-1.361 2.843-2.482 3.879.03.061.029.137.005.204-.009.033-.025.033-.014.065l.507 1.803c.01.047.026.097.041.143l2.035-2.983 1.455-2.079c-.022-.084-.034-.17-.041-.253-.09-.815-.292-1.62-.437-2.433-.284-1.281-.005-2.621.643-3.753.436-.803 1.055-1.619 1.985-1.836 1.751-.4 2.847 1.013 2.862 2.647.022 1.546-.437 3.235-1.644 4.269-.759.675-1.761.95-2.582 1.525-.056.028-.12.033-.184.024l-2.076 3.202-1.533 2.541 2.02-.848 1.947-.919c.677-.257 1.34-.554 2.062-.67-.112-1.371.115-2.75.645-4.015.535-1.232 1.239-2.643 2.582-3.128 1.834-.471 3.865.914 4.354 2.692.28 1.614-1.052 3.07-2.171 4.066-.7.606-1.639.751-2.538.767-.833.005-1.731.243-2.533-.033-.208.137-.507.127-.744.218-.69.201-1.36.475-2.015.77l-1.762.9-1.863.727-.379.151c-.648 1.162-1.248 2.349-1.765 3.575l-.689 1.803.052-.042c2.026-1.691 4.311-2.605 6.632-3.798 1.815-.883 3.797-1.403 5.824-1.575.038-.007.021.003.035-.046.045-.22.137-.436.242-.64.765-1.456 2.397-2.4 4.032-2.426 1.59-.041 3.272.867 3.855 2.389.332.959-.232 1.959-.926 2.603-1.1 1.101-2.442.817-3.762.35-1.196-.391-2.311-1.019-3.43-1.581-.408-.205-2.08.392-2.542.507-.669.166-1.234.436-1.854.695l-4.39 1.912c-1.049.552-2.081 1.143-3.037 1.846-1.258.925-1.558 2.309-2.009 3.753l-1.482 5.293 1.197-.654 4.132-1.77c1.849-.722 3.712-1.419 5.651-1.859.709-.171 1.428-.281 2.151-.392.631-.146 1.478-.171 1.767-.852.385-.696.787-1.402 1.399-1.925.972-.888 2.296-1.162 3.573-1.208 1.313-.089 3.064.341 4.09 1.178.944.909 1.274 2.381 1.02 3.643-.248.843-.793 1.605-1.44 2.189-1.188 1.014-2.759.753-4.165.459-.871-.163-1.649-.598-2.437-.989-.387-.192-.99-.387-1.312-.661-.329-.279-.308-.748-.62-1.044-.867-.823-3.022.041-3.976.279-1.507.377-2.977.888-4.426 1.447l-6.465 2.737-.314.151c-.692 2.97-1.038 6.005-1.235 9.048.918-.6 1.961-.969 2.95-1.427l.755-.311c.005-.017.015-.031.02-.047l.867-2.237c-.006.022-1.341-1.498-1.444-1.721-.293-.63-.221-1.252.086-1.88.422-.866.683-1.513 1.517-2.027.647-.398 1.433-.735 2.185-.443 1.203.354 2.065 1.681 1.836 2.925-.174.774-.517 1.542-1.14 2.058-.301.268-.656.462-1.004.663-.478.264-.941.608-1.486.727a7.74 7.74 0 0 1-.639 1.631c-.009.018-.017.041-.031.061.309-.434 2.092-.615 2.603-.703 1.194-.207 2.083-.343 3.105-1.034 1.79-1.211 3.607-1.158 5.455-.103 1.107.616 2.086 1.619 2.082 2.957.079 1.015-.302 2.071-1.106 2.715-.97.783-2.358 1.032-3.553.705-.804-.235-1.509-.728-2.146-1.257-1.288-1.151-1.609-1.887-2.132-3.489-1.241.141-2.483.358-3.673.754l-3.161 1.222-.735.296c1.674.786 3.359 1.578 4.806 2.738.336-.268.787-.337 1.202-.39 1.249-.163 2.581-.147 3.697.515.761.445 1.42 1.109 1.801 1.906.246.58.522 1.175.603 1.807.069.953-.328 1.989-1.072 2.599-.711.494-1.614.798-2.48.744-.99-.11-1.968-.481-2.76-1.086-.928-.779-1.585-1.89-1.898-3.056-.133-.807.029-1.824.459-2.524.005-.016.046-.045.01-.048l-.819-.487-3.895-2.296c-.118-.037-.182-.097-.217-.161l-.69.371-.097 1.881-.236 5.934.06 1.664c.515-.934 1.15-1.649 2.217-2.212.515-.275 1.061-.47 1.627-.601.383-.122.629.035.605.445-.048 1.091-.163 2.208-.537 3.237-.539 1.63-2.074 2.282-3.556 2.831l.233 2.016.631 6.165 1.503 7.412c.055-.329.132-.655.246-.973.539-1.408 1.417-2.639 2.381-3.787.242-.233.569-.86.963-.665.255.155.263.509.356.766.274 1.093.506 2.21.488 3.346-.029 2.17-1.589 4.126-3.374 5.236l1.301 4.678 1.797 5.726.014-.19c.202-2.572 1.253-5.758 3.84-6.797.189-.085.386-.269.592-.144.261.188.164.606.204.889l.114 1.818c.081 1.587-.106 3.325-1.217 4.55-.685.717-1.435 1.404-2.305 1.888-.152.074-.318.137-.481.194l1.253 3.318 2.984 6.999 1.34 2.933c.145.029.219.196.166.329-.072.244-.35.444-.599.327-.134-.073-.214-.213-.286-.345l-.418-.726-2.983-5.397c-1.696-3.195-3.066-6.566-4.222-9.989-.465-1.359-.903-2.726-1.322-4.1-.003.006-.011.014-.02.017-.206.096-.43-.023-.643-.061-.563-.126-1.136-.204-1.695-.352-.981-.208-1.729-.863-2.216-1.727-.706-1.156-1.042-2.486-1.565-3.73-.131-.221-.109-.514.176-.58z"/></g><path d="M27.465 121.883c.065-.076.134-.148.211-.212.025-.021.025-.009.048.01l.285.23c1.214.993 3.005 1.149 4.426.527 2.299-1.027 3.261-3.404 2.463-5.765-.635-1.47-2.118-2.5-3.654-2.853-1.33-.185-2.713.264-3.825.985-1.641 1.029-1.647 3.377-.816 4.938a6.49 6.49 0 0 0 .861 1.305c-.236.108-.439.304-.606.5-.391.476-.739.986-1.094 1.49a1.4 1.4 0 0 1-.096.145l-.796-2.078-1.764-4.659-.474-.996c.082-.254.103-.533.196-.788.215-.684.51-1.34.752-2.015.098-.249.191-.509.342-.732.873.325 1.845.354 2.75.138 2.937-.514 3.964-3.908 3.238-6.487-.87-3.49-3.113-4.644-6.332-2.878-1.228.623-1.975 1.914-2.139 3.255-.094.841.066 1.692.265 2.507.262 1.179.944 2.191 1.817 3.011-.408.436-1.036 2.085-1.289 3.178l-.775-1.768c-.399-1.112-.589-2.282-.829-3.434-.726-2.874.081-5.808.058-8.717a.23.23 0 0 0 .037-.159c.139-.491.537-.868.864-1.246.245-.283.524-.542.788-.808.154-.155.245-.426.424-.55.305-.211.371-.013.714.07.738.178 1.745-.257 2.323-.692 1.13-.95 1.846-2.818.972-4.148-.466-.632-1.265-1.016-2.041-1.064-.845.004-1.585.581-2.072 1.231-.587.782-.565 1.541-.563 2.472.001.27-.038.572.002.839.053.359.285.428.421.755.092.22-.708.788-.861.942-.201.202-1.087.941-1.065 1.234l-.252-2.082c-.317-1.745-.599-3.51-1.156-5.198-.39-1.195-.966-2.315-1.509-3.446.038-.006.077-.01.112-.032l.051.047c.011.008.054.022.062.031.239.523.741.879 1.271 1.073 2.103.939 4.713-.713 5.051-2.921.115-.846-.115-1.722-.561-2.445-1.412-2.085-3.572-2.316-5.313-.458-.497.53-.752 1.286-.857 1.99-.062.415-.248 1.673.058 2.012-.035.06-.083.101-.129.154l-1.407-3.463-.15-.431a.92.92 0 0 0 .07-.166c.384-.901.715-1.822.974-2.766l.229-.71c.007-.004.047.008.056.01 1.434.241 2.801-.653 3.48-1.878.582-.942.874-2.191.434-3.243-.469-1.024-1.546-1.808-2.677-1.882-.741-.027-1.444.336-1.938.872-.832.796-1.584 1.835-1.589 3.031-.04 1.214.97 2.036 1.797 2.767-.388.95-.586 1.975-.95 2.938l-.122.35-.691-1.979c-.348-1.004-.67-2.05-.624-3.124.12-2.859 1.078-5.608 2.226-8.205l.429-.936c.105-.023.205-.092.301-.142l1.035-.488 2.525-.901c.585-.2 1.175-.478 1.802-.492.345.074.551.428.834.618.712.567 1.509 1.049 2.398 1.272 2.992.946 4.946-2.413 3.64-4.943-.521-1.139-1.079-1.816-2.42-1.767-1.646.13-3.238 1.078-4.092 2.497-.274.491-.572 1.027-.526 1.607a1.08 1.08 0 0 0 .017.134c.006.015-.002.019-.025.011-.32.011-.63.093-.936.18l-4.092 1.537c.545-.977 1.172-1.907 1.881-2.776 1.288-1.691 2.832-3.164 4.5-4.477 1.239-1.007 2.541-1.932 3.917-2.743.895-.502 1.778-1.116 2.796-1.325.024-.005.047-.004.07-.001.017.047.038.093.076.131.065 1.046.445 2.328 1.496 2.797.877.301 1.877.355 2.754.027.806-.373 1.278-1.781 1.314-2.619.074-1.072-.792-1.843-1.592-2.41-1.116-.782-2.66-.233-3.457.758a3.61 3.61 0 0 0-.51.76c-1.278-.177-5.264 2.498-6.298 3.27.01-.325-.076-.653-.223-.941-.015-.03-.017-.02.009-.036.395-.245.764-.527 1.107-.839.838-.731 2.211-2.365 2.14-3.516-.128-.92-1.016-1.49-1.829-1.777-1.255-.354-2.657.321-3.335 1.4-1.067 1.738-.373 2.773.774 4.173.36.481.827.982.801 1.624.01.129-.056.27-.075.398l-2.911 2.472a5.22 5.22 0 0 0 .324-.56c.475-1.008.773-2.352.387-3.428a5.02 5.02 0 0 0-1.508-2.039c-.556-.409-1.285-.557-1.966-.53-1.46.197-2.74 1.544-2.818 3.022-.034 1.166.566 2.404 1.582 3.007.505.3 1.048.499 1.597.702.519.191 1.07.566 1.618.542l-1.501 1.842-.806 1.075c-.178.253-.716.817-.734 1.124.077-1.349-.616-2.702-1.876-3.294-.688-.371-1.459-.676-2.253-.629-1.086.034-1.966.892-2.299 1.883-.376 1.192.606 2.342 1.578 2.914 1.189.598 2.57.774 3.888.801-.026.079-.072.152-.088.234-.006.042.002.083.017.121-1.305 2.821-2.29 5.832-2.388 8.945-.006.766.132 1.507.334 2.236l-.331-.381c-.124-.303-.226-.615-.304-.931-.255-.998-.722-1.922-1.022-2.905l-1.71-5.39-.049-.125c.091-.374-.006-.993-.016-1.213-.143-1.482-.986-3.003-2.442-3.53-.736-.314-1.551-.401-2.332-.216-.528.07-1.031.309-1.374.723-.576.732-.851 1.693-.825 2.618.089.645.444 1.24.927 1.672.943.843 2.277 1.081 3.506.979.77-.05 1.581-.187 2.146-.755.013.004.02-.001.032.002l.01.036c.309 1.418.791 2.787 1.206 4.176.277 1.02.62 2.018 1.038 2.99.147.363.258.74.374 1.115-.114-.37-1.402-.814-1.74-.95-.358-.144-.746-.152-.933-.514-.17-.329-.105-.956-.267-1.347-.434-1.046-1.298-1.87-2.231-2.481-3.892-2.642-8.186 1.095-4.11 4.543 1.155.96 2.741 1.259 4.208 1.106.849-.069 1.565-.602 2.075-1.268 1.143.393 2.26.94 3.175 1.739.067.057.127.121.188.184.357.773.842 1.495 1.461 2.084l.507 1.439.423 1.184-1.817-1.209-.585-.373c.325-.571-1.065-1.578-1.445-1.856-.576-.433-1.249-.751-1.953-.909-.866-.144-1.713.279-2.408.756-1.683 1.11-.816 2.765.684 3.504.933.472 1.997.809 3.05.62.829-.151 1.707-.713 1.905-1.544l2.62 1.718c.08.056.173.131.269.171l.742 1.764 1.688 3.691c.399 1.028.659 2.096.877 3.175l-.264-.322c-.76-.756-1.553-1.473-2.486-2.007-.027-.016-.056-.032-.074-.058-.023-.032-.027-.074-.03-.113-.093-1.168-.643-2.139-1.479-2.964-.602-.593-1.219-1.173-1.892-1.685-1.035-.786-2.489-.644-3.581-.049-1.006.494-1.761 1.249-1.434 2.447.433 1.672 1.952 2.769 3.392 3.564 1.004.531 2.24.726 3.322.327.651-.229 1.158-.628 1.442-1.138.98.799 2.002 1.586 2.822 2.558.197.219.331.491.51.721l.118.657c.254 1.323.434 2.665.421 4.014l-.309 6.012.008.184-1.068-1.854-1.699-2.618c-.547-.807-.973-1.706-1.678-2.395-1.154-1.348-2.646-1.66-4.15-2.16.159-.211.04-.707.034-.935-.168-1.904-1.514-3.454-3.129-4.366-.756-.463-1.54-.956-2.444-1.031-2.423-.007-4.689 1.874-5.107 4.263-.33 1.656.583 3.372 1.895 4.353 1.391.868 3.561.996 5.076.393 1.263-.394 2.271-1.265 3.144-2.232 1.268.494 2.704.662 3.73 1.618 1.114.925 1.688 2.269 2.515 3.423l1.736 2.72c.48.783.941 1.653 1.272 2.511.322.833.43 1.832.605 2.715.262 1.256.765 2.424 1.297 3.583l-.907-.359-1.646-.619c.003-.064-.011-.13-.054-.183-.049-.051-.109-.076-.173-.093-.179-.865-.647-1.641-1.208-2.315-1.26-1.681-3.436-3.07-5.592-2.407a5.41 5.41 0 0 0-3.228 2.789c-.837 1.894.64 3.941 2.363 4.707.885.436 1.862.755 2.86.645 1.513-.119 3.008-.734 3.991-1.918.136-.178.506-.531.719-.857.092.048.2.078.285.125.63.345 1.353.6 2.024.856 1.158.441 1.594 1.827 1.948 2.892l1.834 5.064c.707 1.666 1.085 3.443 1.333 5.23l.042.268a6.3 6.3 0 0 0-1.417-.956c-.714-.397-1.546-.636-2.145-1.21-.277-.288-.448-.652-.61-1.013l-.922-2.086c-.731-1.499-1.96-2.891-3.601-3.377-2.328-.722-4.117 1.348-4.671 3.407-.585 1.927.915 3.701 2.52 4.572 1.326.762 2.929.795 4.392.478 1.002-.221 1.91-.739 2.791-1.241.55.379 1.17.636 1.764.936.774.362 1.478.871 2.056 1.499l.541 4.075c.042 1.208-.028 2.418-.15 3.62l-.064.576c-.046.199-.065.452.142.567a.35.35 0 0 0 .505-.215c.032-.123.043-.257.061-.383l.202-1.852.043-2.578c-.089-1.737-.448-3.412-.695-5.128-.194-1.354-.414-2.707-.826-4.014l-.263-.776.075-.112 1.453-1.9z" fill="#ff8baa"/><path d="M119.412 111.021c-.212-.118-.459-.133-.696-.151-.277-.022-.555-.044-.833-.011-.343.037-.663.171-.972.319-.558.221-1.009.623-1.377 1.089-.338.4-.617.844-.841 1.317-.177.355-.344.718-.429 1.107-.188.851-.142 1.754.206 2.558l.603 1.42c.025.04.048.094.075.144l-.107.616c-.036.428.011.858 0 1.286l-.009.075-.765-2.019-.795-2.166-.432-.891-.235-.953c-.112-.362-.218-.729-.262-1.108l-.063-.776a.34.34 0 0 0 .077-.07 13.24 13.24 0 0 0 1.149-1.196c.29-.301.572-.611.784-.973.448-.718.678-1.553.773-2.389.103-1.22-.318-2.39-1.174-3.264-.542-.586-1.418-.827-2.189-.642-.552.135-1.02.485-1.387.909-.344.375-.688.786-.792 1.298-.123.629-.018 1.278.107 1.899.126.579.418 1.101.663 1.635.331.727.756 1.405 1.199 2.068l.456.738.05.466c.017.364.096.716.19 1.065l-.949-1.731c-.754-1.32-1.717-2.506-2.708-3.653l-1.091-1.167-.693-1.228-.362-.793-.417-.815c.115-.138.18-.334.241-.492.134-.419.169-.863.28-1.289.149-.688.262-1.41.107-2.108-.155-.809-.318-1.457-.98-2.012a2.43 2.43 0 0 0-1.755-.644c-.619.016-1.31.15-1.741.629-.367.441-.397 1.043-.458 1.589-.079.775.205 1.555.645 2.184.388.489.813.963 1.319 1.331.548.377 1.189.587 1.812.802l.157.063.541 1.02.464.951c-1.169-1.077-2.431-2.056-3.734-2.967-.602-.44-1.27-.772-1.922-1.13l-.753-.401-.054-.064-1.726-1.922c-.734-.803-1.494-1.651-2.536-2.044-.503-.185-1.02-.364-1.557-.41-.407-.04-.789.141-1.15.307a3.11 3.11 0 0 0-1.473 1.356c-.236.435-.266.948-.179 1.427.079.45.214.901.502 1.263.425.542.959 1.009 1.59 1.294 1.832.936 4.231.427 6.007-.421.118-.057.238-.117.369-.131.518-.059 1.208.442 1.637.675.843.493 1.609 1.105 2.389 1.69 2.306 1.787 4.42 3.872 6.029 6.314-.593-.784-1.318-1.454-2.046-2.111-.923-.847-1.978-1.529-3.085-2.109l-.986-.482c-.262-.119-.719-.154-.928-.32-.099-.079-.169-.187-.242-.29-.534-.755-1.235-.991-2.074-1.3-.742-.273-1.463-.132-2.19.111-.798.273-1.961.638-2.312 1.473-.374.842-.025 1.826.535 2.501.416.482 1.112.638 1.725.598.995-.118 1.886-.65 2.729-1.159.47-.292.911-.63 1.327-.995a8.46 8.46 0 0 0 .557-.531l.077.021c1.18.455 2.305 1.056 3.361 1.75.876.605 1.649 1.339 2.43 2.059.595.567 1.085 1.23 1.646 1.829l.298.347a.38.38 0 0 0 .045.054l1.765 3.452c.358.777.603 1.598.902 2.398l.299.781-1.154-1.381-1.863-1.873c-.783-.712-1.653-1.318-2.533-1.903-.002-.008-.003-.015-.006-.023.2-.388-.414-1.324-.648-1.664-.542-.849-1.22-1.536-2.153-1.944-1.108-.572-2.223-.737-3.451-.544-.99.141-2.308.44-2.724 1.468-.206.712.087 1.467.488 2.057.706.989 1.559 1.533 2.757 1.744.499.078 1.009.092 1.514.09.598-.005 1.2-.029 1.784-.167.519-.127 1.025-.301 1.527-.483.102-.05.401-.131.63-.238.929.643 1.848 1.305 2.674 2.077l2.796 2.899.637.78c.05.052.092.127.144.184l.651 1.983.555 2.424c.118.544.144 1.101.207 1.652.079.79.233 1.58.136 2.375l-.123 1.081-.035-.08c-.804-1.832-1.841-3.559-3.052-5.151l-2.429-3.091c.092-.149.039-.359.038-.516-.057-.667-.263-1.311-.48-1.941-.556-1.678-1.763-3.489-3.667-3.676-.403-.046-.811-.029-1.213.021-.568.063-1.168.198-1.572.633-.748.814-.713 2.138-.448 3.146.301 1.064 1.226 2.029 2.166 2.577.335.185.722.233 1.09.319.313.07.63.118.951.121.693.021 1.379-.088 2.067-.148l.755-.066.028-.003.885 1.072 2.912 3.918 1.539 2.785.43.888c-.004.708.084 1.413.109 2.121l.008.766-1.062-2.286c-.701-1.311-1.459-2.615-2.511-3.68l-.367-.313c.004-.041-.011-.083-.058-.111-.011-.006-.021-.008-.032-.01.019-.102-.081-.204-.113-.299-.135-.28-.291-.551-.478-.799-.856-1.192-2.257-1.97-3.727-2.029-.974-.068-2.077.24-2.66 1.071-.45.665-.284 1.53-.032 2.239.305.715.926 1.286 1.613 1.634.867.382 1.879.404 2.787.162.705-.175 1.32-.581 1.866-1.049.087-.081.387-.319.578-.535l.242.183c.743.752 1.304 1.657 1.844 2.559.683 1.111 1.277 2.273 1.86 3.438l.242.492-.061 2.005-.095 2.652c-.181 1.424-.181 2.877-.057 4.305.066.764.376 1.476.568 2.211.184.706.311 1.482.761 2.08.24.32.778.407 1.155.375.194-.024.35-.237.264-.424-.071-.128-.174-.235-.265-.349-.314-.393-.693-.705-.96-1.135-.259-.417-.369-.92-.522-1.39-.272-.834-.193-1.652-.31-2.507-.091-.675-.083-1.357-.038-2.037l.144-1.457.023-1.678.062-3.503c.023-.952-.142-1.895-.14-2.846-.007-.715.147-1.419.182-2.132.02-.376-.017-.75-.058-1.124.113-.035.089-.193.126-.288l.307-1.155a4.31 4.31 0 0 1 .181-.439c.319-.119.636-.237.972-.3a8.2 8.2 0 0 0 1.165-.435c.597-.299 1.105-.748 1.592-1.199.602-.528 1.13-1.177 1.316-1.972.064-.295.004-.592-.075-.877-.132-.499-.406-.946-.75-1.328-.182-.208-.385-.428-.664-.495-.485-.087-1.015-.046-1.453.191-.679.399-1.201 1.019-1.652 1.655-.266.39-.503.8-.695 1.232-.155.352-.309.716-.336 1.103-.022.317.001.635.031.951.029.371.127.731.17 1.1l.033.323c-.005.042.006.084.029.113-.162.43-.258.881-.349 1.334l-.171-1.592c-.074-.539-.227-1.063-.359-1.59l-.373-1.591-.364-1.119c.01-.041.01-.085-.007-.126-.074-.307.069-.61.056-.92l.016-1.143c.019-.196.066-.388.111-.58l.014-.08c.604.028 1.197-.174 1.675-.544.559-.413 1.079-.878 1.582-1.358.384-.371.721-.788 1.056-1.203.568-.696.784-1.627.666-2.51-.074-.467-.144-.953-.365-1.376-.177-.292-.415-.566-.715-.735z" fill="#ffcdda"/><path d="M136.106 130.438c-.119-.03-.254-.02-.382-.022-.345.005-.693.015-1.041.073-1.031.125-2.013.782-2.818 1.591l-.326.373.232-.54 2.765-6.862c1.867.632 4.067-.888 5.226-2.798l.938-1.691c.466-.855.843-1.587-.366-1.359-.741.136-1.49.333-2.204.68-.887.477-1.74 1.115-2.464 1.894l.648-2.139.821-3.299c.535.064 1.301-.28 1.788-.516 1.185-.57 2.118-1.681 2.893-2.837.429-.637.776-1.325 1.132-2.014l.14-.274c.096-.274-.107-.382-.316-.343-.528.003-1.06.037-1.593.145-1.542.367-2.63 1.943-3.445 3.404l1.253-4.901.414-2.021c.015-.003.028-.003.04-.008.294-.104.586-.248.868-.401 1.32-.627 2.427-1.805 3.248-3.141.314-.591 1.106-1.605-.023-1.414-1.083.058-2.209.458-3.087 1.335-.197.188-.378.39-.547.603l.394-2.789a.37.37 0 0 0 .086-.114l1.628-2.417.268-.421.149-.004c.063-.012.131-.033.192-.057.027.008.051.014.083.013 1.118-.233 2.413-.948 3.094-2.084.3-.545.419-1.165.384-1.753.021-.881-.303-1.415-.952-1.789-.93-.653-2.36.018-2.951 1.187-.534 1.126-.447 2.379-.46 3.541a6.34 6.34 0 0 0 .06.583c-.004.009-.01.011-.01.022-.016.041-.018.082-.014.121l-.182.26c-.443.61-.853 1.252-1.233 1.907.188-.324.163-1.152.212-1.523l.206-1.65.321-3.423.132-3.282c.003-.351-.116-.68.205-.907.242-.172.89-.061 1.153-.017 1.098.185 2.229.769 3.245 1.194l.346.15c.004.012-.007.034-.007.044-.306 1.588-.119 3.293.774 4.425.88 1.056 2.664 1.264 3.912.34.963-.831 1.303-2.279 1.031-3.423-.189-1.131-1.146-1.711-2.016-2.117-.796-.328-2.833-.901-3.426.293-1.115-.667-2.388-1.003-3.629-1.389-.217-.077-.44-.141-.668-.197l.225-.181c.828-.66 1.695-1.254 2.574-1.815l.302-.186 1.606.144 3.12.366a5.29 5.29 0 0 0 .83 2.371c.268.475.601.895 1.013 1.215.293.225.621.415.987.488.708.093 1.479-.029 2.193-.312.848-.395 2.079-1.46 2.179-2.527.102-.613.008-1.218-.273-1.7-.37-.689-.899-1.278-1.598-1.548-.79-.341-1.711-.221-2.58.031-.875.248-1.814.647-2.412 1.514-.029.071-.098.011-.161.003l-1.629-.347-2.457-.161-.063.002 1.57-.983c.436-.288.898-.536 1.305-.886.087-.087.146-.202.189-.32.007-.013.01-.011.023 0 1.085.273 2.126.852 3.324.629 1.428-.277 2.78-1.343 3.384-2.906.795-1.764-.158-2.994-1.506-3.489-1.28-.5-2.814.372-3.71 1.64a14.96 14.96 0 0 0-1.627 2.983c-.148.356-.238.729-.366 1.09-.014.03-.029.034-.062.056-1.913 1.235-3.93 2.25-5.74 3.715.523-.769.957-1.628 1.129-2.538.127-.489.007-.984.169-1.461.268-.496.731-.83 1.082-1.248.398-.439.758-.923 1.007-1.471.562-1.177-.05-2.942-.967-3.434-.677-.318-1.509.164-2.121.672-.942.76-1.434 2.179-.911 3.208.156.363.37.678.569 1.008.292.47.452 1.038.738 1.511-.008 1.33-.391 2.336-1.145 3.475l-1.03 1.455c-.032.038-.062.082-.092.127l-.021-.858-.187-3.408c.124-2.453-.699-4.702-.614-7.133.002-.06.005-.124.036-.178.038-.066.108-.098.171-.126.974-.429 1.761-.95 2.785-1.076.769-.095 1.535-.131 2.297-.144l1.143-.005c.529.028.491.189.812.592.362.462.847.789 1.373 1.003.724.32 1.559.501 2.381.104.942-.489 1.861-1.618 1.908-2.769.028-1.55-1.486-2.396-2.75-2.313-1.328.048-3.08.741-3.508 2.409-.04.045-.076.092-.092.154-.012.016 0 .01-.023.01l-.683.041c-1.055.074-2.115.221-3.169.382-.889.135-1.849.609-2.704.901-.117.04-.243.081-.343.028-.081-.044-.126-.146-.16-.242-.387-1.017-.546-2.08-.629-3.219.295-.564.749-2.253 1.284-2.504.175-.082.36-.09.542-.125 2.092-.411 3.679-3.561 3.164-5.581-.396-1.348-1.712-2.123-3.029-1.895-.618.137-1.214.535-1.711 1.017-.646.641-1.102 1.559-1.18 2.466-.002 1.504.644 2.863 1.411 3.95-.037.057-.05.131-.042.199.002.033.015.034 0 .064l-.761 1.722a1.71 1.71 0 0 1-.061.136l-1.192-3.046-.863-2.125c.033-.08.06-.163.081-.244.225-.788.545-1.559.816-2.341.477-1.229.483-2.554.136-3.702-.226-.812-.604-1.65-1.359-1.925-1.422-.509-2.615.793-2.926 2.383-.301 1.505-.217 3.182.624 4.273.525.71 1.33 1.047 1.926 1.663.043.031.096.041.152.035l1.188 3.262.845 2.581-1.569-.964c-.485-.365-.963-.743-1.494-1.029-.531-.296-1.043-.632-1.638-.794.346-1.328.404-2.688.182-3.957-.232-1.237-.575-2.66-1.633-3.224-1.479-.585-3.465.626-4.207 2.325-.533 1.553.338 3.064 1.111 4.111.488.638 1.262.844 2.027.921.709.062 1.433.355 2.168.141.152.147.41.159.595.263.552.243 1.075.556 1.579.889l1.34.998 1.457.836.296.173.855 3.604.259 1.805c-.014-.017-.024-.033-.037-.044-1.421-1.787-3.204-2.834-4.967-4.155-1.388-.985-2.985-1.626-4.684-1.933-.031-.01-.019.002-.022-.048a2.5 2.5 0 0 0-.09-.641c-.387-1.471-1.608-2.503-2.999-2.64-1.349-.149-2.951.621-3.726 2.065-.458.912-.159 1.925.315 2.6.738 1.148 1.936.963 3.148.598 1.092-.299 2.158-.835 3.216-1.305.385-.172 1.703.524 2.077.668.541.207.974.51 1.456.804l3.398 2.164c.795.61 1.568 1.257 2.256 2.007.905.988.908 2.357 1.03 3.795l.299 5.26-.902-.72c-1.032-.728-2.107-1.386-3.204-2.007-1.447-.831-2.909-1.637-4.484-2.198-.574-.216-1.168-.371-1.765-.529-.512-.186-1.23-.268-1.353-.951-.202-.705-.416-1.421-.843-1.972-.667-.933-1.748-1.29-2.829-1.422-1.104-.176-2.677.123-3.706.868-.971.821-1.522 2.233-1.535 3.48.057.838.383 1.619.829 2.232.83 1.069 2.218.922 3.471.732.774-.1 1.517-.47 2.261-.797.365-.16.916-.31 1.24-.554.331-.25.4-.708.719-.975.891-.743 2.572.246 3.343.544 1.218.47 2.379 1.069 3.514 1.713l5.019 3.11.24.168c.05 2.942-.209 5.923-.596 8.902-.675-.648-1.497-1.079-2.258-1.592l-.587-.355c-.001-.017-.008-.03-.009-.047l-.332-2.239c.001.023 1.418-1.368 1.547-1.578.365-.594.417-1.205.27-1.838-.203-.873-.307-1.52-.926-2.079-.479-.432-1.089-.814-1.784-.581-1.091.262-2.069 1.496-2.1 2.725.008.767.16 1.538.598 2.084.208.281.476.494.736.715.36.29.692.657 1.135.81.029.563.106 1.112.248 1.633.005.018.007.041.015.061-.184-.444-1.673-.742-2.093-.863-.982-.283-1.716-.476-2.462-1.22-1.307-1.303-2.867-1.375-4.638-.473-1.057.524-2.075 1.435-2.316 2.739-.252.984-.12 2.039.448 2.722.686.829 1.825 1.166 2.904.93.729-.174 1.421-.606 2.062-1.079 1.309-1.033 1.717-1.729 2.455-3.254 1.034.222 2.055.518 2.998.986.849.422 1.643.951 2.475 1.408l.573.338c-1.572.651-3.155 1.308-4.601 2.339-.238-.284-.61-.382-.955-.462-1.036-.245-2.176-.32-3.25.249-.73.382-1.414.983-1.884 1.734-.316.548-.66 1.109-.845 1.72-.233.924-.083 1.961.441 2.606.517.53 1.232.888 1.982.895a4.99 4.99 0 0 0 2.553-.87c.934-.696 1.698-1.733 2.177-2.848.261-.778.308-1.779.069-2.491-.001-.016-.031-.047.001-.048l.788-.418 3.743-1.971c.108-.029.173-.083.215-.143l.522.409-.261 1.839-.881 5.799-.355 1.618c-.269-.945-.681-1.686-1.488-2.307a4.6 4.6 0 0 0-1.279-.697c-.304-.146-.543-.009-.597.392-.158 1.066-.264 2.162-.132 3.191.162 1.625 1.353 2.365 2.518 3.002l-.566 1.949-1.664 5.964-2.635 7.121c.013-.325.007-.648-.033-.966-.203-1.409-.727-2.668-1.341-3.853-.164-.244-.328-.877-.701-.714-.246.133-.317.478-.443.722-.433 1.046-.835 2.119-1.027 3.228-.371 2.116.604 4.129 1.925 5.332l-1.964 4.471-2.578 5.457.022-.187c.297-2.52-.019-5.696-2.037-6.886-.146-.096-.281-.289-.479-.181-.258.165-.251.579-.337.853l-.429 1.763c-.359 1.541-.516 3.248.209 4.517.454.746.968 1.467 1.623 1.998.116.083.246.156.374.222l-1.674 3.147-3.824 6.617-1.679 2.766c-.129.019-.222.177-.201.309.017.244.218.457.451.36.128-.061.222-.192.308-.317l.489-.678 3.531-5.055c2.03-2.998 3.815-6.189 5.426-9.446l1.876-3.904c.002.006.007.014.014.017.158.108.371.007.56-.015.503-.085 1.006-.122 1.511-.227.875-.136 1.633-.723 2.207-1.532.813-1.078 1.342-2.351 2.016-3.528.152-.206.187-.493-.044-.577z" fill="#ff8baa"/><g fill="#ffcdda" fill-rule="evenodd"><path d="M44.041 33.136c-.925-.608-1.987-.854-3.107-.636-.221.035-.278.036-.299-.202-.415-2.389-2.928-3.903-5.294-3.205-1.466.434-2.401 1.457-2.901 2.86-.422 1.219-.489 2.468-.441 3.728.087 2.02.484 3.962 1.234 5.839.084.209.212.408.32.632.116.271.365.384.643.419.515.101 1.019.081 1.549.034 2.255-.135 4.453-.592 6.532-1.502.92-.426 1.756-.942 2.454-1.702 1.629-1.75 1.478-4.382-.236-5.903-.127-.142-.274-.263-.452-.363zM22.598 16.463c-.6.515-.979 1.195-1.05 2.007-.019.159-.03.198-.198.165-1.722-.187-3.258 1.239-3.246 3.001.009 1.092.526 1.936 1.39 2.557.753.531 1.598.823 2.472 1.04 1.404.34 2.815.451 4.252.306.16-.017.322-.065.497-.095.209-.026.335-.175.415-.359.171-.334.257-.684.329-1.056.353-1.575.474-3.174.259-4.78-.11-.715-.3-1.391-.684-2.021-.879-1.464-2.715-1.88-4.099-1.004a1.22 1.22 0 0 0-.338.239z"/></g><g fill="#ff8baa"><path fill-rule="evenodd" d="M51.757 5.656c-1.1.124-2.074.614-2.795 1.498-.147.168-.191.205-.359.036-1.847-1.571-4.747-1.129-6.12.921-.849 1.271-.914 2.656-.402 4.054.454 1.207 1.202 2.21 2.045 3.149a17.61 17.61 0 0 0 4.683 3.7c.199.107.423.178.651.281.262.134.526.062.762-.089.461-.252.836-.589 1.212-.964 1.648-1.546 3.045-3.303 4.061-5.331.435-.915.748-1.847.798-2.878.134-2.387-1.665-4.314-3.956-4.387-.188-.028-.379-.028-.58.01zM93.17 80.14c.926-.606 1.988-.85 3.108-.63.221.036.278.037.299-.202.419-2.388 2.936-3.898 5.3-3.195 1.465.437 2.398 1.462 2.896 2.866.42 1.219.484 2.469.434 3.729-.09 2.02-.491 3.961-1.245 5.837-.085.209-.212.407-.321.632-.117.27-.366.383-.644.418-.515.1-1.019.08-1.548.031-2.256-.14-4.453-.6-6.529-1.514-.919-.427-1.754-.946-2.45-1.707-1.626-1.753-1.47-4.384.248-5.902a1.71 1.71 0 0 1 .453-.362z"/></g><g fill="#ffcdda"><path d="M97.186 20.545c.053-.624.966-.624 1.019 0l.535 6.279a.51.51 0 0 0 .466.466l6.279.535c.624.053.624.966 0 1.019l-6.279.535a.51.51 0 0 0-.466.466l-.535 6.279c-.053.624-.966.624-1.019 0l-.535-6.279a.51.51 0 0 0-.466-.466l-6.279-.535c-.624-.053-.624-.966 0-1.019l6.279-.535a.51.51 0 0 0 .466-.466l.535-6.279zm12.235-14.033a.28.28 0 0 1 .55 0l.288 3.387c.012.134.118.24.252.251l3.387.289a.28.28 0 0 1 0 .55l-3.387.288c-.134.011-.24.118-.252.251l-.288 3.387a.28.28 0 0 1-.55 0l-.289-3.387c-.011-.134-.117-.24-.251-.251l-3.387-.288a.28.28 0 0 1 0-.55l3.387-.289c.134-.011.24-.118.251-.251l.289-3.387zM8.942 34.675c.039-.453.702-.453.74 0l.389 4.563a.37.37 0 0 0 .339.339l4.563.389c.453.039.453.702 0 .74l-4.562.389a.37.37 0 0 0-.339.339l-.389 4.563c-.039.453-.702.453-.74 0l-.389-4.563a.37.37 0 0 0-.339-.339l-4.563-.389c-.453-.039-.453-.702 0-.74l4.563-.389a.37.37 0 0 0 .339-.339l.389-4.562z"/></g></g><defs><clipPath id="A"><path fill="#fff" transform="translate(0 .601)" d="M0 0h146v119H0z"/></clipPath></defs></svg>