<svg width="437" height="281" viewBox="0 0 437 281" fill="none" xmlns="http://www.w3.org/2000/svg">
  <g clip-path="url(#clip0_1978_81095)">
    <path d="M139.731 434.817C84.0905 407.803 16.2204 372.5 11.7731 301.862C11.3583 295.289 11.6404 288.699 12.6526 282.211C13.0841 279.521 13.7644 276.949 14.4282 274.31C15.4902 270.023 15.1251 273.368 14.4282 274.242C23.5052 263.03 35.6355 256.675 49.0104 251.985C63.8622 246.774 79.5603 243.613 93.6653 236.368C108.501 228.736 119.038 216.363 127.103 201.839C145.057 169.479 146.501 136.16 141.357 100.269C138.553 80.6682 134.753 60.1929 138.187 40.4236C138.536 38.4567 139.067 36.5571 139.465 34.5903C140.444 29.7993 139.88 33.9347 139.034 34.977C137.939 36.3218 140.776 32.7411 141.208 32.2368C145.887 26.6389 151.712 22.016 157.918 18.2672C182.079 3.65878 213.127 2.61653 236.359 19.6961C257.549 35.2795 274.11 68.4133 265.88 95.243C264.552 99.5801 261.416 103.968 259.076 108.069C253.982 116.945 249.153 126.006 245.286 135.521C239.395 150.046 234.649 167.142 241.553 182.187C254.247 209.875 288.066 216.7 314.799 209.858C350.626 200.713 378.936 173.664 414.862 164.62C444.665 157.123 480.193 167.932 485.603 202.478C486.051 205.336 485.736 208.009 485.902 210.816C486.3 217.154 496.953 195.35 491.544 199.637C490.067 200.797 488.772 202.142 487.229 203.268C481.272 207.639 474.601 210.9 469.258 216.128C458.023 227.122 445.462 250.22 449.693 266.661C453.925 283.102 470.087 289.725 485.371 290.397C505.815 291.272 526.889 288.027 547.267 286.531C588.636 283.488 630.039 279.555 671.458 277.554C704.729 275.94 742.514 278.966 764.103 308.217C768.65 314.369 772.068 321.329 773.927 328.793C774.723 332.004 775.32 335.366 775.404 338.694C775.453 340.543 774.955 342.527 775.088 344.343C775.536 350.815 774.408 341.989 778.025 339.064C773.23 342.964 768.982 349.789 764.899 354.547C759.091 361.305 753.897 368.415 749.583 376.249C742.049 389.916 733.686 408.357 739.344 424.227C743.858 436.851 755.175 445.475 766.426 451.628C782.074 460.185 799.614 465.228 816.292 471.246C835.873 478.306 855.437 485.35 875.018 492.41C914.678 506.699 954.338 520.988 994.015 535.294C1013.6 542.355 1033.16 549.398 1052.74 556.459C1058.78 558.644 1072.77 524.67 1068.74 523.224C986.315 493.52 903.909 463.832 821.485 434.128C805.87 428.496 789.658 423.571 775.652 414.342C770.044 410.66 764.667 406.273 760.684 400.776C758.56 397.834 756.918 394.657 755.922 391.143C755.557 389.866 755.258 388.521 755.076 387.21C754.628 383.965 756.718 377.09 753.35 384.503C753.117 384.991 748.372 392.354 752.072 387.848C752.869 386.873 753.599 385.865 754.395 384.89C756.835 381.948 759.473 379.174 761.979 376.3C767.471 370.012 772.616 363.574 776.997 356.429C786.488 340.88 794.752 321.816 792.197 303.106C787.401 268.056 754.229 248.724 722.369 245.009C702.787 242.739 683.024 244.504 663.459 245.933C642.103 247.497 620.762 249.077 599.406 250.64C578.049 252.204 556.709 253.784 535.352 255.347C517.364 256.675 493.95 261.651 477.936 250.573C474.867 248.438 472.062 245.664 470.004 242.504C469.009 240.974 468.162 239.293 467.548 237.562C467.084 236.301 466.918 232.048 466.204 231.19L462.487 238.822C457.625 246.471 456.912 248.522 460.363 244.992C461.973 244.135 463.483 242.739 465.026 241.714C468.494 239.428 472.062 237.326 475.381 234.821C489.32 224.298 498.629 205.42 502.197 188.491C508.37 159.191 486.383 132.125 457.791 129.1C419.724 125.065 387.482 150.869 355.14 166.688C326.349 180.775 288.829 187.298 264.884 160.166C260.121 154.769 256.869 148.28 255.774 141.119C255.259 137.791 255.525 134.613 255.774 131.285C255.807 130.865 257.516 125.519 255.923 129.553C256.587 127.856 257.649 126.208 258.528 124.628C267.937 107.733 277.927 91.0067 282.358 71.8931C288.912 43.6344 280.648 12.9551 259.79 -7.2513C238.649 -27.7434 207.7 -31.1056 181.283 -19.6407C149.521 -5.85602 129.094 28.4376 122.174 61.6218C114.259 99.6642 129.89 136.748 126.97 174.774C126.87 176.085 124.232 192.56 123.883 192.358C121.112 190.778 128.43 188.239 124.912 189.87C123.9 190.341 122.075 193.131 121.295 193.871C118.042 196.998 114.391 199.536 110.492 201.772C96.7353 209.639 81.0704 212.968 66.1854 217.893C51.3004 222.819 37.8094 229.509 27.2223 241.092C15.1086 254.355 6.52937 271.334 0.738007 288.296C-9.00277 316.773 -7.42632 348.596 6.04814 375.594C21.182 405.869 49.027 427.404 77.4528 443.996C92.5037 452.788 108.135 460.453 123.784 468.052C128.629 470.405 144.626 437.154 139.781 434.817H139.731Z" fill="#FFCDDA"/>
    <path d="M151.818 50.6239C151.897 50.2399 152.445 50.2399 152.524 50.6239L153.204 53.9341C153.233 54.0753 153.344 54.1857 153.485 54.2147L156.795 54.8947C157.179 54.9736 157.179 55.5221 156.795 55.601L153.485 56.281C153.344 56.31 153.233 56.4204 153.204 56.5616L152.524 59.8718C152.445 60.2558 151.897 60.2558 151.818 59.8718L151.138 56.5616C151.109 56.4204 150.999 56.31 150.857 56.281L147.547 55.601C147.163 55.5221 147.163 54.9736 147.547 54.8947L150.857 54.2147C150.999 54.1857 151.109 54.0753 151.138 53.9341L151.818 50.6239Z" fill="#FFCDDA"/>
    <path d="M331.602 97.7964C331.734 97.1506 332.657 97.1506 332.789 97.7964L333.933 103.363C333.982 103.601 334.167 103.787 334.405 103.835L339.972 104.979C340.618 105.112 340.618 106.034 339.972 106.167L334.405 107.31C334.167 107.359 333.982 107.545 333.933 107.782L332.789 113.349C332.657 113.995 331.734 113.995 331.602 113.349L330.458 107.782C330.409 107.545 330.224 107.359 329.986 107.31L324.419 106.167C323.773 106.034 323.773 105.112 324.419 104.979L329.986 103.835C330.224 103.787 330.409 103.601 330.458 103.363L331.602 97.7964Z" fill="#FFCDDA"/>
    <path d="M343.29 16.3C343.39 15.8114 344.088 15.8114 344.188 16.3L345.054 20.5118C345.09 20.6915 345.231 20.8319 345.411 20.8688L349.622 21.734C350.111 21.8344 350.111 22.5323 349.622 22.6327L345.411 23.4979C345.231 23.5348 345.09 23.6752 345.054 23.8549L344.188 28.0667C344.088 28.5553 343.39 28.5553 343.29 28.0667L342.424 23.8549C342.388 23.6752 342.247 23.5348 342.067 23.4979L337.856 22.6327C337.367 22.5323 337.367 21.8344 337.856 21.734L342.067 20.8688C342.247 20.8319 342.388 20.6915 342.424 20.5118L343.29 16.3Z" fill="#FFCDDA"/>
    <path d="M218.227 212.201C218.348 211.612 219.19 211.612 219.311 212.201L220.354 217.281C220.399 217.498 220.568 217.668 220.785 217.712L225.865 218.756C226.454 218.877 226.454 219.719 225.865 219.84L220.785 220.883C220.568 220.928 220.399 221.097 220.354 221.314L219.311 226.394C219.19 226.983 218.348 226.983 218.227 226.394L217.183 221.314C217.139 221.097 216.969 220.928 216.753 220.883L211.672 219.84C211.083 219.719 211.083 218.877 211.672 218.756L216.753 217.712C216.969 217.668 217.139 217.498 217.183 217.281L218.227 212.201Z" fill="#FFCDDA"/>
    <path d="M217.797 116.767C217.941 116.063 218.946 116.063 219.091 116.767L220.336 122.829C220.389 123.088 220.591 123.29 220.85 123.343L226.913 124.589C227.616 124.733 227.616 125.738 226.913 125.883L220.85 127.128C220.591 127.181 220.389 127.383 220.336 127.642L219.091 133.705C218.946 134.408 217.941 134.408 217.797 133.705L216.551 127.642C216.498 127.383 216.296 127.181 216.037 127.128L209.975 125.883C209.271 125.738 209.271 124.733 209.975 124.589L216.037 123.343C216.296 123.29 216.498 123.088 216.551 122.829L217.797 116.767Z" fill="#FF8BAA"/>
    <path d="M324.048 241.151C324.184 240.489 325.13 240.489 325.266 241.151L326.438 246.859C326.489 247.102 326.679 247.293 326.922 247.343L332.63 248.515C333.292 248.651 333.292 249.597 332.63 249.733L326.922 250.906C326.679 250.956 326.489 251.146 326.438 251.39L325.266 257.098C325.13 257.76 324.184 257.76 324.048 257.098L322.875 251.39C322.825 251.146 322.635 250.956 322.392 250.906L316.684 249.733C316.021 249.597 316.021 248.651 316.684 248.515L322.392 247.343C322.635 247.293 322.825 247.102 322.875 246.859L324.048 241.151Z" fill="#FFCDDA"/>
    <path d="M387.381 61.3314C387.457 60.9624 387.984 60.9624 388.06 61.3314L388.713 64.5124C388.741 64.6481 388.847 64.7542 388.983 64.782L392.164 65.4355C392.533 65.5113 392.533 66.0384 392.164 66.1142L388.983 66.7676C388.847 66.7955 388.741 66.9016 388.713 67.0373L388.06 70.2182C387.984 70.5872 387.457 70.5872 387.381 70.2182L386.727 67.0373C386.699 66.9016 386.593 66.7955 386.458 66.7676L383.277 66.1142C382.908 66.0384 382.908 65.5113 383.277 65.4355L386.458 64.782C386.593 64.7542 386.699 64.6481 386.727 64.5124L387.381 61.3314Z" fill="#FFCDDA"/>
    <path d="M346.94 133.051C347.016 132.682 347.543 132.682 347.619 133.051L348.273 136.232C348.3 136.367 348.406 136.473 348.542 136.501L351.723 137.155C352.092 137.23 352.092 137.758 351.723 137.833L348.542 138.487C348.406 138.515 348.3 138.621 348.273 138.757L347.619 141.937C347.543 142.306 347.016 142.306 346.94 141.937L346.287 138.757C346.259 138.621 346.153 138.515 346.017 138.487L342.836 137.833C342.467 137.758 342.467 137.23 342.836 137.155L346.017 136.501C346.153 136.473 346.259 136.367 346.287 136.232L346.94 133.051Z" fill="#FF8BAA"/>
    <path d="M217.554 70.7484C217.629 70.3794 218.157 70.3794 218.232 70.7484L218.886 73.9294C218.914 74.0651 219.02 74.1711 219.155 74.199L222.336 74.8525C222.705 74.9283 222.705 75.4554 222.336 75.5312L219.155 76.1846C219.02 76.2125 218.914 76.3186 218.886 76.4543L218.232 79.6352C218.157 80.0042 217.629 80.0042 217.554 79.6352L216.9 76.4543C216.872 76.3186 216.766 76.2125 216.631 76.1846L213.45 75.5312C213.081 75.4554 213.081 74.9283 213.45 74.8525L216.631 74.199C216.766 74.1711 216.872 74.0651 216.9 73.9294L217.554 70.7484Z" fill="#FFCDDA"/>
    <path d="M159.965 134.135C160.041 133.766 160.568 133.766 160.644 134.135L161.297 137.316C161.325 137.451 161.431 137.557 161.567 137.585L164.748 138.239C165.117 138.314 165.117 138.842 164.748 138.917L161.567 139.571C161.431 139.599 161.325 139.705 161.297 139.841L160.644 143.021C160.568 143.39 160.041 143.39 159.965 143.021L159.311 139.841C159.283 139.705 159.177 139.599 159.042 139.571L155.861 138.917C155.492 138.842 155.492 138.314 155.861 138.239L159.042 137.585C159.177 137.557 159.283 137.451 159.311 137.316L159.965 134.135Z" fill="#FF8BAA"/>
    <path d="M358.996 119.784C359.117 119.194 359.959 119.194 360.08 119.784L361.124 124.864C361.168 125.081 361.338 125.25 361.555 125.295L366.635 126.338C367.224 126.459 367.224 127.301 366.635 127.422L361.555 128.466C361.338 128.51 361.168 128.68 361.124 128.896L360.08 133.976C359.959 134.566 359.117 134.566 358.996 133.976L357.953 128.896C357.908 128.68 357.739 128.51 357.522 128.466L352.442 127.422C351.853 127.301 351.853 126.459 352.442 126.338L357.522 125.295C357.739 125.25 357.908 125.081 357.953 124.864L358.996 119.784Z" fill="#FFCDDA"/>
    <path d="M336.947 214.011C337.069 213.422 337.91 213.422 338.032 214.011L339.075 219.091C339.12 219.308 339.289 219.477 339.506 219.522L344.586 220.565C345.175 220.686 345.175 221.528 344.586 221.649L339.506 222.693C339.289 222.737 339.12 222.907 339.075 223.123L338.032 228.204C337.91 228.793 337.069 228.793 336.947 228.204L335.904 223.123C335.859 222.907 335.69 222.737 335.473 222.693L330.393 221.649C329.804 221.528 329.804 220.686 330.393 220.565L335.473 219.522C335.69 219.477 335.859 219.308 335.904 219.091L336.947 214.011Z" fill="#FFCDDA"/>
    <path d="M52.395 176.452C52.5202 175.843 53.3909 175.843 53.5161 176.452L54.5953 181.706C54.6413 181.93 54.8165 182.105 55.0407 182.151L60.2944 183.23C60.9038 183.356 60.9038 184.226 60.2944 184.352L55.0407 185.431C54.8165 185.477 54.6413 185.652 54.5953 185.876L53.5161 191.13C53.3909 191.739 52.5202 191.739 52.395 191.13L51.3158 185.876C51.2698 185.652 51.0946 185.477 50.8704 185.431L45.6168 184.352C45.0073 184.226 45.0073 183.356 45.6168 183.23L50.8704 182.151C51.0946 182.105 51.2698 181.93 51.3158 181.706L52.395 176.452Z" fill="#FFCDDA"/>
    <path d="M17.7324 127.08C17.8576 126.47 18.7283 126.47 18.8535 127.08L19.9327 132.333C19.9788 132.557 20.1539 132.733 20.3781 132.779L25.6318 133.858C26.2412 133.983 26.2412 134.854 25.6318 134.979L20.3781 136.058C20.1539 136.104 19.9788 136.279 19.9327 136.504L18.8535 141.757C18.7283 142.367 17.8576 142.367 17.7324 141.757L16.6532 136.504C16.6072 136.279 16.432 136.104 16.2078 136.058L10.9542 134.979C10.3447 134.854 10.3447 133.983 10.9542 133.858L16.2078 132.779C16.432 132.733 16.6072 132.557 16.6532 132.333L17.7324 127.08Z" fill="#FF8BAA"/>
    <path d="M38.604 61.6891C38.7778 60.8432 39.9862 60.8432 40.1599 61.6891L41.6578 68.9807C41.7217 69.2918 41.9648 69.5349 42.2759 69.5988L49.5675 71.0967C50.4134 71.2704 50.4134 72.4788 49.5675 72.6526L42.2759 74.1504C41.9648 74.2143 41.7217 74.4575 41.6578 74.7686L40.1599 82.0602C39.9862 82.906 38.7778 82.906 38.604 82.0602L37.1062 74.7686C37.0423 74.4575 36.7991 74.2143 36.488 74.1504L29.1964 72.6526C28.3505 72.4788 28.3505 71.2704 29.1964 71.0967L36.488 69.5988C36.7991 69.5349 37.0423 69.2918 37.1062 68.9807L38.604 61.6891Z" fill="#FFCDDA"/>
    <path d="M208.384 56.1421C208.384 56.1421 208.204 57.2322 207.777 57.8118C207.512 58.1746 206.567 58.6799 206.782 58.9214C207.034 59.2012 208.027 59.2883 208.352 59.4505C208.677 59.6127 208.885 60.0528 209.296 60.0944C209.781 60.1399 209.11 59.305 209.229 58.4413C209.348 57.5775 209.979 56.4436 209.979 56.4436L208.379 56.1443L208.384 56.1421Z" fill="#FF8BAA"/>
    <path d="M220.726 54.4364C220.005 54.9013 219.275 55.3147 218.536 55.6765C215.083 57.379 211.542 57.9873 208.648 57.5159C206.159 55.9663 203.894 53.1746 202.413 49.6239C202.099 48.8666 201.818 48.0736 201.58 47.249C199.346 39.528 201.595 32.0914 206.604 30.6436C210.091 29.6331 213.996 31.7906 216.803 35.803C221.557 34.6291 225.918 35.5746 227.878 38.63C230.692 43.019 227.492 50.0984 220.728 54.4413L220.726 54.4364Z" fill="#FF8BAA"/>
    <path d="M202.567 79.7758C202.567 79.7758 202.535 79.7639 202.524 79.7486C202.442 79.6779 202.442 79.5182 202.517 79.3925C203.174 78.328 203.435 77.0235 203.59 76.0101C203.625 75.778 203.66 75.546 203.693 75.3189C203.959 73.4975 204.208 71.7727 205.151 69.989C205.544 69.2416 205.999 68.5343 206.437 67.8493C207.02 66.9394 207.623 65.9971 208.075 64.9753C208.711 63.5381 209.365 61.8798 209.432 60.4397C209.49 59.105 208.73 58.8596 207.849 58.5742C207.692 58.521 207.529 58.4714 207.374 58.4132C207.276 58.3762 207.239 58.2372 207.292 58.0973C207.344 57.9574 207.463 57.8766 207.562 57.9136C207.713 57.9705 207.87 58.0237 208.026 58.0706C208.907 58.356 209.906 58.6737 209.831 60.3502C209.762 61.9035 209.076 63.6467 208.414 65.1426C207.938 66.218 207.318 67.1826 206.723 68.1162C206.294 68.7875 205.846 69.4861 205.465 70.2035C204.581 71.8727 204.352 73.457 204.084 75.2947C204.049 75.5267 204.014 75.7588 203.983 75.9921C203.817 77.0758 203.539 78.4706 202.81 79.6507C202.748 79.7527 202.649 79.8012 202.572 79.7721L202.567 79.7758Z" fill="#FF8BAA"/>
    <path d="M209.219 58.3209L207.831 57.7998C207.732 57.7628 207.683 57.6562 207.72 57.5575C207.758 57.4589 207.864 57.4104 207.963 57.4475L209.351 57.9686C209.45 58.0057 209.498 58.1123 209.461 58.2109C209.424 58.3096 209.317 58.358 209.219 58.3209Z" fill="#FF8BAA"/>
    <path d="M175.767 126.663C175.767 126.663 176.222 127.67 176.189 128.389C176.17 128.837 175.664 129.782 175.977 129.864C176.342 129.956 177.216 129.478 177.576 129.433C177.937 129.387 178.354 129.638 178.719 129.444C179.148 129.213 178.126 128.891 177.746 128.106C177.366 127.322 177.261 126.028 177.261 126.028L175.764 126.667L175.767 126.663Z" fill="#FFCDDA"/>
    <path d="M185.087 118.394C184.745 119.181 184.367 119.93 183.954 120.641C182.026 123.974 179.418 126.445 176.749 127.659C173.818 127.751 170.385 126.685 167.183 124.554C166.501 124.098 165.827 123.595 165.172 123.04C159.028 117.858 156.772 110.423 160.136 106.439C162.475 103.663 166.921 103.29 171.483 105.07C174.786 101.456 178.938 99.8223 182.265 101.276C187.042 103.365 188.308 111.031 185.092 118.397L185.087 118.394Z" fill="#FFCDDA"/>
    <path d="M182.553 143.162C182.553 143.162 182.52 143.169 182.503 143.165C182.398 143.163 182.32 143.073 182.322 142.968C182.36 142.07 181.941 141.218 181.575 140.576C181.49 140.43 181.406 140.283 181.322 140.141C180.653 138.994 180.018 137.91 179.946 136.477C179.914 135.878 179.955 135.274 179.993 134.689C180.043 133.912 180.095 133.108 179.979 132.327C179.815 131.229 179.559 129.998 178.907 129.157C178.3 128.379 177.529 128.586 176.635 128.825C176.474 128.867 176.311 128.913 176.15 128.95C176.047 128.974 175.948 128.912 175.924 128.81C175.9 128.707 175.962 128.608 176.064 128.584C176.222 128.547 176.382 128.506 176.538 128.462C177.433 128.222 178.443 127.948 179.204 128.925C179.91 129.831 180.181 131.124 180.351 132.267C180.473 133.089 180.418 133.913 180.368 134.709C180.332 135.282 180.293 135.879 180.32 136.456C180.385 137.797 180.969 138.793 181.645 139.949C181.729 140.096 181.814 140.242 181.902 140.388C182.294 141.073 182.742 141.985 182.7 142.98C182.697 143.066 182.636 143.138 182.556 143.157L182.553 143.162Z" fill="#FFCDDA"/>
    <path d="M177.67 128.012L176.226 128.349C176.124 128.373 176.024 128.311 176 128.208C175.976 128.106 176.038 128.006 176.141 127.982L177.585 127.645C177.687 127.621 177.787 127.683 177.811 127.786C177.835 127.888 177.773 127.988 177.67 128.012Z" fill="#FFCDDA"/>
    <path d="M28.2781 193.396C28.2781 193.396 28.4596 194.21 28.8055 194.629C29.0204 194.892 29.7544 195.233 29.6025 195.424C29.4237 195.646 28.6793 195.753 28.441 195.889C28.2028 196.025 28.064 196.365 27.7563 196.414C27.3922 196.469 27.8634 195.811 27.7373 195.165C27.6112 194.519 27.0881 193.69 27.0881 193.69L28.2819 193.398L28.2781 193.396Z" fill="#FF8BAA"/>
    <path d="M18.9013 192.628C19.4645 192.948 20.0322 193.229 20.6044 193.471C23.2791 194.61 25.9739 194.92 28.1361 194.443C29.9479 193.17 31.5379 190.971 32.5054 188.231C32.7108 187.647 32.8895 187.038 33.0337 186.406C34.3947 180.492 32.3871 174.979 28.5496 174.098C25.8786 173.483 23.0249 175.273 21.077 178.416C17.4437 177.73 14.1961 178.626 12.8464 181.011C10.9087 184.438 13.6185 189.641 18.8998 192.632L18.9013 192.628Z" fill="#FF8BAA"/>
    <path d="M31.6585 206.435C31.6585 206.435 31.6819 206.425 31.69 206.415C31.7522 206.366 31.7592 206.276 31.7101 206.214C31.2803 205.689 31.1468 204.984 31.0772 204.431C31.0618 204.304 31.0464 204.177 31.0321 204.053C30.9167 203.058 30.8089 202.115 30.2027 201.217C29.9501 200.841 29.6516 200.494 29.3639 200.158C28.9812 199.712 28.5852 199.25 28.3017 198.726C27.9027 197.989 27.4995 197.129 27.5121 196.326C27.5257 195.581 28.085 195.356 28.734 195.095C28.8495 195.048 28.9689 195.001 29.0833 194.951C29.1561 194.919 29.1882 194.836 29.1561 194.764C29.124 194.691 29.0416 194.659 28.9688 194.691C28.857 194.74 28.7414 194.788 28.6273 194.832C27.9783 195.093 27.2439 195.385 27.2273 196.321C27.2116 197.188 27.6343 198.091 28.0497 198.858C28.3484 199.41 28.7553 199.883 29.1463 200.341C29.4279 200.67 29.7216 201.013 29.9673 201.374C30.5357 202.213 30.6345 203.079 30.7507 204.084C30.7661 204.211 30.7815 204.337 30.7944 204.465C30.8684 205.057 31.0109 205.81 31.4876 206.392C31.5283 206.443 31.5975 206.459 31.6548 206.434L31.6585 206.435Z" fill="#FF8BAA"/>
    <path d="M27.74 195.074L28.7647 194.622C28.8376 194.59 28.8696 194.508 28.8375 194.435C28.8055 194.362 28.7231 194.33 28.6502 194.362L27.6255 194.814C27.5527 194.846 27.5207 194.928 27.5528 195.001C27.5848 195.074 27.6672 195.106 27.74 195.074Z" fill="#FF8BAA"/>
    <path d="M355.362 241.355C355.362 241.355 355.181 242.169 354.835 242.588C354.62 242.85 353.886 243.192 354.038 243.383C354.216 243.604 354.961 243.711 355.199 243.847C355.437 243.983 355.576 244.324 355.884 244.372C356.248 244.427 355.777 243.77 355.903 243.123C356.029 242.477 356.552 241.649 356.552 241.649L355.358 241.356L355.362 241.355Z" fill="#FF8BAA"/>
    <path d="M364.739 240.586C364.176 240.907 363.608 241.188 363.036 241.429C360.361 242.568 357.666 242.878 355.504 242.401C353.692 241.129 352.102 238.929 351.135 236.19C350.929 235.606 350.751 234.996 350.606 234.365C349.245 228.45 351.253 222.938 355.09 222.057C357.762 221.441 360.615 223.231 362.563 226.374C366.196 225.689 369.444 226.584 370.794 228.97C372.731 232.397 370.022 237.6 364.74 240.59L364.739 240.586Z" fill="#FF8BAA"/>
    <path d="M351.982 254.394C351.982 254.394 351.958 254.383 351.95 254.374C351.888 254.324 351.881 254.234 351.93 254.172C352.36 253.647 352.493 252.942 352.563 252.389C352.578 252.262 352.594 252.136 352.608 252.012C352.723 251.016 352.831 250.073 353.437 249.176C353.69 248.799 353.989 248.453 354.276 248.117C354.659 247.671 355.055 247.208 355.338 246.684C355.737 245.947 356.141 245.088 356.128 244.284C356.114 243.539 355.555 243.315 354.906 243.054C354.791 243.006 354.671 242.96 354.557 242.909C354.484 242.877 354.452 242.795 354.484 242.722C354.516 242.649 354.599 242.617 354.671 242.649C354.783 242.699 354.899 242.746 355.013 242.79C355.662 243.051 356.396 243.343 356.413 244.279C356.429 245.146 356.006 246.05 355.59 246.817C355.292 247.369 354.885 247.841 354.494 248.3C354.212 248.629 353.919 248.971 353.673 249.332C353.104 250.172 353.006 251.038 352.889 252.042C352.874 252.169 352.859 252.296 352.846 252.424C352.772 253.015 352.629 253.769 352.153 254.351C352.112 254.401 352.043 254.417 351.985 254.392L351.982 254.394Z" fill="#FF8BAA"/>
    <path d="M355.9 243.032L354.875 242.581C354.803 242.549 354.771 242.467 354.803 242.394C354.835 242.321 354.917 242.289 354.99 242.321L356.015 242.772C356.087 242.804 356.119 242.887 356.087 242.959C356.055 243.032 355.973 243.064 355.9 243.032Z" fill="#FF8BAA"/>
    <path d="M36.5545 169.025C36.5545 169.025 36.6055 169.858 36.3891 170.356C36.2552 170.668 35.6444 171.199 35.8432 171.341C36.0764 171.504 36.8215 171.401 37.088 171.466C37.3546 171.531 37.5822 171.819 37.8914 171.781C38.2563 171.733 37.6215 171.231 37.5638 170.575C37.5061 169.919 37.7794 168.979 37.7794 168.979L36.5513 169.028L36.5545 169.025Z" fill="#FFCDDA"/>
    <path d="M45.3518 165.691C44.8993 166.155 44.4316 166.582 43.9487 166.973C41.6938 168.808 39.1901 169.852 36.9804 169.992C34.8871 169.271 32.7503 167.597 31.0624 165.233C30.7032 164.729 30.3627 164.192 30.0493 163.625C27.1042 158.319 27.5073 152.466 30.9508 150.557C33.347 149.226 36.5848 150.156 39.3266 152.637C42.6281 150.972 45.9967 150.934 47.9542 152.853C50.7648 155.609 49.6013 161.359 45.3543 165.695L45.3518 165.691Z" fill="#FFCDDA"/>
    <path d="M36.9157 182.491C36.9157 182.491 36.8904 182.487 36.8799 182.48C36.8065 182.45 36.7749 182.366 36.8049 182.292C37.0726 181.669 37.0056 180.955 36.9194 180.404C36.8991 180.278 36.8789 180.152 36.8582 180.029C36.6935 179.04 36.536 178.104 36.8701 177.074C37.0086 176.642 37.1995 176.227 37.3829 175.824C37.6272 175.289 37.8797 174.736 38.007 174.154C38.1864 173.335 38.3359 172.397 38.1014 171.629C37.8821 170.917 37.2824 170.856 36.5866 170.785C36.4623 170.771 36.3349 170.759 36.211 170.743C36.1321 170.732 36.0785 170.662 36.0892 170.583C36.0998 170.504 36.1701 170.45 36.249 170.461C36.3701 170.477 36.4944 170.491 36.6162 170.502C37.312 170.573 38.0987 170.65 38.3736 171.545C38.6287 172.374 38.4727 173.359 38.286 174.211C38.1516 174.824 37.8916 175.391 37.6426 175.939C37.4632 176.334 37.2758 176.744 37.1396 177.159C36.8259 178.123 36.9707 178.983 37.1372 179.98C37.1574 180.106 37.1777 180.232 37.2007 180.359C37.2933 180.948 37.3651 181.711 37.0682 182.402C37.0429 182.462 36.9809 182.497 36.9189 182.488L36.9157 182.491Z" fill="#FFCDDA"/>
    <path d="M37.5356 170.489L36.426 170.339C36.3472 170.328 36.2936 170.258 36.3042 170.179C36.3149 170.1 36.3852 170.046 36.464 170.057L37.5736 170.207C37.6524 170.218 37.706 170.288 37.6954 170.367C37.6847 170.446 37.6144 170.499 37.5356 170.489Z" fill="#FFCDDA"/>
    <path d="M397.924 213.794C397.044 211.911 395.272 210.467 393.252 209.99C391.226 209.513 388.996 210.008 387.372 211.303C386.48 212.016 385.743 212.995 385.557 214.122C385.371 215.25 385.817 216.52 386.809 217.096C387.794 217.672 389.274 217.332 389.739 216.285C390.34 214.934 389.144 213.49 387.973 212.592C385.842 210.963 383.296 209.686 380.619 209.767C377.943 209.847 375.198 211.619 374.684 214.252" stroke="#FF8BAA" stroke-width="2" stroke-linecap="round" stroke-linejoin="round"/>
    <path d="M149.162 174.404C147.391 176.393 146.467 179.125 146.678 181.783C146.833 183.778 147.663 185.791 149.249 187.012C150.835 188.233 153.239 188.462 154.832 187.247C155.934 186.411 156.312 184.366 155.036 183.827C154.1 183.431 153.072 184.187 152.465 185.005C149.739 188.66 150.823 194.546 154.677 196.987" stroke="#FF8BAA" stroke-width="2" stroke-linecap="round" stroke-linejoin="round"/>
    <path d="M314.937 79.6121C311.777 79.674 308.624 78.28 306.548 75.8947C305.984 75.2503 305.483 74.4883 305.433 73.6333C305.383 72.7783 305.929 71.8427 306.784 71.725C307.986 71.5577 308.81 73.212 308.258 74.29C307.707 75.368 306.362 75.8141 305.154 75.7955C301.74 75.7398 298.742 72.3941 299.07 68.9927" stroke="#FF8BAA" stroke-width="2" stroke-linecap="round" stroke-linejoin="round"/>
    <path d="M396.64 88.7558C399.035 90.4761 399.986 93.9387 398.799 96.6364C397.611 99.3341 394.418 100.983 391.534 100.38C390.87 100.242 390.196 99.976 389.757 99.4635C389.315 98.9455 389.175 98.1327 389.575 97.5844C390.103 96.8654 391.299 96.9801 391.92 97.615C392.54 98.2498 392.705 99.2037 392.697 100.093C392.681 102.479 391.639 104.837 389.878 106.451C388.117 108.064 385.684 108.902 383.307 108.714" stroke="#FFCDDA" stroke-width="2" stroke-linecap="round" stroke-linejoin="round"/>
    <path d="M252.314 267.914C251.416 265.911 249.037 264.673 246.899 265.101C244.762 265.53 243.091 267.575 243.104 269.755C243.107 270.256 243.2 270.786 243.508 271.184C243.82 271.586 244.391 271.817 244.849 271.615C245.45 271.348 245.543 270.465 245.172 269.916C244.802 269.367 244.132 269.096 243.484 268.96C241.746 268.592 239.877 268.97 238.443 269.986C237.01 271.001 236.041 272.626 235.827 274.374" stroke="#FFCDDA" stroke-width="2" stroke-linecap="round" stroke-linejoin="round"/>
    <path d="M122.785 93.5733C124.316 88.4838 123.79 83.7434 121.961 79.7908C118.17 71.5973 108.765 66.7984 100.384 69.3363C97.7954 70.1201 95.3043 71.6044 93.1067 73.9057C92.4513 74.5922 91.8213 75.349 91.2231 76.1839C90.7325 76.8691 89.7021 76.7802 89.3364 76.021C88.8513 75.0143 88.3116 74.0942 87.7295 73.2488C85.9296 70.6334 83.7046 68.7726 81.2648 67.5929C69.6833 61.992 53.321 71.636 55.2504 87.7441C56.5197 98.3431 63.4252 107.651 70.3293 114.507L75.8223 145.401L73.1653 145.178C72.8715 145.154 72.6261 145.4 72.6519 145.694L72.9042 148.609L73.0093 149.824C73.0293 150.055 73.2115 150.237 73.4412 150.257L73.7379 150.283L74.4463 161.064L74.4736 161.477C74.5162 162.124 75.0261 162.643 75.6724 162.696L89.3349 163.816C89.9785 163.869 90.5646 163.443 90.7156 162.814L93.3061 152L93.6771 152.033C93.9191 152.054 94.1385 151.889 94.1855 151.65L94.9948 147.538C95.0269 147.375 94.9658 147.223 94.8586 147.116C94.7824 147.039 94.6857 146.981 94.5683 146.972L92.2609 146.778L102.942 117.415C111.093 111.852 119.695 103.848 122.785 93.5733ZM81.4443 145.872L80.2936 123.039C81.7349 124.109 82.971 124.964 83.8836 125.572C83.9862 125.64 84.0839 125.705 84.1785 125.767C84.3206 125.861 84.4553 125.949 84.5778 126.029C85.2217 126.446 86.0255 126.519 86.734 126.223C86.9926 126.116 87.2925 125.989 87.6294 125.843C87.6854 125.819 87.7446 125.793 87.8027 125.768C88.8227 125.323 90.1554 124.716 91.7049 123.95L86.6287 146.307L81.4443 145.872ZM70.7717 114.939C74.0491 118.146 77.2979 120.795 79.9166 122.759L81.0797 145.841L76.1933 145.431L70.7717 114.939ZM86.9939 146.336L92.1243 123.741C95.0467 122.28 98.6783 120.28 102.433 117.758L91.8886 146.746L86.9939 146.336Z" fill="#FF8BAA"/>
    <path d="M266.951 124.097C265.932 120.709 266.282 117.553 267.5 114.921C270.024 109.466 276.285 106.271 281.865 107.961C283.589 108.483 285.247 109.471 286.71 111.003C287.147 111.46 287.566 111.964 287.964 112.52C288.291 112.976 288.977 112.917 289.22 112.411C289.543 111.741 289.903 111.128 290.29 110.566C291.488 108.824 292.97 107.586 294.594 106.8C302.305 103.071 313.198 109.492 311.914 120.216C311.069 127.273 306.471 133.469 301.875 138.034L298.218 158.602L299.987 158.454C300.182 158.438 300.346 158.602 300.328 158.798L300.16 160.739L300.09 161.548C300.077 161.701 299.956 161.822 299.803 161.836L299.605 161.853L299.134 169.031L299.116 169.305C299.087 169.736 298.748 170.082 298.317 170.117L289.221 170.863C288.793 170.898 288.403 170.615 288.302 170.196L286.577 162.996L286.33 163.018C286.169 163.032 286.023 162.922 285.992 162.763L285.453 160.025C285.432 159.917 285.472 159.816 285.544 159.744C285.595 159.693 285.659 159.655 285.737 159.648L287.273 159.52L280.162 139.97C274.736 136.266 269.008 130.938 266.951 124.097ZM294.475 158.916L295.241 143.715C294.281 144.427 293.458 144.996 292.851 145.401C292.782 145.446 292.717 145.49 292.654 145.531C292.56 145.593 292.47 145.652 292.388 145.705C291.96 145.983 291.425 146.031 290.953 145.835C290.781 145.763 290.581 145.678 290.357 145.581C290.32 145.565 290.28 145.548 290.241 145.531C289.562 145.235 288.675 144.831 287.643 144.321L291.023 159.205L294.475 158.916ZM301.58 138.322C299.398 140.457 297.235 142.221 295.492 143.528L294.717 158.895L297.971 158.623L301.58 138.322ZM290.78 159.225L287.364 144.182C285.419 143.209 283.001 141.877 280.501 140.199L287.521 159.498L290.78 159.225Z" fill="#FF8BAA"/>
    <path d="M169.579 195.376C169.003 193.462 169.201 191.678 169.889 190.191C171.315 187.109 174.853 185.303 178.006 186.258C178.98 186.553 179.918 187.111 180.744 187.977C180.991 188.235 181.228 188.52 181.453 188.834C181.638 189.092 182.025 189.058 182.163 188.773C182.345 188.394 182.548 188.048 182.767 187.73C183.445 186.746 184.282 186.046 185.2 185.602C189.557 183.495 195.713 187.123 194.987 193.183C194.509 197.171 191.911 200.673 189.314 203.252L187.247 214.875L188.247 214.791C188.357 214.782 188.45 214.875 188.44 214.985L188.345 216.082L188.305 216.539C188.298 216.626 188.229 216.694 188.143 216.702L188.031 216.712L187.765 220.768L187.754 220.923C187.738 221.167 187.547 221.362 187.303 221.382L182.163 221.803C181.921 221.823 181.701 221.663 181.644 221.426L180.669 217.358L180.53 217.37C180.439 217.378 180.356 217.316 180.338 217.226L180.034 215.679C180.022 215.618 180.045 215.561 180.085 215.52C180.114 215.491 180.15 215.469 180.194 215.466L181.063 215.393L177.044 204.346C173.978 202.253 170.741 199.242 169.579 195.376ZM185.132 215.052L185.565 206.462C185.023 206.864 184.558 207.186 184.214 207.415C184.176 207.441 184.139 207.465 184.103 207.488C184.05 207.524 183.999 207.557 183.953 207.587C183.711 207.744 183.408 207.771 183.142 207.66C183.045 207.619 182.932 207.572 182.805 207.517C182.784 207.508 182.762 207.498 182.74 207.488C182.356 207.321 181.855 207.093 181.272 206.805L183.182 215.216L185.132 215.052ZM189.147 203.415C187.914 204.621 186.692 205.618 185.707 206.356L185.269 215.04L187.107 214.886L189.147 203.415ZM183.044 215.227L181.114 206.726C180.014 206.176 178.648 205.424 177.236 204.475L181.203 215.381L183.044 215.227Z" fill="#FF8BAA"/>
    <path d="M379.337 70.3601C379.74 69.0191 379.602 67.7702 379.12 66.7288C378.121 64.57 375.643 63.3056 373.435 63.9743C372.753 64.1808 372.096 64.5718 371.517 65.1782C371.345 65.3591 371.179 65.5585 371.021 65.7784C370.892 65.959 370.62 65.9355 370.524 65.7355C370.396 65.4703 370.254 65.2279 370.101 65.0051C369.626 64.316 369.04 63.8258 368.397 63.5149C365.346 62.0393 361.035 64.5802 361.543 68.8242C361.878 71.6168 363.697 74.0691 365.516 75.8755L366.963 84.0152L366.263 83.9565C366.186 83.9501 366.121 84.015 366.128 84.0925L366.195 84.8606L366.222 85.1807C366.228 85.2413 366.276 85.2894 366.336 85.2948L366.414 85.3016L366.601 88.1421L366.608 88.2507C366.619 88.4214 366.754 88.5581 366.924 88.5721L370.524 88.8671C370.693 88.8811 370.848 88.7689 370.887 88.6032L371.57 85.754L371.668 85.7626C371.731 85.7682 371.789 85.7247 371.802 85.6618L372.015 84.5782C372.023 84.5353 372.007 84.4954 371.979 84.467C371.959 84.4468 371.933 84.4317 371.902 84.4291L371.295 84.3782L374.109 76.6416C376.256 75.1759 378.523 73.0672 379.337 70.3601ZM368.445 84.1393L368.141 78.1235C368.521 78.4053 368.847 78.6307 369.087 78.7908C369.114 78.8088 369.14 78.8259 369.165 78.8424C369.202 78.867 369.238 78.8903 369.27 78.9112C369.44 79.0212 369.652 79.0403 369.838 78.9625C369.906 78.9341 369.986 78.9006 370.074 78.8622C370.089 78.8558 370.105 78.849 370.12 78.8424C370.389 78.7253 370.74 78.5653 371.148 78.3636L369.811 84.2539L368.445 84.1393ZM365.633 75.9895C366.496 76.8342 367.352 77.5324 368.042 78.0496L368.349 84.1311L367.061 84.0232L365.633 75.9895ZM369.907 84.2617L371.259 78.3085C372.029 77.9235 372.985 77.3965 373.974 76.7321L371.196 84.3698L369.907 84.2617Z" fill="#FF8BAA"/>
    <path d="M36.333 18.8083C36.7362 17.4674 36.5977 16.2184 36.1159 15.177C35.117 13.0182 32.639 11.7539 30.4309 12.4225C29.7488 12.629 29.0925 13.0201 28.5135 13.6264C28.3408 13.8073 28.1748 14.0067 28.0172 14.2267C27.8879 14.4072 27.6165 14.3838 27.5201 14.1838C27.3923 13.9185 27.2501 13.6761 27.0967 13.4533C26.6225 12.7643 26.0363 12.274 25.3935 11.9632C22.3421 10.4875 18.031 13.0284 18.5394 17.2725C18.8738 20.065 20.6932 22.5173 22.5123 24.3237L23.9595 32.4634L23.2595 32.4048C23.1821 32.3983 23.1174 32.4632 23.1242 32.5407L23.1907 33.3088L23.2184 33.629C23.2236 33.6896 23.2716 33.7377 23.3322 33.743L23.4103 33.7499L23.597 36.5904L23.6042 36.699C23.6154 36.8697 23.7497 37.0064 23.92 37.0204L27.5197 37.3154C27.6893 37.3293 27.8437 37.2172 27.8835 37.0515L28.566 34.2023L28.6638 34.2108C28.7275 34.2164 28.7853 34.173 28.7977 34.11L29.011 33.0265C29.0194 32.9836 29.0033 32.9437 28.9751 32.9153C28.955 32.8951 28.9295 32.8799 28.8986 32.8773L28.2906 32.8264L31.1047 25.0898C33.2523 23.6241 35.5189 21.5154 36.333 18.8083ZM25.4408 32.5875L25.1376 26.5718C25.5173 26.8535 25.843 27.0789 26.0835 27.2391C26.1105 27.2571 26.1362 27.2742 26.1612 27.2906C26.1986 27.3153 26.2341 27.3385 26.2663 27.3595C26.436 27.4694 26.6478 27.4885 26.8345 27.4107C26.9026 27.3823 26.9816 27.3489 27.0704 27.3105C27.0851 27.3041 27.1007 27.2972 27.116 27.2906C27.3848 27.1735 27.7359 27.0135 28.1442 26.8118L26.8067 32.7021L25.4408 32.5875ZM22.6288 24.4377C23.4923 25.2824 24.3483 25.9806 25.0382 26.4978L25.3447 32.5794L24.0573 32.4715L22.6288 24.4377ZM26.9029 32.71L28.2546 26.7568C29.0246 26.3717 29.9815 25.8447 30.9706 25.1804L28.1925 32.818L26.9029 32.71Z" fill="#FF8BAA"/>
    <path d="M156.893 254.634C157.296 253.293 157.157 252.044 156.675 251.003C155.677 248.844 153.199 247.58 150.991 248.248C150.308 248.455 149.652 248.846 149.073 249.452C148.9 249.633 148.734 249.832 148.577 250.052C148.448 250.233 148.176 250.209 148.08 250.009C147.952 249.744 147.81 249.502 147.656 249.279C147.182 248.59 146.596 248.1 145.953 247.789C142.902 246.313 138.591 248.854 139.099 253.098C139.433 255.891 141.253 258.343 143.072 260.149L144.519 268.289L143.819 268.23C143.742 268.224 143.677 268.289 143.684 268.366L143.75 269.135L143.778 269.455C143.783 269.515 143.831 269.563 143.892 269.569L143.97 269.576L144.157 272.416L144.164 272.525C144.175 272.695 144.309 272.832 144.48 272.846L148.079 273.141C148.249 273.155 148.403 273.043 148.443 272.877L149.126 270.028L149.223 270.037C149.287 270.042 149.345 269.999 149.357 269.936L149.571 268.852C149.579 268.809 149.563 268.769 149.535 268.741C149.515 268.721 149.489 268.706 149.458 268.703L148.85 268.652L151.664 260.916C153.812 259.45 156.078 257.341 156.893 254.634ZM146 268.413L145.697 262.397C146.077 262.679 146.403 262.905 146.643 263.065C146.67 263.083 146.696 263.1 146.721 263.116C146.758 263.141 146.794 263.164 146.826 263.185C146.996 263.295 147.207 263.314 147.394 263.236C147.462 263.208 147.541 263.175 147.63 263.136C147.645 263.13 147.66 263.123 147.676 263.116C147.944 262.999 148.295 262.839 148.704 262.638L147.366 268.528L146 268.413ZM143.188 260.263C144.052 261.108 144.908 261.806 145.598 262.324L145.904 268.405L144.617 268.297L143.188 260.263ZM147.462 268.536L148.814 262.582C149.584 262.197 150.541 261.67 151.53 261.006L148.752 268.644L147.462 268.536Z" fill="#FF8BAA"/>
  </g>
  <defs>
    <clipPath id="clip0_1978_81095">
      <rect width="436" height="280" fill="white" transform="translate(0.443359 0.217773)"/>
    </clipPath>
  </defs>
</svg>
