<svg width="146" height="120" viewBox="0 0 146 120" fill="none" xmlns="http://www.w3.org/2000/svg">
<g clip-path="url(#clip0_1504_148794)">
<path d="M93.4013 247.061C62.1071 243.311 23.5433 237.605 9.644 204.325C8.35016 201.228 7.38919 198.007 6.79666 194.713C6.55677 193.346 6.45635 191.994 6.33674 190.613C6.13474 188.371 6.51573 190.043 6.32556 190.58C8.83097 183.669 13.6156 178.59 19.2766 174.105C25.5622 169.123 32.5967 164.988 38.1841 159.15C44.0588 153.005 47.0744 145.293 48.5411 136.955C51.8024 118.381 46.952 102.093 38.5006 85.6639C33.8874 76.6903 28.6491 67.4614 27.013 57.3683C26.8535 56.363 26.793 55.3597 26.6575 54.3461C26.3316 51.8757 26.7482 53.9613 26.514 54.6042C26.2104 55.4342 26.9811 53.2373 27.1049 52.9226C28.427 49.4476 30.4628 46.2517 32.8279 43.4132C42.0329 32.3559 56.8128 26.6862 70.8446 31.0453C83.6444 35.0236 97.1355 48.2251 97.6371 62.5169C97.7196 64.8267 96.9394 67.4619 96.4952 69.8269C95.519 74.9497 94.7014 80.1174 94.4229 85.3435C94.0032 93.3193 94.5631 102.343 100.392 108.441C111.114 119.662 128.538 117.321 140.275 109.576C156.008 99.208 165.141 81.4689 180.938 71.1333C194.044 62.5617 212.955 61.8542 221.31 77.5919C222.001 78.8937 222.294 80.2335 222.842 81.558C224.088 84.544 225.59 72.2698 223.698 75.2348C223.18 76.0393 222.78 76.9024 222.225 77.7017C220.083 80.7984 217.413 83.4794 215.71 86.8867C212.129 94.0517 209.923 107.267 214.698 114.481C219.472 121.695 228.359 122.195 235.832 119.975C245.824 116.993 255.434 111.923 264.999 107.81C284.417 99.459 303.703 90.6732 323.318 82.8158C339.074 76.5006 357.776 71.6689 373.042 82.1632C376.256 84.3697 379.061 87.1526 381.198 90.4381C382.116 91.8519 382.964 93.3718 383.558 94.961C383.889 95.8434 383.98 96.8816 384.346 97.7339C385.639 100.776 383.626 96.7137 384.882 94.7028C383.221 97.3794 382.311 101.374 381.137 104.344C379.465 108.566 378.147 112.855 377.373 117.346C376.019 125.182 375.06 135.456 380.427 142.157C384.702 147.487 391.588 149.756 398.031 150.847C406.992 152.363 416.279 151.873 425.313 151.996C435.919 152.137 446.514 152.273 457.12 152.414C478.599 152.695 500.079 152.976 521.569 153.262C532.175 153.403 542.77 153.539 553.376 153.68C556.649 153.727 557.732 135.036 555.549 135.011C510.908 134.424 466.277 133.842 421.636 133.254C413.178 133.141 404.55 133.467 396.269 131.353C392.954 130.514 389.635 129.296 386.802 127.311C385.289 126.248 383.969 124.991 382.905 123.464C382.516 122.91 382.148 122.312 381.842 121.711C381.086 120.223 380.949 116.563 380.561 120.694C380.53 120.968 379.47 125.304 380.502 122.518C380.723 121.916 380.907 121.309 381.129 120.707C381.814 118.884 382.623 117.109 383.351 115.307C384.95 111.365 386.356 107.408 387.277 103.238C389.26 94.1686 390.067 83.6118 385.722 75.0258C377.578 58.943 358.384 55.1535 342.421 58.6672C332.613 60.8334 323.388 64.9731 314.203 68.9177C304.177 73.2254 294.162 77.5384 284.137 81.8461C274.111 86.1538 264.096 90.4668 254.07 94.7745C245.628 98.4081 235.179 104.702 225.623 102.032C223.789 101.514 221.977 100.645 220.459 99.4657C219.725 98.8947 219.038 98.2259 218.454 97.4942C218.02 96.9643 217.233 94.9435 216.746 94.6493L216.226 98.9438C215.158 103.437 215.155 104.543 216.23 102.269C216.863 101.588 217.358 100.665 217.93 99.9138C219.22 98.2354 220.589 96.6295 221.77 94.8707C226.732 87.4823 228.073 76.8406 226.974 68.0936C225.07 52.9541 209.976 43.5786 195.702 46.8802C176.696 51.2732 165.462 69.0678 152.519 82.0697C140.997 93.6465 124.012 103.033 107.964 93.9509C104.772 92.1446 102.125 89.5608 100.406 86.294C99.604 84.7765 99.203 83.2021 98.7689 81.5576C98.7149 81.3497 98.6483 78.4905 98.5526 80.6988C98.5897 79.7706 98.827 78.8004 98.9875 77.893C100.707 68.19 102.734 58.4714 101.687 48.5283C100.14 33.8272 91.0537 20.4268 77.6443 14.1668C64.0514 7.81609 48.5865 11.348 37.7712 21.2669C24.7686 33.1924 20.6383 53.1091 22.8289 70.2432C25.3486 89.8828 39.0497 105.142 43.9723 123.942C44.1426 124.59 45.6139 132.964 45.4125 132.924C43.8148 132.625 46.9169 130.184 45.4939 131.555C45.0848 131.95 44.6701 133.598 44.4176 134.084C43.3715 136.131 42.0358 137.961 40.5298 139.687C35.2138 145.766 28.2232 149.977 21.874 154.826C15.5249 159.676 10.1409 165.144 6.96976 172.485C3.34314 180.889 2.03723 190.494 2.0712 199.628C2.11969 214.964 8.17565 230.028 19.1589 240.788C31.4871 252.851 48.4822 258.588 64.9344 261.848C73.6467 263.577 82.4512 264.667 91.2525 265.722C93.978 266.049 96.1479 247.372 93.4252 247.053L93.4013 247.061Z" fill="#FFCDDA"/>
<path d="M139.595 39.1543C140.723 35.4036 140.336 31.9102 138.988 28.9975C136.194 22.9593 129.263 19.4229 123.087 21.2931C121.179 21.8707 119.344 22.9645 117.724 24.6605C117.241 25.1664 116.777 25.7241 116.336 26.3393C115.974 26.8443 115.215 26.7788 114.946 26.2193C114.588 25.4774 114.19 24.7994 113.761 24.1764C112.435 22.249 110.795 20.8777 108.997 20.0083C100.463 15.8808 88.4045 22.9879 89.8263 34.8585C90.7617 42.6694 95.8507 49.5285 100.939 54.581L104.987 77.348L103.029 77.1839C102.812 77.1658 102.631 77.3474 102.65 77.5641L102.836 79.7126L102.914 80.608C102.928 80.7775 103.063 80.9121 103.232 80.9271L103.45 80.9462L103.973 88.8911L103.993 89.1949C104.024 89.6723 104.4 90.0547 104.876 90.0938L114.945 90.9189C115.419 90.9579 115.851 90.6443 115.962 90.1808L117.871 82.2115L118.144 82.2355C118.323 82.2511 118.484 82.1296 118.519 81.9535L119.116 78.9229C119.139 78.8028 119.094 78.6912 119.015 78.6118C118.959 78.5552 118.888 78.5128 118.801 78.5056L117.101 78.3633L124.972 56.7239C130.979 52.6243 137.318 46.7262 139.595 39.1543ZM109.13 77.695L108.282 60.8689C109.344 61.657 110.255 62.2874 110.927 62.7353C111.003 62.7857 111.075 62.8335 111.145 62.8794C111.249 62.9485 111.349 63.0135 111.439 63.0721C111.913 63.3797 112.506 63.433 113.028 63.2155C113.218 63.136 113.439 63.0424 113.688 62.935C113.729 62.9171 113.773 62.8979 113.815 62.8795C114.567 62.552 115.549 62.1045 116.691 61.5403L112.95 78.0156L109.13 77.695ZM101.265 54.8998C103.68 57.2625 106.074 59.2154 108.004 60.662L108.861 77.6723L105.26 77.3705L101.265 54.8998ZM113.219 78.0375L117 61.3864C119.154 60.3093 121.83 58.8352 124.597 56.9771L116.826 78.3397L113.219 78.0375Z" fill="#FF8BAA"/>
<path d="M45.8524 45.4388C45.2474 43.4268 45.4552 41.5528 46.1782 39.9903C47.6769 36.7512 51.395 34.8541 54.708 35.8573C55.7315 36.1672 56.7163 36.7539 57.585 37.6637C57.8441 37.9351 58.0932 38.2343 58.3297 38.5643C58.5237 38.8352 58.931 38.8001 59.0755 38.5C59.2673 38.102 59.4807 37.7382 59.7108 37.404C60.4223 36.3701 61.3019 35.6345 62.2665 35.1681C66.8449 32.954 73.3133 36.7665 72.5506 43.1344C72.0488 47.3244 69.3189 51.0039 66.5895 53.7143L64.418 65.9274L65.4684 65.8394C65.5845 65.8297 65.6815 65.9271 65.6713 66.0434L65.5716 67.1959L65.53 67.6762C65.5221 67.7672 65.4501 67.8394 65.3593 67.8474L65.242 67.8577L64.962 72.1196L64.9512 72.2826C64.9343 72.5387 64.7328 72.7439 64.4772 72.7648L59.0761 73.2074C58.8217 73.2284 58.59 73.0601 58.5303 72.8115L57.5062 68.5364L57.3596 68.5493C57.2639 68.5577 57.1772 68.4925 57.1586 68.398L56.8386 66.7723C56.826 66.7079 56.8501 66.648 56.8925 66.6054C56.9226 66.5751 56.9609 66.5523 57.0072 66.5484L57.9194 66.4721L53.6971 54.8638C50.4748 52.6647 47.0739 49.5007 45.8524 45.4388ZM62.1955 66.1136L62.6504 57.0874C62.0806 57.5102 61.5919 57.8484 61.2312 58.0886C61.1906 58.1156 61.152 58.1413 61.1146 58.1659C61.0584 58.203 61.0052 58.2379 60.9568 58.2693C60.7022 58.4343 60.3844 58.4629 60.1043 58.3462C60.0021 58.3036 59.8835 58.2534 59.7504 58.1957C59.7282 58.1861 59.7048 58.1758 59.6818 58.1659C59.2786 57.9903 58.7518 57.7502 58.1392 57.4476L60.146 66.2856L62.1955 66.1136ZM66.4146 53.8853C65.119 55.1528 63.8347 56.2004 62.7994 56.9764L62.3396 66.1014L64.2713 65.9395L66.4146 53.8853ZM60.0016 66.2973L57.9734 57.365C56.8181 56.7872 55.3825 55.9965 53.8983 54.9997L58.0666 66.4594L60.0016 66.2973Z" fill="#FF8BAA"/>
<path d="M66.578 79.7826C66.6538 79.4136 67.181 79.4136 67.2568 79.7826L67.9102 82.9635C67.9381 83.0993 68.0442 83.2053 68.1799 83.2332L71.3608 83.8866C71.7298 83.9624 71.7298 84.4896 71.3608 84.5654L68.1799 85.2188C68.0442 85.2467 67.9381 85.3528 67.9102 85.4885L67.2568 88.6694C67.181 89.0384 66.6538 89.0384 66.578 88.6694L65.9246 85.4885C65.8967 85.3528 65.7907 85.2467 65.6549 85.2188L62.474 84.5654C62.105 84.4896 62.105 83.9624 62.474 83.8866L65.6549 83.2332C65.7907 83.2053 65.8967 83.0993 65.9246 82.9635L66.578 79.7826Z" fill="#FF8BAA"/>
<path d="M78.634 66.5155C78.7551 65.9262 79.597 65.9262 79.718 66.5155L80.7616 71.5956C80.8061 71.8123 80.9755 71.9817 81.1923 72.0263L86.2724 73.0698C86.8617 73.1909 86.8617 74.0328 86.2724 74.1538L81.1923 75.1974C80.9755 75.2419 80.8061 75.4113 80.7616 75.628L79.718 80.7082C79.597 81.2975 78.7551 81.2975 78.634 80.7082L77.5905 75.628C77.5459 75.4113 77.3766 75.2419 77.1598 75.1974L72.0797 74.1538C71.4904 74.0328 71.4904 73.1909 72.0797 73.0698L77.1598 72.0263C77.3766 71.9817 77.5459 71.8123 77.5905 71.5956L78.634 66.5155Z" fill="#FFCDDA"/>
<path d="M31.1835 5.53919C31.2669 5.13277 31.8476 5.13277 31.9311 5.5392L32.6507 9.04272C32.6814 9.19221 32.7983 9.30903 32.9478 9.33974L36.4513 10.0594C36.8577 10.1429 36.8577 10.7235 36.4513 10.807L32.9478 11.5267C32.7983 11.5574 32.6814 11.6742 32.6507 11.8237L31.9311 15.3273C31.8476 15.7337 31.2669 15.7337 31.1834 15.3273L30.4638 11.8237C30.4331 11.6742 30.3162 11.5574 30.1667 11.5267L26.6632 10.807C26.2568 10.7235 26.2568 10.1429 26.6632 10.0594L30.1667 9.33974C30.3162 9.30903 30.4331 9.19221 30.4638 9.04272L31.1835 5.53919Z" fill="#FFCDDA"/>
<path d="M7.00181 36.4447C7.0853 36.0383 7.66592 36.0383 7.74941 36.4447L8.4691 39.9482C8.49981 40.0977 8.61663 40.2145 8.76612 40.2453L12.2696 40.9649C12.6761 41.0484 12.6761 41.6291 12.2696 41.7125L8.76612 42.4322C8.61663 42.4629 8.49981 42.5798 8.4691 42.7293L7.74941 46.2328C7.66592 46.6392 7.0853 46.6392 7.00181 46.2328L6.28212 42.7293C6.25141 42.5798 6.13459 42.4629 5.9851 42.4322L2.48158 41.7125C2.07515 41.6291 2.07515 41.0484 2.48158 40.9649L5.9851 40.2453C6.13459 40.2145 6.25141 40.0977 6.28212 39.9482L7.00181 36.4447Z" fill="#FFCDDA"/>
<path d="M134.582 54.2727C134.673 53.8293 135.306 53.8293 135.397 54.2727L136.182 58.0951C136.216 58.2582 136.343 58.3857 136.506 58.4192L140.329 59.2044C140.772 59.2954 140.772 59.9289 140.329 60.02L136.506 60.8052C136.343 60.8387 136.216 60.9661 136.182 61.1292L135.397 64.9516C135.306 65.395 134.673 65.395 134.582 64.9516L133.796 61.1292C133.763 60.9661 133.635 60.8387 133.472 60.8052L129.65 60.02C129.207 59.9289 129.207 59.2954 129.65 59.2044L133.472 58.4192C133.635 58.3857 133.763 58.2582 133.796 58.0951L134.582 54.2727Z" fill="#FFCDDA"/>
<path d="M114.271 7.27592C114.362 6.8325 114.996 6.83251 115.087 7.27592L115.872 11.0983C115.905 11.2614 116.033 11.3888 116.196 11.4223L120.018 12.2075C120.462 12.2986 120.462 12.9321 120.018 13.0232L116.196 13.8084C116.033 13.8419 115.905 13.9693 115.872 14.1324L115.087 17.9548C114.996 18.3982 114.362 18.3982 114.271 17.9548L113.486 14.1324C113.452 13.9693 113.325 13.8419 113.162 13.8084L109.339 13.0232C108.896 12.9321 108.896 12.2986 109.339 12.2075L113.162 11.4223C113.325 11.3888 113.452 11.2614 113.486 11.0983L114.271 7.27592Z" fill="#FF8BAA"/>
<path d="M9.32125 66.9299C9.42609 66.4195 10.1552 66.4195 10.26 66.9299L11.1638 71.3294C11.2024 71.5172 11.3491 71.6639 11.5368 71.7024L15.9363 72.6062C16.4467 72.711 16.4467 73.4401 15.9363 73.545L11.5368 74.4487C11.3491 74.4873 11.2024 74.634 11.1638 74.8217L10.26 79.2212C10.1552 79.7316 9.42609 79.7316 9.32125 79.2212L8.4175 74.8217C8.37894 74.634 8.23225 74.4873 8.04453 74.4487L3.64498 73.545C3.13461 73.4401 3.13462 72.711 3.64499 72.6062L8.04453 71.7024C8.23225 71.6639 8.37894 71.5172 8.4175 71.3294L9.32125 66.9299Z" fill="#FFCDDA"/>
<path d="M16.5961 28.7448C16.5961 28.7448 16.6298 29.4158 16.8476 29.7954C16.9827 30.0329 17.5191 30.4033 17.3727 30.5344C17.2007 30.6861 16.5951 30.6704 16.3875 30.746C16.18 30.8216 16.0236 31.0731 15.7727 31.07C15.4763 31.0641 15.9395 30.6058 15.9269 30.0757C15.9144 29.5456 15.6114 28.817 15.6114 28.817L16.5989 28.7464L16.5961 28.7448Z" fill="#FF8BAA"/>
<path d="M9.25554 26.8638C9.65929 27.1943 10.0719 27.4944 10.4934 27.7639C12.4625 29.0304 14.56 29.6419 16.3412 29.5564C17.9521 28.7916 19.5125 27.2608 20.6519 25.2174C20.8942 24.7815 21.1187 24.3218 21.3188 23.8398C23.201 19.3286 22.3544 14.6804 19.4272 13.4605C17.3901 12.6097 14.8818 13.6443 12.9093 15.8753C10.1177 14.8385 7.418 15.1095 6.02306 16.8206C4.02022 19.2786 5.46628 23.7766 9.25387 26.8666L9.25554 26.8638Z" fill="#FF8BAA"/>
<path d="M17.5123 39.5548C17.5123 39.5548 17.5323 39.5498 17.54 39.5431C17.5961 39.5125 17.6138 39.442 17.5832 39.386C17.3132 38.911 17.3028 38.3332 17.3225 37.8847C17.3274 37.782 17.3324 37.6793 17.3379 37.5788C17.3812 36.7728 17.4235 36.0096 17.0638 35.2149C16.9143 34.882 16.7243 34.5662 16.5414 34.2605C16.2981 33.8543 16.0463 33.4337 15.8923 32.9792C15.6754 32.3399 15.4718 31.6029 15.5907 30.9667C15.7025 30.3771 16.177 30.2747 16.7276 30.1556C16.8258 30.1333 16.9268 30.1127 17.0245 30.0882C17.0867 30.0726 17.1233 30.0116 17.1077 29.9494C17.0921 29.8872 17.031 29.8506 16.9688 29.8662C16.8734 29.8902 16.7752 29.9124 16.6786 29.9319C16.128 30.051 15.5053 30.1835 15.3653 30.9241C15.2353 31.6103 15.4484 32.385 15.6742 33.0504C15.8366 33.5288 16.0955 33.9594 16.3439 34.3761C16.5228 34.6757 16.7095 34.9875 16.8557 35.3072C17.1931 36.0508 17.1542 36.7519 17.1103 37.5651C17.1053 37.6678 17.1004 37.7705 17.0933 37.8737C17.0719 38.3533 17.0829 38.9711 17.3824 39.4977C17.4079 39.5432 17.4607 39.5654 17.5095 39.5531L17.5123 39.5548Z" fill="#FF8BAA"/>
<path d="M15.9411 30.0033L16.8157 29.784C16.8779 29.7684 16.9145 29.7073 16.8989 29.6452C16.8833 29.583 16.8223 29.5464 16.7601 29.562L15.8854 29.7813C15.8233 29.7968 15.7867 29.8579 15.8023 29.9201C15.8178 29.9822 15.8789 30.0188 15.9411 30.0033Z" fill="#FF8BAA"/>
<path d="M18.8166 102.324C18.8166 102.324 18.7677 103.296 18.4522 103.845C18.2566 104.189 17.4796 104.726 17.6918 104.916C17.9409 105.136 18.818 105.113 19.1187 105.222C19.4193 105.332 19.6458 105.696 20.0092 105.692C20.4385 105.683 19.7676 105.019 19.7858 104.251C19.804 103.484 20.2428 102.428 20.2428 102.428L18.8126 102.326L18.8166 102.324Z" fill="#FF8BAA"/>
<path d="M29.4488 99.5991C28.864 100.078 28.2664 100.513 27.6559 100.903C24.8038 102.737 21.7657 103.623 19.1857 103.499C16.8524 102.391 14.5922 100.174 12.9419 97.2145C12.5909 96.5831 12.2657 95.9172 11.9759 95.2192C9.24968 88.685 10.476 81.9523 14.7158 80.1854C17.6665 78.9531 21.2996 80.4516 24.1565 83.6831C28.2 82.1814 32.1104 82.5738 34.1309 85.0522C37.0318 88.6125 34.9373 95.1276 29.4512 99.6032L29.4488 99.5991Z" fill="#FF8BAA"/>
<path d="M17.4896 117.981C17.4896 117.981 17.4607 117.974 17.4494 117.964C17.3682 117.92 17.3426 117.818 17.3869 117.737C17.778 117.049 17.793 116.212 17.7645 115.562C17.7574 115.414 17.7502 115.265 17.7423 115.119C17.6795 113.952 17.6183 112.846 18.1392 111.695C18.3558 111.213 18.631 110.756 18.8958 110.313C19.2484 109.725 19.613 109.115 19.8361 108.457C20.1502 107.531 20.4452 106.464 20.2729 105.542C20.111 104.688 19.4237 104.54 18.6262 104.367C18.484 104.335 18.3376 104.305 18.1962 104.27C18.1061 104.247 18.0531 104.159 18.0757 104.069C18.0983 103.979 18.1867 103.926 18.2768 103.948C18.415 103.983 18.5573 104.015 18.6972 104.043C19.4946 104.216 20.3966 104.408 20.5993 105.48C20.7877 106.474 20.479 107.596 20.152 108.56C19.9168 109.253 19.5417 109.877 19.1819 110.48C18.9228 110.914 18.6524 111.366 18.4406 111.829C17.9519 112.906 18.0083 113.922 18.0719 115.099C18.0791 115.248 18.0862 115.397 18.0966 115.546C18.1275 116.241 18.1116 117.136 17.6778 117.899C17.6408 117.965 17.5644 117.997 17.4936 117.979L17.4896 117.981Z" fill="#FF8BAA"/>
<path d="M19.765 104.147L18.4981 103.829C18.4081 103.807 18.3551 103.718 18.3777 103.628C18.4002 103.538 18.4887 103.485 18.5787 103.508L19.8456 103.825C19.9357 103.848 19.9887 103.936 19.9661 104.026C19.9435 104.116 19.8551 104.169 19.765 104.147Z" fill="#FF8BAA"/>
<path d="M68.4313 107.853C70.4081 108.497 72.6727 108.188 74.4004 107.038C76.1323 105.884 77.2932 103.916 77.4556 101.846C77.5443 100.707 77.3326 99.5002 76.6357 98.5945C75.9388 97.6887 74.7063 97.1474 73.6084 97.4781C72.5148 97.8044 71.7526 99.1189 72.2003 100.173C72.7767 101.535 74.6479 101.647 76.1038 101.405C78.7496 100.96 81.4208 99.9715 83.1896 97.961C84.9583 95.9506 85.5379 92.7355 83.9653 90.5618" stroke="#FFCDDA" stroke-width="2" stroke-linecap="round" stroke-linejoin="round"/>
<path d="M67.6045 5.88904C67.3338 7.49007 67.8318 9.20445 68.9181 10.4077C70.0083 11.6137 71.6618 12.2853 73.2799 12.1737C74.1696 12.1119 75.078 11.81 75.698 11.1678C76.3181 10.5257 76.5952 9.51136 76.2139 8.70098C75.8366 7.89336 74.7337 7.45501 73.9702 7.92165C72.9844 8.5229 73.112 9.9815 73.4658 11.0787C74.1122 13.0721 75.1821 15.0227 76.938 16.1592C78.6939 17.2956 81.2445 17.3752 82.7439 15.9112" stroke="#FF8BAA" stroke-width="2" stroke-linecap="round" stroke-linejoin="round"/>
<path d="M47.0781 78.6934C43.0707 76.399 40.1641 72.284 39.353 67.7357C39.13 66.5047 39.073 65.1727 39.6527 64.0637C40.2325 62.9547 41.6183 62.1913 42.7784 62.6856C44.4107 63.3782 44.2018 66.0705 42.7012 67.0079C41.2007 67.9453 39.1805 67.4952 37.68 66.5649C33.4425 63.9322 32.1951 57.487 35.1603 53.4697" stroke="#FF8BAA" stroke-width="2" stroke-linecap="round" stroke-linejoin="round"/>
</g>
<defs>
<clipPath id="clip0_1504_148794">
<rect width="146" height="119" fill="white" transform="translate(0 0.818848)"/>
</clipPath>
</defs>
</svg>
