<svg width="436" height="281" viewBox="0 0 436 281" fill="none" xmlns="http://www.w3.org/2000/svg">
  <g clip-path="url(#clip0_1978_81148)">
    <path d="M139.287 435.343C83.6471 408.328 15.777 373.026 11.3298 302.388C10.9149 295.815 11.197 289.225 12.2093 282.736C12.6407 280.046 13.3211 277.474 13.9848 274.835C15.0469 270.548 14.6818 273.894 13.9848 274.768C23.0618 263.555 35.1922 257.201 48.5671 252.51C63.4189 247.299 79.1169 244.139 93.222 236.893C108.057 229.261 118.594 216.889 126.659 202.364C144.614 170.004 146.058 136.685 140.914 100.795C138.109 81.1936 134.309 60.7183 137.744 40.949C138.093 38.9821 138.624 37.0825 139.022 35.1157C140.001 30.3247 139.437 34.4601 138.59 35.5023C137.495 36.8472 140.333 33.2665 140.764 32.7622C145.444 27.1643 151.268 22.5414 157.475 18.7926C181.636 4.18417 212.683 3.14192 235.915 20.2215C257.106 35.8049 273.667 68.9386 265.436 95.7684C264.109 100.106 260.972 104.493 258.633 108.595C253.538 117.471 248.709 126.532 244.843 136.047C238.952 150.571 234.206 167.667 241.109 182.713C253.804 210.4 287.623 217.225 314.356 210.383C350.183 201.238 378.492 174.19 414.419 165.146C444.222 157.648 479.75 168.457 485.16 203.003C485.608 205.861 485.292 208.534 485.458 211.341C485.857 217.679 496.51 195.876 491.1 200.162C489.623 201.322 488.329 202.667 486.786 203.793C480.829 208.164 474.158 211.425 468.814 216.653C457.58 227.648 445.018 250.745 449.25 267.186C453.481 283.627 469.644 290.25 484.927 290.923C505.371 291.797 526.446 288.552 546.823 287.056C588.193 284.014 629.595 280.08 671.014 278.079C704.286 276.466 742.07 279.492 763.659 308.742C768.206 314.895 771.625 321.854 773.483 329.318C774.28 332.529 774.877 335.891 774.96 339.22C775.01 341.069 774.512 343.052 774.645 344.868C775.093 351.34 773.964 342.514 777.582 339.589C772.786 343.49 768.538 350.315 764.456 355.072C758.648 361.83 753.454 368.941 749.14 376.775C741.606 390.442 733.242 408.883 738.901 424.752C743.415 437.377 754.732 446.001 765.983 452.153C781.631 460.71 799.171 465.753 815.848 471.771C835.429 478.832 854.994 485.875 874.575 492.936C914.235 507.225 953.895 521.514 993.572 535.82C1013.15 542.88 1032.72 549.924 1052.3 556.984C1058.34 559.17 1072.33 525.195 1068.3 523.75C985.872 494.045 903.465 464.358 821.042 434.653C805.427 429.022 789.214 424.096 775.209 414.867C769.6 411.186 764.224 406.798 760.241 401.301C758.117 398.359 756.474 395.182 755.479 391.669C755.114 390.391 754.815 389.046 754.632 387.735C754.184 384.491 756.275 377.615 752.906 385.029C752.674 385.516 747.928 392.879 751.629 388.374C752.425 387.399 753.155 386.39 753.952 385.415C756.391 382.473 759.03 379.7 761.535 376.825C767.028 370.538 772.172 364.099 776.553 356.955C786.045 341.405 794.309 322.342 791.753 303.632C786.958 268.581 753.786 249.249 721.925 245.534C702.344 243.265 682.58 245.03 663.016 246.459C641.659 248.022 620.319 249.602 598.962 251.166C577.606 252.729 556.266 254.309 534.909 255.873C516.921 257.201 493.506 262.177 477.493 251.098C474.423 248.963 471.619 246.19 469.561 243.029C468.565 241.5 467.719 239.818 467.105 238.087C466.64 236.826 466.475 232.573 465.761 231.716L462.044 239.348C457.182 246.997 456.468 249.048 459.92 245.517C461.529 244.66 463.04 243.265 464.583 242.239C468.051 239.953 471.619 237.852 474.938 235.347C488.877 224.823 498.186 205.945 501.754 189.017C507.927 159.716 485.94 132.651 457.348 129.625C419.281 125.59 387.038 151.395 354.696 167.213C325.905 181.301 288.386 187.823 264.441 160.691C259.678 155.295 256.426 148.806 255.33 141.645C254.816 138.316 255.082 135.139 255.33 131.81C255.364 131.39 257.073 126.044 255.48 130.079C256.144 128.381 257.206 126.734 258.085 125.153C267.494 108.259 277.484 91.5321 281.914 72.4184C288.469 44.1598 280.205 13.4804 259.346 -6.72591C238.205 -27.218 207.257 -30.5802 180.839 -19.1153C149.078 -5.33063 128.651 28.963 121.731 62.1472C113.815 100.19 129.447 137.274 126.526 175.299C126.427 176.611 123.788 193.085 123.44 192.883C120.669 191.303 127.987 188.765 124.469 190.395C123.457 190.866 121.631 193.657 120.851 194.396C117.599 197.523 113.948 200.061 110.048 202.297C96.2919 210.165 80.627 213.493 65.742 218.419C50.8571 223.344 37.366 230.035 26.7789 241.617C14.6652 254.881 6.08601 271.86 0.294648 288.821C-9.44613 317.299 -7.86968 349.121 5.60478 376.119C20.7387 406.395 48.5837 427.929 77.0095 444.521C92.0604 453.313 107.692 460.979 123.34 468.577C128.186 470.931 144.183 437.679 139.337 435.343H139.287Z" fill="#DDCBF8"/>
    <path d="M151.375 51.1493C151.454 50.7653 152.002 50.7653 152.081 51.1493L152.761 54.4595C152.79 54.6007 152.9 54.7111 153.042 54.7401L156.352 55.4201C156.736 55.4989 156.736 56.0475 156.352 56.1264L153.042 56.8064C152.9 56.8354 152.79 56.9458 152.761 57.087L152.081 60.3972C152.002 60.7811 151.454 60.7811 151.375 60.3972L150.695 57.087C150.666 56.9458 150.555 56.8354 150.414 56.8064L147.104 56.1264C146.72 56.0475 146.72 55.4989 147.104 55.4201L150.414 54.7401C150.555 54.7111 150.666 54.6007 150.695 54.4595L151.375 51.1493Z" fill="#DDCBF8"/>
    <path d="M331.158 98.3222C331.291 97.6764 332.213 97.6764 332.346 98.3222L333.49 103.889C333.538 104.127 333.724 104.312 333.962 104.361L339.529 105.505C340.174 105.637 340.174 106.56 339.529 106.693L333.962 107.836C333.724 107.885 333.538 108.071 333.49 108.308L332.346 113.875C332.213 114.521 331.291 114.521 331.158 113.875L330.015 108.308C329.966 108.071 329.78 107.885 329.543 107.836L323.976 106.693C323.33 106.56 323.33 105.637 323.976 105.505L329.543 104.361C329.78 104.312 329.966 104.127 330.015 103.889L331.158 98.3222Z" fill="#DDCBF8"/>
    <path d="M342.846 16.8254C342.947 16.3368 343.645 16.3368 343.745 16.8254L344.61 21.0372C344.647 21.2169 344.788 21.3573 344.967 21.3942L349.179 22.2594C349.668 22.3597 349.668 23.0577 349.179 23.1581L344.967 24.0233C344.788 24.0602 344.647 24.2006 344.61 24.3803L343.745 28.5921C343.645 29.0806 342.947 29.0806 342.846 28.5921L341.981 24.3803C341.944 24.2006 341.804 24.0602 341.624 24.0233L337.412 23.1581C336.924 23.0577 336.924 22.3597 337.412 22.2594L341.624 21.3942C341.804 21.3573 341.944 21.2169 341.981 21.0372L342.846 16.8254Z" fill="#DDCBF8"/>
    <path d="M217.783 212.727C217.904 212.138 218.746 212.138 218.867 212.727L219.911 217.807C219.956 218.024 220.125 218.193 220.342 218.238L225.422 219.281C226.011 219.403 226.011 220.244 225.422 220.365L220.342 221.409C220.125 221.454 219.956 221.623 219.911 221.84L218.867 226.92C218.746 227.509 217.904 227.509 217.783 226.92L216.74 221.84C216.695 221.623 216.526 221.454 216.309 221.409L211.229 220.365C210.64 220.244 210.64 219.403 211.229 219.281L216.309 218.238C216.526 218.193 216.695 218.024 216.74 217.807L217.783 212.727Z" fill="#DDCBF8"/>
    <path d="M217.354 117.292C217.498 116.589 218.503 116.589 218.647 117.292L219.893 123.355C219.946 123.614 220.148 123.816 220.407 123.869L226.469 125.114C227.173 125.259 227.173 126.263 226.469 126.408L220.407 127.653C220.148 127.707 219.946 127.909 219.893 128.167L218.647 134.23C218.503 134.933 217.498 134.933 217.354 134.23L216.108 128.167C216.055 127.909 215.853 127.707 215.594 127.653L209.531 126.408C208.828 126.263 208.828 125.259 209.531 125.114L215.594 123.869C215.853 123.816 216.055 123.614 216.108 123.355L217.354 117.292Z" fill="#AF85EE"/>
    <path d="M323.605 241.676C323.741 241.014 324.687 241.014 324.823 241.676L325.995 247.384C326.045 247.628 326.235 247.818 326.479 247.868L332.187 249.041C332.849 249.177 332.849 250.123 332.187 250.259L326.479 251.431C326.235 251.481 326.045 251.672 325.995 251.915L324.823 257.623C324.687 258.285 323.741 258.285 323.605 257.623L322.432 251.915C322.382 251.672 322.192 251.481 321.948 251.431L316.24 250.259C315.578 250.123 315.578 249.177 316.24 249.041L321.948 247.868C322.192 247.818 322.382 247.628 322.432 247.384L323.605 241.676Z" fill="#DDCBF8"/>
    <path d="M386.937 61.8568C387.013 61.4878 387.54 61.4878 387.616 61.8568L388.27 65.0378C388.297 65.1735 388.404 65.2795 388.539 65.3074L391.72 65.9608C392.089 66.0367 392.089 66.5638 391.72 66.6396L388.539 67.293C388.404 67.3209 388.297 67.427 388.27 67.5627L387.616 70.7436C387.54 71.1126 387.013 71.1126 386.937 70.7436L386.284 67.5627C386.256 67.427 386.15 67.3209 386.014 67.293L382.833 66.6396C382.464 66.5638 382.464 66.0366 382.833 65.9608L386.014 65.3074C386.15 65.2795 386.256 65.1735 386.284 65.0378L386.937 61.8568Z" fill="#DDCBF8"/>
    <path d="M346.497 133.577C346.573 133.208 347.1 133.208 347.176 133.577L347.829 136.757C347.857 136.893 347.963 136.999 348.099 137.027L351.28 137.681C351.649 137.756 351.649 138.284 351.28 138.359L348.099 139.013C347.963 139.041 347.857 139.147 347.829 139.282L347.176 142.463C347.1 142.832 346.573 142.832 346.497 142.463L345.844 139.282C345.816 139.147 345.71 139.041 345.574 139.013L342.393 138.359C342.024 138.284 342.024 137.756 342.393 137.681L345.574 137.027C345.71 136.999 345.816 136.893 345.844 136.757L346.497 133.577Z" fill="#AF85EE"/>
    <path d="M217.11 71.2738C217.186 70.9048 217.713 70.9048 217.789 71.2738L218.442 74.4548C218.47 74.5905 218.576 74.6965 218.712 74.7244L221.893 75.3778C222.262 75.4536 222.262 75.9808 221.893 76.0566L218.712 76.71C218.576 76.7379 218.47 76.844 218.442 76.9797L217.789 80.1606C217.713 80.5296 217.186 80.5296 217.11 80.1606L216.457 76.9797C216.429 76.844 216.323 76.7379 216.187 76.71L213.006 76.0566C212.637 75.9808 212.637 75.4536 213.006 75.3778L216.187 74.7244C216.323 74.6965 216.429 74.5905 216.457 74.4548L217.11 71.2738Z" fill="#DDCBF8"/>
    <path d="M159.521 134.66C159.597 134.291 160.124 134.291 160.2 134.66L160.854 137.84C160.881 137.976 160.988 138.082 161.123 138.11L164.304 138.764C164.673 138.839 164.673 139.367 164.304 139.442L161.123 140.096C160.988 140.124 160.881 140.23 160.854 140.365L160.2 143.546C160.124 143.915 159.597 143.915 159.521 143.546L158.868 140.365C158.84 140.23 158.734 140.124 158.598 140.096L155.417 139.442C155.048 139.367 155.048 138.839 155.417 138.764L158.598 138.11C158.734 138.082 158.84 137.976 158.868 137.84L159.521 134.66Z" fill="#AF85EE"/>
    <path d="M358.553 120.309C358.674 119.72 359.516 119.72 359.637 120.309L360.681 125.389C360.725 125.606 360.894 125.775 361.111 125.82L366.191 126.864C366.781 126.985 366.781 127.826 366.191 127.948L361.111 128.991C360.894 129.036 360.725 129.205 360.681 129.422L359.637 134.502C359.516 135.091 358.674 135.091 358.553 134.502L357.509 129.422C357.465 129.205 357.295 129.036 357.079 128.991L351.999 127.948C351.409 127.826 351.409 126.985 351.999 126.864L357.079 125.82C357.295 125.775 357.465 125.606 357.509 125.389L358.553 120.309Z" fill="#DDCBF8"/>
    <path d="M336.504 214.537C336.625 213.947 337.467 213.947 337.588 214.537L338.632 219.617C338.676 219.834 338.846 220.003 339.062 220.047L344.142 221.091C344.732 221.212 344.732 222.054 344.142 222.175L339.062 223.219C338.846 223.263 338.676 223.433 338.632 223.649L337.588 228.729C337.467 229.319 336.625 229.319 336.504 228.729L335.461 223.649C335.416 223.433 335.247 223.263 335.03 223.219L329.95 222.175C329.36 222.054 329.36 221.212 329.95 221.091L335.03 220.047C335.247 220.003 335.416 219.834 335.461 219.617L336.504 214.537Z" fill="#DDCBF8"/>
    <path d="M51.9517 176.978C52.0769 176.368 52.9475 176.368 53.0727 176.978L54.1519 182.231C54.198 182.455 54.3732 182.631 54.5973 182.677L59.851 183.756C60.4605 183.881 60.4605 184.752 59.851 184.877L54.5973 185.956C54.3732 186.002 54.198 186.177 54.1519 186.402L53.0727 191.655C52.9475 192.265 52.0769 192.265 51.9517 191.655L50.8725 186.402C50.8264 186.177 50.6512 186.002 50.4271 185.956L45.1734 184.877C44.5639 184.752 44.5639 183.881 45.1734 183.756L50.4271 182.677C50.6512 182.631 50.8264 182.455 50.8725 182.231L51.9517 176.978Z" fill="#DDCBF8"/>
    <path d="M17.2891 127.606C17.4143 126.996 18.2849 126.996 18.4101 127.606L19.4893 132.859C19.5354 133.083 19.7106 133.259 19.9347 133.305L25.1884 134.384C25.7979 134.509 25.7979 135.38 25.1884 135.505L19.9347 136.584C19.7106 136.63 19.5354 136.805 19.4893 137.029L18.4101 142.283C18.2849 142.893 17.4143 142.893 17.2891 142.283L16.2099 137.029C16.1638 136.805 15.9887 136.63 15.7645 136.584L10.5108 135.505C9.90135 135.38 9.90135 134.509 10.5108 134.384L15.7645 133.305C15.9887 133.259 16.1638 133.083 16.2099 132.859L17.2891 127.606Z" fill="#AF85EE"/>
    <path d="M38.1606 62.2145C38.3344 61.3686 39.5428 61.3686 39.7166 62.2145L41.2144 69.5061C41.2783 69.8172 41.5214 70.0603 41.8325 70.1242L49.1241 71.6221C49.97 71.7958 49.97 73.0042 49.1241 73.178L41.8325 74.6758C41.5214 74.7397 41.2783 74.9829 41.2144 75.294L39.7166 82.5856C39.5428 83.4314 38.3344 83.4314 38.1606 82.5856L36.6628 75.294C36.5989 74.9829 36.3558 74.7397 36.0447 74.6758L28.753 73.178C27.9072 73.0042 27.9072 71.7958 28.7531 71.6221L36.0447 70.1242C36.3558 70.0603 36.5989 69.8172 36.6628 69.5061L38.1606 62.2145Z" fill="#DDCBF8"/>
    <path d="M207.94 56.6675C207.94 56.6675 207.76 57.7576 207.334 58.3371C207.069 58.7 206.123 59.2053 206.338 59.4468C206.591 59.7266 207.583 59.8137 207.908 59.9759C208.233 60.1381 208.442 60.5782 208.853 60.6198C209.338 60.6653 208.667 59.8304 208.786 58.9667C208.905 58.1029 209.536 56.9689 209.536 56.9689L207.936 56.6697L207.94 56.6675Z" fill="#AF85EE"/>
    <path d="M220.283 54.9618C219.562 55.4267 218.832 55.84 218.093 56.2019C214.64 57.9044 211.099 58.5127 208.205 58.0413C205.715 56.4917 203.451 53.7 201.97 50.1493C201.655 49.392 201.374 48.599 201.137 47.7744C198.902 40.0534 201.151 32.6168 206.161 31.169C209.648 30.1585 213.553 32.316 216.36 36.3284C221.114 35.1545 225.474 36.1 227.435 39.1554C230.249 43.5444 227.049 50.6238 220.285 54.9667L220.283 54.9618Z" fill="#AF85EE"/>
    <path d="M202.123 80.3017C202.123 80.3017 202.091 80.2898 202.081 80.2745C201.999 80.2038 201.999 80.0441 202.074 79.9184C202.731 78.8539 202.992 77.5493 203.147 76.5359C203.182 76.3039 203.217 76.0718 203.25 75.8448C203.515 74.0234 203.765 72.2986 204.708 70.5149C205.101 69.7674 205.555 69.0602 205.993 68.3752C206.576 67.4653 207.179 66.523 207.631 65.5012C208.267 64.064 208.922 62.4057 208.988 60.9656C209.047 59.6309 208.287 59.3855 207.405 59.1001C207.248 59.0468 207.086 58.9973 206.931 58.9391C206.832 58.9021 206.796 58.7631 206.849 58.6232C206.901 58.4833 207.02 58.4024 207.119 58.4395C207.27 58.4964 207.427 58.5496 207.582 58.5964C208.464 58.8818 209.462 59.1996 209.388 60.8761C209.319 62.4294 208.632 64.1726 207.97 65.6684C207.494 66.7439 206.875 67.7085 206.279 68.6421C205.85 69.3134 205.403 70.012 205.021 70.7294C204.137 72.3985 203.908 73.9829 203.641 75.8206C203.606 76.0526 203.571 76.2847 203.54 76.518C203.374 77.6017 203.096 78.9964 202.367 80.1766C202.305 80.2786 202.206 80.3271 202.129 80.298L202.123 80.3017Z" fill="#AF85EE"/>
    <path d="M208.775 58.8459L207.387 58.3247C207.289 58.2877 207.24 58.1811 207.277 58.0824C207.314 57.9838 207.421 57.9353 207.519 57.9724L208.908 58.4935C209.006 58.5306 209.055 58.6372 209.018 58.7358C208.981 58.8345 208.874 58.8829 208.775 58.8459Z" fill="#AF85EE"/>
    <path d="M175.324 127.188C175.324 127.188 175.779 128.195 175.745 128.913C175.726 129.362 175.22 130.307 175.533 130.389C175.899 130.481 176.773 130.003 177.133 129.958C177.493 129.912 177.911 130.163 178.276 129.969C178.705 129.738 177.683 129.416 177.303 128.631C176.923 127.847 176.818 126.553 176.818 126.553L175.321 127.192L175.324 127.188Z" fill="#DDCBF8"/>
    <path d="M184.644 118.92C184.302 119.706 183.924 120.455 183.51 121.166C181.583 124.499 178.975 126.97 176.306 128.184C173.375 128.277 169.942 127.211 166.739 125.079C166.057 124.624 165.383 124.12 164.728 123.566C158.584 118.383 156.328 110.949 159.692 106.964C162.032 104.188 166.478 103.816 171.04 105.596C174.343 101.981 178.495 100.348 181.821 101.801C186.598 103.891 187.865 111.556 184.648 118.922L184.644 118.92Z" fill="#DDCBF8"/>
    <path d="M182.109 143.687C182.109 143.687 182.076 143.695 182.06 143.691C181.955 143.688 181.876 143.598 181.879 143.493C181.917 142.596 181.497 141.743 181.131 141.102C181.047 140.955 180.963 140.809 180.879 140.666C180.21 139.52 179.574 138.435 179.503 137.003C179.471 136.404 179.512 135.799 179.549 135.214C179.6 134.437 179.652 133.633 179.535 132.853C179.372 131.754 179.116 130.524 178.464 129.683C177.857 128.904 177.086 129.111 176.191 129.351C176.031 129.392 175.868 129.438 175.706 129.476C175.604 129.5 175.504 129.438 175.48 129.335C175.456 129.232 175.518 129.133 175.621 129.109C175.778 129.072 175.939 129.031 176.095 128.987C176.989 128.747 178 128.473 178.761 129.451C179.467 130.357 179.738 131.65 179.908 132.793C180.03 133.614 179.975 134.439 179.925 135.235C179.889 135.808 179.85 136.404 179.876 136.981C179.942 138.322 180.526 139.319 181.202 140.475C181.286 140.621 181.37 140.768 181.458 140.913C181.85 141.599 182.299 142.511 182.256 143.506C182.253 143.592 182.193 143.664 182.112 143.682L182.109 143.687Z" fill="#DDCBF8"/>
    <path d="M177.227 128.537L175.783 128.874C175.68 128.897 175.581 128.836 175.557 128.733C175.533 128.63 175.595 128.531 175.697 128.507L177.141 128.17C177.244 128.146 177.343 128.208 177.367 128.311C177.391 128.413 177.33 128.513 177.227 128.537Z" fill="#DDCBF8"/>
    <path d="M27.8348 193.922C27.8348 193.922 28.0163 194.736 28.3622 195.155C28.5771 195.418 29.311 195.759 29.1592 195.95C28.9804 196.172 28.2359 196.279 27.9977 196.415C27.7595 196.551 27.6206 196.891 27.3129 196.94C26.9489 196.995 27.42 196.337 27.2939 195.691C27.1678 195.045 26.6447 194.216 26.6447 194.216L27.8385 193.923L27.8348 193.922Z" fill="#AF85EE"/>
    <path d="M18.4579 193.153C19.0212 193.474 19.5889 193.755 20.161 193.996C22.8357 195.135 25.5306 195.445 27.6927 194.968C29.5045 193.696 31.0945 191.496 32.062 188.757C32.2675 188.173 32.4462 187.563 32.5904 186.932C33.9513 181.017 31.9438 175.505 28.1063 174.623C25.4353 174.008 22.5815 175.798 20.6336 178.941C17.0003 178.255 13.7527 179.151 12.403 181.537C10.4654 184.964 13.1751 190.167 18.4565 193.157L18.4579 193.153Z" fill="#AF85EE"/>
    <path d="M31.2151 206.961C31.2151 206.961 31.2385 206.951 31.2467 206.941C31.3089 206.892 31.3158 206.802 31.2667 206.74C30.8369 206.215 30.7035 205.51 30.6339 204.957C30.6184 204.83 30.603 204.703 30.5887 204.579C30.4734 203.584 30.3656 202.641 29.7594 201.743C29.5068 201.367 29.2082 201.02 28.9206 200.684C28.5378 200.238 28.1419 199.776 27.8584 199.252C27.4593 198.515 27.0561 197.655 27.0687 196.852C27.0823 196.107 27.6417 195.882 28.2906 195.621C28.4062 195.573 28.5255 195.527 28.6399 195.477C28.7128 195.445 28.7448 195.362 28.7127 195.289C28.6807 195.217 28.5983 195.185 28.5254 195.217C28.4136 195.266 28.298 195.314 28.1839 195.358C27.535 195.619 26.8005 195.911 26.784 196.847C26.7682 197.713 27.1909 198.617 27.6063 199.384C27.905 199.936 28.3119 200.409 28.703 200.867C28.9846 201.196 29.2782 201.539 29.524 201.9C30.0923 202.739 30.1911 203.605 30.3073 204.61C30.3227 204.737 30.3382 204.863 30.351 204.991C30.4251 205.583 30.5676 206.336 31.0442 206.918C31.085 206.969 31.1542 206.985 31.2114 206.96L31.2151 206.961Z" fill="#AF85EE"/>
    <path d="M27.2967 195.599L28.3214 195.147C28.3942 195.115 28.4262 195.033 28.3942 194.96C28.3621 194.887 28.2797 194.855 28.2069 194.887L27.1822 195.338C27.1094 195.371 27.0773 195.453 27.1094 195.526C27.1415 195.599 27.2239 195.631 27.2967 195.599Z" fill="#AF85EE"/>
    <path d="M354.919 241.881C354.919 241.881 354.737 242.695 354.391 243.114C354.176 243.377 353.442 243.718 353.594 243.909C353.773 244.131 354.518 244.238 354.756 244.374C354.994 244.51 355.133 244.85 355.441 244.899C355.805 244.954 355.333 244.296 355.459 243.65C355.586 243.004 356.109 242.175 356.109 242.175L354.915 241.882L354.919 241.881Z" fill="#AF85EE"/>
    <path d="M364.295 241.112C363.732 241.433 363.165 241.714 362.592 241.955C359.918 243.094 357.223 243.404 355.061 242.927C353.249 241.655 351.659 239.455 350.691 236.716C350.486 236.132 350.307 235.522 350.163 234.89C348.802 228.976 350.81 223.464 354.647 222.582C357.318 221.967 360.172 223.757 362.12 226.9C365.753 226.214 369.001 227.11 370.35 229.496C372.288 232.923 369.578 238.126 364.297 241.116L364.295 241.112Z" fill="#AF85EE"/>
    <path d="M351.538 254.92C351.538 254.92 351.515 254.91 351.507 254.9C351.445 254.851 351.438 254.761 351.487 254.699C351.917 254.174 352.05 253.469 352.12 252.916C352.135 252.789 352.15 252.662 352.165 252.538C352.28 251.542 352.388 250.6 352.994 249.702C353.247 249.326 353.545 248.979 353.833 248.643C354.216 248.197 354.612 247.735 354.895 247.211C355.294 246.474 355.697 245.614 355.685 244.811C355.671 244.066 355.112 243.841 354.463 243.58C354.347 243.532 354.228 243.486 354.113 243.436C354.041 243.404 354.009 243.321 354.041 243.248C354.073 243.176 354.155 243.144 354.228 243.176C354.34 243.225 354.455 243.273 354.57 243.317C355.218 243.578 355.953 243.87 355.969 244.805C355.985 245.672 355.562 246.576 355.147 247.343C354.848 247.895 354.442 248.368 354.05 248.826C353.769 249.155 353.475 249.498 353.229 249.859C352.661 250.698 352.562 251.564 352.446 252.569C352.431 252.695 352.415 252.822 352.402 252.95C352.328 253.542 352.186 254.295 351.709 254.877C351.668 254.928 351.599 254.944 351.542 254.919L351.538 254.92Z" fill="#AF85EE"/>
    <path d="M355.457 243.558L354.432 243.106C354.359 243.074 354.327 242.992 354.359 242.919C354.391 242.846 354.474 242.814 354.547 242.846L355.571 243.297C355.644 243.329 355.676 243.412 355.644 243.485C355.612 243.558 355.53 243.59 355.457 243.558Z" fill="#AF85EE"/>
    <path d="M36.1111 169.551C36.1111 169.551 36.1621 170.384 35.9457 170.882C35.8119 171.194 35.2011 171.725 35.3999 171.867C35.633 172.03 36.3781 171.927 36.6447 171.992C36.9112 172.056 37.1389 172.345 37.448 172.307C37.813 172.258 37.1782 171.757 37.1205 171.101C37.0628 170.445 37.3361 169.504 37.3361 169.504L36.1079 169.554L36.1111 169.551Z" fill="#DDCBF8"/>
    <path d="M44.9085 166.217C44.4559 166.68 43.9882 167.108 43.5053 167.498C41.2504 169.333 38.7467 170.377 36.5371 170.517C34.4438 169.796 32.307 168.122 30.619 165.758C30.2599 165.254 29.9194 164.718 29.606 164.151C26.6608 158.844 27.0639 152.991 30.5074 151.082C32.9036 149.751 36.1415 150.682 38.8832 153.162C42.1847 151.498 45.5534 151.459 47.5108 153.378C50.3214 156.135 49.158 161.884 44.9109 166.22L44.9085 166.217Z" fill="#DDCBF8"/>
    <path d="M36.4724 183.016C36.4724 183.016 36.447 183.013 36.4365 183.006C36.3631 182.976 36.3316 182.891 36.3615 182.818C36.6292 182.194 36.5622 181.48 36.476 180.929C36.4558 180.803 36.4355 180.677 36.4149 180.554C36.2501 179.565 36.0926 178.629 36.4267 177.599C36.5653 177.168 36.7562 176.752 36.9395 176.349C37.1838 175.815 37.4363 175.261 37.5637 174.679C37.7431 173.86 37.8926 172.923 37.658 172.154C37.4387 171.442 36.8391 171.381 36.1433 171.31C36.019 171.296 35.8915 171.285 35.7676 171.268C35.6887 171.257 35.6352 171.187 35.6458 171.108C35.6564 171.029 35.7268 170.976 35.8056 170.986C35.9267 171.003 36.051 171.017 36.1728 171.027C36.8686 171.098 37.6553 171.176 37.9302 172.07C38.1854 172.899 38.0294 173.884 37.8426 174.737C37.7083 175.349 37.4482 175.916 37.1992 176.465C37.0198 176.859 36.8325 177.27 36.6962 177.684C36.3825 178.649 36.5274 179.508 36.6938 180.506C36.7141 180.632 36.7343 180.758 36.7574 180.884C36.8499 181.473 36.9217 182.237 36.6248 182.928C36.5995 182.988 36.5375 183.022 36.4756 183.014L36.4724 183.016Z" fill="#DDCBF8"/>
    <path d="M37.0922 171.014L35.9827 170.864C35.9038 170.853 35.8502 170.783 35.8609 170.704C35.8715 170.625 35.9418 170.572 36.0207 170.582L37.1302 170.732C37.2091 170.743 37.2627 170.813 37.252 170.892C37.2414 170.971 37.171 171.025 37.0922 171.014Z" fill="#DDCBF8"/>
    <path d="M397.48 214.32C396.6 212.436 394.829 210.993 392.809 210.516C390.783 210.039 388.552 210.534 386.929 211.829C386.037 212.542 385.3 213.521 385.114 214.648C384.928 215.776 385.374 217.046 386.365 217.622C387.35 218.198 388.831 217.858 389.296 216.811C389.897 215.46 388.701 214.016 387.53 213.118C385.399 211.488 382.852 210.212 380.176 210.293C377.499 210.373 374.754 212.145 374.24 214.778" stroke="#AF85EE" stroke-width="2" stroke-linecap="round" stroke-linejoin="round"/>
    <path d="M148.719 174.93C146.947 176.919 146.024 179.651 146.235 182.309C146.39 184.304 147.22 186.317 148.806 187.538C150.392 188.758 152.796 188.988 154.388 187.773C155.491 186.937 155.869 184.892 154.593 184.353C153.657 183.957 152.629 184.713 152.021 185.531C149.295 189.186 150.38 195.072 154.233 197.513" stroke="#AF85EE" stroke-width="2" stroke-linecap="round" stroke-linejoin="round"/>
    <path d="M314.494 80.137C311.334 80.199 308.18 78.8049 306.105 76.4196C305.541 75.7752 305.039 75.0132 304.99 74.1582C304.94 73.3032 305.485 72.3676 306.34 72.2499C307.542 72.0826 308.366 73.7369 307.815 74.8149C307.264 75.893 305.919 76.339 304.711 76.3204C301.297 76.2647 298.298 72.919 298.627 69.5176" stroke="#AF85EE" stroke-width="2" stroke-linecap="round" stroke-linejoin="round"/>
    <path d="M396.197 89.2812C398.591 91.0015 399.542 94.4641 398.355 97.1618C397.168 99.8595 393.975 101.508 391.091 100.905C390.427 100.767 389.753 100.501 389.314 99.9889C388.872 99.4709 388.731 98.6581 389.132 98.1098C389.66 97.3908 390.856 97.5055 391.476 98.1404C392.097 98.7752 392.262 99.7291 392.254 100.619C392.238 103.005 391.196 105.363 389.435 106.976C387.674 108.589 385.241 109.427 382.864 109.239" stroke="#DDCBF8" stroke-width="2" stroke-linecap="round" stroke-linejoin="round"/>
    <path d="M251.87 268.439C250.972 266.436 248.594 265.198 246.456 265.627C244.318 266.056 242.648 268.1 242.661 270.28C242.663 270.782 242.757 271.311 243.065 271.71C243.377 272.111 243.947 272.342 244.405 272.14C245.006 271.873 245.099 270.991 244.729 270.441C244.359 269.892 243.689 269.621 243.041 269.485C241.303 269.118 239.434 269.495 238 270.511C236.566 271.527 235.598 273.152 235.384 274.899" stroke="#DDCBF8" stroke-width="2" stroke-linecap="round" stroke-linejoin="round"/>
    <path d="M122.342 94.0982C123.872 89.0087 123.347 84.2683 121.518 80.3157C117.727 72.1222 108.322 67.3233 99.9409 69.8612C97.352 70.645 94.861 72.1293 92.6634 74.4306C92.008 75.1171 91.3779 75.8739 90.7798 76.7088C90.2891 77.394 89.2588 77.3051 88.893 76.5459C88.408 75.5392 87.8682 74.6191 87.2861 73.7737C85.4862 71.1583 83.2613 69.2975 80.8214 68.1178C69.24 62.5169 52.8776 72.1609 54.807 88.269C56.0763 98.868 62.9819 108.176 69.886 115.032L75.3789 145.926L72.7219 145.703C72.4282 145.678 72.1828 145.925 72.2085 146.219L72.4609 149.134L72.566 150.349C72.5859 150.579 72.7681 150.762 72.9979 150.782L73.2945 150.808L74.0029 161.589L74.0303 162.002C74.0729 162.649 74.5827 163.168 75.2291 163.221L88.8916 164.341C89.5351 164.394 90.1212 163.968 90.2722 163.339L92.8627 152.525L93.2337 152.558C93.4757 152.579 93.6951 152.414 93.7421 152.175L94.5515 148.063C94.5835 147.9 94.5225 147.748 94.4152 147.641C94.3391 147.564 94.2423 147.506 94.125 147.496L91.8176 147.303L102.498 117.94C110.649 112.377 119.252 104.373 122.342 94.0982ZM81.0009 146.397L79.8502 123.564C81.2916 124.634 82.5276 125.489 83.4403 126.097C83.5429 126.165 83.6406 126.23 83.7352 126.292C83.8772 126.386 84.012 126.474 84.1344 126.554C84.7783 126.971 85.5822 127.044 86.2906 126.748C86.5492 126.641 86.8492 126.514 87.1861 126.368C87.2421 126.343 87.3012 126.317 87.3594 126.292C88.3794 125.848 89.712 125.241 91.2615 124.475L86.1853 146.832L81.0009 146.397ZM70.3283 115.464C73.6057 118.67 76.8545 121.32 79.4732 123.283L80.6364 146.366L75.75 145.956L70.3283 115.464ZM86.5505 146.861L91.6809 124.266C94.6033 122.805 98.235 120.805 101.989 118.283L91.4452 147.271L86.5505 146.861Z" fill="#AF85EE"/>
    <path d="M266.508 124.622C265.489 121.234 265.839 118.078 267.056 115.446C269.58 109.991 275.842 106.797 281.422 108.486C283.145 109.008 284.804 109.996 286.267 111.528C286.703 111.985 287.123 112.489 287.521 113.045C287.848 113.501 288.533 113.442 288.777 112.937C289.1 112.266 289.459 111.654 289.847 111.091C291.045 109.35 292.526 108.111 294.151 107.325C301.861 103.597 312.755 110.017 311.47 120.742C310.625 127.798 306.028 133.995 301.431 138.559L297.774 159.128L299.543 158.979C299.739 158.963 299.902 159.127 299.885 159.323L299.717 161.264L299.647 162.073C299.634 162.226 299.512 162.348 299.36 162.361L299.162 162.378L298.69 169.556L298.672 169.831C298.644 170.262 298.304 170.607 297.874 170.643L288.778 171.388C288.349 171.423 287.959 171.14 287.859 170.721L286.134 163.522L285.887 163.543C285.726 163.557 285.58 163.448 285.549 163.288L285.01 160.55C284.988 160.442 285.029 160.341 285.1 160.269C285.151 160.218 285.216 160.18 285.294 160.174L286.83 160.045L279.719 140.495C274.292 136.792 268.565 131.463 266.508 124.622ZM294.031 159.441L294.797 144.24C293.838 144.952 293.015 145.522 292.407 145.926C292.339 145.972 292.274 146.015 292.211 146.056C292.116 146.119 292.027 146.178 291.945 146.23C291.516 146.508 290.981 146.557 290.51 146.36C290.337 146.288 290.138 146.204 289.913 146.107C289.876 146.09 289.837 146.073 289.798 146.056C289.119 145.761 288.232 145.356 287.2 144.847L290.58 159.731L294.031 159.441ZM301.137 138.847C298.955 140.982 296.792 142.746 295.048 144.053L294.274 159.421L297.527 159.148L301.137 138.847ZM290.337 159.751L286.921 144.708C284.975 143.735 282.557 142.403 280.058 140.724L287.078 160.024L290.337 159.751Z" fill="#AF85EE"/>
    <path d="M169.135 195.902C168.56 193.987 168.757 192.204 169.445 190.716C170.872 187.634 174.41 185.828 177.563 186.783C178.537 187.078 179.474 187.637 180.301 188.502C180.548 188.761 180.785 189.045 181.01 189.359C181.194 189.617 181.582 189.584 181.719 189.298C181.902 188.919 182.105 188.573 182.324 188.255C183.001 187.271 183.838 186.571 184.756 186.127C189.113 184.02 195.269 187.648 194.543 193.709C194.066 197.696 191.468 201.198 188.87 203.777L186.804 215.4L187.803 215.316C187.914 215.307 188.006 215.4 187.996 215.511L187.902 216.607L187.862 217.064C187.855 217.151 187.786 217.22 187.7 217.227L187.588 217.237L187.321 221.293L187.311 221.448C187.295 221.692 187.103 221.887 186.86 221.907L181.72 222.328C181.478 222.348 181.257 222.188 181.201 221.952L180.226 217.883L180.086 217.895C179.995 217.903 179.913 217.841 179.895 217.751L179.591 216.204C179.579 216.143 179.602 216.086 179.642 216.045C179.671 216.017 179.707 215.995 179.751 215.991L180.619 215.919L176.601 204.871C173.534 202.778 170.298 199.767 169.135 195.902ZM184.689 215.577L185.122 206.987C184.579 207.39 184.114 207.712 183.771 207.94C183.732 207.966 183.696 207.99 183.66 208.014C183.606 208.049 183.556 208.082 183.51 208.112C183.267 208.269 182.965 208.296 182.699 208.185C182.601 208.145 182.488 208.097 182.362 208.042C182.341 208.033 182.318 208.023 182.296 208.014C181.913 207.847 181.411 207.618 180.828 207.33L182.738 215.741L184.689 215.577ZM188.704 203.94C187.471 205.146 186.249 206.143 185.263 206.882L184.826 215.566L186.664 215.412L188.704 203.94ZM182.601 215.752L180.671 207.252C179.571 206.702 178.205 205.949 176.792 205.001L180.759 215.906L182.601 215.752Z" fill="#AF85EE"/>
    <path d="M378.894 70.885C379.297 69.544 379.158 68.2951 378.676 67.2537C377.678 65.0949 375.2 63.8305 372.991 64.4992C372.309 64.7057 371.653 65.0968 371.074 65.7031C370.901 65.884 370.735 66.0834 370.578 66.3033C370.448 66.4839 370.177 66.4604 370.081 66.2604C369.953 65.9952 369.811 65.7528 369.657 65.53C369.183 64.8409 368.597 64.3507 367.954 64.0398C364.903 62.5642 360.592 65.1051 361.1 69.3491C361.434 72.1417 363.254 74.594 365.073 76.4004L366.52 84.5401L365.82 84.4814C365.743 84.475 365.678 84.5399 365.685 84.6174L365.751 85.3855L365.779 85.7056C365.784 85.7662 365.832 85.8143 365.893 85.8197L365.971 85.8265L366.158 88.667L366.165 88.7756C366.176 88.9463 366.31 89.083 366.481 89.097L370.08 89.392C370.25 89.406 370.404 89.2938 370.444 89.1281L371.127 86.2789L371.224 86.2875C371.288 86.2931 371.346 86.2496 371.358 86.1867L371.572 85.1031C371.58 85.0602 371.564 85.0203 371.536 84.9919C371.516 84.9717 371.49 84.9566 371.459 84.954L370.851 84.9031L373.665 77.1665C375.813 75.7008 378.079 73.5921 378.894 70.885ZM368.001 84.6642L367.698 78.6484C368.078 78.9302 368.404 79.1556 368.644 79.3157C368.671 79.3337 368.697 79.3508 368.722 79.3673C368.759 79.3919 368.795 79.4152 368.827 79.4361C368.997 79.5461 369.208 79.5652 369.395 79.4874C369.463 79.459 369.542 79.4255 369.631 79.3871C369.646 79.3807 369.661 79.3739 369.677 79.3673C369.945 79.2502 370.296 79.0902 370.705 78.8885L369.367 84.7788L368.001 84.6642ZM365.189 76.5144C366.053 77.3591 366.909 78.0573 367.599 78.5745L367.905 84.656L366.618 84.5481L365.189 76.5144ZM369.463 84.7866L370.815 78.8334C371.585 78.4484 372.542 77.9214 373.531 77.257L370.753 84.8947L369.463 84.7866Z" fill="#AF85EE"/>
    <path d="M35.8896 19.3332C36.2928 17.9923 36.1544 16.7433 35.6725 15.7019C34.6736 13.5431 32.1957 12.2788 29.9876 12.9474C29.3055 13.1539 28.6491 13.545 28.0701 14.1513C27.8975 14.3322 27.7315 14.5316 27.5739 14.7516C27.4446 14.9321 27.1731 14.9087 27.0768 14.7087C26.949 14.4434 26.8067 14.201 26.6534 13.9782C26.1792 13.2892 25.5929 12.7989 24.9501 12.4881C21.8987 11.0124 17.5877 13.5533 18.096 17.7974C18.4304 20.5899 20.2499 23.0422 22.0689 24.8486L23.5162 32.9883L22.8161 32.9297C22.7387 32.9232 22.6741 32.9881 22.6808 33.0656L22.7473 33.8337L22.775 34.1539C22.7803 34.2145 22.8283 34.2626 22.8888 34.2679L22.967 34.2748L23.1536 37.1153L23.1608 37.2239C23.172 37.3946 23.3064 37.5313 23.4767 37.5453L27.0764 37.8403C27.2459 37.8542 27.4003 37.7421 27.4401 37.5764L28.1227 34.7272L28.2204 34.7357C28.2842 34.7413 28.342 34.6979 28.3544 34.6349L28.5676 33.5514C28.576 33.5085 28.56 33.4686 28.5317 33.4402C28.5116 33.42 28.4861 33.4048 28.4552 33.4022L27.8473 33.3513L30.6614 25.6147C32.809 24.149 35.0755 22.0403 35.8896 19.3332ZM24.9974 33.1124L24.6942 27.0967C25.074 27.3784 25.3997 27.6038 25.6401 27.764C25.6671 27.782 25.6929 27.7991 25.7178 27.8155C25.7552 27.8402 25.7907 27.8634 25.823 27.8844C25.9926 27.9943 26.2044 28.0134 26.3911 27.9356C26.4592 27.9072 26.5383 27.8738 26.627 27.8354C26.6418 27.829 26.6574 27.8221 26.6727 27.8155C26.9414 27.6984 27.2925 27.5384 27.7008 27.3367L26.3634 33.227L24.9974 33.1124ZM22.1855 24.9626C23.049 25.8073 23.9049 26.5055 24.5949 27.0227L24.9014 33.1043L23.6139 32.9964L22.1855 24.9626ZM26.4596 33.2349L27.8113 27.2817C28.5813 26.8966 29.5381 26.3696 30.5272 25.7053L27.7492 33.3429L26.4596 33.2349Z" fill="#AF85EE"/>
    <path d="M156.449 255.159C156.852 253.818 156.714 252.569 156.232 251.528C155.233 249.369 152.755 248.105 150.547 248.774C149.865 248.98 149.209 249.371 148.63 249.978C148.457 250.158 148.291 250.358 148.133 250.578C148.004 250.758 147.733 250.735 147.636 250.535C147.509 250.27 147.366 250.027 147.213 249.804C146.739 249.115 146.153 248.625 145.51 248.314C142.458 246.839 138.147 249.38 138.656 253.624C138.99 256.416 140.809 258.868 142.628 260.675L144.076 268.814L143.376 268.756C143.298 268.749 143.234 268.814 143.24 268.892L143.307 269.66L143.335 269.98C143.34 270.041 143.388 270.089 143.448 270.094L143.527 270.101L143.713 272.941L143.72 273.05C143.732 273.221 143.866 273.357 144.036 273.371L147.636 273.666C147.806 273.68 147.96 273.568 148 273.403L148.682 270.553L148.78 270.562C148.844 270.567 148.902 270.524 148.914 270.461L149.127 269.378C149.136 269.335 149.12 269.295 149.091 269.266C149.071 269.246 149.046 269.231 149.015 269.228L148.407 269.177L151.221 261.441C153.369 259.975 155.635 257.867 156.449 255.159ZM145.557 268.939L145.254 262.923C145.634 263.205 145.959 263.43 146.2 263.59C146.227 263.608 146.252 263.625 146.277 263.642C146.315 263.666 146.35 263.69 146.383 263.711C146.552 263.821 146.764 263.84 146.951 263.762C147.019 263.733 147.098 263.7 147.187 263.662C147.201 263.655 147.217 263.648 147.232 263.642C147.501 263.525 147.852 263.365 148.26 263.163L146.923 269.053L145.557 268.939ZM142.745 260.789C143.609 261.633 144.465 262.332 145.154 262.849L145.461 268.93L144.173 268.823L142.745 260.789ZM147.019 269.061L148.371 263.108C149.141 262.723 150.098 262.196 151.087 261.531L148.309 269.169L147.019 269.061Z" fill="#AF85EE"/>
  </g>
  <defs>
    <clipPath id="clip0_1978_81148">
      <rect width="436" height="280" fill="white" transform="translate(0 0.743164)"/>
    </clipPath>
  </defs>
</svg>
