<svg xmlns="http://www.w3.org/2000/svg" xmlns:xlink="http://www.w3.org/1999/xlink" width="437" height="281" fill="none" xmlns:v="https://vecta.io/nano"><style><![CDATA[.B{fill:#ffdecd}.C{fill:#ffb28b}.D{stroke:#ffb28b}.E{stroke-linecap:round}]]></style><g clip-path="url(#C)"><path d="M495.633 185.897c-45.656-24.424-103.159-55.121-161.507-29.135-13.975 6.221-28.413 16.944-36.028 31.644.04-.058-2.148 4.236-1.641 3.22 1.532-3.022.15-2.102.141.269-.004 1.298-.064 2.574-.005 3.863.278 6.985 1.842 13.599 4.179 19.757 11.05 29.225 37.812 42.899 64.393 53.675 27.611 11.203 60.07 20.852 75.538 48.874 6.196 11.238 7.826 24.792 6.464 38.812-1.546 15.842-5.794 34.031-15.253 48.201-17.048 25.552-45.277 24.508-66.719 17.135-28.461-9.776-55.075-25.673-79.832-42.024-26.311-17.38-50.836-37.367-73.367-59.627-21.807-21.535-43.473-45.161-59.607-72.123-7.035-11.754-12.284-25.173-12.62-40.238-.362-16.486 3.73-35.126 11.286-51.012 6.328-13.303 15.737-22.786 28.746-27.763s28.546-6.263 38.5-18.172c1.144-1.377 1.879-4.937.343 1.128-.342 1.353-.536 6.658-.941 2.87-.292-2.719-.48-5.381-1.167-7.963-1.957-7.28-5.991-13.234-11.708-17.365-11.222-8.115-26.31-9.34-40.779-7.722-30.312 3.408-62.29 21.293-91.562 13.811-12.821-3.274-23.398-12.069-26.705-25.9-3.495-14.628.53-34.546 8.085-49.201S74.547-2.354 88.436-5.026c15.105-2.903 27.352 2.282 41.146 4.813C134.97.781 140.805.803 145.927-3.4c1.357-1.109 2.288-2.531 3.538-3.731l.901-1.46L146.965 6.8c-.617-.549-1.245-4.63-1.676-5.631-.908-2.12-2.055-4.081-3.262-5.998-8.665-13.657-19.48-25.886-29.237-38.609-18.043-23.5-38.588-46.09-52.84-72.804-13.236-24.809-15.269-52.943-5.528-83.664 9.629-30.354 33.815-56.791 64.04-58.823 13.33-.904 25.673 3.098 35.216 11.225 2.791 2.369.179 11.312-.614 14.832-.221.975-4.662 15.522-5.97 14.407-20.082-17.102-52.416-14.706-74.917 7.771-5.497 5.482-10.322 11.842-13.763 18.839-.605 1.239-2.354 6.625-1.745 3.473-.488 2.466-.351 5.059-.233 7.433.63 12.755 5.044 24.38 10.469 34.859 13.138 25.34 32.359 46.614 49.331 68.72l29.666 38.669c3.746 5.035 7.473 10.365 8.919 16.965 1.802 8.199-.431 18.055-2.877 26.618-3.804 13.263-11.901 25.558-25.694 24.379-5.831-.499-11.188-2.686-16.759-4.012-6.916-1.647-14.154-2.628-21.581-2.064s-14.704 2.532-21.482 6.695a47.25 47.25 0 0 0-8.364 6.566c-2.859 2.818-4.452 6.585-6.997 9.382 4.622-5.064 1.377-13.446 2.202-6.098.179 1.63.545 3.134 1.003 4.65a32.44 32.44 0 0 0 3.688 7.971c3.916 6.145 9.745 10.218 16.429 12.712 27.129 10.132 58.86-5.633 87.759-11.051 26.606-4.994 57.899-.417 63.236 29.777 2.519 14.206-.732 31.821-6.813 46.203-5.647 13.349-15.134 18.432-27.422 22.577-13.402 4.515-27.314 7.119-37.268 19.97-1.971 2.546-3.742 5.42-5.065 8.348-.196.445-1.64 5.086-.656 1.168.83-3.305.037-1.222.133-.642.474 2.929.032 6.334.476 9.346.598 4.145 1.685 8.1 3.023 11.922 4.633 13.196 12.476 24.383 20.483 35.068 9.615 12.847 19.824 25.167 30.578 36.908 21.562 23.571 45.356 44.794 70.976 63.473 24.954 18.181 51.656 33.952 79.783 47.019 19.278 8.946 45.664 20.392 68.838 5.808 5.204-3.274 9.978-7.839 13.476-13.155 1.434-2.184 2.323-4.508 3.526-6.75.536-.996-.174 2.958-.434 1.854-.245-1.043.189-2.897.164-4.009-.21-14.55-7.133-26.876-16.024-36.106-21.666-22.497-54.732-28.976-82.155-42.255-23.623-11.438-44.616-28.729-50.99-57.146-5.751-25.641.958-62.012 20.624-84.579 20.488-23.501 51.623-31.024 77.729-30.807 27.95.234 53.786 9.106 77.845 20.164 12.25 5.632 24.133 11.915 35.994 18.25 5.325 2.849-5.618 29.757-6.584 29.239l.013.043z" class="B"/><path d="M39.833 159.107c1.288 2.947 4.045 10.577.145 22.152-4.006 11.89 5.385 21.865 10.954 20.227 5.736-1.687 3.691-10.685-2.892-8.915-8.732 2.348-9.564 30.508 17.334 53.689" class="D E"/><g class="C"><path d="M57.674 131.988c1.887 13.293-4.759 32.726-16.132 34.34s-22.943-13.637-25.052-28.494c-1.614-11.373 6.296-21.901 17.669-23.516s21.9 6.298 23.515 17.67z"/><path d="M44.389 169.329l-4.748.674.781-5.826 1.594-.226 2.373 5.378z"/></g><path d="M267.499 57.884c.749 2.695 2.955 8.425-.131 18.589-3.807 12.539 8.157 16.911 4.142 31.291-5.335 19.107 5.796 23.717 1.84 35.318" class="D E"/><g class="B"><path d="M286.787 39.208c0 10.622-8.097 25.103-18.087 25.103s-18.087-13.231-18.087-25.103c0-9.087 8.097-16.453 18.087-16.453s18.087 7.367 18.087 16.454z"/><path d="M270.785 67.242h-4.17l1.384-4.921h1.4l1.386 4.921z"/></g><path d="M369.974 199.636c.516 2.75 1.043 14.376-1.721 24.632-6.864 25.479.557 46.587 6.346 54.213" class="D E"/><g class="C"><path d="M389.556 179.953c-1.001 11.682-9.778 26.974-18.923 26.19s-15.311-15.971-14.192-29.028c.857-9.993 8.964-17.46 18.109-16.677s15.862 9.522 15.006 19.515z"/><path d="M372.46 209.242l-4.155-.356 1.799-4.785 1.395.12.961 5.021z"/></g><path d="M228.529 164.114l.095-.391-5.468-1.243-.087.363a24.4 24.4 0 0 1-2.57 6.446l-27.911 48.494 38.232 9.218-2.937-55.893c-.123-2.351.094-4.706.646-6.994z" class="B"/><g class="C"><path d="M214.371 179.935l13.541-8.279-.029-.548a24.39 24.39 0 0 1 .072-3.535l-9.982 6.104-3.602 6.258zm-8.77 15.24l22.813-13.951-.206-3.93-19.005 11.622-3.602 6.259zm-8.772 15.237l32.09-19.619-.207-3.93-28.28 17.291-3.603 6.258zm1.742 8.813l30.85-18.864-.208-3.929-35.401 21.644 4.759 1.149zm11.583 2.794l19.768-12.087-.206-3.932-24.319 14.87 4.757 1.149zm11.583 2.792l8.688-5.311-.207-3.93-13.238 8.094 4.757 1.147zm9.084 2.19l-.1-1.862-2.157 1.319 2.257.543z"/><path d="M192.624 217.626c.606-2.509 9.655-2.482 20.215.064s18.625 6.645 18.018 9.155-9.656 2.483-20.213-.063-18.623-6.645-18.02-9.156zm27.277-56.445c0-3.531 2.862-6.392 6.392-6.392s6.392 2.861 6.392 6.392a6.39 6.39 0 1 1-12.784 0z"/><path d="M191.781 215.913a2.65 2.65 0 0 1 2.649-2.649 2.65 2.65 0 0 1 2.648 2.649 2.65 2.65 0 0 1-2.648 2.648 2.65 2.65 0 0 1-2.649-2.648z"/><path d="M196.05 215.57a3.46 3.46 0 0 1 3.457-3.457 3.46 3.46 0 0 1 3.457 3.457 3.46 3.46 0 0 1-3.457 3.457 3.46 3.46 0 0 1-3.457-3.457z"/><path d="M202.964 215.762a3.46 3.46 0 0 1 3.457-3.457 3.46 3.46 0 0 1 3.458 3.457 3.46 3.46 0 0 1-3.458 3.457 3.46 3.46 0 0 1-3.457-3.457z"/><path d="M208.564 216.615a4.31 4.31 0 1 1 8.62 0 4.31 4.31 0 1 1-8.62 0z"/><path d="M216.331 219.225a3.46 3.46 0 0 1 3.456-3.458 3.46 3.46 0 0 1 3.458 3.458 3.46 3.46 0 0 1-3.458 3.457 3.46 3.46 0 0 1-3.456-3.457zm6.506 2.794a3.46 3.46 0 0 1 3.456-3.458 3.46 3.46 0 0 1 3.458 3.458 3.46 3.46 0 0 1-3.458 3.457c-1.909 0-3.456-1.548-3.456-3.457z"/><path d="M227.021 225.476c0-1.475 1.196-2.672 2.671-2.672s2.672 1.196 2.672 2.672-1.196 2.671-2.672 2.671a2.67 2.67 0 0 1-2.671-2.671z"/></g><g class="B"><path d="M110.504 141.578c-4.017-.609-8.062.916-10.792 3.895-2.495 2.723-3.715 6.894-1.75 10.244 2.033 3.468 7.684 3.668 8.934-.548 1.289-4.347-3.882-7.187-7.397-7.747-4.459-.711-9.321 1.04-11.948 4.782-.731 1.042 2.246 1.808 2.909.864 1.65-2.351 4.399-3.924 7.29-4.011 2.573-.077 6.018 1.381 6.233 4.337.081 1.125-.453 2.689-1.597 3.132-.054.021-.443.083-.256.077.087-.002-.166-.044-.25-.092-.53-.302-.929-.897-1.196-1.428-1.345-2.684-.378-5.851 1.384-8.095 1.908-2.432 5.058-4.155 8.201-3.679.513.078 1.551.014 1.658-.657.11-.678-.957-1.004-1.422-1.074zM68.9 219.51c1.435-3.189 3.128-7.184 6.413-8.185 2.403-.731 5.24 2.135 5.727 5.102.288 1.757-.128 3.41-.95 4.618-.394.579-.887 1.109-1.479 1.427-.068.036-.706.228-.71.249.033-.154.372.246.114-.04-.509-.567-.957-.789-1.16-1.645-.206-.869.029-1.613.462-2.168.1-.128 1.332-1.191 1.466-.91a.84.84 0 0 1-.275-.007c.037.019.439.188.578.263 2.61 1.407 4.647 4.908 4.273 7.88-.057.451 3.32 1.332 3.44.379.466-3.704-2.567-7.586-5.7-8.907-1.987-.838-4.491-1.13-6.149-.172-1.34.775-2.395 2.888-.775 4.736 1.63 1.857 4.64 1.963 6.372 1.583 1.853-.406 3.194-1.931 3.764-3.942.556-1.96.178-4.366-1.266-6.262-1.523-2-3.828-2.912-5.826-3.263-2.686-.471-5.18-.118-7.145 1.51-2.094 1.734-3.337 4.474-4.521 7.107-.226.503 1.048.741 1.272.785.424.082 1.843.374 2.075-.138zM7.761 78.405c.348 2.16 1.217 4.941 3.641 5.498 1.342.308 2.523-.357 3.713-.861.967-.41 1.867-.406 2.725.26.845.656 1.443 1.75 1.164 2.832-.314 1.221 1.558 1.347 1.837.266.628-2.438-1.163-4.941-3.588-5.406-1.381-.265-2.535.381-3.763.893-.968.404-1.849.389-2.546-.472-.822-1.013-1.127-2.402-1.329-3.659-.082-.509-.742-.66-1.154-.516-.503.175-.783.65-.7 1.164zm369.314 18.806c-.453-2.254-.993-4.747-.263-7.002.541-1.672 1.777-3.331 3.608-3.645 2.137-.366 4.268.76 6.416.194 1.503-.395 2.759-1.447 3.512-2.798.877-1.573 1.028-3.472.274-5.12-.269-.59-1.019-1-1.622-1.153-.366-.093-1.142-.099-.868.5 1.266 2.77-.791 6.613-3.871 6.941-2.152.229-4.239-.827-6.388-.161-1.701.527-2.939 2.006-3.524 3.648-.873 2.444-.37 5.074.125 7.54.123.61.809 1.027 1.345 1.243.208.084 1.374.405 1.256-.187z"/></g><path d="M326.795 98.297l-1.763 1.37-.875.68-.421.326-.405.3c-.535.404-1.012.741-1.473.997a4.08 4.08 0 0 1-.336.189c-.037.029-.08.046-.132.073-.034.01-.099.044-.14.063l-.764.316c-.958.399-1.758.651-2.307.783l-.632.144-.229.046-.228.045-.632.083c-.1.022-.393.042-.516.048a2.04 2.04 0 0 1-.438.022c-.175.005-.393 0-.666-.009-.131 0-.284-.011-.445-.018l-.26.013-.072-.004c-.051-.004-.103-.005-.162-.001-.067-.011-.122-.009-.188-.018l-.366-.039-.789-.117c-.544-.098-1.112-.246-1.72-.427l-.466-.152-.223-.074-.202-.076-.858-.37a12.9 12.9 0 0 1-1.661-.941c-1.068-.714-2.017-1.598-2.778-2.54-.751-.933-1.324-1.919-1.708-2.785a12.3 12.3 0 0 1-.749-2.206l-.174-.861s-.005-.081-.035-.234l-.072-.642c-.058-.556-.1-1.368-.013-2.326l.013-.096c.003-.032-.002-.017.003-.032l.022-.104.073-.436.175-.881.199-.869c.015-.053.039-.121.046-.181.017-.058.046-.111.054-.174l.151-.409c.408-1.108 1.035-2.218 1.847-3.184a11.64 11.64 0 0 1 2.79-2.459 12.48 12.48 0 0 1 1.524-.815l.74-.303.354-.129c.07-.025.128-.038.182-.065l.025-.005.053-.011.09-.014c.058-.015.11-.026.177-.033l.345-.065.67-.111.6-.074.28-.039c.029.006.04-.002.04-.002l.031-.013.668-.007.236.005s.321-.002.89.057l1.038.112.544.103.643.168c.885.276 1.882.731 2.83 1.394.943.665 1.825 1.558 2.504 2.579a10.2 10.2 0 0 1 1.404 3.339l.152.849c.049.251.059.49.066.74.015.495-.022 1.004-.073 1.523l-.097.76-.008.1c-.006.031-.022.069-.024.103l-.055.262c-.086.343-.189.641-.286.875l-.233.566-.097.191s-.043.061-.101.193l-.316.552-.248.395-.151.219-.152.211c-.212.292-.472.596-.797.907-.624.629-1.481 1.252-2.512 1.703s-2.218.701-3.391.678c-.597-.02-1.178-.093-1.725-.237-.28-.074-.541-.165-.806-.262l-.762-.343a7.52 7.52 0 0 1-2.286-1.874c-.545-.686-.875-1.335-1.074-1.795l-.199-.559-.059-.187-.057-.204-.106-.554c-.089-.491-.149-1.187.001-1.989a6.56 6.56 0 0 1 .374-1.266c.042-.062.064-.124.096-.195l.035-.102.045-.076a2.93 2.93 0 0 1 .165-.316c.116-.224.252-.428.4-.629a5.41 5.41 0 0 1 2.514-1.836 4.9 4.9 0 0 1 3.026-.12 4.06 4.06 0 0 1 .675.251.37.37 0 0 1 .141.065c.048.024.097.043.149.079.098.051.19.112.279.171.376.236.69.53.936.807.508.585.75 1.152.857 1.536.055.19.078.35.093.44.01.108.215 1.011.499 1.378.713.918 1.996 1.029 2.974.375.96-.643.828-2.074.797-2.323l-.224-1.041c-.244-.872-.768-2.074-1.758-3.198a8.85 8.85 0 0 0-1.798-1.567l-.558-.34-.291-.153-.318-.147c-.42-.2-.828-.347-1.273-.471-.89-.243-1.84-.38-2.808-.346-.962.034-1.925.228-2.842.546a9.71 9.71 0 0 0-4.496 3.303c-.276.356-.518.735-.735 1.121l-.284.573-.077.146-.045.125c-.045.078-.08.163-.115.247-.331.741-.552 1.509-.672 2.217a10.22 10.22 0 0 0-.011 3.419c.063.406.136.724.203.941l.083.311.088.324c.061.214.181.517.332.896.312.738.835 1.773 1.701 2.848.875 1.074 2.085 2.179 3.642 2.981a11.51 11.51 0 0 0 1.189.536c.413.158.847.304 1.286.415.874.226 1.786.348 2.713.377a12.44 12.44 0 0 0 5.186-1.039 12.62 12.62 0 0 0 3.833-2.582c.478-.476.892-.954 1.208-1.408l.251-.323c.061-.108.131-.205.193-.293l.334-.529.435-.777.152-.274.144-.301c.097-.175.223-.464.369-.841l.435-1.371.097-.426.056-.262c.004-.066.01-.141.022-.195l.021-.088.089-.841c.067-.61.13-1.317.099-2.107.004-.395-.034-.822-.098-1.238l-.219-1.185a14.53 14.53 0 0 0-2.013-4.754c-.979-1.488-2.246-2.762-3.606-3.722a14.49 14.49 0 0 0-4.049-1.99l-.915-.254c-.359-.089-.664-.125-.898-.161l-1.308-.167-1.169-.056s-.105-.005-.305.005c-.207-.005-.497-.008-.862.011a2.05 2.05 0 0 0-.216.007c-.075.013-.148.016-.225.028l-.291.039-.661.087-.778.125-.427.069-.484.096-.205.055-.184.061c-.087.022-.166.053-.241.082l-.482.168-.999.413a14.87 14.87 0 0 0-2.042 1.107 16.01 16.01 0 0 0-3.817 3.343c-1.118 1.347-1.984 2.88-2.554 4.417l-.194.576c-.046.105-.077.216-.111.331l-.076.294-.25 1.065-.197.973-.07.451-.031.11-.032.201-.024.311c-.113 1.281-.066 2.359.003 3.102l.112.878.043.303.055.306c.029.194.093.484.177.852.177.74.475 1.776 1.011 2.953.523 1.181 1.278 2.491 2.293 3.746s2.29 2.437 3.722 3.4c.702.477 1.459.905 2.219 1.266l1.162.499.31.111a3.31 3.31 0 0 0 .289.092l.552.188c.743.224 1.482.408 2.204.545l1.082.152c.167.031.341.047.517.066l.245.016.268.01c.067.007.147.021.213.01l.14-.007a1.05 1.05 0 0 1 .148.001l.334.001.792.018.848-.034.563-.063.869-.116.311-.05s.111-.03.304-.062l.857-.197c.714-.187 1.721-.503 2.846-.971l.868-.351.268-.123c.095-.043.202-.097.282-.148a5.55 5.55 0 0 0 .493-.281c.672-.375 1.304-.821 1.895-1.264l.447-.347.428-.332.872-.677 1.765-1.371 10.211-7.929-2.635-3.395c-.004.005-6.847 5.319-10.208 7.927z" class="C"/><g class="B"><path d="M348.496 84.756c-.405.296-.836.551-1.284.776-1.588.968-3.466 1.384-5.26 1.937-2.909.898-5.385 2.503-7.657 4.478l3.237 4.169 5.142-4.031 2.907-3.657c.384-.4 1.111-1.05 1.88-1.718l1.599-1.242-.564-.713zm-234.91 119.957l2.065-.754 1.023-.373.493-.181.462-.181c.616-.234 1.147-.456 1.602-.707.114-.053.224-.115.333-.18.043-.016.08-.043.13-.072.026-.023.088-.06.125-.084l.663-.472c.834-.591 1.463-1.125 1.861-1.514l.449-.452.159-.167.157-.166.399-.484a4.87 4.87 0 0 0 .311-.405c.079-.088.157-.198.247-.353l.341-.561.217-.38.147-.209.035-.063c.023-.044.049-.089.083-.135.027-.062.057-.108.084-.167l.159-.325.315-.719c.203-.505.377-1.057.544-1.657l.116-.469.056-.225.042-.207.14-.909a12.6 12.6 0 0 0 .084-1.878c-.036-1.263-.276-2.517-.664-3.644a12.58 12.58 0 0 0-1.429-2.881c-.534-.798-1.061-1.389-1.447-1.778l-.626-.595s-.066-.047-.177-.152l-.497-.396c-.433-.339-1.089-.799-1.933-1.227l-.087-.04c-.028-.014-.013-.01-.028-.014l-.098-.035-.401-.168-.826-.315-.829-.288c-.052-.015-.121-.031-.175-.057-.057-.016-.117-.019-.174-.045l-.419-.089c-1.138-.239-2.392-.297-3.622-.125-1.237.151-2.441.529-3.509 1.04-.521.252-1.021.539-1.477.844l-.64.458-.293.228c-.057.046-.099.087-.149.117l-.017.019-.038.038-.058.068a1.18 1.18 0 0 0-.12.131l-.235.253-.443.5-.375.462-.18.213c-.01.028-.022.032-.022.032l-.027.02-.356.552-.119.2s-.17.267-.418.772l-.449.924-.199.508-.195.624a10.21 10.21 0 0 0-.318 3.089 9.76 9.76 0 0 0 .84 3.436c.505 1.108 1.233 2.107 2.05 2.918l.628.57c.184.173.378.306.583.442a11.42 11.42 0 0 0 1.308.736l.684.318.088.044c.028.012.068.018.098.035l.248.091a6.3 6.3 0 0 0 .878.22l.595.101.209.019s.074-.004.214.016l.626.026h.459l.262-.011.255-.016c.355-.025.744-.082 1.173-.19.851-.192 1.819-.58 2.734-1.204a8.12 8.12 0 0 0 2.339-2.473c.296-.508.539-1.031.705-1.562.085-.272.145-.538.203-.809l.113-.815a7.42 7.42 0 0 0-.367-2.886c-.287-.814-.655-1.428-.935-1.835l-.362-.458-.125-.147-.141-.154-.405-.378c-.363-.331-.912-.746-1.66-1.04a6.38 6.38 0 0 0-1.251-.35c-.073.002-.137-.012-.212-.022l-.104-.025-.087-.001c-.116-.019-.226-.024-.349-.029-.248-.02-.489-.013-.735.005-.984.083-2.024.472-2.845 1.136-.842.646-1.416 1.543-1.683 2.46-.073.234-.117.478-.144.695-.017.063-.022.081-.019.151-.005.052-.015.104-.012.165-.009.109-.007.218-.004.322a4.31 4.31 0 0 0 .183 1.203c.222.73.569 1.228.833 1.518.129.145.251.248.318.307.085.066.731.708.888 1.137.392 1.075-.186 2.202-1.243 2.676-1.039.464-2.163-.394-2.354-.55l-.751-.732c-.599-.66-1.328-1.725-1.747-3.139-.207-.697-.351-1.48-.366-2.318l.008-.643.025-.324.043-.342a7.7 7.7 0 0 1 .273-1.307c.264-.869.647-1.733 1.181-2.523.531-.784 1.196-1.485 1.942-2.084 1.497-1.187 3.333-1.879 5.106-2.021.441-.043.883-.046 1.319-.026l.627.063.162.013.128.028c.088.003.178.018.266.033a9.21 9.21 0 0 1 2.2.599 10.09 10.09 0 0 1 2.856 1.779c.305.265.533.492.679.662l.216.233.224.242c.146.162.337.421.573.745a11.82 11.82 0 0 1 1.485 2.909c.437 1.291.726 2.877.58 4.595-.033.437-.093.832-.175 1.272-.084.427-.189.865-.326 1.289-.269.847-.645 1.672-1.105 2.46a12.25 12.25 0 0 1-3.58 3.78c-1.373.947-2.844 1.537-4.157 1.846-.647.149-1.261.244-1.805.27l-.4.041c-.122-.005-.24.002-.346.008l-.615.001-.876-.043-.308-.017s-.115-.019-.326-.037a7.44 7.44 0 0 1-.894-.133l-1.371-.354-.406-.142-.248-.091-.174-.084-.084-.028-.748-.365c-.543-.264-1.166-.58-1.808-1.02-.332-.204-.668-.458-.981-.729l-.874-.803c-1.158-1.147-2.187-2.58-2.91-4.165a13.83 13.83 0 0 1-1.217-4.952 14.25 14.25 0 0 1 .459-4.417l.267-.896c.113-.346.243-.619.335-.834l.545-1.177.565-1.004s.051-.09.163-.252l.46-.713.119-.176c.051-.056.092-.115.142-.174l.184-.222.418-.505.512-.584.281-.319.333-.353.153-.142.148-.122c.063-.06.131-.11.194-.158l.392-.314.867-.617c.608-.404 1.266-.79 1.991-1.123 1.431-.694 3.08-1.212 4.784-1.434a15.08 15.08 0 0 1 5.019.181l.582.139c.112.017.22.05.334.081l.284.091 1.019.349.914.344.413.177.108.032.185.078.271.143a17.06 17.06 0 0 1 2.585 1.625l.673.552.231.195.227.206a14.05 14.05 0 0 1 .618.594 15.85 15.85 0 0 1 1.933 2.387c.711 1.054 1.409 2.368 1.924 3.872a17.02 17.02 0 0 1 .888 4.881 16.45 16.45 0 0 1-.105 2.513l-.192 1.229-.07.317c-.02.101-.046.197-.074.289l-.132.559a21.2 21.2 0 0 1-.699 2.123l-.439.981c-.062.156-.139.309-.215.466l-.114.212-.132.229c-.03.06-.06.133-.104.183l-.079.114c-.026.032-.054.082-.076.123l-.174.279-.399.669-.472.69-.348.437-.551.663-.204.234s-.083.076-.21.221l-.613.611c-.53.498-1.32 1.172-2.298 1.865l-.747.54-.243.16a2.45 2.45 0 0 1-.271.157c-.157.098-.32.18-.492.264-.665.364-1.367.658-2.045.919l-.524.191-.5.183-1.021.373-2.066.755-11.952 4.366-1.452-3.973c.006-.001 8.016-2.927 11.948-4.365z"/></g><g class="C"><path d="M90.945 215.725c.458-.183.896-.409 1.319-.665 1.638-.818 2.967-2.166 4.366-3.373 2.27-1.956 4.904-3.18 7.738-4.042l1.784 4.88-6.051 2.179-4.57.511c-.534.111-1.456.377-2.416.669l-1.872.684-.299-.843z"/><use xlink:href="#D"/><path d="M403.401 108.557a3 3 0 1 0 0-6 3 3 0 1 0 0 6zm-78.348 108.715a3 3 0 1 0 0-6 3 3 0 1 0 0 6zM33.786 98.558a3 3 0 1 0 0-6 3 3 0 1 0 0 6zm242.052 174.333a3 3 0 1 0 0-6 3 3 0 1 0 0 6zM188.781 22.754a3 3 0 1 0 0-6 3 3 0 1 0 0 6zM89.01 256.921a3 3 0 1 0 0-6 3 3 0 1 0 0 6zm161.603-60.489a3 3 0 1 0 0-6 3 3 0 1 0 0 6zM391.608 34.039a3 3 0 0 0 0-6 3 3 0 0 0 0 6z"/></g><g class="B"><path d="M267.811 220.811a6 6 0 0 0 6-6c0-3.313-2.687-6-6-6a6 6 0 1 0 0 12zm135.216-49.931a6 6 0 1 0 0-12 6 6 0 1 0 0 12zM63.438 183.294a6 6 0 1 0 0-12 6 6 0 1 0 0 12zM361.372 62.322a6 6 0 1 0 0-12 6 6 0 1 0 0 12z"/></g><path d="M238.544 127.271l3.205-55.349 28.257 48.358s-11.652 12.235-31.462 6.991z" class="C"/><path d="M245.045 73.233a5.83 5.83 0 0 0 0-8.24 5.83 5.83 0 0 0-8.24 0 5.83 5.83 0 0 0 0 8.24 5.83 5.83 0 0 0 8.24 0z" class="B"/><mask id="A" maskUnits="userSpaceOnUse" x="238" y="71" width="33" height="58"><path d="M238.544 127.271l3.205-55.349 28.257 48.358s-11.652 12.235-31.462 6.991z" fill="#fff"/></mask><g mask="url(#A)" class="B"><path d="M242.188 78.469l1.203 3.806 2.689.611-1.946 2.963.459 4.183-2.405-1.975-2.406 1.975.46-4.183-1.946-2.963 2.689-.611 1.203-3.806zm18.184 25.968l2.614 3.016 2.711-.507-.611 3.492 2.082 3.657-2.991-.858-1.425 2.768-1.238-4.023-2.962-1.946 2.227-1.628-.407-3.971zm-20.645 6.832l1.422 3.73 2.72.454-1.771 3.071.701 4.149-2.516-1.832-2.287 2.111.217-4.203-2.115-2.845 2.649-.765.98-3.87zm7.453-17.709l2.587 3.305 4.189-.258-2.343 3.482 1.54 3.905-4.036-1.153-3.238 2.671-.15-4.194-3.541-2.254 3.942-1.44 1.05-4.064zm6.203 22.199l2.587 3.305 4.19-.258-2.344 3.482 1.54 3.905-4.036-1.153-3.237 2.671-.151-4.194-3.541-2.254 3.943-1.44 1.049-4.064z"/></g><g class="B"><path opacity=".63" d="M243.388 73.046c-3.218 0-5.826-2.609-5.826-5.826a5.79 5.79 0 0 1 1.18-3.506c-2.135.864-3.643 2.954-3.643 5.399a5.83 5.83 0 0 0 5.826 5.826c1.9 0 3.582-.913 4.646-2.32a5.81 5.81 0 0 1-2.183.427z"/><use xlink:href="#E"/><path d="M243.388 129.847a2.27 2.27 0 0 1-2.267 2.267 2.27 2.27 0 0 1-2.267-2.267 2.27 2.27 0 0 1 2.267-2.267 2.27 2.27 0 0 1 2.267 2.267z"/><path d="M246.802 130.326a2.27 2.27 0 0 1-2.267 2.267 2.27 2.27 0 0 1-2.267-2.267 2.27 2.27 0 0 1 2.267-2.267 2.27 2.27 0 0 1 2.267 2.267z"/><path d="M250.339 130.326a2.27 2.27 0 0 1-2.267 2.267 2.27 2.27 0 0 1-2.267-2.267 2.27 2.27 0 0 1 2.267-2.267 2.27 2.27 0 0 1 2.267 2.267z"/><path d="M254.103 130.326a2.27 2.27 0 0 1-2.267 2.267 2.27 2.27 0 0 1-2.267-2.267 2.27 2.27 0 0 1 2.267-2.267 2.27 2.27 0 0 1 2.267 2.267z"/><path d="M257.766 129.212c0 1.252-1.015 2.266-2.267 2.266s-2.267-1.014-2.267-2.266a2.27 2.27 0 0 1 2.267-2.267 2.27 2.27 0 0 1 2.267 2.267z"/><path d="M261.52 127.58a2.27 2.27 0 0 1-2.267 2.267c-1.252 0-2.266-1.015-2.266-2.267s1.014-2.267 2.266-2.267a2.27 2.27 0 0 1 2.267 2.267z"/><path d="M265.127 126.57a2.27 2.27 0 0 1-2.267 2.267 2.27 2.27 0 0 1-2.267-2.267 2.27 2.27 0 0 1 2.267-2.267 2.27 2.27 0 0 1 2.267 2.267z"/><path d="M268.807 124.303c0 1.252-1.014 2.267-2.266 2.267a2.27 2.27 0 0 1-2.267-2.267 2.27 2.27 0 0 1 2.267-2.267c1.252 0 2.266 1.015 2.266 2.267z"/><path d="M272.04 121.736c0 1.252-1.014 2.266-2.266 2.266s-2.267-1.014-2.267-2.266a2.27 2.27 0 0 1 2.267-2.267c1.252 0 2.266 1.015 2.266 2.267z"/></g><path d="M135.561 138.095l19.331-34.711-35.675 18.392s2.347 11.878 16.344 16.319z" class="C"/><path d="M152.395 102.911c-.502-2.25.916-4.482 3.166-4.984s4.482.916 4.984 3.167-.916 4.482-3.166 4.983-4.482-.915-4.984-3.166z" class="B"/><mask id="B" maskUnits="userSpaceOnUse" x="119" y="103" width="36" height="36"><path d="M135.561 138.095l19.331-34.711-35.675 18.392s2.347 11.878 16.344 16.319z" fill="#fff"/></mask><g mask="url(#B)" class="B"><path d="M152.111 107.176l-2.19 1.84-1.861-.664.038 2.54-1.885 2.353 2.214-.27.696 2.119 1.329-2.707 2.316-1.044-1.392-1.403.735-2.764zm-20.978 8.719l-2.74.82-1.445-1.348-.973 2.347-2.665 1.412 2.14.63-.202 2.222 2.295-1.957 2.539-.04-.721-1.84 1.772-2.246zm9.862 12.067l-2.294 1.709-1.819-.77-.109 2.537-2.019 2.241 2.226-.141.572 2.156 1.485-2.626 2.372-.908-1.309-1.481.895-2.717zm2.297-13.576l-2.835 1.005-2.435-1.766.08 3.007-2.432 1.77 2.884.853.932 2.86 1.703-2.479 3.008-.003-1.832-2.385.927-2.862zm-12.283 11.044l-2.835 1.005-2.434-1.766.079 3.006-2.432 1.77 2.884.854.932 2.86 1.703-2.479 3.008-.003-1.832-2.386.927-2.861z"/></g><g class="B"><path opacity=".63" d="M153.469 103.435c1.946 1.236 4.527.661 5.763-1.285a4.15 4.15 0 0 0 .633-2.575c.96 1.344 1.069 3.187.129 4.666-1.237 1.947-3.817 2.522-5.763 1.286-1.149-.73-1.816-1.929-1.919-3.189.304.424.69.8 1.157 1.097z"/><path d="M134.189 138.332c-.481.757-.257 1.761.5 2.242s1.761.258 2.242-.5.257-1.761-.5-2.242-1.761-.257-2.242.5z"/><path d="M131.641 137.792c-.481.757-.257 1.761.5 2.242s1.762.258 2.243-.5.257-1.761-.5-2.242-1.761-.257-2.243.5z"/><path d="M129.392 136.77c-.481.757-.257 1.761.5 2.242s1.761.257 2.243-.5.257-1.761-.5-2.242-1.762-.257-2.243.5z"/><path d="M127.253 135.411c-.481.757-.257 1.761.5 2.242s1.761.257 2.242-.5.258-1.761-.5-2.243-1.761-.256-2.242.501z"/><path d="M124.976 133.964c-.481.757-.257 1.761.5 2.242s1.762.258 2.243-.5.257-1.761-.5-2.242-1.762-.257-2.243.5z"/><path d="M123.189 131.882c-.481.758-.257 1.762.5 2.243s1.761.257 2.242-.5.258-1.761-.5-2.243-1.761-.257-2.242.5z"/><path d="M121.545 129.453c-.481.757-.257 1.761.5 2.242s1.761.257 2.242-.5.257-1.761-.5-2.242-1.761-.257-2.242.5z"/><path d="M119.752 127.456c-.482.757-.258 1.761.5 2.242s1.761.257 2.242-.5.257-1.761-.5-2.242-1.761-.258-2.242.5z"/><path d="M118.397 124.67c-.482.758-.258 1.761.5 2.243s1.761.257 2.242-.5.257-1.762-.5-2.243-1.761-.257-2.242.5z"/><path d="M117.428 121.875c-.481.757-.258 1.761.5 2.242s1.761.257 2.242-.5.257-1.761-.5-2.242-1.761-.257-2.242.5z"/></g><path d="M328.691 190.226c2.802-1.667 6.219-3.795 9.64-3.284 2.501.373 3.682 3.374 2.707 5.59-.577 1.311-1.736 2.295-3.047 2.825-.629.254-1.323.439-2.005.441-.078 0-.74-.101-.755-.087.103-.094.217.304.122.013-.186-.575-.482-.89-.257-1.552.228-.671.793-1.097 1.444-1.32.151-.052 1.761-.333 1.747-.091-.001.009-.214-.076-.243-.105.025.026.304.289.393.391 1.67 1.917 1.831 5.063.083 6.968-.265.289 2.342 2.124 2.903 1.513 2.179-2.373 1.306-6.144-.874-8.193-1.382-1.299-3.488-2.412-5.43-2.358-1.568.044-3.52 1.111-2.945 2.97.577 1.87 3.225 3.039 4.958 3.409 1.854.396 3.78-.163 5.249-1.336 1.43-1.144 2.234-2.934 1.842-4.761-.414-1.929-2.046-3.395-3.671-4.364-2.183-1.302-4.587-1.968-7.122-1.566-2.701.428-5.118 1.857-7.432 3.234-.441.262.587.89.767 1.002.341.211 1.475.929 1.926.661z" class="C"/><path d="M261.222 155.797c-1.807 2.051-4.131 4.574-3.116 6.493.743 1.404 4.669 1.417 7.368.329 1.597-.645 2.717-1.561 3.247-2.463.253-.433.412-.888.342-1.295-.009-.046-.208-.418-.193-.429-.107.083.409.059.031.069-.748.021-1.179-.083-1.992.203-.826.29-1.304.724-1.516 1.163-.049.102-.231 1.125.073 1.061a.53.53 0 0 0-.158-.121l.537.145c2.607.554 6.606-.072 8.828-1.551.337-.224 2.942.907 2.229 1.382-2.769 1.842-7.636 2.188-10.464 1.36-1.794-.525-3.43-1.523-3.571-2.691-.114-.944 1.025-2.351 3.441-2.436 2.428-.085 4.195 1.223 4.85 2.169.702 1.014.202 2.289-1.125 3.432-1.292 1.115-3.471 2.004-5.827 2.19-2.486.197-4.518-.439-5.919-1.184-1.884-1.001-2.986-2.279-2.751-3.88.25-1.707 1.797-3.474 3.29-5.168.285-.323 1.191.145 1.352.227.304.154 1.334.664 1.044.995z" class="B"/><g class="C"><path d="M22.816 60.081c-.703 1.936-1.533 4.385-3.126 4.346-1.165-.029-2.53-2.709-2.758-4.926-.135-1.312.071-2.39.472-3.061.192-.321.432-.585.72-.676.033-.01.342-.001.344-.015-.016.102-.179-.259-.055.003.245.518.461.777.557 1.431.097.664-.018 1.138-.229 1.433-.049.068-.648.541-.712.312-.002-.009.112.043.133.068l-.279-.318c-1.259-1.594-2.236-4.542-2.047-6.566.029-.307-1.603-1.702-1.664-1.053-.236 2.522 1.222 5.968 2.735 7.62.959 1.047 2.17 1.826 2.975 1.524.65-.244 1.167-1.503.387-3.184-.784-1.69-2.24-2.451-3.079-2.577-.898-.134-1.551.643-1.832 1.94-.275 1.264-.098 3.058.596 4.732.732 1.767 1.845 2.94 2.811 3.644 1.299.947 2.506 1.265 3.462.558 1.018-.753 1.627-2.414 2.207-4.013.111-.305-.505-.765-.613-.847-.205-.155-.891-.686-1.005-.375zm303.223-25.956c-3.824.28-9.254 1.13-10.381 5.535-1.223 4.788 2.948 9.787 6.9 11.905 2.844 1.524 6.149 2.1 8.867 3.87.775.505 1.37.253 1.233-.733-.144-1.046-.9-2.447-1.808-3.038-2.713-1.768-5.803-2.535-8.712-3.883-.964-.447-1.992-1.063-2.663-1.712a7.12 7.12 0 0 1-.5-.526c.324.385-.381-.556-.149-.208.223.335-.468-.74-.085-.146-.109-.257-.123-.28-.04-.069a4.47 4.47 0 0 1-.1-.323c-.113-.579.003-1.611.392-2.385.489-.973 1.295-1.669 2.231-2.201 2.058-1.172 4.492-1.494 6.817-1.664 1.5-.113-.561-4.527-2.002-4.421zm94.754 21.913a.5.5 0 0 1 .739-.508l2.845 1.59a.5.5 0 0 0 .466.012l2.922-1.442a.5.5 0 0 1 .712.546l-.634 3.197a.5.5 0 0 0 .132.446l2.276 2.334a.5.5 0 0 1-.299.846l-3.237.386a.5.5 0 0 0-.383.264l-1.518 2.885a.5.5 0 0 1-.896-.023l-1.367-2.959a.5.5 0 0 0-.369-.283l-3.213-.551a.5.5 0 0 1-.255-.86l2.392-2.215a.5.5 0 0 0 .155-.439l-.468-3.225zM22.942 205.287a.5.5 0 0 1 .739-.508l2.845 1.591c.144.08.318.084.465.012l2.922-1.443a.5.5 0 0 1 .712.546l-.634 3.197a.5.5 0 0 0 .132.446l2.275 2.334a.5.5 0 0 1-.299.846l-3.237.386a.5.5 0 0 0-.383.264l-1.517 2.884a.5.5 0 0 1-.896-.023l-1.367-2.958a.5.5 0 0 0-.369-.284l-3.213-.551a.5.5 0 0 1-.255-.859l2.392-2.216a.5.5 0 0 0 .155-.438l-.468-3.226zm366.634 16.526c.045-.305.421-.426.636-.205l1.692 1.747c.086.088.209.128.33.108l2.397-.404c.305-.052.537.269.392.542l-1.138 2.148a.37.37 0 0 0-.001.347l1.125 2.156c.143.274-.09.593-.395.54l-2.395-.418a.37.37 0 0 0-.33.106l-1.702 1.736c-.217.221-.592.097-.636-.209l-.342-2.406c-.018-.122-.094-.227-.204-.282l-2.177-1.082c-.276-.138-.275-.533.002-.669l2.184-1.07c.11-.054.187-.159.205-.28l.357-2.405zM96.86 39.882a.5.5 0 0 1 .875.197l.765 3.169a.5.5 0 0 0 .307.35l3.043 1.166a.5.5 0 0 1 .083.893l-2.777 1.706a.5.5 0 0 0-.238.4l-.168 3.255a.5.5 0 0 1-.824.355l-2.481-2.114a.5.5 0 0 0-.454-.102l-3.148.845a.5.5 0 0 1-.592-.674l1.244-3.012a.5.5 0 0 0-.043-.463l-1.777-2.733a.5.5 0 0 1 .458-.771l3.25.252a.5.5 0 0 0 .427-.184l2.05-2.534z"/></g></g><defs><clipPath id="C"><path fill="#fff" transform="translate(.372 .075)" d="M0 0h436v280H0z"/></clipPath><path id="D" d="M188.866 115.159a3 3 0 1 0 0-6 3 3 0 1 0 0 6z"/><path id="E" d="M239.984 128.577a2.27 2.27 0 0 1-2.267 2.267 2.27 2.27 0 0 1-2.267-2.267 2.27 2.27 0 0 1 2.267-2.267 2.27 2.27 0 0 1 2.267 2.267z"/></defs></svg>