<svg xmlns="http://www.w3.org/2000/svg" xmlns:xlink="http://www.w3.org/1999/xlink" width="146" height="120" fill="none" xmlns:v="https://vecta.io/nano"><style><![CDATA[.B{fill:#ffcdda}.C{fill:#ff8baa}]]></style><g clip-path="url(#A)"><path d="M154.358 158.515c-16.876 13.481-35.115 25.201-54.456 34.823-8.93 4.445-18.372 9.383-28.136 11.682-4.539 1.068-9.374 1.413-13.905.117-1.872-.534-3.682-1.361-5.31-2.436-1.055-.693-1.829-1.755-2.837-2.443-1.5-2.107-1.192-.903.913 3.623a8.93 8.93 0 0 1-.11-1.792c-.104-9.881 7.248-17.931 14.067-24.171 8.13-7.445 16.569-14.57 24.862-21.832l25.254-22.121c8.099-7.098 17.279-13.802 24.327-21.976 6.338-7.355 7.853-15.512 5.236-24.799s-7.517-18.074-18.115-19.131c-9.759-.976-19.596 4.928-28.193 8.701L66.768 90.469c-3.532 1.546-7.153 3.108-11.029 3.508-1.681.178-3.468.178-5.084-.382-.918-.317-1.585-.865-2.419-1.318-2.565-2.549-1.95-.235 1.834 6.963a10.92 10.92 0 0 1 .062-1.85c1.005-8.633 8.378-16.766 14.066-22.773 13.923-14.703 32.146-24.652 50.823-31.988s39.007-12.266 58.585-18.132c9.778-2.933 19.493-6.128 28.927-10.029 9.419-3.896 19.02-8.322 26.906-14.89 7.165-5.969 12.417-13.756 13.258-23.189s-2.564-20.893-8.012-28.866c-3.942-5.777-10.719-9.786-17.793-9.984-6.324-.174-12.467 2.768-18.165 5.149-11.01 4.603-21.955 9.698-33.424 13.05-3.712 1.086-6.985 1.635-10.742 1.306l-.216-.141c2.95 3.192 4.445 7.248 4.502 12.163-.354.598.187-.42.213-.477.402-.719.682-1.506 1.11-2.22 2.131-3.564 5.449-6.64 8.269-9.666 12.434-13.384 26.197-25.446 41.397-35.589 8.465-5.648 17.315-10.705 26.412-15.255 8.245-4.123 18.151-9.896 27.759-8.443 2.024.308 3.98.978 5.764 1.989.971.547 1.744 1.283 2.663 1.883l.846.893c-1.323-5.922-1.972-7.413-1.942-4.468-.83 4.335-2.432 8.186-3.98 12.309-3.352 8.902-2.176 18.324 1.435 26.969 1.441 3.459 3.43 7.807 7.087 9.383 3.148 1.363 6.65.456 9.706-.696 6.887-2.589 14.002-7.992 21.674-7.397 4.413.343 6.663 2.819 9.533 5.734 1.945 1.974-.616-4.237-.851-2.476-.128.938.042 1.965-.065 2.924-.26 2.249-.95 4.467-1.687 6.597-2.908 8.413-6.6 15.901-6.902 24.993-.603 18.372 7.694 39.487 22.081 51.205 6.997 5.7 15.501 9.137 24.422 10.272 1.3.164-.941-7.663-1.137-8.233-.597-1.712-1.949-6.879-4.219-7.16-9.765-1.243-18.979-5.563-26.105-12.373-5.985-5.719-8.964-11.573-8.89-19.825.092-9.269 4.339-16.811 7.095-25.397 3.155-9.839.818-20.07-3.722-29.146-3.522-7.031-9.321-13.494-17.91-12.399-7.945 1.015-14.414 6.746-22.174 8.363-1.686.351-3.54.535-5.182-.115-.541-.213-.914-.574-1.417-.802l-.652-.564c1.628 6.141 2.298 7.81 2.007 4.992.472-4.838 1.256-8.728 3.076-13.271 1.44-3.583 2.77-7.234 2.968-11.133.286-5.701-1.698-11.757-4.108-16.827-4.119-8.648-11.997-13.009-21.554-11.475s-18.72 7.01-27.136 11.495c-17.22 9.181-33.26 20.391-47.602 33.634-6.875 6.351-13.362 13.109-19.554 20.128-1.645 1.865-3.399 3.872-4.33 6.227-1.315 3.321-.04 7.22 1.065 10.408 1.697 4.904 3.366 9.185 8.965 8.701 5.176-.446 10.362-2.448 15.198-4.212 11.754-4.291 22.99-10.173 34.888-14.04 7.066-2.296 13.847-1.929 20.117 2.4 1.491 1.033 2.422 2.429 3.715 3.63 1.703 1.577-1.104-1.265-.746-2.476-.166.566.216 2.284.218 2.923.009 4.427-1.298 8.78-3.455 12.622-5.419 9.647-15.45 15.798-25.097 20.554-9.155 4.513-18.716 8.153-28.399 11.358-20.068 6.643-40.728 11.37-60.706 18.291C99.377 30.611 79.982 39.772 64.433 53.8c-6.803 6.141-13.518 13.455-17.742 21.668-4.578 8.906-2.687 18.954 2.197 27.432 4.309 7.479 11.707 7.477 19.134 4.703 10.404-3.888 20.501-8.928 30.667-13.398 9.12-4.005 19.276-10.198 29.418-10.806 4.757-.287 8.277 1.216 12.23 3.63l.92.935c-1.281-5.702-1.862-7.24-1.733-4.626-.222 1.054-.161 2.17-.409 3.239-.497 2.15-1.392 4.185-2.523 6.08-2.841 4.73-7.189 8.369-11.296 11.966l-13.721 12.02-25.254 22.121-26.064 22.851c-6.918 6.225-13.968 13.572-15.479 23.144s1.621 20.895 7.366 28.506 15.952 9.272 24.973 7.153c9.785-2.299 19.186-7.227 28.136-11.682a303.49 303.49 0 0 0 28.741-16.326c8.894-5.713 17.457-11.901 25.715-18.497 2.933-2.34-4.749-15.876-5.355-15.392l.005-.006z" class="B"/><g opacity=".5" class="B"><path d="M46.145 47.769l-.001.001.001-.001zm5.223 6.87a1.44 1.44 0 0 0 .508.067l.048.015c.146.044.303.022.448.004a1.64 1.64 0 0 0 .421-.134l.217-.099a.92.92 0 0 0 .216-.182c.226-.244.332-.596.334-.924 0-.363-.194-.726-.436-.986-.112-.119-.258-.208-.406-.272a1.93 1.93 0 0 0-.531-.145c-.354-.046-.695.055-.999.234-.133.077-.253.183-.369.286a1.27 1.27 0 0 0-.272.354c-.081.153-.109.321-.116.493-.009.197.065.388.146.563.067.147.163.286.279.403a1.25 1.25 0 0 0 .512.322zm.627-1.143zm11.58-6.119a.97.97 0 0 0 .422.16 1.66 1.66 0 0 0 .612-.029c.365-.075.672-.292.964-.513a2.47 2.47 0 0 0 .388-.374c.125-.148.243-.31.333-.483a1.17 1.17 0 0 0 .145-.524c.005-.161-.045-.331-.097-.482a1.83 1.83 0 0 0-.225-.439c-.133-.198-.306-.337-.52-.439-.329-.157-.697-.21-1.059-.214-.397-.003-.806.095-1.128.334a1.92 1.92 0 0 0-.226.192c-.07.071-.126.157-.185.235-.111.149-.175.346-.23.521s-.068.372-.07.554a1.54 1.54 0 0 0 .111.559.36.36 0 0 0 .058.184 3.96 3.96 0 0 0 .325.426l.057.061a2.61 2.61 0 0 0 .325.269zm-4.894-7.558c.333.209.703.352 1.033.394s.654-.076.935-.232c.572-.32.959-.992.905-1.65-.027-.339-.172-.655-.373-.926-.116-.155-.237-.281-.394-.396-.164-.121-.344-.198-.54-.252-.331-.091-.678-.072-1.013-.022a2.08 2.08 0 0 0-.503.156 2.21 2.21 0 0 0-.519.321c-.264.207-.441.543-.508.867-.035.173-.044.371-.002.544.116.474.512.901.979 1.195zM43.05 37.395c.21.123.447.157.684.185.186.024.387-.015.568-.054.193-.041.38-.136.553-.227.153-.081.294-.191.431-.299a2.43 2.43 0 0 0 .237-.182c.13-.113.243-.27.33-.418.115-.196.108-.424.073-.639-.027-.173-.123-.344-.219-.485a1.57 1.57 0 0 0-.425-.41c-.151-.105-.342-.164-.518-.208-.217-.053-.446-.059-.668-.045-.349.023-.693.13-.991.316-.346.216-.576.554-.693.939-.031.1-.035.209-.049.312a.99.99 0 0 0 .021.314 1.26 1.26 0 0 0 .26.566l.076.085c.098.099.211.18.331.25z"/><path d="M50.829 38.428c.004-.106-.009-.214-.062-.308-.15-.265-.517-.384-.784-.22-.209.128-.398.289-.584.448l-.216.198c-.102.097-.185.215-.265.328-.052.073-.082.15-.116.234-.021.05-.038.109-.051.168a12.53 12.53 0 0 0-2.886 2.677c.07-1.072.164-1.739-.111-3.74.837-.661.416-2.187-.427-1.899-.051-.133-.109-.24-.238-.314-.114-.065-.252-.084-.38-.052a.51.51 0 0 0-.313.239c-.059.104-.096.263-.052.38l.082.234-.173.095c-.087.048-.184.098-.248.176-.009.009-.017.018-.025.028-.065.014-.126.047-.18.099-.138.136-.157.387-.018.529l.553.47c.141.111.284.228.448.294l.056.404c.27 2.315.072 4.27-.711 6.643-.024-.046-.039-.095-.067-.139l-.141-.235-.263-.531c-.089-.185-.201-.359-.305-.534l-.304-.522-.611-1.034a5.62 5.62 0 0 0-.432-.576c-.102-.119-.211-.242-.352-.312-.169-.088-.374-.074-.516.062-.095.092-.144.224-.137.355.006.146.061.279.118.411l.126.275c.085.177.191.345.29.515l.642 1.052c.484.73.857 1.192 1.293 1.7.042.126.123.227.242.279.116.132.065.072.112.108-.675 1.822-1.744 3.09-3.047 4.241.235-.703.313-1.131.348-1.792.006-.109.011-.218-.002-.327a.65.65 0 0 0-.062-.242c-.021-.049-.057-.086-.089-.128-.067-.088-.193-.117-.295-.125a.41.41 0 0 0-.226.053c-.226.127-.3.397-.379.627-.14.402-.215.824-.335 1.232l-.351 1.274a1.85 1.85 0 0 0-.045.385c-.001.046.006.09.012.147-1.932 1.083-5.781 3.275-7.381 4.809-.221.21-.216.579-.005.793.376.38.758.01 1.084-.251 1.156-.926 2.451-1.702 3.795-2.309 1.356-.613 2.651-1.003 4.109-1.337.552.678 1.502 1.244 2.281 1.543a2.72 2.72 0 0 0 .301.092c.063.015.129.021.192.022.081.003.145-.031.219-.061.099-.041.146-.147.183-.236s.022-.177.004-.268c-.023-.119-.119-.235-.192-.326l-.091-.107c-.077-.084-.161-.157-.248-.229-.213-.177-.431-.359-.671-.497-.166-.097-.346-.174-.522-.253.787-.157 1.155-.199 2.074-.248.025.022 1.091.55 1.668 1.061-.107.16-.14.356-.094.542.024.095.08.188.122.278.063.13.112.278.216.384.215.218.489.114.727.014l.268.501c.132.252.467.334.708.2.256-.145.324-.454.2-.708l-.241-.462.179-.098c.198-.107.267-.368.157-.562-.055-.097-.143-.163-.242-.192-.099-.325-.664-.497-1.025-.451-.16-.157-.263-.262-.636-.533l3.024.267a.84.84 0 0 0 .192.328l.067.062c.194.164.415.298.628.434.233.149.56.045.695-.187.057-.1.069-.208.056-.311.286.062.699.201.937.068.122-.067.211-.184.247-.318.072-.269-.091-.568-.368-.635l-.306-.077c-.092-.583-1.111-.66-1.639-.37l-1.776-.213a7.66 7.66 0 0 0 .889-.563c.22-.163.533-.372.535-.678 0-.152-.086-.296-.222-.366-.118-.059-.265-.072-.395-.04-.189.047-.365.134-.539.221-.184.09-.361.209-.524.335l-.479.389-.58.522c-.106.038-.098.03-.18.074-2.311-.153-4.538.194-6.783.805l3.347-1.765c1.033.291 1.361.409 2.608.294l.366-.05c.161-.031.35-.09.465-.208a.45.45 0 0 0 .074-.528c-.12-.229-.38-.296-.615-.353-.106-.026-.211-.042-.318-.059-.207-.034-.417-.049-.626-.07.739-.371.725-.329 3.481-1.812 1.746.773 4.445 1.221 6.3.945.212-.03.521-.096.604-.295.077-.133.067-.307-.057-.44-.135-.144-.48-.189-.687-.224-.466-.079-1.091-.154-1.656-.188l-.544-.037-.506-.056-1.016-.098-1.028-.198c-.088-.015-.177-.021-.266-.032l3.009-1.827c.14.01.746-.218.914-.264.272-.075.55-.122.829-.158a.39.39 0 0 0 .038.255c.215.38.489.779.795 1.089s.731.764 1.129.617l.098-.04c.77-.567-.262-1.446-.975-2.038.692-.066.427-.056 1.397-.071.019.026 1.105 1.077 1.344 1.347-.404.868.473 1.783 1.059 1.519.05.071.077.12.147.19.174.175.425.187.61.082.274-.152.335-.512.199-.704l-.104-.157c.568-.312.129-1.507-1.03-1.504-.145-.18-.223-.284-.637-.669.862.089.723.067 2.521.431.028.071.055.143.092.209.058.099.143.183.227.26.327.307.704.384 1.144.326.104-.013.131.012.242-.05.103-.058.203-.214.238-.328.622.149 1.267.449 1.43-.166.152-.574-.482-.684-1.044-.832l.054-.132c.335-.908-.064-1.072-.979-.934-.423.063-.832.211-1.167.477-.038.03-.071.067-.105.102-3.378-.695-4.601-.582-6.429-.37 1.048-.829 2.415-2.154 3.35-3.063.672.054 2.203-1.038 1.586-1.572l.244-.243c.193-.196.2-.52.004-.718a.51.51 0 0 0-.682-.028c-.029-.098-.075-.192-.143-.261-.114-.114-.269-.18-.431-.181-.173-.001-.3.071-.43.177s-.218.24-.316.368c-.604.802-.644 1.312-.555 1.703l-2.278 2.146c.253-.875.506-1.996.29-2.881a.75.75 0 0 0-.155-.318c-.088-.101-.198-.142-.33-.148-.141-.007-.284.093-.371.196-.101.12-.159.256-.21.402l-.179.591c-.208.738-.379 2.402-.256 3.188-.529.414-.857.704-2.368 1.708.182-.436.488-1.305.375-1.763-.058-.245-.292-.44-.55-.374-.18.046-.286.209-.356.369l-.131.282-.252.545a3.42 3.42 0 0 0-.197.601c-.021.094-.193 1.03-.194 1.127l-2.906 1.599.194-.328c.261-.452.507-.929.646-1.433.058-.21.099-.425.137-.638l.103-.644c.026-.206-.022-.422-.222-.526-.276-.142-.561.055-.74.258a3.16 3.16 0 0 0-.437.69c-.125.249-.243.502-.334.768l-.242.754-.242.688-.22.621-.013.032.013-.032-.077.183c-.058.141-.101.244-.127.415l-3.187 1.602c1.495-1.751 2.228-3.62 2.786-5.969l1.574-1.953c.584.239.949.451 2.898.2l.138-.022c.054-.012.104-.035.156-.057.1-.044.146-.15.182-.245.048-.125-.016-.261-.094-.356-.074-.089-.191-.128-.296-.167a2.52 2.52 0 0 0-.222-.064l-.282-.061a4.09 4.09 0 0 0-.59-.064c-.138-.003-.907.036-1.103.038.724-.674.932-.791 1.372-1.095.103.033.213.049.317.057.067.005.142-.008.209-.014.145-.012.292-.029.436-.059.33-.068.617-.278.881-.477.108-.082.192-.157.228-.295a.48.48 0 0 0-.045-.359c-.063-.112-.17-.196-.294-.229-.01-.003-.023-.001-.034-.004a.41.41 0 0 0-.147-.342z"/><path d="M47.302 56.388a.92.92 0 0 0 .175.048 1.1 1.1 0 0 0 .388-.008c.047-.011.09-.026.134-.046a1.4 1.4 0 0 0 .235-.116 1.37 1.37 0 0 0 .328-.273c.173-.197.239-.458.252-.714.015-.298-.194-.564-.422-.729-.197-.142-.419-.193-.657-.214-.254-.022-.505.043-.73.158-.244.125-.358.364-.402.626-.09.525.176 1.085.7 1.268zm12.776-6.94a1.84 1.84 0 0 0 .754-.384l.216-.084a1.46 1.46 0 0 0 .418-.247c.252-.219.399-.518.368-.855a1.12 1.12 0 0 0-.164-.493c-.1-.161-.248-.28-.408-.378a1.41 1.41 0 0 0-.454-.158c-.159-.032-.322-.043-.484-.035-.364.018-.74.132-1.026.361a1.52 1.52 0 0 0-.533.913c-.061.354-.008.757.248 1.028.005.006.012.012.017.018.273.274.667.397 1.048.315zm-9.404-9.658a1.24 1.24 0 0 0 .214.027 1.78 1.78 0 0 0 .43.078c.224.014.439-.054.638-.149.086-.041.171-.112.244-.171a2.76 2.76 0 0 0 .208-.19c.127-.13.232-.287.319-.446a1.45 1.45 0 0 0 .171-.489 1.33 1.33 0 0 0-.06-.626c-.116-.343-.337-.661-.644-.86-.327-.212-.705-.297-1.09-.31-.361-.013-.743.069-1.038.282-.164.118-.278.254-.394.42-.123.177-.184.396-.208.607-.044.384.079.765.273 1.093a1.78 1.78 0 0 0 .268.349c.184.187.411.328.669.384z"/></g><g opacity=".5" class="B"><path d="M40.175 74.23c-.151-.133-.34-.225-.54-.274a1.4 1.4 0 0 0-.49-.031c-.192.021-.394.056-.558.165-.143.095-.273.207-.362.355a1.31 1.31 0 0 0-.164.416c-.029.152-.058.31-.056.464.004.354.094.697.315.977a1.87 1.87 0 0 0 .398.38 1.21 1.21 0 0 0 .443.207c.347.073.757.052 1.069-.135.28-.171.527-.442.62-.762a.88.88 0 0 0 .044-.278 2.05 2.05 0 0 0-.026-.236c-.02-.142-.044-.297-.102-.43s-.122-.28-.234-.382l-.037-.033a1.44 1.44 0 0 0-.319-.402zm.074 14.203c.138.057.26.166.355.279.136.162.221.341.291.539.124.352.097.727.057 1.09a2.52 2.52 0 0 1-.12.525 2.73 2.73 0 0 1-.241.535 1.17 1.17 0 0 1-.374.393c-.135.087-.307.132-.463.166-.163.036-.326.042-.492.034a1.26 1.26 0 0 1-.645-.219c-.305-.2-.539-.489-.729-.796-.207-.338-.335-.74-.296-1.139a1.95 1.95 0 0 1 .049-.294c.025-.096.069-.189.105-.28.07-.172.206-.329.327-.466s.284-.251.438-.346a1.54 1.54 0 0 1 .536-.194c.056-.031.12-.048.187-.044a4.06 4.06 0 0 1 .532.058l.081.017a2.52 2.52 0 0 1 .399.141zm-9-.294c.352.177.664.421.87.681s.272.6.284.922c.022.655-.355 1.333-.947 1.626-.304.152-.649.19-.986.158-.192-.019-.363-.058-.542-.133a1.59 1.59 0 0 1-.493-.333c-.249-.237-.412-.542-.541-.856a2.12 2.12 0 0 1-.126-.511c-.029-.209-.02-.401.007-.61.04-.333.238-.658.481-.883a1.29 1.29 0 0 1 .465-.281c.468-.146 1.037-.028 1.53.22zM21.111 75.997c.213.117.365.303.512.49.116.147.187.339.247.514.065.186.079.395.091.591a2.97 2.97 0 0 1-.034.523 2.5 2.5 0 0 1-.033.297 1.72 1.72 0 0 1-.188.498c-.11.199-.308.311-.509.392a1.25 1.25 0 0 1-.529.062c-.206-.011-.385-.07-.57-.153-.168-.075-.316-.209-.444-.337-.157-.158-.28-.352-.383-.549a2.14 2.14 0 0 1-.24-1.012c.006-.408.178-.779.447-1.078.07-.078.16-.137.241-.203a1.02 1.02 0 0 1 .28-.145c.201-.074.406-.098.618-.069.038.005.075.012.112.022a1.53 1.53 0 0 1 .382.156z"/><path d="M26.008 82.129c-.088.059-.188.102-.296.106-.305.008-.596-.245-.593-.558.002-.245.043-.49.082-.732l.058-.287c.03-.137.089-.27.144-.396.036-.083.087-.148.141-.221a1.01 1.01 0 0 1 .118-.13c.116-1.573.303-2.454.806-3.853-.883.613-1.405 1.038-3.261 1.833-.134 1.058-1.659 1.484-1.848.614-.141.025-.262.03-.392-.042a.52.52 0 0 1-.24-.299c-.038-.131-.023-.273.043-.392.059-.104.176-.218.299-.24l.242-.051-.008-.197c-.004-.099-.011-.209.023-.304l.01-.035a.38.38 0 0 1-.007-.205c.046-.188.25-.334.443-.288l.688.231c.167.063.342.125.483.231l.375-.159c2.121-.963 3.695-2.139 5.325-4.036-.051.003-.102.015-.154.014h-.273l-.591.049c-.205.019-.411.012-.615.014l-.604.008-1.2.01a5.36 5.36 0 0 1-.717-.073c-.154-.026-.316-.057-.449-.139-.162-.1-.257-.283-.213-.475a.46.46 0 0 1 .234-.3c.128-.07.271-.092.413-.111l.3-.034c.196-.019.394-.014.59-.017l1.232.008c.875.038 1.464.119 2.124.231a.45.45 0 0 1 .364.063c.173.031.095.019.151.039 1.212-1.517 1.747-3.088 2.062-4.798-.482.564-.807.851-1.356 1.223-.09.062-.181.122-.281.167a.65.65 0 0 1-.239.072c-.053.007-.103-.005-.155-.01-.11-.013-.2-.106-.26-.189-.045-.064-.069-.142-.072-.222-.008-.259.185-.461.341-.647.272-.328.595-.609.882-.922l.91-.958a1.92 1.92 0 0 1 .306-.237c.039-.025.08-.041.131-.066-.069-2.214-.176-6.643.313-8.804.067-.298.386-.483.677-.413.519.126.4.644.344 1.058-.196 1.468-.194 2.977-.019 4.443.174 1.478.508 2.789.973 4.21.866.124 1.84.645 2.499 1.159a2.72 2.72 0 0 1 .234.21c.045.046.084.1.118.154.044.068.048.141.061.219.016.107-.05.201-.108.279s-.14.111-.228.141c-.115.042-.262.019-.378.003l-.139-.022c-.111-.023-.218-.057-.324-.095-.262-.091-.53-.184-.772-.319-.169-.093-.327-.207-.487-.316.272.755.425 1.093.857 1.904.032.01 1.034.651 1.769.882.083-.174.233-.303.416-.361.093-.028.202-.029.301-.039.143-.013.297-.048.44-.013.297.073.35.36.388.615l.567-.029c.284-.017.527.228.536.504.008.294-.222.511-.504.536l-.519.032.009.204c.01.225-.177.418-.4.425-.112.004-.214-.038-.289-.109-.329.082-.768-.313-.915-.645-.217-.056-.361-.09-.784-.27l1.788 2.454a.84.84 0 0 1 .381-.005l.087.026c.241.082.469.201.696.314.248.123.327.458.197.692a.48.48 0 0 1-.238.207c.201.214.534.495.541.768.006.139-.049.276-.145.375-.194.201-.534.214-.734.012l-.224-.222c-.547.222-1.138-.611-1.162-1.213l-1.098-1.412c.015.352.009.701-.024 1.052-.025.273-.043.649-.305.808-.13.078-.298.079-.428-.001-.112-.071-.198-.19-.238-.317-.057-.187-.073-.382-.088-.576-.018-.204-.007-.417.017-.621l.087-.611.148-.766c-.023-.111-.025-.1-.029-.193-1.323-1.901-2.174-3.989-2.809-6.226l.214 3.778c.782.736 1.052.954 1.598 2.083l.146.339c.056.154.104.346.062.506a.45.45 0 0 1-.415.336c-.258.015-.45-.173-.619-.345-.077-.077-.146-.16-.215-.242-.136-.16-.257-.332-.383-.501.063.825.092.791.243 3.916 1.564 1.097 3.339 3.178 4.058 4.91.084.198.187.496.058.67-.075.134-.228.216-.407.178-.193-.041-.409-.314-.546-.473-.307-.359-.694-.855-1.015-1.322l-.312-.448-.308-.405-.607-.819-.7-.779-.164-.211-.013 3.52c.081.115.198.751.246.919a6 6 0 0 0 .292.791.39.39 0 0 1 .239-.099c.435-.012.919.017 1.343.12s1.031.232 1.111.649l.017.105c-.088.952-1.374.521-2.249.215.301.627.172.395.66 1.233.031.002 1.493.391 1.847.456.535-.794 1.772-.514 1.847.124.087.007.142.005.238.028.241.059.379.267.385.479.011.313-.266.551-.502.534l-.188-.008c.027.647-1.225.889-1.819-.108-.229-.031-.359-.045-.902-.201.52.693.43.585 1.67 1.937.075-.013.15-.027.227-.029.114-.001.231.029.34.061.432.122.693.406.869.812.042.096.077.106.082.234.003.118-.078.284-.157.373.449.456 1.038.853.596 1.311-.413.426-.834-.06-1.251-.464l-.086.114c-.606.755-.952.497-1.305-.358-.164-.395-.249-.822-.194-1.246.007-.049.021-.095.033-.142-2.338-2.535-2.871-3.642-3.633-5.318-.17 1.326-.6 3.18-.896 4.45.392.548.247 2.423-.529 2.169l-.082.334c-.068.267-.343.439-.613.373a.51.51 0 0 1-.376-.569.63.63 0 0 1-.298.012c-.157-.039-.293-.138-.377-.275-.09-.148-.094-.294-.071-.46s.093-.31.152-.46c.376-.931.793-1.228 1.173-1.355l.663-3.059c-.619.669-1.449 1.462-2.319 1.735-.114.035-.234.053-.352.032-.132-.023-.224-.097-.297-.207-.079-.117-.067-.291-.024-.419.05-.148.138-.267.236-.387l.413-.457c.526-.559 1.862-1.564 2.6-1.864.082-.667.16-1.097.241-2.909-.28.381-.866 1.091-1.317 1.231-.24.076-.528-.023-.605-.279-.054-.178.031-.353.132-.496l.174-.257.338-.497c.123-.171.26-.332.413-.478.069-.067.783-.697.865-.748l-.128-3.314-.181.336c-.253.456-.534.913-.894 1.293-.15.157-.312.305-.476.447l-.498.42c-.163.129-.374.198-.565.081-.264-.163-.243-.509-.161-.766s.221-.502.366-.73c.148-.236.305-.467.486-.682l.521-.595.466-.562.418-.509c.004-.005.008-.011.021-.028l-.02.027.117-.16c.09-.122.158-.213.29-.322l-.272-3.556c-.729 2.183-1.952 3.776-3.677 5.466l-.861 2.356c.506.376.876.58 1.665 2.38l.052.129c.017.052.024.107.032.162.014.109-.054.202-.117.283-.082.106-.232.121-.354.103-.115-.018-.208-.097-.296-.168a2.37 2.37 0 0 1-.17-.157l-.198-.21c-.129-.151-.253-.305-.36-.472-.074-.117-.437-.795-.536-.965-.204.968-.197 1.206-.23 1.739a1.36 1.36 0 0 1 .212.242c.039.056.066.126.096.187a3.55 3.55 0 0 1 .174.404c.112.318.079.672.046 1.001-.014.135-.035.246-.135.348a.48.48 0 0 1-.331.147c-.128.004-.255-.044-.348-.134-.008-.007-.013-.02-.021-.028-.158.102-.24.087-.361.057z"/><path d="M38.128 69.899c-.201.173-.347.393-.328.667a1.36 1.36 0 0 0 .242.707c.141.194.299.357.523.453.26.111.595.154.842-.014.213-.143.402-.335.482-.585.043-.134.065-.28.065-.421a1.55 1.55 0 0 0-.021-.262.76.76 0 0 0-.03-.139c-.051-.125-.102-.234-.193-.336a1.04 1.04 0 0 0-.132-.125c-.428-.354-1.044-.293-1.448.054zm.722.867l-.015.039.015-.039zm1.37 13.603c.091.272.099.562.06.843l.04.229a1.49 1.49 0 0 1 .004.485c-.058.329-.238.609-.543.756a1.13 1.13 0 0 1-.506.114c-.191-.003-.369-.067-.534-.155a1.4 1.4 0 0 1-.369-.307c-.11-.12-.203-.253-.28-.396-.172-.321-.269-.703-.22-1.065a1.51 1.51 0 0 1 .507-.927c.27-.234.645-.397 1.008-.318l.024.005a1.14 1.14 0 0 1 .809.736zm-13.124-3.075c.049.053.094.109.133.169a1.78 1.78 0 0 1 .289.328c.127.185.181.404.201.623.009.095-.008.204-.02.298a2.62 2.62 0 0 1-.055.276c-.046.175-.126.347-.217.503-.088.147-.195.291-.33.399-.169.137-.354.225-.567.272a1.66 1.66 0 0 1-1.069-.108c-.35-.171-.618-.451-.828-.774-.197-.303-.324-.672-.294-1.035.017-.201.075-.37.157-.554.089-.197.245-.363.413-.491.306-.235.696-.327 1.077-.33a1.79 1.79 0 0 1 .438.05c.253.062.491.183.673.375z"/></g><g opacity=".5" class="B"><path d="M140.297 106.25c.131.152.307.268.498.344.154.061.319.094.481.097.193.005.398-.002.575-.088.155-.076.299-.169.408-.303.093-.114.171-.251.217-.39.049-.147.1-.299.117-.452.044-.351.001-.704-.18-1.011a1.9 1.9 0 0 0-.343-.43 1.22 1.22 0 0 0-.411-.265c-.334-.119-.743-.154-1.077-.01-.301.132-.582.367-.716.672-.037.083-.072.178-.081.27-.007.081-.007.158-.006.239.001.144.003.299.044.439s.083.294.18.411l.033.038c.057.16.147.308.261.439zm.801-1.028zm1.038-13.056a1 1 0 0 1-.314-.324c-.113-.178-.173-.368-.215-.574-.077-.365.001-.733.09-1.088.043-.174.11-.342.19-.504a2.71 2.71 0 0 1 .311-.497 1.17 1.17 0 0 1 .424-.34c.145-.068.322-.09.48-.101.167-.013.329.002.492.032a1.25 1.25 0 0 1 .608.303c.275.239.469.557.615.888.16.363.233.778.14 1.168a1.81 1.81 0 0 1-.088.285c-.039.094-.094.177-.142.263-.093.161-.248.298-.388.417s-.315.21-.481.284a1.53 1.53 0 0 1-.558.119.35.35 0 0 1-.192.019c-.176-.033-.349-.073-.52-.13l-.078-.029a2.61 2.61 0 0 1-.374-.192z"/><path d="M155.399 100.332c.095-.047.2-.076.307-.065.302.033.557.323.513.633-.035.244-.109.48-.181.714l-.097.277c-.048.132-.124.255-.196.373-.047.077-.106.135-.169.2a1.08 1.08 0 0 1-.134.113c-.327 1.544-.631 2.391-1.317 3.709.958-.489 1.531-.839 3.478-1.378.275-1.03 1.843-1.247 1.914-.359.143-.007.264.005.383.093a.52.52 0 0 1 .198.329.51.51 0 0 1-.096.382c-.072.096-.203.192-.328.198l-.247.017-.019.196c-.01.098-.017.208-.065.298-.004.012-.01.022-.015.034.013.065.006.135-.021.204-.07.18-.292.298-.478.226l-.651-.322c-.158-.086-.322-.171-.448-.295l-.394.107c-2.232.669-3.949 1.623-5.819 3.282.051.003.103-.002.154.007l.271.037.591.031c.205.008.41.043.612.069l.6.073 1.191.152c.236.041.471.096.701.169.149.046.305.098.426.198.147.121.216.315.147.499a.46.46 0 0 1-.273.266c-.136.052-.281.054-.424.054-.101 0-.201-.002-.302-.008-.196-.007-.392-.039-.588-.062l-1.22-.174a15.78 15.78 0 0 1-2.073-.515.45.45 0 0 1-.351-.112c-.169-.055-.092-.032-.144-.06-1.407 1.34-2.148 2.825-2.689 4.476.553-.494.915-.735 1.508-1.029.098-.05.196-.097.301-.128a.66.66 0 0 1 .246-.04c.053 0 .101.019.152.032.107.026.184.131.232.222a.41.41 0 0 1 .041.229c-.027.258-.245.432-.425.596-.313.287-.672.524-.999.795l-1.031.826a1.9 1.9 0 0 1-.336.193c-.042.019-.085.031-.139.048-.231 2.202-.721 6.605-1.497 8.682-.106.286-.447.427-.727.318-.498-.195-.309-.693-.199-1.095.392-1.428.593-2.924.618-4.399.026-1.488-.128-2.832-.398-4.303-.842-.239-1.738-.887-2.32-1.485a2.46 2.46 0 0 1-.204-.24 1.08 1.08 0 0 1-.097-.168c-.034-.074-.029-.146-.031-.225-.002-.108.077-.191.145-.262s.153-.09.245-.109c.119-.026.262.017.376.047l.135.041a2.51 2.51 0 0 1 .309.138c.247.126.5.254.721.421.155.115.296.249.44.379-.168-.785-.275-1.141-.593-2.003-.03-.013-.936-.784-1.634-1.112-.106.161-.272.269-.461.3-.097.016-.204.002-.303-.002-.144-.007-.301.007-.438-.047-.284-.112-.298-.404-.301-.662l-.567-.048c-.283-.021-.492-.297-.463-.571.032-.292.289-.477.572-.462l.519.038.018-.203c.02-.225.232-.391.454-.367.111.012.206.067.272.147.338-.038.719.413.82.762.208.085.346.138.741.374l-1.442-2.673a.82.82 0 0 1-.377-.047c-.029-.01-.056-.023-.084-.036-.227-.114-.437-.263-.647-.405-.229-.155-.262-.497-.103-.713.07-.092.164-.145.264-.173-.171-.239-.462-.562-.434-.834.014-.138.085-.267.195-.353a.52.52 0 0 1 .728.087l.193.25c.572-.145 1.045.759.988 1.359l.898 1.547a7.59 7.59 0 0 1 .165-1.039c.063-.267.131-.638.411-.76.14-.06.306-.039.424.059.101.085.171.215.194.346.032.193.021.389.009.583a2.97 2.97 0 0 1-.1.613l-.168.594-.25.74c.007.112.012.103.003.195 1.055 2.062 1.617 4.245 1.945 6.547l.297-3.771c-.676-.835-.914-1.088-1.302-2.279l-.1-.357c-.035-.16-.056-.357.007-.509a.45.45 0 0 1 .456-.277c.258.019.423.231.568.425.066.086.121.178.18.268l.311.548c.048-.826.016-.797.286-3.913-1.401-1.298-2.88-3.599-3.36-5.412-.056-.207-.118-.516.033-.671.092-.124.255-.183.426-.121.186.067.364.366.478.542a17.14 17.14 0 0 1 .827 1.447l.249.486.251.443.491.894.588.866c.05.074.09.154.135.231l.487-3.486c-.065-.124-.095-.771-.119-.943-.039-.28-.107-.553-.183-.824-.073.046-.158.075-.25.065-.433-.047-.908-.141-1.314-.3s-.991-.369-1.013-.792l-.002-.106c.216-.931 1.431-.331 2.258.09-.213-.661-.118-.414-.488-1.311-.032-.006-1.426-.589-1.769-.701-.638.714-1.825.271-1.813-.371-.085-.019-.141-.023-.233-.06-.23-.09-.34-.316-.317-.527.031-.311.338-.509.568-.461l.186.034c.061-.645 1.333-.715 1.788.352.223.062.349.093.867.32-.423-.756-.348-.637-1.394-2.145-.076.003-.152.007-.229-.002a1.17 1.17 0 0 1-.329-.106c-.411-.179-.632-.495-.752-.921-.028-.101-.061-.115-.05-.243.013-.118.116-.271.207-.348-.383-.512-.914-.985-.413-1.379.466-.366.819.172 1.177.629l.1-.102c.702-.667 1.009-.365 1.245.531.109.414.136.849.023 1.261-.012.047-.033.091-.053.136 1.975 2.828 2.354 3.995 2.884 5.758.347-1.291 1.023-3.07 1.488-4.289-.315-.596.081-2.434.816-2.078l.126-.32c.103-.255.399-.389.658-.287a.51.51 0 0 1 .296.615c.102-.012.206-.007.297.029a.61.61 0 0 1 .336.324c.069.159.053.303.009.466-.043.157-.134.294-.213.436-.498.873-.951 1.11-1.345 1.184l-1.07 2.941c.704-.579 1.633-1.254 2.532-1.406.117-.019.239-.021.352.016.128.041.209.126.267.245.062.127.027.297-.033.419-.07.141-.172.247-.285.352l-.472.397c-.596.483-2.056 1.299-2.828 1.497-.171.65-.307 1.065-.631 2.851.328-.339 1.006-.965 1.472-1.042.248-.043.52.094.562.358.029.184-.078.346-.198.474l-.207.231-.402.447c-.145.153-.302.294-.473.418-.078.057-.87.585-.959.625l-.319 3.302.224-.309c.312-.418.653-.832 1.061-1.161.169-.136.351-.259.532-.379l.55-.349c.179-.104.398-.146.571-.004.24.197.172.537.057.781s-.287.468-.461.674a6.12 6.12 0 0 1-.573.611l-.596.52-.537.495-.484.448c-.004.005-.009.009-.024.025l.024-.024-.138.143a1.56 1.56 0 0 1-.33.281l-.209 3.561c1.016-2.065 2.442-3.478 4.379-4.921l1.171-2.218c-.451-.441-.79-.693-1.33-2.582l-.034-.137c-.011-.053-.009-.109-.009-.165.001-.11.081-.193.154-.264.096-.094.246-.09.364-.055.111.033.194.125.272.206.052.057.1.118.147.179l.168.235c.108.167.209.335.292.516.058.125.326.847.402 1.028.333-.932.358-1.168.462-1.693-.072-.081-.13-.175-.177-.268-.031-.06-.049-.135-.07-.198-.047-.138-.089-.28-.117-.424-.068-.33.011-.676.089-.998.032-.132.068-.239.181-.326.097-.076.223-.114.347-.101a.49.49 0 0 1 .327.18c.006.008.011.022.016.031.176-.081.255-.055.372-.009z"/><path d="M141.742 110.817c.223-.144.398-.343.415-.617a1.36 1.36 0 0 0-.144-.733c-.113-.21-.249-.393-.456-.519-.243-.145-.569-.232-.837-.1-.23.114-.444.277-.557.514a1.37 1.37 0 0 0-.121.409c-.012.088-.018.171-.013.262-.001.048.002.095.011.142.033.13.069.246.146.358a1.05 1.05 0 0 0 .113.142c.376.409.995.432 1.443.142zm-.599-.957l.021-.036-.021.036zm.475-13.662c-.054-.282-.023-.569.054-.844l-.008-.232c-.004-.165.01-.325.061-.481.102-.318.318-.572.64-.677a1.13 1.13 0 0 1 .518-.045c.188.029.356.117.508.225.128.092.236.225.325.354a1.94 1.94 0 0 1 .224.43c.127.341.172.732.074 1.085-.097.347-.326.654-.627.85s-.693.307-1.041.179l-.024-.009c-.36-.14-.629-.453-.704-.835z"/></g><g class="C"><path d="M16.866 90.493c-.65-6.076 1.087-11.953 4.002-17.05 1.456-2.546 3.185-4.913 5.031-7.165 1.864-2.274 3.819-4.488 6.636-5.5.565-.203.851.729.289.93-2.81 1.01-4.73 3.392-6.564 5.661-1.781 2.205-3.437 4.523-4.82 7.021-2.688 4.856-4.247 10.368-3.634 16.102.067.619-.874.619-.941.001z"/><path d="M21.704 94.556c.754 3.075.741 6.215.173 9.261-.055.299-.488.367-.644.093-2.403-4.196-4.692-9.601-4.424-14.477 0-.01.009-.013.017-.013 0 0 .28-2.73.165-2.99-.224-.505.119-.642.465-.337 2.161 1.907 3.577 5.726 4.248 8.462zM19.156 77.81c-.655 5.644 2.205 11.709 6.998 14.84-1.465-5.058-3.732-9.904-6.68-14.285"/><path d="M19.422 77.81c-.474 5.612 2.188 11.322 6.906 14.501l-.534.441c-1.422-4.761-3.488-10.096-6.672-13.999-.526-.645.441-1.336.797-.668 1.252 2.359 2.71 4.561 3.831 6.998 1.113 2.419 2.017 4.914 2.767 7.462.089.303-.242.639-.533.441-4.971-3.385-7.756-9.312-7.084-15.247.033-.3.549-.236.523.07z"/><path d="M19.259 78.197c-3.366 4.41-9.449 6.401-14.884 4.873a44.52 44.52 0 0 1 14.287-4.734"/><path d="M19.456 78.386c-3.53 4.59-9.474 6.534-15.162 5.058-.303-.079-.417-.555-.126-.709 2.171-1.148 4.408-2.155 6.735-2.961 2.492-.863 5.063-1.277 7.598-1.964.727-.197.969 1.027.185 1.067-4.834.243-9.91 2.334-14.102 4.525l-.126-.709c5.423 1.435 11.121-.429 14.604-4.687.216-.264.599.114.394.379zm4.61-8.106c-4.209 3.568-10.614 4.217-15.673 1.589 4.857-1.363 9.964-1.899 15.057-1.581"/><path d="M24.263 70.47c-4.433 3.733-10.685 4.389-16.044 1.737-.305-.15-.245-.628.056-.713 2.376-.657 4.788-1.155 7.247-1.446 2.636-.312 5.26-.172 7.904-.303.728-.036.71 1.198-.091 1.068-4.832-.783-10.237.186-14.827 1.43l.056-.713c5.06 2.534 11.072 1.907 15.355-1.484.231-.182.57.232.343.423z"/><path d="M23.602 69.913c-1.203 5.525 1.065 11.826 5.551 15.417-.973-5.161-2.767-10.194-5.287-14.835"/><path d="M23.861 69.983c-1.02 5.539 1.137 11.43 5.546 15.069l-.613.381c-.968-4.907-2.545-10.439-5.37-14.66-.427-.638.628-1.191.948-.423 1.014 2.442 2.248 4.745 3.122 7.252.87 2.495 1.524 5.041 2.021 7.624.073.379-.3.643-.613.381-4.603-3.835-6.793-10-5.558-15.765.072-.337.579-.2.517.141zm6.054-7.727c-2.219 5.145-1.146 11.722 2.627 16.094-.003-5.216-.842-10.465-2.473-15.477"/><path d="M30.15 62.39c-2.021 5.136-1.012 11.319 2.644 15.683l-.632.278c-.045-4.987-.581-10.648-2.599-15.332-.279-.648.86-.986 1.009-.289.537 2.517 1.311 4.958 1.719 7.507.43 2.695.618 5.402.63 8.114.001.3-.401.556-.632.278-3.873-4.665-4.928-11.088-2.61-16.507.136-.319.595-.047.472.268z"/><path d="M30.501 62.581c-5.116 2.058-11.497.692-15.614-3.342 5.094.216 10.188 1.288 15.016 3.16"/><path d="M30.582 62.842c-5.345 2.13-11.584.79-15.948-3.326-.241-.227-.098-.682.236-.667 2.494.115 4.979.389 7.445.875 2.633.52 5.112 1.478 7.701 2.149.736.191.361 1.364-.356.997-2.222-1.139-4.86-1.736-7.257-2.255a46.61 46.61 0 0 0-7.501-.99l.236-.667c4.148 3.949 10.136 5.23 15.279 3.359.32-.116.473.4.164.524zm27.296-33.984c-5.964 1.329-10.976 4.856-14.873 9.249-1.946 2.194-3.636 4.59-5.178 7.06-1.557 2.494-3.03 5.054-3.087 8.048-.012.6.962.574.974-.024.057-2.985 1.7-5.568 3.264-8.031 1.519-2.393 3.185-4.704 5.109-6.813 3.741-4.1 8.463-7.341 14.091-8.596.609-.134.307-1.027-.3-.891z"/><path d="M63.276 32.141c3.153-.27 6.126-1.287 8.828-2.8.266-.149.192-.579-.118-.64-4.743-.934-10.598-1.373-15.131.443-.009.004-.01.012-.007.021 0 0-2.496 1.139-2.779 1.113-.55-.051-.57.318-.169.549 2.497 1.436 6.569 1.555 9.376 1.315zm-16.682 2.946c5.138-2.428 11.798-1.66 16.299 1.88a51.14 51.14 0 0 1-15.671-1.756"/><path d="M46.679 35.338c5.166-2.245 11.427-1.55 15.95 1.901l.247-.647c-4.966.176-10.681-.073-15.398-1.84-.78-.292-1.125.846-.378.968 2.635.431 5.188 1.108 7.856 1.39 2.649.279 5.301.339 7.955.233.316-.013.528-.435.247-.647-4.799-3.626-11.304-4.367-16.712-1.831-.273.129-.047.596.234.473z"/><path d="M46.994 35.06c3.101-4.601 3.041-11-.147-15.659-.825 4.962-.796 10.068.088 15.052"/><path d="M47.236 35.186c3.219-4.814 3.158-11.066-.061-15.984-.172-.262-.66-.218-.712.107-.393 2.425-.631 4.867-.649 7.328-.02 2.637.411 5.206.572 7.828.047.752 1.284.589 1.07-.166-1.317-4.656-.96-10.136-.227-14.808l-.712.107c3.094 4.679 3.153 10.673.234 15.335-.181.288.3.531.486.252zm-6.204 6.962c2.033-5.129.598-11.405-3.51-15.357a45.29 45.29 0 0 0 3.322 14.772"/><path d="M41.275 42.275c2.118-5.394.738-11.528-3.489-15.755-.241-.241-.674-.031-.657.282.138 2.462.439 4.906.95 7.329.548 2.597 1.521 5.038 2.242 7.585.199.701 1.362.289.983-.429-2.288-4.327-3.101-9.758-3.391-14.505l-.656.282c4.02 3.982 5.35 9.88 3.508 15.022-.098.276.402.465.51.189z"/><path d="M40.537 41.826c4.85-2.908 11.545-2.776 16.383.326a50.93 50.93 0 0 1-15.747-.261"/><path d="M40.685 42.049c4.921-2.739 11.193-2.581 16.052.431l.165-.703c-4.958.653-10.704.931-15.608-.396-.741-.2-.927.977-.098 1.033 2.638.179 5.215.611 7.87.637 2.641.026 5.264-.169 7.871-.525.383-.052.513-.49.166-.704-5.106-3.134-11.648-3.235-16.714-.219-.298.177-.005.614.297.446zm-5.383 8.208c4.164-3.749 10.739-4.837 16.089-2.663a50.2 50.2 0 0 1-15.454 2.61"/><path d="M35.504 50.438c4.219-3.558 10.4-4.582 15.703-2.515l.062-.687c-4.739 1.554-10.274 2.858-15.358 2.444-.704-.057-.658 1.13.049 1.048 2.556-.297 5.117-.345 7.663-.775 2.691-.456 5.316-1.144 7.888-2.001.284-.095.398-.558.062-.687-5.66-2.176-12.081-1.12-16.474 2.811-.258.232.146.58.405.363z"/><path d="M35.797 50.71c.312-5.506-3.025-11.113-8.164-13.723 1.835 4.757 4.481 9.24 7.801 13.214"/><path d="M36.071 50.703c.308-5.745-2.96-11.228-8.255-14.044-.292-.156-.678.125-.556.438.907 2.325 1.961 4.592 3.213 6.773 1.335 2.327 3.036 4.371 4.5 6.608.416.636 1.408-.095.831-.656-1.79-1.742-3.2-4.049-4.459-6.155a46.46 46.46 0 0 1-3.338-6.789l-.556.438c5.069 2.666 8.199 7.929 8.073 13.4-.008.34.53.319.548-.013z"/></g><path d="M48.254 63.468c-3.559 1.688-6.751-1.4-13.398-4.222 3.976 5.602 9.876 10.056 5.072 13.636-2.366 1.854-1.854 2.065-4.58 2.26-2.363.147-3.294-.472-3.303-2.982-.026-1.842-.513-2.399-.723-4.635-.087-1.391.076-4.986.016-5.969-1.662 3.156-1.839 6.849-6.018 11.15-1.893 1.992-3.888 1.44-5.759-.511-1.063-1.083-2.638-2.005-2.93-3.61-.111-.574-.056-1.269.342-1.732a2.56 2.56 0 0 1 .399-.377l.795-.611c2.647-2.029 2.192-2.982 9.313-6.552-.162-.013-.804-.005-1.13.047-1.021.147-1.664.576-5.143.317-2.712-.159-5.919.459-6.378-.677-.084-.193-.475-2.234-.419-2.668.04-.439.324-1.513.817-2.556 1.144-2.463 4.194-1.606 6.455-.947.169-.01 4.695 1.312 5.584 1.691-1.645-1.715-3.051-2.151-3.771-2.712-.412-.319-2.395-2.338-2.2-2.151-.822-.789-1.324-1.864-1.816-2.897-.794-1.528.712-3.997 2.017-4.843 2.462-1.687 5.458-2.433 6.327-1.03.822 1.315.992 3.581 1.213 4.633.005.012.013.016.01.023.001.019.006.031.011.043-.005-.012-.01-.023-.002-.04.415 1.572.736 1.023 1.239 3.467.96-3.356 2.271-5.251 2.758-6.002 1.087-1.634 1.87-2.212 2.516-2.61 3.127-1.815 4.325-1.532 6.279-.352 2.888 1.689 3.898 1.213 3.969 3.217.005.32-.006 1.076-.064 1.39-1.156 5.929-7.884 9.596-8.691 10.255 3.118-1.117 9.267-2.493 11.484-.048.468.522.559 1.108.723 1.772.293 1.082 1.003 2.089.886 3.556-.184 2.063-.795 2.755-1.898 3.275z" class="B"/><g class="C"><path d="M33.485 52.179c.582.112 1.138.541 1.304 1.147 1.105 1.33.589 3.107-.653 4.358-1.757 1.755-4.293.443-5.097-.469-2.028-2.274 1.604-5.614 4.446-5.037zm102.418 65.299c.215 3.427 3.918 4.556 8.874 8.432-5.95-.667-11.835-3.283-12.538 1.889-.415 2.588-.792 2.285.21 4.446.885 1.864 1.751 2.313 3.668 1.259 1.416-.757 2.046-.62 3.84-1.406 1.098-.52 3.769-2.163 4.545-2.531-1.704 2.599-4.445 4.292-5.961 9.294-.72 2.284.542 3.572 2.82 4.176 1.275.353 2.642 1.165 3.989.711.484-.157.991-.493 1.177-.992a2.28 2.28 0 0 0 .118-.463l.129-.865c.43-2.874 1.349-2.929 1.065-9.866a6.39 6.39 0 0 1 .442.882c.318.84.264 1.511 1.93 4.054 1.266 2.002 2.149 4.707 3.209 4.578.183-.017 1.904-.581 2.211-.807.317-.216 1.017-.886 1.603-1.701 1.395-1.911-.547-3.876-2.002-5.321-.064-.133-2.983-3.024-3.646-3.544 2.001.53 2.927 1.419 3.659 1.731.417.178 2.794.839 2.568.769.948.293 1.98.223 2.975.162 1.5-.04 2.746-2.23 2.84-3.582.247-2.588-.449-5.188-1.886-5.259-1.349-.071-3.149.757-4.044 1.032-.01.001-.016-.003-.022.003-.015.007-.026.008-.036.01.01-.001.022-.002.031-.014-1.375.347-1.091-.131-3.166.518 2.154-2.149 3.045-3.948 3.412-4.637.787-1.518.897-2.359.928-3.02.064-3.149-.657-3.944-2.383-4.935-2.507-1.489-2.57-2.46-4.127-1.668-.247.131-.818.459-1.034.636-4.033 3.383-3.988 10.061-4.149 10.955-.465-2.849-2.012-8.117-4.811-8.776-.596-.135-1.082.042-1.656.198-.949.233-2.016.118-3.084.826-1.498 1.007-1.769 1.766-1.698 2.826zM94.302 2.844c-.228.165-.408.439-.534.707-.398.842-.15 2.146.452 2.683.227 3.124.14 5.457.139 6.241-2.399-5.464-2.761-5.73-3.412-6.671.723-1.429-.49-3.75-1.736-3.154-2.065.974-.249 4.637 1.224 3.728 1.358 1.91 4.934 9.243 5.861 13.909-1.453-.78-6.221-3.59-7.993-4.977.147-2.356-2.107-7.88-3.101-10.833 1.117-.917.54-3.75-.719-3.98-.493-.091-.993.189-1.285.873-.56 1.315.43 3.437 1.408 3.37.768 1.82 2.558 7.381 2.886 9.421-2.131-2.162-6.027-5.779-8.494-7.539.651-1.766-1.949-4.441-3.204-2.019-.21.405-.188.917-.109 1.334.261 1.365 2.07 2.232 2.885 1.327 2.207 1.599 8.197 7.335 8.602 7.745-4.971-1.032-5.287-1.103-7.801-2.093-.003-.013-.005-.028-.009-.041.413-2.58-3.81-3.513-3.628-.971-.438.992 2.965 3.968 3.587 1.855 2.59.99 7.615 1.896 8.184 1.973.882.725 1.734 1.334 5.18 3.358-2.366-.195-6.754-.048-10.909-1.518-.076-1.99-3.337-2.282-3.243-.504.004.379.204.68.418.927.438.506 1.535 1.271 2.149.638a1.07 1.07 0 0 0 .554-.536c4.202 1.527 5.117 1.306 8.237 1.592-.833.497-4.388 3.079-5.042 3.479-.61-1.126-2.548-.251-3.081.933-.322.739.127 1.643 1.315 1.615a1.3 1.3 0 0 0 .526.046c.64-.067 1.644-.973 1.395-2.128 1.078-.684 4.202-3.091 4.84-3.499.199-.115.157-.104.719-.394.663.053 2.904.079 3.273.016 0 0 6.086 3.297 9.487 4.787-2.933.662-.557.222-3.968.837-.267-.496-3.238-1.583-3.732-1.788.317-1.207-.865-2.104-1.605-2.175a2.7 2.7 0 0 0-.721-.14c-1.668-.089-2.051 2.388.478 3.081a2.04 2.04 0 0 0 .443.184c.283.082.713.024 1.016-.266 1.04.44 1.56.598 3.064 1.293-.533.071-2.445.115-2.884.123 0 0-1.717-.021-3.085-.325-.739-2.643-5.092-1.569-4.142.517-.072.283.637 1.339 1.753 1.593 1.082.241 2.445-.229 2.475-1.453 2.026.396 3.765.264 4.504.255-.054-.002.49.003.92-.021a6.62 6.62 0 0 0 .868-.116c1.316-.256 4.217-.798 5.48-1.238 4.65 1.821 14.975 5.151 16.85 5.664.155.042.347-.098.425-.256.281-.571-.48-.7-1.044-.872 1.069.313-8.935-2.693-13.615-4.436-1.094-3.728-.481-2.555-2.797-7.544.387-.272.266-4.564.21-5.023.587-.244 1.211-1.205.932-2.75-.283-1.539-1.367-1.56-1.924-.396-.794.387-.131 2.873.556 3.18.071.508-.055 3.892-.089 4.318-.298-.628-2.352-4.271-3.345-5.505.733-1.24-.65-4.231-1.967-3.341-.612.38-.956 1.635.072 3.004.499.664.893 1.138 1.53.716.947 1.174 3.116 5.182 3.8 6.628-.267-.163-1.17-.782-.929-.615-1.233-.938-1.306-1.048-2.277-2.317.307-1.286-1.456-3.4-2.241-1.808-.165.335-.154.554-.104.899.095.601.946 1.477 1.488 1.415.269.123.402.072.576-.068l.036.045c.464.573.679.854 1.085 1.242.772.721 2.263 1.706 2.683 1.89 1.666 3.55 1.213 2.739 2.185 5.836a101.8 101.8 0 0 1-9.436-4.232c-.311-1.81-.448-1.787-.823-3.243-.764-2.96-.627-1.924-1.221-3.673.194-.571.078-6.577.073-7.159 1.588-.012 1.866-3.128.703-3.844-.195-.119-.404-.128-.636-.115-.124.006-.362.087-.642.297zm58.16 56.117c.231-.16.418-.43.548-.695.416-.833.196-2.142-.394-2.692-.161-3.128-.024-5.458-.007-6.242 2.283 5.513 2.638 5.788 3.269 6.743-.753 1.413.409 3.759 1.669 3.19 2.086-.93.348-4.63-1.143-3.753-1.317-1.939-4.736-9.345-5.564-14.03 1.435.811 6.143 3.722 7.884 5.146-.196 2.352 1.939 7.923 2.869 10.897-1.136.893-.619 3.738.634 3.994.491.102.996-.168 1.304-.845.588-1.302-.356-3.446-1.335-3.4-.729-1.836-2.401-7.434-2.685-9.481 2.085 2.206 5.902 5.906 8.333 7.718-.689 1.752 1.853 4.481 3.16 2.087.219-.401.208-.913.138-1.331-.232-1.37-2.022-2.275-2.856-1.389-2.173-1.645-8.039-7.508-8.435-7.927 4.948 1.138 5.262 1.215 7.754 2.258.002.014.005.028.008.041-.468 2.571 3.734 3.594 3.606 1.048.459-.983-2.88-4.031-3.547-1.931-2.569-1.045-7.573-2.057-8.14-2.146-.866-.744-1.705-1.37-5.108-3.468 2.362.245 6.751.192 10.874 1.75.034 1.991 3.288 2.352 3.231.573.004-.379-.189-.685-.397-.936-.427-.515-1.507-1.303-2.135-.684a1.07 1.07 0 0 0-.566.525c-4.168-1.617-5.087-1.414-8.2-1.767.843-.479 4.452-2.985 5.114-3.371.586 1.139 2.542.304 3.1-.867.338-.732-.092-1.646-1.281-1.642a1.32 1.32 0 0 0-.525-.057c-.641.054-1.665.938-1.441 2.097-1.092.661-4.266 3.001-4.912 3.395-.2.111-.158.1-.727.378-.662-.067-2.902-.14-3.271-.086 0 0-6.014-3.425-9.383-4.987 2.946-.601.562-.21 3.985-.753.256.501 3.204 1.652 3.693 1.867-.341 1.2.82 2.121 1.559 2.208a2.7 2.7 0 0 0 .718.155c1.665.124 2.1-2.343-.413-3.091 0 0-.199-.123-.439-.193a1.1 1.1 0 0 0-1.022.244c-1.03-.463-1.546-.631-3.036-1.358.535-.059 2.447-.063 2.886-.062 0 0 1.716.058 3.076.39.683 2.658 5.058 1.677 4.153-.429.077-.282-.609-1.352-1.72-1.63-1.077-.263-2.45.177-2.505 1.4-2.018-.439-3.759-.345-4.498-.351.054.004-.49-.013-.92.001a6.62 6.62 0 0 0-.87.098c-1.322.228-4.234.708-5.506 1.122-4.61-1.919-14.862-5.469-16.725-6.021-.154-.046-.349.09-.431.247-.294.565.465.71 1.026.894-1.062-.336 8.875 2.883 13.517 4.724 1.015 3.75.426 2.565 2.635 7.602-.392.264-.363 4.557-.317 5.018-.593.232-1.236 1.179-.991 2.729.25 1.544 1.333 1.589 1.915.437.801-.37.192-2.87-.488-3.191-.06-.508.138-3.889.18-4.314.283.635 2.261 4.32 3.226 5.575-.758 1.224.561 4.245 1.896 3.383.62-.367.99-1.615-.008-3.005-.484-.675-.868-1.157-1.514-.748-.922-1.193-3.005-5.247-3.659-6.708.264.168 1.154.806.916.635 1.212.964 1.283 1.075 2.228 2.365-.335 1.279 1.383 3.431 2.201 1.856.172-.331.166-.551.123-.897-.082-.603-.914-1.497-1.458-1.447-.266-.129-.401-.081-.578.056-.011-.015-.023-.03-.036-.046-.452-.582-.66-.868-1.059-1.266-.756-.737-2.226-1.754-2.641-1.947-1.59-3.585-1.155-2.764-2.06-5.881a101.58 101.58 0 0 1 9.343 4.432c.273 1.816.41 1.797.754 3.259.701 2.975.587 1.937 1.142 3.699-.206.566-.217 6.574-.225 7.156-1.588-.022-1.933 3.088-.784 3.829.192.123.401.137.632.129.132-.005.37-.081.656-.285z"/><path d="M145.259 48.304c8.62 8.241 12.967 20.236 11.671 32.049-.081.745-1.214.478-1.133-.263 1.25-11.383-3.018-22.995-11.313-30.925-.546-.52.229-1.382.775-.86z"/><path d="M144.03 47.109c5.246 7.913 6.772 17.831 4.109 26.886-.211.714-1.347.458-1.133-.263 2.579-8.772 1.14-18.32-3.945-25.992-.418-.629.552-1.259.969-.631z"/><path d="M147.005 52.949c-2.174 3.577-3.254 7.567-3.157 11.782.017.751-1.141.803-1.159.049-.102-4.415 1.004-8.629 3.284-12.378.387-.636 1.422-.094 1.032.547z"/></g><path d="M146.002 65.386c.259.249 1.739 1.791.974 4.848-.12.478-.717.682-1.046.237l-.051-.068-.215.356c-.207.314-.581.252-.818.037-.258.169-.646.055-.823-.22l-.035.039c-.323.361-.8.208-.976-.178a.54.54 0 0 1-.434-.04c-.208.362-.784.353-.989-.012-.254.137-.564.076-.738-.142a.58.58 0 0 1-.643-.249c-.312.214-.684.274-1.073-.013-.948-.7-.244-2.495.191-3.259 1.439-2.528 4.56-3.366 6.676-1.335z" class="B"/><g class="C"><path d="M142.931 64.73l-2.454 1.289c-.165.087-.367.174-.529.078-.285-.166-.091-.609.152-.828.759-.683 1.793-1.048 2.816-.995"/><path d="M143.25 65.223l-2.589 1.353c-.632.276-1.454.04-1.429-.781.022-.743.747-1.249 1.333-1.562.715-.383 1.508-.565 2.321-.542.743.021.809 1.189.061 1.168-.468-.013-.913.035-1.355.193-.194.07-.378.154-.557.258-.17.099-.365.328-.538.394-.109.154-.235.1-.379-.161l.449-.23.613-.322 1.432-.752c.655-.345 1.297.637.638.984z"/><path d="M142.921 64.262c.78.796 1.831 1.317 2.93 1.452.222.028.479.027.628-.14.345-.386-.289-.892-.791-1.028l-2.165-.583"/><path d="M143.309 63.831c.341.332.703.616 1.125.837a4.33 4.33 0 0 0 .676.287c.192.062.609.062.763.172.15-.02.176.048.076.206a.81.81 0 0 0-.286-.174c-.22-.101-.469-.143-.702-.205l-1.563-.421c-.721-.194-.477-1.335.249-1.139.893.241 2.025.362 2.81.877.544.355.951 1.049.494 1.639-.483.624-1.445.389-2.09.186-.882-.277-1.664-.755-2.329-1.403-.538-.527.236-1.389.777-.862z"/><path d="M143.372 64.323a2.85 2.85 0 0 1 .49 3.442c-1.071-.477-1.541-1.979-.93-2.973"/><path d="M143.76 63.893c1.098 1.101 1.373 2.788.618 4.146-.155.278-.492.389-.781.243-1.359-.685-1.911-2.435-1.18-3.764.359-.654 1.393-.11 1.031.547a1.59 1.59 0 0 0 .68 2.184l-.781.243c.498-.895.376-1.999-.363-2.739-.531-.533.243-1.396.776-.86zM92.207 26.669c-11.398-3.508-23.99-1.456-33.672 5.435-.61.435.175 1.294.782.861 9.33-6.641 21.548-8.575 32.517-5.199.721.221 1.095-.875.373-1.097z"/><path d="M93.85 27.159c-9.467-.722-18.87 2.78-25.478 9.52-.521.532.256 1.399.782.861 6.401-6.529 15.438-9.927 24.617-9.227.754.057.831-1.097.079-1.155zM78.629 24.92c-2.519-2.8-5.988-4.442-9.779-4.622-.755-.036-.833 1.119-.079 1.155 3.498.166 6.66 1.657 8.984 4.241.5.556 1.376-.215.874-.773z"/><path d="M80.914 28.823c-5.154.221-10.103 1.516-14.32 4.531-.61.436.175 1.295.782.861 3.933-2.811 8.656-4.031 13.459-4.237.747-.032.832-1.187.079-1.155zm6.387-1.416a21.45 21.45 0 0 1-8.749 8.5c-.664.351-.145 1.388.522 1.036 3.905-2.063 7.044-5.084 9.207-8.902.366-.645-.611-1.285-.98-.633z"/></g><path d="M70.09 17.941c-.183-.306-1.347-2.077-4.516-1.999-.495.013-.834.548-.476.964l.055.064-.398.131c-.355.133-.382.509-.226.786-.226.213-.203.616.023.846l-.047.026c-.428.235-.389.731-.053.985-.083.133-.1.286-.062.43-.403.123-.528.685-.218.962-.192.217-.205.531-.032.747a.57.57 0 0 0 .094.678c-.282.256-.427.604-.237 1.044.464 1.071 2.384.779 3.232.523 2.808-.847 4.355-3.693 2.861-6.187z" class="B"/><g class="C"><path d="M70.017 21.064l-1.832 2.102c-.123.142-.255.319-.2.497.097.312.575.22.845.032.845-.589 1.443-1.513 1.629-2.517"/><path d="M69.625 20.631c-.661.759-1.454 1.499-2.023 2.328-.354.515-.241 1.248.421 1.439.704.204 1.372-.34 1.818-.813a4.63 4.63 0 0 0 1.173-2.226c.153-.721-.956-1.096-1.112-.368-.09.422-.222.822-.447 1.195-.115.19-.247.373-.397.538-.141.155-.43.303-.536.47-.17.076-.15.209.061.398l.242-.285.5-.574 1.083-1.242c.485-.555-.29-1.426-.782-.861z"/><path d="M70.474 21.173c-.597-.93-.862-2.063-.739-3.158.025-.222.085-.471.283-.58.458-.251.806.474.822.992l.066 2.227"/><path d="M70.998 20.915c-.262-.432-.472-.877-.589-1.37-.06-.254-.103-.524-.116-.784-.007-.158.075-.566.027-.706l-.211-.092a.94.94 0 0 1 .115.281c.061.225.039.473.047.703l.05 1.67c.022.739 1.192.822 1.17.077-.025-.845.303-4.359-1.538-3.844-.797.223-.851 1.159-.83 1.836.031.978.316 1.909.825 2.748.385.633 1.438.123 1.049-.517z"/><path d="M70.519 20.724c-.622-1.079-2.061-1.619-3.254-1.223.218 1.142 1.578 1.924 2.692 1.548"/><path d="M71.043 20.465c-.798-1.293-2.392-1.983-3.891-1.532-.295.089-.54.349-.463.679.336 1.448 1.908 2.44 3.381 2.005.718-.212.498-1.349-.225-1.136-.846.25-1.802-.212-2.005-1.091l-.464.679c.971-.292 2.073.032 2.617.913.389.63 1.442.12 1.049-.517z"/></g><path d="M56.782 30.498c-.344-.105-2.411-.645-4.708 1.513-.359.337-.246.959.303 1.029l.084.011-.207.362c-.174.334.063.63.367.732-.021.307.268.591.593.611l-.017.05c-.158.457.209.8.631.765a.54.54 0 0 0 .246.36c-.216.358.073.857.492.858.004.288.209.529.484.575a.58.58 0 0 0 .531.44c-.035.376.094.73.534.93 1.073.486 2.297-1.002 2.752-1.755 1.509-2.49.719-5.623-2.086-6.48z" class="B"/><g class="C"><path d="M58.852 32.859l.071 2.771c.005.186.028.405.19.5.284.167.576-.218.649-.536a3.94 3.94 0 0 0-.505-2.943"/><path d="M58.266 32.821l.081 2.922c.068.687.673 1.289 1.378.866.637-.382.726-1.261.713-1.924a4.62 4.62 0 0 0-.658-2.291c-.38-.638-1.432-.127-1.049.516.239.402.414.815.491 1.276a3.34 3.34 0 0 1 .046.612c-.003.197-.109.478-.082.661-.081.17.027.254.326.252l-.018-.504-.018-.693-.041-1.617c-.019-.739-1.189-.821-1.17-.077z"/><use xlink:href="#B"/><path d="M59.452 32.091c-.456-.136-.88-.313-1.279-.574a4.25 4.25 0 0 1-.581-.451c-.147-.138-.351-.501-.522-.582-.056-.142-.129-.13-.218.034.11.036.207.09.292.166.195.142.354.34.521.512l1.13 1.159c.521.534 1.398-.234.874-.773-.645-.663-1.303-1.591-2.136-2.026-.576-.301-1.379-.318-1.671.368-.309.726.364 1.452.857 1.916.672.635 1.471 1.085 2.36 1.349.722.213 1.097-.883.373-1.098z"/><path d="M58.992 32.276a2.85 2.85 0 0 0-3.245 1.25c.939.702 2.479.38 3.049-.637"/><path d="M59.179 31.727c-1.497-.422-3.103.161-3.921 1.482-.167.27-.099.619.169.801 1.26.852 3.058.481 3.861-.805.396-.632-.583-1.27-.981-.634-.476.762-1.489.977-2.239.471l.169.801c.539-.87 1.562-1.302 2.568-1.019.724.203 1.1-.893.373-1.098z"/></g><path d="M76.931 34.347c-.344-.105-2.412-.645-4.708 1.513-.359.337-.246.959.302 1.029l.084.011-.206.361c-.174.334.063.63.367.732-.021.307.268.591.593.611l-.017.05c-.157.457.209.8.631.765a.54.54 0 0 0 .246.36c-.216.358.073.857.492.858.004.288.209.529.484.575a.58.58 0 0 0 .531.44c-.035.376.094.73.534.93 1.073.486 2.297-1.002 2.752-1.755 1.507-2.488.718-5.622-2.087-6.48z" class="B"/><g class="C"><path d="M79 36.709l.072 2.771c.004.186.028.405.19.5.284.167.576-.218.649-.536.227-.996.041-2.077-.505-2.944"/><path d="M78.415 36.669l.081 2.922c.068.687.673 1.289 1.379.867.637-.382.726-1.261.714-1.925a4.62 4.62 0 0 0-.658-2.291c-.379-.638-1.432-.127-1.049.516.239.402.414.814.491 1.276a3.34 3.34 0 0 1 .046.612c-.003.197-.109.478-.081.661-.081.17.027.254.326.252l-.018-.504-.018-.693-.041-1.617c-.021-.739-1.19-.821-1.172-.077z"/><path d="M79.416 36.488c-1.075-.294-2.043-.957-2.696-1.849-.132-.181-.257-.405-.184-.617.168-.49.92-.183 1.284.19l1.564 1.605"/><path d="M79.601 35.94c-.456-.136-.881-.313-1.279-.574a4.23 4.23 0 0 1-.581-.451c-.147-.138-.351-.501-.522-.582-.056-.141-.128-.13-.218.034.11.036.207.09.292.166.195.142.354.34.521.512l1.13 1.159c.521.534 1.398-.234.873-.772-.645-.662-1.303-1.591-2.136-2.026-.575-.301-1.379-.318-1.671.368-.309.726.364 1.452.857 1.916.672.635 1.471 1.085 2.36 1.349.723.214 1.098-.883.374-1.098z"/><path d="M79.141 36.124a2.85 2.85 0 0 0-3.245 1.251c.939.702 2.479.38 3.05-.637"/><path d="M79.327 35.576c-1.497-.422-3.103.161-3.921 1.482-.167.27-.099.619.169.801 1.26.852 3.058.481 3.861-.805.396-.632-.583-1.27-.98-.634a1.59 1.59 0 0 1-2.239.471l.169.801c.539-.871 1.562-1.302 2.568-1.019.724.203 1.1-.892.372-1.098z"/></g><path d="M65.343 31.748c-.344-.105-2.412-.645-4.708 1.513-.359.337-.246.959.303 1.029l.084.011-.206.361c-.174.334.063.63.367.732-.021.307.268.591.593.611l-.017.05c-.157.457.209.8.631.765a.54.54 0 0 0 .246.36c-.216.358.073.857.492.857.005.288.209.529.484.575a.58.58 0 0 0 .531.44c-.035.376.094.73.534.93 1.073.486 2.297-1.002 2.752-1.755 1.507-2.488.718-5.622-2.087-6.48z" class="B"/><g class="C"><path d="M67.412 34.109l.072 2.771c.005.186.028.405.19.5.284.167.576-.218.649-.536.227-.996.041-2.077-.505-2.944"/><path d="M66.827 34.071l.081 2.922c.068.687.673 1.289 1.378.867.637-.382.726-1.261.714-1.925-.014-.811-.243-1.592-.658-2.291-.379-.638-1.432-.127-1.049.516a3.64 3.64 0 0 1 .491 1.276 3.33 3.33 0 0 1 .047.612c-.003.197-.109.478-.082.661-.081.17.027.254.326.252l-.018-.504-.018-.693-.041-1.617c-.02-.739-1.19-.821-1.17-.077z"/><path d="M67.827 33.89c-1.075-.294-2.043-.957-2.696-1.849-.133-.181-.257-.405-.184-.617.168-.49.92-.183 1.283.19l1.564 1.605"/><path d="M68.013 33.341c-.456-.136-.881-.313-1.279-.574a4.23 4.23 0 0 1-.581-.451c-.147-.138-.351-.501-.522-.582-.056-.141-.129-.13-.218.034.11.036.207.09.293.165.195.142.354.34.521.512l1.13 1.159c.521.534 1.398-.235.874-.772-.645-.662-1.303-1.591-2.136-2.026-.576-.301-1.379-.318-1.671.368-.309.726.364 1.452.857 1.916.672.635 1.471 1.085 2.36 1.349.721.214 1.097-.883.372-1.097z"/><path d="M67.553 33.526a2.85 2.85 0 0 0-3.245 1.25c.939.702 2.479.38 3.05-.638"/><path d="M67.739 32.977c-1.497-.422-3.103.161-3.921 1.482-.167.27-.099.619.169.801 1.26.852 3.058.481 3.861-.805.396-.633-.583-1.27-.98-.634a1.59 1.59 0 0 1-2.239.471l.169.801c.539-.87 1.562-1.302 2.568-1.019.724.203 1.1-.893.372-1.098z"/></g><g class="B"><path d="M150.311 59.833c-1.164-6.706-5.007-12.445-9.961-16.977-2.473-2.263-5.205-4.25-8.034-6.076-2.857-1.844-5.799-3.595-9.355-3.787-.713-.038-.75 1.048-.04 1.087 3.547.192 6.503 2.134 9.324 3.983 2.739 1.795 5.371 3.753 7.746 5.988 4.616 4.346 8.14 9.75 9.239 16.079.117.684 1.199.386 1.081-.297z"/><path d="M146.03 65.71c.101 3.528 1.103 6.885 2.713 9.963.159.302.676.239.77-.104 1.442-5.248 2.373-11.755.531-16.888-.004-.01-.014-.012-.024-.009 0 0-1.18-2.832-1.129-3.146.098-.611-.338-.65-.641-.212-1.883 2.723-2.31 7.256-2.22 10.395zm-2.34-18.724c2.529 5.831 1.149 13.224-3.375 18.09a54.32 54.32 0 0 1 3.184-17.395"/><path d="M143.386 47.07c2.309 5.855 1.044 12.805-3.376 17.699l.752.303c.137-5.543.835-11.905 3.265-17.087.402-.857-.928-1.291-1.125-.463-.698 2.919-1.68 5.736-2.202 8.698-.518 2.941-.774 5.895-.833 8.859-.007.353.48.607.752.303 4.647-5.193 5.984-12.414 3.346-18.552-.132-.312-.705-.08-.579.239z"/><path d="M143.695 47.434c5.254 3.654 12.87 3.862 18.635.508-5.843-1.133-11.918-1.319-17.907-.549"/><path d="M143.528 47.699c5.499 3.795 12.94 3.996 19.013.619.324-.18.304-.726-.078-.798-2.856-.542-5.744-.912-8.67-1.039-3.134-.135-6.22.235-9.349.301-.897.019-.79 1.405.123 1.199 5.63-1.268 12.121-.635 17.628.383l-.078-.798c-5.781 3.249-12.914 3.057-18.256-.398-.331-.213-.652.312-.333.532zm-7.846-7.216c5.957 2.486 13.522 1.156 18.509-3.255-6.009.076-12.048 1.117-17.8 3.068"/><path d="M135.515 40.748c6.266 2.593 13.658 1.319 18.982-3.212.302-.258.084-.75-.289-.744-2.937.048-5.866.277-8.784.744-3.126.499-6.099 1.48-9.177 2.174-.848.192-.439 1.506.441 1.114 5.306-2.365 11.822-3.037 17.487-3.157l-.289-.744c-5.017 4.311-12.124 5.54-18.111 3.265-.322-.123-.582.428-.26.56z"/><path d="M136.1 39.943c3.12 5.532 2.494 12.99-1.532 18.25-.505-5.83-.026-11.781 1.411-17.544"/><path d="M135.824 40.1c2.914 5.604 2.288 12.588-1.634 17.876l.825.214c-.431-5.556-.359-11.974 1.561-17.382.29-.818-1.097-1.076-1.222-.153-.397 2.933-1.091 5.788-1.308 8.746-.214 2.944-.166 5.876.075 8.797.036.429.547.593.825.215 4.083-5.559 4.661-12.846 1.429-18.624-.189-.34-.73-.032-.551.312zm-9.387-6.354c4.167 4.803 5.003 12.18 2.043 18.051-1.638-5.581-2.324-11.463-2.025-17.34"/><path d="M126.209 33.963c3.937 4.857 4.722 11.791 1.894 17.615l.814.098c-1.517-5.351-2.681-11.576-1.835-17.226.117-.782-1.299-.782-1.251.01.175 2.862.052 5.72.387 8.576.354 3.019.989 5.976 1.828 8.88.092.32.635.467.813.099 2.984-6.216 2.176-13.42-2.192-18.486-.257-.299-.7.137-.458.434z"/><path d="M125.865 34.278c6.526.584 13.429-2.894 16.891-8.511-5.786 1.841-11.303 4.599-16.262 8.128"/><path d="M125.855 34.583c6.811.59 13.56-2.817 17.28-8.599.204-.319-.103-.761-.482-.638-2.829.91-5.599 1.989-8.28 3.29-2.861 1.388-5.41 3.197-8.174 4.733-.785.437.015 1.574.723.954 2.196-1.921 5.039-3.393 7.63-4.706 2.682-1.36 5.457-2.497 8.308-3.43l-.482-.638c-3.525 5.536-10.002 8.8-16.502 8.424-.403-.023-.415.577-.021.611z"/></g><g class="C"><path d="M82.834 31.803c6.049-3.723 13.15-4.936 20.052-4.565 3.447.185 6.851.737 10.195 1.463 3.377.734 6.738 1.59 9.291 3.925.511.467-.317 1.227-.826.762-2.546-2.328-6.067-3.065-9.423-3.77-3.26-.686-6.573-1.188-9.932-1.323-6.528-.263-13.15.944-18.859 4.458-.617.38-1.114-.572-.498-.951z"/><path d="M81.113 38.738c-2.837 2.313-6.148 3.886-9.652 4.849-.345.095-.644-.307-.439-.603 3.144-4.543 7.624-9.584 12.895-11.773.011-.005.02.002.023.01 0 0 3.02-1.096 3.232-1.343.413-.481.738-.204.6.301-.866 3.143-4.135 6.502-6.66 8.56zm16.275-11.023c-6.284 2.187-11.155 8.135-11.918 14.556 4.548-4.032 8.45-8.766 11.502-13.955"/><path d="M97.529 27.982c-6.155 2.354-10.756 7.925-11.611 14.293l-.746-.316c4.258-3.839 8.78-8.618 11.206-13.803.401-.857 1.639-.229 1.123.467-1.82 2.455-3.367 5.038-5.34 7.401-1.959 2.345-4.104 4.517-6.39 6.559-.272.244-.801.077-.746-.316.937-6.728 5.702-12.531 12.301-14.849.334-.117.54.436.204.564z"/><path d="M97.035 28.012c-6.417-1.174-11.724-6.309-12.985-12.569 4.836 3.284 9.085 7.367 12.525 12.037"/><path d="M96.939 28.307c-6.693-1.248-11.876-6.267-13.328-12.757-.077-.346.364-.701.679-.485 2.355 1.613 4.595 3.364 6.671 5.306 2.223 2.08 4.017 4.468 6.078 6.681.591.635-.569 1.497-1.024.725-2.807-4.757-7.689-8.828-12.206-11.956l.679-.485c1.354 6.2 6.323 11.012 12.642 12.381.392.085.196.662-.192.59zm10.963.564c-5.975-2.449-10.041-8.588-9.948-15.024a51.04 51.04 0 0 1 9.613 14.406"/><path d="M107.807 29.165c-6.267-2.591-10.259-8.573-10.299-15.323-.003-.384.532-.565.78-.303 1.945 2.068 3.743 4.252 5.348 6.589 1.72 2.503 2.958 5.225 4.493 7.828.422.717-.886 1.321-1.172.447-1.728-5.274-5.602-10.243-9.333-14.25l.779-.303c.005 6.388 3.84 12.143 9.67 14.755.313.141.057.694-.265.56z"/><path d="M108.042 28.217c-6.449 1.575-11.879 7.045-13.288 13.388 4.917-3.587 9.264-7.938 12.816-12.827"/><path d="M108.106 28.512C101.74 30.278 96.68 35.43 95.18 41.719l-.725-.427c4.652-3.454 9.64-7.838 12.589-12.822.445-.754 1.585.033.945.743-2.034 2.256-3.805 4.665-5.981 6.813-2.165 2.138-4.499 4.084-6.955 5.89-.361.265-.834.021-.725-.427 1.605-6.583 6.934-11.906 13.652-13.57.394-.097.517.485.126.593zm11.327 2.214c-6.584.356-12.937 4.76-15.546 10.776a58.95 58.95 0 0 0 14.976-10.31"/><path d="M119.416 31.032c-6.47.552-12.443 4.691-15.103 10.585l-.627-.498c5.224-2.563 10.897-5.961 14.759-10.363.535-.61 1.491.372.837.873-2.365 1.813-4.524 3.826-6.991 5.524-2.609 1.795-5.357 3.35-8.204 4.731-.314.152-.796-.124-.626-.498 2.863-6.266 9.062-10.572 15.989-10.967.406-.023.363.577-.034.611z"/><path d="M119.401 31.482c-4.866-4.127-6.798-11.259-4.728-17.452 2.463 5.252 4.025 10.937 4.604 16.758"/><path d="M119.17 31.695c-5.063-4.321-6.948-11.299-4.922-17.782.112-.357.666-.443.826-.098 1.196 2.575 2.221 5.223 3.01 7.959.843 2.921 1.145 5.908 1.806 8.861.188.839-1.245 1.053-1.237.144.024-2.819-.742-5.784-1.46-8.467a51.19 51.19 0 0 0-2.919-8.073l.826-.098c-1.965 6.182-.15 12.874 4.534 17.124.291.265-.172.678-.464.429z"/><path d="M140.38 34.395c-.62 1.754-2.172 1.739-3.411 1.706-2.436-.066-6.49-1.539-7.417-2.002 1.128 1.128 4.122 3.297 4.691 5.572.744 3.083-1.371 3.055-2.299 3.458 0 0-.019 0-.028.009h-.009c0 .005-.037.019-.037.019-.226.106-.96.448-1.204.473-.968.193-1.755-.432-2.003-1.177 0 3.132-.158 4.888-3.05 5.414-4.015.59-2.907-4.164-3.931-8.604-.333 4.168-1.401 7.896-2.132 8.825-2.243 3.028-8.587 1.684-6.323-3.17-.574.203-3.096.703-4.023.649-.34-.024-.624-.135-.77-.241-3.897-2.538 3.316-7.662 5.711-9.687-2.879.812-8.953.92-9.642.677-1.69-.641-2.238-3.2-2.058-4.997.076-.839.291-1.537 1.632-2.717 1.227-1.091 3.36-1.369 3.615-1.113h.037c-1.135-2.27-1.662-3.569-1.53-4.496.166-.331.175-.495.779-.779 3.132-1.566 4.247.032 6.128 2.281-.752-1.629-3.309-5.438-.362-6.36 1.271-.363 1.891.389 2.819 1.261 0-.019 0-.047.009-.064.109-1.154.115-2.604 1.78-2.93 1.728-.393 1.838.311 3.625 4.329.163-2.445-.063-3.645 1.613-5.321.801-.854 1.723-.604 2.809-.398 1.461.283 3.142.41 2.104 4.117.987-1.261 1.478-1.452 2.921-1.131 1.284.304 3.678.588 2.791 3.161-.371 1.048-3.896 5.414-4.645 6.258 6.805-2.917 8.121-3.135 9.049-2.466.409.295 1.704 1.363 2.067 1.882.352.528.307.785.223 1.177-.677 1.352-.666 1.101-2.466 2.049 1.221.61 2.78 2.142 2.976 3.513.051.268.049.539-.039.824z"/></g><path d="M122.614 27.112c2.079 0 4.185 1.302 3.895 3.432-.357 2.655-1.766 4.54-4.473 4.831-1.023.14-1.497.2-2.251-.152-.158-.024-.31-.055-.45-.116-5.271-2.052-1.168-7.996 3.279-7.996z" fill="#ffeef3"/><g class="C"><path d="M26.247 111.668c-.261.106-.501.329-.686.56-.588.722-.658 2.047-.201 2.714-.525 3.088-1.166 5.333-1.354 6.093-1.027-5.878-1.314-6.223-1.722-7.293 1.043-1.215.42-3.758-.934-3.477-2.238.454-1.348 4.443.299 3.911.863 2.179 2.586 10.153 2.374 14.905-1.224-1.103-5.184-4.97-6.575-6.74.704-2.253-.166-8.155-.426-11.26 1.303-.624 1.419-3.513.252-4.036-.457-.207-1.009-.053-1.456.541-.857 1.143-.403 3.44.563 3.609.312 1.95.723 7.777.555 9.838-1.554-2.608-4.474-7.05-6.451-9.349 1.053-1.56-.833-4.777-2.63-2.725-.301.344-.402.846-.424 1.269-.072 1.388 1.478 2.662 2.486 1.978 1.762 2.079 6.211 9.079 6.506 9.574-4.582-2.188-4.871-2.332-7.076-3.893 0-.014.001-.028.001-.042 1.018-2.407-2.862-4.321-3.291-1.808-.661.859 1.933 4.562 3.042 2.657 2.28 1.579 6.942 3.657 7.477 3.867.683.915 1.365 1.709 4.229 4.497-2.251-.753-6.547-1.657-10.232-4.076.4-1.95-2.696-3.012-3.029-1.263-.086.369.036.71.184 1.001.304.595 1.188 1.6 1.935 1.132a1.07 1.07 0 0 0 .666-.388c3.716 2.485 4.657 2.488 7.619 3.51-.927.284-4.996 1.944-5.726 2.176-.323-1.239-2.415-.851-3.214.171-.49.641-.269 1.627.892 1.882a1.31 1.31 0 0 0 .5.17c.637.087 1.829-.553 1.863-1.733 1.21-.407 4.817-2 5.534-2.243.22-.065.177-.064.792-.211.632.21 2.802.769 3.174.797 0 0 5.124 4.653 8.071 6.912-3.006-.056-.594.082-4.053-.134-.141-.545-2.767-2.31-3.197-2.627.595-1.096-.338-2.249-1.039-2.494-.222-.131-.385-.224-.667-.308-1.598-.484-2.561 1.829-.27 3.106a1.99 1.99 0 0 0 .387.284 1.1 1.1 0 0 0 1.05-.015c.905.676 1.372.954 2.667 1.987-.534-.059-2.402-.47-2.83-.568 0 0-1.662-.431-2.918-1.051-.087-2.743-4.57-2.739-4.146-.486-.137.258.3 1.453 1.323 1.966.994.491 2.429.36 2.751-.821 1.873.869 3.593 1.155 4.313 1.323-.052-.015.475.119.899.199.285.055.576.078.871.094 1.34.066 4.286.231 5.618.105 4.081 2.877 13.313 8.575 15.012 9.52.14.078.36-.011.473-.146.41-.488-.3-.795-.806-1.097.963.559-8.035-4.748-12.164-7.555-.174-3.882.143-2.597-.916-7.994.44-.172 1.347-4.368 1.402-4.828.629-.096 1.463-.88 1.561-2.448.092-1.561-.955-1.841-1.774-.843-.863.186-.814 2.76-.219 3.221-.052.509-.982 3.765-1.115 4.172-.14-.681-1.266-4.709-1.935-6.144 1.006-1.03.378-4.264-1.113-3.714-.685.223-1.319 1.361-.647 2.935.326.764.595 1.319 1.315 1.06.64 1.366 1.79 5.775 2.109 7.343-.22-.222-.95-1.038-.756-.819-.973-1.205-1.018-1.329-1.659-2.793.605-1.176-.602-3.65-1.744-2.291-.24.286-.282.502-.315.849-.051.606.567 1.659 1.108 1.729.231.184.373.165.576.071.008.018.016.035.024.052.314.667.456.991.757 1.466.577.884 1.79 2.197 2.154 2.476.771 3.845.524 2.949.729 6.188-4.032-2.788-7.746-5.999-8.154-6.36.131-1.832-.009-1.842-.026-3.345-.036-3.057-.151-2.019-.309-3.859.325-.508 1.644-6.369 1.778-6.935 1.545.368 2.559-2.593 1.599-3.566-.161-.162-.362-.221-.589-.264-.128-.027-.378-.005-.7.132z"/><path d="M30.955 123.637c-6.617-9.921-8.247-22.574-4.409-33.822.243-.709 1.29-.202 1.049.504-3.698 10.838-2.063 23.1 4.305 32.647.418.627-.526 1.298-.945.671z"/><path d="M31.893 125.072c-3.396-8.866-2.725-18.878 1.847-27.135.361-.652 1.413-.154 1.049.504-4.428 7.999-5.104 17.631-1.812 26.226.27.706-.814 1.11-1.084.405zm-6.492-13.947c-3.402-1.614-5.968-4.471-7.222-8.052-.25-.712.834-1.118 1.084-.405 1.158 3.304 3.49 5.909 6.63 7.399.676.32.187 1.379-.491 1.058z"/><path d="M29.794 112.198c-1.26-5.003-1.432-10.115.252-15.017.243-.709 1.292-.201 1.049.504-1.571 4.572-1.391 9.446-.217 14.108.182.725-.901 1.136-1.084.405zm.468 6.527a21.46 21.46 0 0 0 5.647-10.812c.147-.737 1.289-.535 1.141.205-.862 4.331-2.86 8.203-5.901 11.366-.515.534-1.407-.219-.887-.759z"/></g><path d="M16.273 104.935c-.345-.089-2.375-.698-3.205-3.757-.13-.478.287-.956.788-.731l.077.035.012-.419c.025-.379.379-.511.689-.441.141-.277.532-.371.817-.219l.012-.052c.103-.477.59-.583.93-.332a.54.54 0 0 1 .394-.183c.003-.422.505-.702.859-.484.152-.246.45-.348.706-.244a.57.57 0 0 1 .677-.104c.165-.343.457-.582.933-.525 1.159.139 1.428 2.061 1.424 2.948-.008 2.934-2.295 5.229-5.112 4.509z" class="B"/><g class="C"><path d="M19.244 103.973l1.491-2.357c.1-.158.233-.336.419-.334.327.004.375.488.272.801-.322.979-1.037 1.816-1.947 2.28"/><path d="M18.719 103.72c.539-.851 1.022-1.821 1.653-2.603.393-.486 1.127-.587 1.499-.008.397.617.065 1.413-.26 1.975a4.63 4.63 0 0 1-1.799 1.76c-.647.352-1.324-.604-.669-.961.38-.207.723-.447 1.017-.77.149-.163.287-.343.402-.534.108-.18.168-.498.297-.648.024-.185.157-.203.399-.055l-.204.313-.406.642-.881 1.393c-.393.623-1.448.129-1.048-.504z"/><path d="M19.482 104.378c-1.061-.306-2.223-.236-3.238.195-.206.087-.427.216-.474.436-.11.512.685.638 1.185.504l2.153-.572"/><path d="M19.385 104.955c-.49-.128-.976-.202-1.481-.173-.261.015-.532.05-.785.113-.153.037-.521.233-.67.227l-.148-.176a.96.96 0 0 0 .302.03c.233-.005.465-.097.686-.156l1.615-.428c.715-.19 1.128.907.408 1.099-.817.217-4.09 1.536-4.124-.375-.014-.827.867-1.148 1.523-1.32.947-.249 1.92-.242 2.869.006.719.188.53 1.342-.194 1.153z"/><path d="M19.063 104.551c-1.212-.289-2.141-1.513-2.101-2.77 1.157-.117 2.295.962 2.253 2.139"/><path d="M18.965 105.127c-1.468-.396-2.583-1.727-2.58-3.292.001-.308.181-.616.518-.638 1.483-.092 2.883 1.133 2.887 2.668.002.748-1.151.862-1.153.109-.002-.882-.718-1.666-1.619-1.61l.518-.639c-.003 1.014.623 1.978 1.622 2.248.718.194.529 1.349-.193 1.154z"/></g><path d="M24.506 88.595c-.199-.3-1.308-2.127.105-4.944.22-.44.849-.509 1.073-.004l.035.078.287-.301c.27-.262.622-.12.806.142.288-.108.643.088.755.394l.043-.03c.393-.281.826-.029.914.387.156-.016.301.035.415.133.282-.309.842-.174.962.227.277-.078.567.049.689.3.252-.009.484.138.574.383.351-.141.727-.118 1.044.246.773.889-.304 2.487-.895 3.139-1.956 2.154-5.184 2.292-6.807-.15z" class="B"/><g class="C"><path d="M27.361 89.902l2.676-.723c.18-.048.396-.09.534.038.242.225-.044.615-.329.775-.89.501-1.978.633-2.965.357"/><path d="M27.157 89.353l2.822-.757c.677-.131 1.428.278 1.224 1.073-.184.72-1.002 1.056-1.641 1.234-.781.218-1.595.222-2.383.024-.721-.182-.531-1.336.195-1.153.454.115.899.165 1.363.107.205-.026.403-.068.6-.13.188-.059.427-.241.61-.268.14-.127.252-.047.335.24l-.488.127-.669.181-1.561.422c-.713.192-1.126-.906-.407-1.1z"/><path d="M27.268 90.362c-.588-.947-1.5-1.684-2.542-2.055-.211-.075-.462-.131-.643-.001-.422.302.088.934.549 1.176l1.985 1.04"/><path d="M26.796 90.698c-.261-.398-.551-.754-.915-1.061a4.3 4.3 0 0 0-.598-.428c-.174-.102-.581-.193-.707-.334-.151-.013-.161-.086-.03-.218a.82.82 0 0 0 .242.233c.192.147.427.242.64.354l1.434.751c.662.346.175 1.406-.491 1.057-.82-.43-1.897-.794-2.552-1.468-.453-.465-.699-1.231-.125-1.707.608-.504 1.496-.065 2.081.273a5.83 5.83 0 0 1 1.967 1.877c.411.631-.533 1.303-.946.671z"/><path d="M26.842 90.206a2.85 2.85 0 0 1 .272-3.467c.941.699 1.072 2.267.259 3.105"/><path d="M26.369 90.54c-.832-1.314-.732-3.02.301-4.181.211-.238.565-.272.815-.067 1.177.965 1.334 2.793.331 3.93-.493.56-1.383-.195-.887-.759a1.59 1.59 0 0 0-.188-2.28l.815-.067c-.68.765-.802 1.869-.243 2.752.403.637-.54 1.31-.944.672z"/></g><path d="M33.951 106.805c-.199-.299-1.308-2.126.105-4.943.221-.441.849-.51 1.073-.005l.035.078.287-.301c.27-.262.622-.119.806.143.288-.108.643.088.755.394l.043-.031c.394-.281.826-.028.914.387.156-.016.301.035.415.133.282-.309.842-.174.962.227.277-.078.567.049.689.3a.58.58 0 0 1 .574.383c.351-.141.727-.118 1.044.246.772.889-.304 2.487-.896 3.139-1.956 2.154-5.184 2.292-6.806-.15z" class="B"/><g class="C"><path d="M36.805 108.113l2.676-.723c.18-.049.396-.09.533.039.242.225-.044.614-.328.775-.89.501-1.978.633-2.965.357"/><path d="M36.601 107.564l2.822-.758c.677-.13 1.428.278 1.224 1.073-.184.72-1.002 1.057-1.641 1.234-.781.217-1.595.222-2.383.023-.721-.182-.531-1.336.194-1.153.454.115.899.165 1.363.107a3.41 3.41 0 0 0 .6-.13c.188-.059.427-.241.611-.268.14-.127.252-.046.335.24l-.488.127-.669.181-1.561.422c-.715.194-1.128-.904-.408-1.098z"/><path d="M36.712 108.573c-.588-.947-1.5-1.684-2.543-2.055-.211-.075-.462-.131-.644-.001-.421.302.088.935.549 1.176l1.985 1.041"/><path d="M36.24 108.909c-.26-.398-.551-.754-.916-1.061-.188-.159-.387-.304-.598-.428-.174-.102-.581-.194-.707-.334-.151-.013-.161-.086-.029-.218a.82.82 0 0 0 .242.233c.192.147.427.242.64.354l1.434.751c.661.346.175 1.407-.491 1.058-.82-.43-1.897-.795-2.552-1.468-.453-.466-.699-1.231-.125-1.707.608-.504 1.496-.066 2.081.274.8.463 1.46 1.1 1.967 1.877.412.629-.532 1.301-.945.669z"/><path d="M36.286 108.414a2.85 2.85 0 0 1 .272-3.467c.941.699 1.072 2.268.261 3.105"/><path d="M35.814 108.75c-.831-1.314-.732-3.02.301-4.181.211-.238.566-.272.816-.067 1.177.965 1.334 2.793.331 3.93-.493.561-1.383-.196-.887-.759a1.59 1.59 0 0 0-.189-2.28l.816-.067c-.68.766-.802 1.869-.244 2.752.402.637-.541 1.31-.945.672z"/></g><path d="M28.15 96.442c-.199-.3-1.308-2.127.105-4.943.221-.44.849-.509 1.073-.004l.035.078.287-.301c.27-.262.622-.12.806.142.288-.108.643.088.755.394l.043-.031c.393-.281.826-.029.914.387.156-.016.301.035.415.133.282-.309.842-.175.962.226.277-.078.567.048.689.3.252-.009.484.138.574.383.351-.141.727-.118 1.044.246.772.89-.304 2.487-.896 3.139-1.955 2.155-5.183 2.293-6.806-.15z" class="B"/><g class="C"><path d="M31.004 97.751l2.676-.723c.18-.048.396-.09.533.038.242.225-.044.614-.328.775-.89.501-1.979.633-2.965.357"/><path d="M30.8 97.201l2.822-.757c.677-.131 1.428.278 1.224 1.073-.183.72-1.002 1.056-1.641 1.234-.781.218-1.595.222-2.383.023-.72-.182-.531-1.336.195-1.153.454.115.899.165 1.363.106.205-.026.403-.068.601-.13.188-.059.427-.242.61-.268.14-.127.252-.047.335.24l-.488.127-.669.181-1.561.422c-.715.192-1.128-.905-.409-1.099z"/><path d="M30.912 98.211c-.588-.947-1.501-1.685-2.543-2.055-.211-.075-.462-.131-.644-.001-.422.302.088.934.549 1.176l1.985 1.04"/><path d="M30.439 98.546a4.78 4.78 0 0 0-.915-1.062c-.188-.158-.387-.304-.598-.428-.174-.102-.581-.193-.707-.334-.151-.014-.161-.086-.029-.218a.82.82 0 0 0 .242.233c.192.147.427.242.64.353l1.434.751c.661.346.174 1.407-.491 1.058-.82-.43-1.897-.795-2.552-1.468-.453-.466-.699-1.231-.125-1.707.608-.504 1.496-.065 2.081.273.8.464 1.459 1.1 1.967 1.877.411.63-.533 1.303-.946.671z"/><path d="M30.485 98.052a2.85 2.85 0 0 1 .272-3.467c.941.699 1.072 2.267.26 3.105"/><path d="M30.012 98.388c-.831-1.314-.732-3.02.301-4.181.211-.238.565-.272.815-.067 1.177.965 1.334 2.793.331 3.93-.493.56-1.383-.195-.887-.759a1.59 1.59 0 0 0-.188-2.28l.815-.067c-.68.765-.802 1.869-.243 2.752.403.637-.541 1.31-.944.672z"/></g><g class="B"><path d="M28.537 111.286c-.325 6.798 2.176 13.237 6.023 18.739 1.921 2.748 4.154 5.282 6.518 7.68 2.387 2.422 4.876 4.772 8.306 5.734.687.192.96-.86.275-1.052-3.419-.959-5.882-3.5-8.231-5.918-2.282-2.35-4.425-4.833-6.256-7.532-3.558-5.247-5.821-11.29-5.515-17.706.033-.693-1.088-.637-1.121.055z"/><path d="M33.994 106.483c.669-3.465.423-6.959-.478-10.315-.089-.33-.608-.381-.774-.066-2.551 4.808-4.877 10.957-4.196 16.366.001.011.012.015.021.014 0 0 .534 3.022.416 3.317-.229.574.189.708.579.347 2.431-2.247 3.835-6.579 4.432-9.663zm-1.795 18.783c-1.198-6.243 1.759-13.157 7.234-16.92-1.37 5.714-3.71 11.238-6.897 16.284"/><path d="M32.514 125.251c-.978-6.217 1.77-12.725 7.15-16.538l-.668-.46c-1.342 5.38-3.407 11.436-6.909 15.965-.578.749.624 1.462.997.697 1.317-2.697 2.889-5.232 4.043-8.011 1.146-2.757 2.039-5.585 2.742-8.463.084-.343-.337-.698-.668-.461-5.668 4.057-8.544 10.813-7.307 17.379.064.333.673.231.619-.108z"/><path d="M32.292 124.829c-4.332-4.711-11.719-6.572-18.076-4.556 5.457 2.379 11.344 3.884 17.358 4.437"/><path d="M32.512 124.607c-4.541-4.903-11.759-6.72-18.422-4.747-.355.106-.455.643-.098.797 2.669 1.152 5.407 2.142 8.236 2.903 3.03.815 6.122 1.126 9.19 1.742.88.177 1.078-1.199.141-1.197-5.771.011-11.969-2.021-17.121-4.214l-.098.796c6.35-1.912 13.269-.17 17.73 4.366.277.281.705-.162.442-.446zm5.561 9.186c-1.84-6.079.396-13.222 5.47-17.479a53.52 53.52 0 0 1-5.199 16.816"/><path d="M38.376 133.701c-1.623-6.104.509-12.785 5.489-17.091l-.758-.388c-.789 5.516-2.258 11.764-5.31 16.625-.461.735.836 1.289 1.159.415 1.027-2.775 2.326-5.41 3.181-8.251.851-2.825 1.443-5.698 1.844-8.601.059-.426-.405-.699-.758-.39-5.196 4.536-7.347 11.523-5.452 17.866.11.373.704.19.605-.185z"/></g></g><defs><clipPath id="A"><path fill="#fff" transform="translate(0 .48)" d="M0 0h146v119H0z"/></clipPath><path id="B" d="M59.266 32.64c-1.075-.294-2.043-.957-2.696-1.849-.132-.181-.257-.405-.184-.617.168-.49.92-.183 1.284.19l1.564 1.605"/></defs></svg>