<svg width="146" height="120" viewBox="0 0 146 120" fill="none" xmlns="http://www.w3.org/2000/svg">
<g clip-path="url(#clip0_1645_88032)">
<path fill-rule="evenodd" clip-rule="evenodd" d="M101.173 104.803H97.6393V101.272C97.6393 100.786 97.245 100.391 96.7602 100.391H91.9931C91.5083 100.391 91.114 100.786 91.114 101.272V104.803H87.58C87.0952 104.803 86.7009 105.198 86.7009 105.683V110.45C86.7009 110.936 87.0952 111.331 87.58 111.331H91.114V114.862C91.114 115.348 91.5083 115.743 91.9931 115.743H96.7602C97.245 115.743 97.6393 115.348 97.6393 114.862V111.331H101.173C101.658 111.331 102.052 110.936 102.052 110.45V105.683C102.052 105.198 101.658 104.803 101.173 104.803Z" fill="#FFCDDA"/>
<path d="M140.944 -19.8061C151.96 -11.0158 164.057 -1.33745 168.069 14.2436C169.777 20.8706 169.518 28.4819 167.365 35.7922C166.438 38.933 165.184 42.0932 163.486 44.9673C162.712 46.2896 161.802 47.4712 160.893 48.6881L160.25 49.4019C159.478 50.1098 160.055 49.6392 161.978 47.9871C162.936 46.8427 161.343 48.231 160.616 48.5259C146.59 54.1666 133.73 43.6102 123.922 36.7495C116.793 31.7653 109.668 26.7746 102.533 21.7874C95.5795 16.9235 88.8181 11.5393 81.4256 7.37671C76.1108 4.37823 69.6649 2.12399 62.9937 3.35979C55.1018 4.82141 46.7723 11.1785 40.7227 17.7192C28.8434 30.569 34.2712 48.289 41.2453 58.5013C59.5555 85.3136 93.9642 90.0458 123.975 95.2263C153.19 100.266 188.432 107.904 201.283 138.93C202.482 141.822 203.449 144.955 203.698 148.318C203.824 150.045 203.783 151.806 203.346 153.607C203.23 154.093 201.542 158.45 201.272 158.203L203.021 156.775L203.25 156.575C203.037 156.459 200.973 157.527 200.633 157.627C199.04 158.118 197.435 158.339 195.862 158.376C191.347 158.484 187.173 156.979 183.296 155.254C175.599 151.827 168.362 147.554 161.038 143.431C157.251 141.301 153.456 139.087 149.474 137.326C146.77 136.129 143.895 135.606 140.694 136.589C136.457 137.888 132.291 141.092 128.728 144.227C125.385 147.166 121.941 150.696 121.142 155.31C119.743 163.405 124.964 170.111 128.535 175.596C136.724 188.182 147.238 198.621 159.335 206.524C171.537 214.488 185.427 219.906 200.165 222.269C207.595 223.465 215.227 223.803 222.975 223.558C230.723 223.313 237.911 220.596 245.135 214.795C251.352 209.803 258.22 202.74 258.618 194.243C258.926 187.627 255.253 182.689 253.448 177.078C252.562 174.335 252.021 171.302 252.719 168.097C253.166 166.038 254.053 163.937 255.283 162.161C255.571 161.741 256.274 161.08 256.463 160.672C253.037 163.07 252.237 163.788 254.064 162.827C254.704 162.561 255.356 162.336 256.008 162.146C264.094 159.884 271.523 163.373 277.576 167.341C283.63 171.308 289.831 176.522 297.583 177.757C304.41 178.845 311.053 176.23 317.47 171.532C324.684 166.253 331.453 159.298 332.434 149.868C333.274 141.815 330.651 135.012 328.671 128.033C326.785 121.363 325.43 114.108 328.757 106.57C324.698 109.784 320.642 112.992 316.583 116.206C346.794 119.833 379.057 109.418 407.758 89.2595C409.356 88.1381 414.831 84.5316 415.06 82.2476C415.258 80.254 410.277 83.9038 409.834 84.216C384.485 102.021 354.729 109.078 328.403 105.915C326.699 105.708 323.202 108.741 321.829 109.827C320.009 111.267 317.242 113.259 316.23 115.55C309.298 131.271 320.821 143.524 319.936 158.294C319.821 160.205 319.466 162.177 318.829 164.081C318.191 165.984 317.024 167.367 316.233 169.101C316.442 168.635 322.088 165.77 319.658 166.43C319.11 166.575 318.542 166.884 317.988 167.052C316.251 167.582 314.486 167.744 312.787 167.743C304.42 167.739 298.058 162.667 291.664 158.334C285.939 154.453 279.571 150.926 272.096 151.234C264.002 151.566 255.946 157.011 249.316 163.273C243.804 168.476 239.143 175.091 239.866 182.645C240.466 188.886 244.108 193.481 245.504 199.31C246.205 202.226 246.212 205.307 245.058 208.5C244.392 210.334 243.427 211.729 242.41 213.358C240.715 216.084 247.356 211.015 244.22 211.789C243.121 212.06 242.073 212.483 240.961 212.702C233.564 214.146 225.744 213.531 218.674 212.846C203.769 211.404 189.698 206.882 177.126 199.694C164.553 192.507 153.543 182.735 144.734 170.753C142.684 167.971 140.756 165.065 138.96 162.053C137.164 159.041 134.929 155.675 134.018 151.871C133.608 150.162 133.393 148.251 133.69 146.342C133.847 145.317 134.332 144.406 134.543 143.422L135.071 142.412L129.63 146.751C129.91 146.897 131.808 146.33 132.261 146.323C132.991 146.311 133.693 146.396 134.39 146.524C136.442 146.917 138.246 147.973 140.064 148.897C147.849 152.858 155.245 157.507 162.994 161.527C169.353 164.829 176.36 168.836 184.061 168.67C191.763 168.503 199.553 163.404 206.068 157.795C212.106 152.593 216.818 146.825 216.378 138.777C216 131.892 212.876 125.825 209.519 120.755C205.338 114.43 200.067 109.162 194.133 104.896C181.842 96.0529 167.022 91.3825 152.105 88.0789C122.12 81.4277 88.3502 80.5686 64.4996 60.2787C54.7243 51.96 43.7957 37.8053 46.7907 21.194C47.0828 19.5804 47.523 17.9656 48.1677 16.4091C48.4863 15.6374 48.8467 14.8902 49.2879 14.1728C49.917 13.1346 50.6563 13.1192 49.5806 13.4211L47.4479 14.9765C47.878 14.7097 48.3165 14.5006 48.7776 14.3486C49.3018 14.137 49.8679 13.9498 50.398 13.8119C51.9846 13.4049 53.6068 13.3087 55.1575 13.3466C63.2188 13.5139 69.6699 17.6175 75.8645 21.9313C89.468 31.4107 102.951 41.0834 116.638 50.4446C126.384 57.1109 138.419 63.7901 151.739 57.8325C165.202 51.8096 177.69 38.6395 180.867 22.917C184.043 7.19449 178.106 -6.09435 169.214 -15.8383C164.453 -21.0532 159.017 -25.4504 153.574 -29.7896C151.167 -31.7095 140.452 -20.2 140.955 -19.7999L140.944 -19.8061Z" fill="#FFCDDA"/>
<path d="M29.0228 93.2089C27.9356 89.7964 26.5971 87.3295 24.219 85.3896C16.6643 79.2285 12.1316 71.085 9.18871 61.9465C9.05452 61.5293 8.97023 61.0956 9.07796 60.5496C14.6175 66.7178 19.0926 73.6465 23.5709 80.5734C23.7909 80.4632 24.0108 80.353 24.2307 80.2428C23.7297 78.6777 23.2714 77.0973 22.7194 75.5503C20.6783 69.8291 20.8742 64.3248 23.9867 58.9688C25.4885 56.384 26.7291 53.6441 26.2322 49.7351C29.0895 53.2763 29.1331 56.563 28.4131 59.9434C28.122 61.3122 27.7194 62.7324 27.0204 63.9269C22.6725 71.3569 24.597 80.3289 28.3437 87.4641C26.801 82.28 28.135 77.5183 30.1049 72.7819C30.7787 71.1618 30.8737 69.3059 30.827 67.4426C32.3591 69.4803 32.8395 71.9121 33.1204 74.3262C33.5246 77.8049 33.4372 81.315 32.176 84.6445C30.1352 90.0321 30.2214 95.0189 34.2655 99.5877C35.2974 100.753 35.8205 102.369 37.1407 103.576C34.2801 97.1197 36.1309 91.1562 38.0922 85.1462C38.9116 82.636 38.6807 79.9514 38.743 77.3012C40.9139 81.1221 40.7084 85.2693 40.2169 89.3871C39.7024 93.7014 39.5056 97.9915 39.7313 102.34C40.0415 108.316 43.9584 111.699 48.4356 114.897C46.1593 109.715 45.1343 104.298 45.1397 98.7061C45.1452 93.0742 45.2613 87.4421 45.3297 81.7598C46.2028 81.9998 46.1459 82.8741 46.3535 83.4695C48.9821 91.0214 50.313 98.7972 49.667 106.785C49.1216 113.525 50.9103 118.823 57.4763 121.802C59.3274 122.641 61.0649 123.731 62.9912 124.545C59.1747 120.403 56.3754 115.81 55.3586 110.247C54.5983 106.088 54.7543 101.996 56.142 97.9883C56.8235 96.0194 57.2474 94.0214 56.8635 91.4992C59.0263 92.9383 59.2251 94.8118 59.5619 96.5686C60.266 100.243 59.4316 103.891 59.2193 107.543C58.9066 112.921 60.2983 117.788 63.1061 122.312C64.7515 124.963 66.9145 126.96 70.0326 127.743C71.0379 127.996 72.0322 128.288 72.7009 129.381C70.2356 128.515 67.6877 127.829 65.3257 126.74C62.0446 125.226 58.9591 125.479 55.8091 126.975C52.236 128.67 48.977 130.961 45.2679 132.407C40.4583 134.282 35.736 134.425 31.0591 132.033C30.7303 131.865 30.3616 131.716 30.396 131.121C34.2158 131.608 37.6245 130.301 40.6675 128.226C46.3555 124.346 52.4603 122.969 59.3489 124.616C56.1361 120.912 50.4341 118.34 46.1305 118.988C36.7993 120.392 27.5528 118.608 17.855 118.633C27.813 114.442 37.5862 113.545 48.1061 116.991C44.1857 112.117 40.1975 109.406 34.1924 109.312C26.6436 109.194 19.1948 107.716 12.6883 103.36C11.9225 102.847 11.1912 102.282 10.4861 101.471C14.7085 102.617 18.7865 101.286 22.9102 101.128C27.3364 100.958 31.4186 102.324 35.9791 104.332C33.8793 100.948 32.1129 98.1047 30.3511 95.2587C29.9196 94.5613 29.2442 94.7432 28.5921 94.6916C21.692 94.1416 15.9323 91.3993 11.5394 85.9215C8.88041 82.6059 5.81915 79.6946 1.7899 77.4161C3.27418 76.5393 4.39348 77.1668 5.4426 77.4639C8.23109 78.2529 10.5238 79.9064 12.5454 81.9263C17.1977 86.5739 22.9614 89.5717 29.0228 93.2089Z" fill="#FF8BAA"/>
<path d="M16.846 58.7316L16.8466 58.7315C16.5971 58.4166 16.3451 58.1036 16.0931 57.7906C14.8888 56.295 13.6844 54.7992 12.7563 53.1022C12.1783 52.0451 11.6607 50.9633 11.4226 49.7744C11.1393 48.3605 11.5373 47.1876 12.5313 46.595C13.7229 45.8844 14.9042 45.9937 16.0081 46.8018C17.2833 47.7353 18.1285 49.0217 18.7941 50.4224C20.0584 53.083 20.907 55.8505 20.7993 58.8412C20.9862 58.227 21.1536 57.6073 21.3211 56.9875C21.6988 55.5891 22.0766 54.1905 22.6778 52.8574C23.532 50.9631 24.4823 49.14 26.0491 47.7299C27.4124 46.5027 29.2185 45.8576 30.9615 46.8901C32.9549 48.0709 33.4187 49.6281 32.3207 51.6941C31.7249 52.8154 30.9198 53.7682 30.1147 54.7209C29.7485 55.1543 29.3822 55.5877 29.0357 56.0369C28.978 56.3116 28.8707 56.5284 28.7296 56.7057C29.0065 56.5854 29.2888 56.4816 29.5898 56.4339C31.7158 55.3551 33.8295 54.3094 36.3424 54.4624C37.6081 54.5394 38.4807 55.1944 39.3673 55.9322L39.3803 55.9559C39.9647 57.0177 40.5491 58.0796 39.6866 59.2791L39.1407 59.6879C36.3884 61.7493 33.3363 62.0255 29.9537 62.7944C29.7667 62.9494 29.564 63.0587 29.3523 63.1414C29.5968 63.1779 29.8373 63.2515 30.0707 63.3911L30.0975 63.3955C30.9091 63.5286 31.7208 63.6617 32.5326 63.7944C33.9364 64.066 35.3074 64.4525 36.6476 64.9505C36.8396 65.0592 37.0357 65.1625 37.2318 65.2658C37.6663 65.4947 38.1009 65.7236 38.4914 66.0118C39.4402 66.7127 40.1012 67.6048 39.7732 68.887C39.4171 70.2803 38.5641 71.1405 37.0878 71.3238C34.7691 71.6111 32.7201 70.7459 30.7189 69.7828C29.4552 69.1748 28.2202 68.5075 26.9852 67.8402C26.4413 67.5463 25.8975 67.2524 25.3511 66.9636L25.3503 66.9638L25.3514 66.9642L25.5701 67.1812C27.3918 68.9885 29.2129 70.7951 30.507 73.0515C31.0728 74.038 31.5495 75.0533 31.7138 76.19C31.9315 77.6978 31.4249 78.8173 30.2013 79.555C28.8497 80.3697 27.7211 80.3154 26.4319 79.3591C25.1217 78.3872 24.3299 77.0212 23.6227 75.6001C22.4939 73.3318 21.6912 70.9567 21.3562 68.4364C20.9599 68.5945 20.9651 68.9117 20.9701 69.2184C20.9717 69.3158 20.9733 69.4122 20.962 69.502C20.5718 72.6178 19.8738 75.641 18.3304 78.4137C18.1307 78.7728 17.8967 79.1181 17.642 79.4414C16.8867 80.3993 15.9968 81.1373 14.6673 80.8367C13.4196 80.5545 12.3304 79.2794 12.1707 77.9166C11.9234 75.8031 12.7148 73.9353 13.6184 72.0986C14.4177 70.4744 15.4782 69.0233 16.539 67.5718C16.7398 67.297 16.9407 67.0222 17.1398 66.7461C16.6611 67.0663 16.1857 67.3917 15.7102 67.7171C14.6454 68.4458 13.5806 69.1745 12.4801 69.8444C10.4192 71.0987 8.22976 72.0829 5.81406 72.4493C5.22407 72.5388 4.62871 72.5877 4.02398 72.498C2.62054 72.2901 1.51747 71.6981 1.08335 70.2525C0.646162 68.7979 1.41535 67.796 2.43842 66.9409C4.26623 65.4134 6.46673 64.6252 8.70704 63.9886C10.7206 63.4166 12.7534 62.8646 14.8759 62.8371L14.8754 62.8369C14.1533 62.3673 13.3459 62.3267 12.5387 62.2862C12.1255 62.2654 11.7124 62.2446 11.3108 62.1663C8.33991 61.5864 5.43126 60.8901 2.81922 59.2819C1.90828 58.4228 1.19916 57.5065 1.79277 56.1464C2.38013 54.8013 3.50188 54.2267 4.85692 54.0277C5.2297 53.9727 5.61277 53.9879 5.99551 54.0031C6.16976 54.01 6.34403 54.017 6.51714 54.0172C9.94622 54.5149 12.9097 56.0819 15.7058 58.0308C15.8012 58.0973 15.8933 58.169 15.9853 58.2406C16.2476 58.4446 16.5094 58.6482 16.846 58.7316Z" fill="#FFCDDA"/>
<circle cx="21.6237" cy="63.2374" r="3.04884" transform="rotate(15.7055 21.6237 63.2374)" fill="#FF8BAA"/>
<path d="M65.3207 52.8922C64.8681 52.3783 64.2293 52.2312 63.6183 52.0294C62.2533 51.5785 61.9436 50.7788 62.7714 49.634C63.8652 48.1216 65.4138 47.1595 67.0325 46.3012C67.1323 46.2484 67.2362 46.2035 67.331 46.0345C66.9232 46.0685 66.5149 46.0955 66.1082 46.1381C64.7728 46.2791 63.4421 46.3344 62.1213 46.0025C60.9749 45.7143 60.6007 45.1205 60.8573 43.9674C60.8773 43.8772 60.8816 43.7777 60.9246 43.6996C61.5637 42.5347 61.5275 41.3538 61.1773 40.0933C60.8913 39.0629 61.626 38.3335 62.753 38.373C64.435 38.4322 65.9269 39.0778 67.3594 39.8969C67.4354 39.9404 67.5135 39.9806 67.6491 39.9816C67.3569 39.2487 66.7991 38.6688 66.4938 37.9493C66.278 37.4416 65.9846 36.9663 65.7748 36.4565C65.1825 35.0189 65.6741 34.0837 67.1865 33.7291C67.6345 33.6238 68.0899 33.5482 68.5347 33.4324C69.533 33.1725 70.1029 32.34 70.8146 31.6983C70.965 31.5337 71.1054 31.3536 71.3538 31.3332C71.6874 31.3618 72.0086 31.4581 72.3374 31.5137C72.5336 31.5379 72.6805 31.6393 72.7682 31.8138C73.1619 32.6002 73.7664 33.2898 73.878 34.2066C74.0225 34.4222 73.9655 34.6853 74.0473 34.9156C74.2847 35.8172 74.2902 36.7332 74.2583 37.5144C74.8984 36.4634 75.6224 35.2761 76.6579 34.3922C77.718 33.4874 78.6537 33.4476 79.6204 34.5547C80.4471 35.5019 81.2237 36.4582 82.534 36.7514C82.6976 36.7879 82.856 36.9232 82.993 37.0506C83.6952 37.7042 83.8095 38.5128 83.2419 39.3439C82.3157 40.7007 81.0557 41.6691 79.7074 42.3142C80.9148 42.1734 82.2354 42.3689 83.5214 42.7372C84.2723 42.9523 85.1037 43.7631 84.7677 44.8911C84.6762 45.1991 84.6919 45.5582 84.5238 45.823C83.9405 46.7423 84.0209 47.7189 84.2446 48.6948C84.5312 49.9439 83.8329 51.0092 82.2944 50.9232C80.7256 50.8358 79.2845 50.258 77.977 49.3777C78.4801 49.755 78.5342 50.4107 78.8875 50.8913C79.1604 51.473 79.4733 52.0381 79.6194 52.6728C79.9403 54.0649 79.286 55.0573 77.8634 55.2473C76.7411 55.3973 75.7551 55.7296 74.8822 56.5331C73.8147 57.5151 72.7534 57.297 72.0104 56.0506C71.1779 54.6529 71.0507 53.0935 71.0568 51.5814C70.8255 52.0666 70.5017 52.5888 70.1705 53.1065C69.8328 53.6338 69.4222 54.1008 68.9613 54.5218C68.5766 54.8732 68.1543 55.1414 67.5927 54.9997C67.4189 54.9601 67.2447 54.9228 67.0695 54.8903C66.675 54.8636 66.368 54.6832 66.2296 54.3129C66.11 53.9934 65.8223 53.8411 65.6333 53.5984C65.4799 53.3997 65.2295 53.2125 65.3207 52.8922Z" fill="#FFCDDA"/>
<path d="M70.5392 40.369C70.6695 40.0151 70.9036 39.7313 71.1541 39.4589C71.6874 38.8066 72.5178 38.7057 73.2007 39.2199C73.4941 39.4408 73.7306 39.7265 74.0045 39.9703C75.4999 39.3233 76.3768 39.9163 76.3689 41.6023C76.3677 41.8997 76.5035 41.9205 76.7085 41.9987C77.9812 42.4839 78.3524 44.2419 77.3557 45.1562C77.1305 45.3631 77.2139 45.4201 77.3581 45.5603C77.7956 45.9848 78.1063 46.4574 77.8091 47.0916C77.5334 47.6796 77.0582 47.9538 76.4098 47.8637C76.1196 47.8232 76.1451 47.9708 76.1198 48.1746C75.9683 49.3844 75.1368 49.8379 74.0629 49.283C73.8193 49.1572 73.6687 49.1102 73.4801 49.3371C72.5932 50.4055 71.169 49.6073 70.9223 48.661C70.8159 48.2532 70.6558 48.1421 70.2323 48.1153C68.9706 48.0351 68.3249 47.1561 68.6315 45.9806C68.7092 45.6825 68.5373 45.6295 68.3802 45.5063C67.3389 44.6895 67.2889 43.7419 68.275 42.8776C68.496 42.6836 68.4202 42.5578 68.3634 42.3539C68.1937 41.7492 68.2544 41.1699 68.6331 40.6464C68.9841 40.1284 69.4494 40.0854 70.0005 40.2844C70.1632 40.3433 70.3236 40.5908 70.5392 40.369Z" fill="#FF8BAA"/>
<circle cx="72.7491" cy="44.3025" r="2.17967" transform="rotate(11.9167 72.7491 44.3025)" fill="#FFCDDA"/>
<path d="M125.894 20.2817C125.571 19.9153 125.115 19.8104 124.68 19.6665C123.706 19.3449 123.486 18.7747 124.076 17.9583C124.856 16.8799 125.96 16.1938 127.114 15.5818C127.185 15.5442 127.26 15.5121 127.327 15.3916C127.036 15.4158 126.745 15.4351 126.455 15.4655C125.503 15.566 124.554 15.6055 123.612 15.3688C122.795 15.1633 122.528 14.7399 122.711 13.9176C122.725 13.8533 122.728 13.7823 122.759 13.7267C123.215 12.896 123.189 12.0539 122.939 11.155C122.735 10.4203 123.259 9.90018 124.063 9.92836C125.262 9.97056 126.326 10.4309 127.347 11.015C127.402 11.0461 127.457 11.0747 127.554 11.0754C127.346 10.5528 126.948 10.1393 126.73 9.62621C126.576 9.2642 126.367 8.92526 126.217 8.56168C125.795 7.53657 126.146 6.8697 127.224 6.61686C127.544 6.54178 127.868 6.48784 128.185 6.40526C128.897 6.21999 129.304 5.62632 129.811 5.16875C129.918 5.05135 130.019 4.92298 130.196 4.90842C130.434 4.92878 130.663 4.99748 130.897 5.03714C131.037 5.05438 131.142 5.12667 131.204 5.25112C131.485 5.81186 131.916 6.30361 131.996 6.95738C132.099 7.11108 132.058 7.29868 132.116 7.46295C132.286 8.10582 132.29 8.75906 132.267 9.31612C132.723 8.56666 133.24 7.71999 133.978 7.0897C134.734 6.44451 135.401 6.41615 136.09 7.20561C136.68 7.88102 137.234 8.56291 138.168 8.77202C138.285 8.79804 138.398 8.89453 138.495 8.98534C138.996 9.45143 139.078 10.028 138.673 10.6207C138.012 11.5882 137.114 12.2787 136.152 12.7388C137.013 12.6383 137.955 12.7777 138.872 13.0404C139.408 13.1937 140.001 13.7719 139.761 14.5763C139.696 14.7959 139.707 15.052 139.587 15.2408C139.171 15.8963 139.228 16.5927 139.388 17.2886C139.592 18.1793 139.094 18.939 137.997 18.8776C136.879 18.8153 135.851 18.4033 134.919 17.7756C135.277 18.0446 135.316 18.5122 135.568 18.8549C135.762 19.2697 135.986 19.6726 136.09 20.1252C136.319 21.1179 135.852 21.8256 134.838 21.9611C134.037 22.068 133.334 22.305 132.712 22.878C131.951 23.5782 131.194 23.4227 130.664 22.5339C130.07 21.5372 129.98 20.4252 129.984 19.347C129.819 19.6929 129.588 20.0653 129.352 20.4345C129.111 20.8105 128.818 21.1435 128.49 21.4437C128.215 21.6943 127.914 21.8855 127.514 21.7845C127.39 21.7562 127.266 21.7297 127.141 21.7065C126.859 21.6875 126.64 21.5588 126.542 21.2948C126.456 21.0669 126.251 20.9583 126.117 20.7853C126.007 20.6436 125.829 20.5101 125.894 20.2817Z" fill="#FF8BAA"/>
<path d="M129.615 11.3514C129.708 11.099 129.875 10.8966 130.054 10.7023C130.434 10.2372 131.026 10.1653 131.513 10.532C131.722 10.6895 131.891 10.8932 132.086 11.0671C133.152 10.6056 133.778 11.0285 133.772 12.2308C133.771 12.4429 133.868 12.4577 134.014 12.5135C134.922 12.8594 135.186 14.1131 134.476 14.765C134.315 14.9125 134.375 14.9532 134.477 15.0531C134.789 15.3559 135.011 15.6928 134.799 16.1451C134.602 16.5644 134.264 16.7599 133.801 16.6957C133.594 16.6668 133.613 16.772 133.594 16.9174C133.486 17.78 132.894 18.1034 132.128 17.7077C131.954 17.618 131.847 17.5845 131.712 17.7463C131.08 18.5081 130.064 17.939 129.888 17.2642C129.812 16.9734 129.698 16.8942 129.396 16.8751C128.497 16.8179 128.036 16.1911 128.255 15.3529C128.31 15.1403 128.188 15.1025 128.076 15.0146C127.333 14.4322 127.297 13.7565 128.001 13.1402C128.158 13.0018 128.104 12.9122 128.064 12.7667C127.943 12.3355 127.986 11.9224 128.256 11.5492C128.506 11.1798 128.838 11.1491 129.231 11.291C129.347 11.333 129.461 11.5095 129.615 11.3514Z" fill="#FFCDDA"/>
<circle cx="131.191" cy="14.1567" r="1.55428" transform="rotate(11.9167 131.191 14.1567)" fill="#FF8BAA"/>
<path d="M5.72931 33.8686C5.40656 33.5022 4.95105 33.3973 4.51536 33.2534C3.54196 32.9318 3.32117 32.3616 3.91143 31.5453C4.69141 30.4668 5.79569 29.7807 6.94997 29.1687C7.02108 29.1311 7.09523 29.099 7.16278 28.9785C6.87199 29.0027 6.58084 29.022 6.29086 29.0524C5.33859 29.1529 4.38972 29.1924 3.44789 28.9557C2.63039 28.7502 2.36354 28.3268 2.54654 27.5045C2.56083 27.4402 2.56386 27.3692 2.59455 27.3136C3.05026 26.4829 3.02443 25.6408 2.77473 24.742C2.57078 24.0072 3.09465 23.4871 3.89834 23.5153C5.09775 23.5575 6.16153 24.0178 7.18306 24.6019C7.23722 24.633 7.29294 24.6616 7.38965 24.6623C7.18129 24.1397 6.78354 23.7262 6.56579 23.2131C6.41196 22.8511 6.20274 22.5122 6.0531 22.1486C5.63072 21.1235 5.98131 20.4566 7.05979 20.2038C7.3792 20.1287 7.70398 20.0748 8.02111 19.9922C8.73298 19.8069 9.13938 19.2132 9.6469 18.7557C9.75415 18.6383 9.85424 18.5099 10.0314 18.4953C10.2692 18.5157 10.4983 18.5844 10.7328 18.6241C10.8727 18.6413 10.9775 18.7136 11.04 18.838C11.3207 19.3988 11.7517 19.8905 11.8314 20.5443C11.9344 20.698 11.8937 20.8856 11.9521 21.0499C12.1214 21.6927 12.1253 22.346 12.1025 22.903C12.559 22.1536 13.0753 21.3069 13.8137 20.6766C14.5696 20.0314 15.2368 20.0031 15.9261 20.7925C16.5157 21.4679 17.0694 22.1498 18.0037 22.3589C18.1204 22.385 18.2334 22.4814 18.3311 22.5723C18.8318 23.0383 18.9133 23.615 18.5085 24.2076C17.8481 25.1751 16.9496 25.8656 15.9881 26.3257C16.8491 26.2252 17.7908 26.3646 18.7078 26.6273C19.2433 26.7807 19.8362 27.3588 19.5966 28.1632C19.5313 28.3828 19.5425 28.6389 19.4227 28.8277C19.0067 29.4832 19.064 30.1796 19.2235 30.8755C19.4279 31.7662 18.93 32.5259 17.8329 32.4645C16.7142 32.4022 15.6866 31.9902 14.7543 31.3625C15.113 31.6316 15.1516 32.0991 15.4035 32.4418C15.5981 32.8566 15.8212 33.2596 15.9254 33.7122C16.1542 34.7048 15.6876 35.4125 14.6732 35.548C13.873 35.6549 13.1698 35.8919 12.5474 36.4649C11.7862 37.1651 11.0294 37.0096 10.4996 36.1208C9.90593 35.1241 9.81527 34.0121 9.81962 32.9339C9.65466 33.2799 9.42375 33.6523 9.18756 34.0214C8.94679 34.3974 8.65401 34.7304 8.32534 35.0306C8.05101 35.2812 7.7499 35.4724 7.34938 35.3714C7.22549 35.3432 7.10125 35.3166 6.9763 35.2934C6.69499 35.2744 6.47613 35.1457 6.37743 34.8817C6.29216 34.6538 6.08696 34.5452 5.95221 34.3722C5.84279 34.2305 5.66426 34.097 5.72931 33.8686Z" fill="#FF8BAA"/>
<path d="M9.45076 24.9383C9.54368 24.6859 9.71062 24.4835 9.88919 24.2893C10.2695 23.8241 10.8616 23.7522 11.3486 24.1189C11.5578 24.2764 11.7265 24.4801 11.9218 24.654C12.9881 24.1926 13.6134 24.6155 13.6078 25.8177C13.6069 26.0298 13.7038 26.0446 13.8499 26.1004C14.7575 26.4463 15.0222 27.7 14.3115 28.3519C14.1508 28.4995 14.2104 28.5401 14.3131 28.64C14.6251 28.9428 14.8467 29.2798 14.6347 29.732C14.4382 30.1513 14.0993 30.3468 13.637 30.2826C13.43 30.2537 13.4482 30.3589 13.4301 30.5043C13.3221 31.3669 12.7292 31.6903 11.9634 31.2946C11.7897 31.205 11.6824 31.1714 11.5478 31.3333C10.9154 32.0951 9.89984 31.5259 9.72394 30.8511C9.64809 30.5603 9.53389 30.4811 9.23191 30.462C8.33222 30.4048 7.87174 29.778 8.0904 28.9398C8.14579 28.7272 8.02322 28.6894 7.91121 28.6015C7.16868 28.0191 7.133 27.3434 7.83617 26.7271C7.99381 26.5887 7.93974 26.4991 7.89919 26.3536C7.77822 25.9224 7.82152 25.5094 8.09156 25.1361C8.34182 24.7667 8.67363 24.736 9.06658 24.8779C9.18265 24.9199 9.29701 25.0964 9.45076 24.9383Z" fill="#FFCDDA"/>
<circle cx="11.0265" cy="27.7436" r="1.55428" transform="rotate(11.9167 11.0265 27.7436)" fill="#FF8BAA"/>
<path d="M74.1036 97.1411L74.1038 97.141C73.9751 97.0478 73.8456 96.9556 73.7161 96.8634C73.0973 96.4228 72.4785 95.9821 71.9433 95.4352C71.61 95.0946 71.2971 94.738 71.0791 94.3107C70.8198 93.8027 70.8458 93.3134 71.1609 92.9812C71.5385 92.583 72.0001 92.4982 72.507 92.6877C73.0926 92.9066 73.5523 93.306 73.9557 93.7682C74.7221 94.646 75.3416 95.6091 75.6208 96.7595C75.6263 96.5056 75.6237 96.2517 75.6211 95.9977C75.6152 95.4247 75.6093 94.8516 75.6955 94.2796C75.8179 93.4667 75.9846 92.6707 76.4303 91.9659C76.818 91.3526 77.4367 90.9135 78.2111 91.12C79.0966 91.3563 79.44 91.8996 79.2431 92.804C79.1363 93.2948 78.9317 93.7438 78.7271 94.1929C78.6341 94.3971 78.541 94.6014 78.4572 94.8096C78.4646 94.9203 78.447 95.0144 78.4122 95.097C78.5048 95.0216 78.6012 94.9518 78.7107 94.9014C79.4048 94.2629 80.0978 93.6384 81.0711 93.4275C81.5614 93.3213 81.9638 93.4773 82.3804 93.6634L82.388 93.671C82.7242 94.0128 83.0605 94.3546 82.8604 94.9037L82.6964 95.1179C81.869 96.1976 80.7362 96.6296 79.5304 97.2847C79.4758 97.3637 79.4103 97.427 79.3385 97.4812C79.4355 97.4689 79.535 97.4712 79.6388 97.4994L79.6495 97.4982C79.9729 97.462 80.2962 97.4257 80.6195 97.3893C81.1832 97.3424 81.7468 97.3428 82.3105 97.3889C82.3952 97.4098 82.4809 97.4281 82.5667 97.4465C82.7567 97.4871 82.9467 97.5277 83.1263 97.5957C83.5626 97.761 83.9099 98.03 83.9223 98.5533C83.9359 99.1221 83.7031 99.541 83.1606 99.7689C82.3083 100.127 81.4354 100.017 80.5701 99.8641C80.0238 99.7679 79.482 99.646 78.9402 99.5241C78.7016 99.4704 78.4631 99.4168 78.2241 99.3653L78.2238 99.3654L78.2242 99.3655L78.3308 99.4247C79.218 99.9179 80.105 100.411 80.8395 101.132C81.1606 101.447 81.4508 101.782 81.6351 102.198C81.8795 102.748 81.8064 103.229 81.4194 103.641C80.992 104.096 80.5564 104.196 79.963 103.97C79.36 103.74 78.9122 103.305 78.4907 102.839C77.8179 102.096 77.2579 101.278 76.8604 100.354C76.7265 100.457 76.7624 100.577 76.7971 100.693C76.8082 100.73 76.8191 100.767 76.8244 100.802C77.0095 102.03 77.0674 103.256 76.7765 104.478C76.7389 104.636 76.6868 104.792 76.6244 104.943C76.4394 105.388 76.1795 105.765 75.641 105.792C75.1356 105.819 74.5843 105.45 74.3776 104.948C74.0571 104.169 74.1584 103.373 74.3059 102.577C74.4363 101.873 74.6848 101.207 74.9333 100.541C74.9804 100.414 75.0275 100.288 75.0737 100.162C74.9257 100.335 74.7795 100.51 74.6333 100.685C74.3058 101.076 73.9784 101.468 73.631 101.841C72.9805 102.539 72.2521 103.148 71.3714 103.546C71.1563 103.644 70.9348 103.726 70.6949 103.757C70.1381 103.828 69.6547 103.72 69.3346 103.216C69.0123 102.709 69.1979 102.245 69.496 101.81C70.0285 101.033 70.7821 100.497 71.5671 100.015C72.2726 99.5812 72.9876 99.1533 73.793 98.9155L73.7928 98.9155C73.4675 98.814 73.1557 98.885 72.8439 98.956C72.6844 98.9923 72.5248 99.0287 72.3635 99.0418C71.17 99.1391 69.9878 99.1854 68.8208 98.8527C68.3819 98.6231 68.0138 98.3501 68.0942 97.7685C68.1738 97.1934 68.5395 96.8545 69.0342 96.6336C69.1703 96.5727 69.3178 96.5375 69.4652 96.5023C69.5323 96.4863 69.5994 96.4702 69.6653 96.4518C71.0245 96.2741 72.3209 96.5535 73.5944 96.9963C73.6378 97.0114 73.6806 97.0289 73.7233 97.0463C73.845 97.0959 73.9665 97.1454 74.1036 97.1411Z" fill="#FF8BAA"/>
<circle cx="76.4051" cy="98.3453" r="1.20609" fill="#FFCDDA"/>
<path d="M88.1706 59.5689L88.1708 59.5689C88.045 59.4778 87.9185 59.3877 87.7919 59.2975C87.1871 58.8669 86.5823 58.4362 86.0593 57.9018C85.7335 57.5688 85.4277 57.2203 85.2146 56.8027C84.9612 56.3062 84.9866 55.828 85.2945 55.5033C85.6636 55.1141 86.1148 55.0312 86.6102 55.2164C87.1825 55.4304 87.6318 55.8208 88.0261 56.2724C88.7751 57.1304 89.3806 58.0716 89.6535 59.196C89.6588 58.9479 89.6562 58.6997 89.6537 58.4514C89.6479 57.8914 89.6422 57.3313 89.7264 56.7723C89.8461 55.9778 90.009 55.1998 90.4446 54.511C90.8235 53.9116 91.4283 53.4824 92.185 53.6843C93.0506 53.9152 93.3861 54.4462 93.1937 55.3301C93.0893 55.8098 92.8894 56.2487 92.6894 56.6875C92.5985 56.8872 92.5075 57.0868 92.4256 57.2903C92.4328 57.3985 92.4156 57.4904 92.3816 57.5712C92.4721 57.4975 92.5663 57.4293 92.6733 57.38C93.3517 56.756 94.029 56.1456 94.9803 55.9395C95.4594 55.8357 95.8528 55.9882 96.26 56.17L96.2673 56.1775C96.5959 56.5115 96.9246 56.8456 96.7291 57.3823L96.5687 57.5916C95.7601 58.6469 94.653 59.0691 93.4744 59.7093C93.4211 59.7866 93.3571 59.8484 93.2869 59.9014C93.3817 59.8894 93.479 59.8916 93.5805 59.9191L93.5909 59.918C93.9069 59.8826 94.2229 59.8472 94.539 59.8116C95.0899 59.7657 95.6406 59.7661 96.1916 59.8112C96.2744 59.8316 96.3582 59.8495 96.442 59.8674C96.6277 59.9071 96.8134 59.9468 96.9889 60.0133C97.4154 60.1748 97.7548 60.4377 97.7669 60.9492C97.7801 61.5051 97.5527 61.9145 97.0224 62.1373C96.1895 62.4869 95.3363 62.3793 94.4907 62.2302C93.9567 62.1362 93.4272 62.0171 92.8977 61.898C92.6645 61.8455 92.4313 61.7931 92.1977 61.7428L92.1975 61.7429L92.1979 61.7429L92.302 61.8008C93.1692 62.2828 94.0361 62.7647 94.7539 63.469C95.0677 63.777 95.3514 64.105 95.5315 64.5108C95.7703 65.0493 95.6989 65.519 95.3207 65.9216C94.9029 66.3663 94.4772 66.4642 93.8973 66.2432C93.3079 66.0186 92.8702 65.593 92.4583 65.1381C91.8008 64.412 91.2534 63.612 90.865 62.709C90.734 62.8093 90.7692 62.9268 90.8031 63.0405C90.8139 63.0766 90.8246 63.1123 90.8298 63.1469C91.0106 64.3474 91.0673 65.5457 90.783 66.7392C90.7463 66.8938 90.6953 67.0468 90.6343 67.1937C90.4535 67.6293 90.1995 67.9971 89.6732 68.0244C89.1793 68.05 88.6405 67.6894 88.4384 67.1989C88.1251 66.4381 88.2242 65.6601 88.3683 64.8819C88.4958 64.1937 88.7387 63.5426 88.9816 62.8914C89.0275 62.7681 89.0735 62.6448 89.1188 62.5212C88.9741 62.6904 88.8312 62.8613 88.6883 63.0322C88.3683 63.4148 88.0482 63.7975 87.7087 64.162C87.0729 64.8446 86.361 65.44 85.5003 65.8292C85.29 65.9243 85.0736 66.0048 84.8391 66.0347C84.295 66.1042 83.8225 65.9993 83.5096 65.5067C83.1946 65.0111 83.3761 64.5577 83.6674 64.1323C84.1878 63.3725 84.9243 62.8488 85.6915 62.3774C86.3811 61.9538 87.0799 61.5356 87.867 61.3032L87.8668 61.3032C87.5489 61.204 87.2442 61.2734 86.9395 61.3427C86.7835 61.3783 86.6276 61.4138 86.4699 61.4267C85.3035 61.5217 84.148 61.567 83.0075 61.2418C82.5786 61.0174 82.2187 60.7505 82.2973 60.1822C82.3751 59.6201 82.7325 59.2888 83.216 59.0729C83.349 59.0135 83.4932 58.979 83.6372 58.9446C83.7028 58.929 83.7684 58.9133 83.8329 58.8953C85.1612 58.7216 86.4282 58.9947 87.6729 59.4275C87.7154 59.4422 87.7571 59.4593 87.7989 59.4763C87.9178 59.5248 88.0366 59.5732 88.1706 59.5689Z" fill="#FF8BAA"/>
<circle cx="90.4196" cy="60.7462" r="1.17877" fill="#FFCDDA"/>
<path fill-rule="evenodd" clip-rule="evenodd" d="M25.9238 8.43252H23.6172V6.12803C23.6172 5.81109 23.3599 5.55322 23.0435 5.55322H19.9321C19.6157 5.55322 19.3584 5.81109 19.3584 6.12803V8.43252H17.0518C16.7354 8.43252 16.478 8.69039 16.478 9.00732V12.1187C16.478 12.4356 16.7354 12.6935 17.0518 12.6935H19.3584V14.9979C19.3584 15.3149 19.6157 15.5728 19.9321 15.5728H23.0435C23.3599 15.5728 23.6172 15.3149 23.6172 14.9979V12.6935H25.9238C26.2402 12.6935 26.4976 12.4356 26.4976 12.1187V9.00732C26.4976 8.69039 26.2402 8.43252 25.9238 8.43252Z" fill="#FFCDDA"/>
<path fill-rule="evenodd" clip-rule="evenodd" d="M109.043 17.685H105.93V14.5746C105.93 14.1469 105.582 13.7988 105.155 13.7988H100.956C100.529 13.7988 100.182 14.1469 100.182 14.5746V17.685H97.0683C96.6412 17.685 96.2939 18.0331 96.2939 18.4609V22.6602C96.2939 23.088 96.6412 23.4361 97.0683 23.4361H100.182V26.5464C100.182 26.9742 100.529 27.3223 100.956 27.3223H105.155C105.582 27.3223 105.93 26.9742 105.93 26.5464V23.4361H109.043C109.47 23.4361 109.817 23.088 109.817 22.6602V18.4609C109.817 18.0331 109.47 17.685 109.043 17.685Z" fill="#FF8BAA"/>
<path d="M139.345 82.7556C139.028 78.7632 139.371 75.6441 141.014 72.6302C146.232 63.0593 147.484 52.7137 146.668 42.009C146.631 41.5202 146.535 41.0357 146.193 40.5162C143.064 49.2427 141.359 58.3071 139.65 67.3702C139.375 67.349 139.101 67.3276 138.827 67.3065C138.684 65.4743 138.491 63.6443 138.409 61.8099C138.104 55.024 135.575 49.4091 130.09 45.1791C127.443 43.1376 125.001 40.8256 123.864 36.5691C122.402 41.4421 123.746 44.8635 125.919 48.0587C126.799 49.3524 127.816 50.6533 129.044 51.5941C136.685 57.4486 138.483 67.5508 137.619 76.5205C137.026 70.5017 133.633 66.1354 129.592 62.0643C128.21 60.6718 127.327 58.7903 126.588 56.842C125.863 59.5986 126.393 62.3191 127.123 64.9371C128.175 68.7097 129.748 72.3057 132.461 75.22C136.85 79.9351 138.868 85.1344 136.612 91.5727C136.036 93.2155 136.177 95.109 135.321 96.9166C135.554 89.0238 131.118 83.6316 126.548 78.2389C124.639 75.9861 123.744 73.1097 122.56 70.3924C121.927 75.265 123.892 79.4716 126.141 83.5272C128.496 87.7764 130.513 92.1345 132.116 96.7316C134.32 103.049 131.695 108.206 128.411 113.409C128.578 107.083 127.35 101.042 124.982 95.255C122.596 89.4268 120.096 83.6454 117.624 77.7912C116.821 78.4082 117.25 79.2898 117.287 79.9937C117.757 88.9229 119.664 97.535 123.709 105.532C127.122 112.279 127.509 118.519 121.97 124.377C120.408 126.028 119.07 127.891 117.42 129.548C119.62 123.647 120.577 117.708 119.28 111.52C118.309 106.893 116.419 102.723 113.289 99.1602C111.751 97.4099 110.468 95.5203 109.8 92.7472C108.17 95.1511 108.755 97.1743 109.149 99.1352C109.972 103.236 112.377 106.661 114.141 110.352C116.737 115.787 117.353 121.414 116.358 127.283C115.774 130.723 114.38 133.705 111.482 135.833C110.548 136.52 109.642 137.242 109.411 138.656C111.597 136.718 113.945 134.932 115.93 132.806C118.688 129.853 121.989 128.811 125.881 129.028C130.297 129.274 134.639 130.268 139.09 130.198C144.861 130.107 149.811 128.259 153.642 123.807C153.911 123.494 154.23 123.184 153.942 122.582C150.194 124.701 146.112 124.789 142.085 123.925C134.557 122.312 127.655 123.466 121.22 128.082C122.981 122.89 127.797 117.818 132.526 116.67C142.78 114.181 151.599 108.427 161.648 104.354C149.569 104.224 139.072 107.424 129.637 115.437C131.636 108.735 134.619 104.242 140.796 101.608C148.562 98.2968 155.648 93.618 160.543 86.3587C161.12 85.5041 161.638 84.6105 162.025 83.4722C158.138 86.4432 153.354 86.7882 149.018 88.3674C144.364 90.062 140.715 93.2003 136.843 97.2071C137.586 92.8165 138.213 89.1263 138.835 85.436C138.987 84.5318 139.763 84.4347 140.416 84.1056C147.327 80.6206 152.131 75.3478 154.364 67.8202C155.716 63.2641 157.655 58.9571 160.864 54.8951C158.956 54.6146 158.063 55.7373 157.102 56.4879C154.549 58.4832 152.874 61.1632 151.635 64.109C148.784 70.8894 144.084 76.4283 139.345 82.7556Z" fill="#FF8BAA"/>
</g>
<defs>
<clipPath id="clip0_1645_88032">
<rect width="146" height="119" fill="white" transform="translate(0 0.601074)"/>
</clipPath>
</defs>
</svg>
