<svg xmlns="http://www.w3.org/2000/svg" xmlns:xlink="http://www.w3.org/1999/xlink" width="436" height="281" fill="none" xmlns:v="https://vecta.io/nano"><style><![CDATA[.B{fill:#ffcdda}.C{fill:#ff8baa}.D{fill-rule:evenodd}]]></style><g clip-path="url(#A)"><path d="M91.02-255.151c24.877 19.851 52.194 41.706 61.255 76.892 3.857 14.965 3.272 32.153-1.591 48.661-2.093 7.093-4.925 14.23-8.758 20.72-1.749 2.986-3.803 5.654-5.857 8.402l-1.451 1.612c-1.745 1.599-.441.536 3.901-3.195 2.163-2.584-1.433.551-3.075 1.217-31.674 12.738-60.716-11.101-82.864-26.594l-48.3-33.787c-15.703-10.984-30.972-23.143-47.666-32.543-12.002-6.771-26.558-11.862-41.623-9.071-17.822 3.301-36.632 17.656-50.293 32.427-26.826 29.017-14.569 69.033 1.18 92.095C-92.773-17.767-15.071-7.081 52.7 4.618c65.975 11.381 145.559 28.629 174.579 98.693 2.709 6.53 4.891 13.605 5.454 21.201.285 3.899.192 7.875-.795 11.943-.262 1.097-4.074 10.935-4.684 10.379l3.951-3.225.518-.451c-.481-.262-5.144 2.149-5.911 2.375-3.598 1.109-7.221 1.608-10.774 1.691-10.195.243-19.622-3.154-28.377-7.051-17.382-7.738-33.723-17.388-50.264-26.698-8.552-4.81-17.12-9.809-26.113-13.785-6.107-2.703-12.599-3.884-19.828-1.666-9.567 2.934-18.974 10.17-27.022 17.249-7.55 6.637-15.327 14.609-17.132 25.027-3.159 18.281 8.632 33.426 16.696 45.812 18.493 28.421 42.235 51.995 69.553 69.841 27.555 17.985 58.921 30.22 92.202 35.557 16.781 2.701 34.015 3.463 51.511 2.911s33.729-6.69 50.042-19.788c14.04-11.274 29.55-27.224 30.449-46.412.695-14.94-7.6-26.091-11.675-38.762-2.001-6.195-3.222-13.044-1.648-20.282 1.011-4.649 3.012-9.393 5.79-13.405.651-.949 2.239-2.441 2.667-3.361-7.738 5.414-9.545 7.036-5.419 4.866 1.446-.602 2.917-1.11 4.389-1.539 18.262-5.107 35.038 2.772 48.708 11.732s27.672 20.734 45.179 23.522c15.416 2.457 30.418-3.448 44.91-14.059 16.29-11.92 31.576-27.625 33.79-48.921 1.898-18.186-4.026-33.548-8.496-49.308-4.26-15.062-7.318-31.445.193-48.467l-27.491 21.759c68.223 8.192 141.08-15.328 205.894-60.851 3.608-2.532 15.973-10.677 16.488-15.834.449-4.502-10.8 3.74-11.8 4.445-57.244 40.208-124.439 56.144-183.889 49.001-3.849-.467-11.746 6.383-14.847 8.835-4.109 3.252-10.359 7.751-12.644 12.924-15.654 35.501 10.368 63.17 8.37 96.525-.26 4.314-1.061 8.769-2.5 13.068s-4.077 7.42-5.863 11.337c.474-1.053 13.222-7.523 7.735-6.032-1.239.327-2.52 1.026-3.772 1.404-3.921 1.198-7.908 1.563-11.744 1.56-18.896-.009-33.262-11.461-47.701-21.247-12.928-8.763-27.307-16.728-44.189-16.034-18.278.75-36.469 13.047-51.442 27.188-12.447 11.749-22.973 26.688-21.34 43.745 1.354 14.095 9.58 24.472 12.733 37.634 1.582 6.585 1.598 13.543-1.007 20.753-1.506 4.141-3.685 7.292-5.981 10.97-3.828 6.156 11.169-5.291 4.088-3.542-2.483.611-4.85 1.567-7.36 2.062-16.704 3.261-34.364 1.872-50.329.323-33.66-3.255-65.434-13.467-93.825-29.698s-53.255-38.297-73.149-65.355c-4.628-6.284-8.984-12.845-13.039-19.648s-9.102-14.403-11.159-22.993c-.927-3.859-1.413-8.174-.743-12.486.356-2.313 1.451-4.372 1.927-6.594l1.192-2.28-12.287 9.798c.631.33 4.918-.951 5.942-.967 1.649-.027 3.233.166 4.808.454 4.634.887 8.707 3.273 12.813 5.36 17.579 8.945 34.281 19.442 51.782 28.52 14.359 7.457 30.181 16.506 47.574 16.13s34.983-11.891 49.696-24.557c13.635-11.748 24.276-24.773 23.281-42.946-.852-15.548-7.907-29.249-15.489-40.698-9.441-14.285-21.344-26.18-34.745-35.815-27.756-19.969-61.221-30.515-94.908-37.976-67.712-15.02-143.972-16.96-197.832-62.779-22.075-18.785-46.754-50.75-39.991-88.262.659-3.644 1.653-7.291 3.11-10.806.719-1.742 1.533-3.43 2.529-5.05 1.421-2.344 3.09-2.379.661-1.697l-4.816 3.512c.971-.602 1.961-1.075 3.003-1.418a30.66 30.66 0 0 1 3.659-1.212c3.583-.919 7.246-1.136 10.748-1.051 18.204.378 32.772 9.645 46.761 19.386l92.076 64.39c22.009 15.054 49.186 30.137 79.265 16.683 30.403-13.601 58.604-43.342 65.777-78.847s-6.234-65.514-26.313-87.518c-10.752-11.776-23.029-21.706-35.319-31.505-5.436-4.335-29.634 21.656-28.498 22.559l-.024-.014z" class="B"/><g class="C"><path d="M264.05 157.24c-.305 6.857-3.531 12.637-6.884 19.748-1.883-8.185-2.778-15.195-2.917-22.302-.094-4.787-1.032-9.773 2.713-13.82-1.825-2.634-4.18-3.57-7.236-2.254 4.479 10.96 1.087 22.878 4.173 34.074-4.418-6.748-9.515-13.061-11.012-21.24-2.819.845-4.763 2.508-5.211 5.572 10.45 4.972 12.633 15.812 17.442 24.758.809 1.506-.338 3.279-.785 4.893l-4.697 17.089c-.263.996-.73 2.119.361 3.952 3.289-6.148 3.39-12.747 5.937-18.464 5.032 1.682 4.485 7.518 8.052 10.846.975-2.782-.449-4.651-1.425-6.221-5.042-8.117-4.442-15.742.009-24.108 2.046-3.847 4.714-6.222 7.89-8.571-1.296-2.679-2.953-4.775-6.41-3.952z"/><path d="M264.05 157.24c2.686.428 3.433 4.007 6.414 3.952 4.137.103 8.085-.804 11.948-2.221 1.541-.566 3.106-1.32 2.827-3.153-.315-2.074-2.268-2.36-3.961-2.272-1.902.099-3.784.57-6.157.959l2.735-5.944c.553-1.271 1.397-2.698-.056-3.834-1.522-1.189-3.026-.319-4.199.693-1.145.987-2.025 2.282-3.292 3.755-.59-2.325-1.077-4.482-1.7-6.599-.346-1.173-.605-2.67-2.274-2.616-1.791.059-2.42 1.578-2.441 2.953-.073 4.774.085 9.551.156 14.327zm-14.324-18.629l7.237 2.253c3.303-2.604 7.268-4.295 10.152-7.496 1.17-1.3 2.645-2.564 1.432-4.339-1.335-1.953-3.295-1.182-4.911-.243-1.548.9-2.935 2.078-4.867 3.478l.16-6.638c.008-1.608-.163-3.3-2.146-3.585-1.884-.271-2.726 1.318-3.373 2.684-.581 1.228-.765 2.644-1.252 4.453l-4.176-5.09c-.831-.972-1.818-2.026-3.218-1.356-1.647.789-1.436 2.496-.894 3.716 1.823 4.111 3.885 8.118 5.856 12.163zm-12.05 18.407c2.452-1.191 3.831-3.386 5.211-5.574-.424-4.328-.476-8.711-1.614-12.943-.351-1.307-.656-3.058-2.45-2.99-2.026.076-2.144 1.973-2.376 3.45-.277 1.774-.316 3.586-.493 5.818-1.56-1.235-2.761-2.333-4.107-3.21-1.207-.786-2.649-1.268-3.864-.039-1.202 1.216-.774 2.672.017 3.884 1.209 1.856 2.596 3.598 4.083 5.627-2.571-.082-4.779-.328-6.956-.165-1.522.115-3.221.717-3.234 2.676-.01 1.669 1.361 2.271 2.81 2.664 4.273 1.159 8.61 1.175 12.973.802zm67.878 21.754c.954-2.997 2.13-5.164 4.219-6.867 6.635-5.411 10.616-12.564 13.2-20.59.118-.366.192-.747.098-1.227-4.866 5.418-8.796 11.503-12.729 17.587l-.58-.291c.44-1.374.843-2.762 1.328-4.121 1.792-5.025 1.62-9.859-1.113-14.563-1.319-2.27-2.409-4.677-1.972-8.11-2.51 3.11-2.548 5.997-1.916 8.966.256 1.202.609 2.449 1.223 3.499 3.819 6.525 2.129 14.405-1.162 20.672 1.355-4.553.183-8.735-1.547-12.895-.592-1.423-.675-3.053-.634-4.69-1.346 1.79-1.768 3.926-2.014 6.046-.355 3.055-.278 6.138.829 9.062 1.793 4.732 1.717 9.112-1.835 13.124-.906 1.024-1.366 2.443-2.525 3.504 2.512-5.671.887-10.909-.836-16.187-.719-2.205-.517-4.563-.571-6.89-1.907 3.356-1.727 6.998-1.295 10.615.452 3.789.625 7.557.427 11.376-.273 5.248-3.713 8.22-7.645 11.028 1.999-4.551 2.899-9.309 2.895-14.22l-.167-14.883c-.767.21-.717.978-.899 1.501-2.309 6.633-3.478 13.462-2.911 20.478.479 5.919-1.092 10.573-6.858 13.188-1.626.738-3.152 1.695-4.844 2.41 3.352-3.638 5.811-7.672 6.704-12.558.667-3.653.53-7.247-.688-10.766-.599-1.73-.971-3.484-.634-5.699-1.9 1.263-2.074 2.909-2.37 4.452-.618 3.227.114 6.431.301 9.639.275 4.723-.948 8.998-3.414 12.97-1.445 2.329-3.345 4.083-6.083 4.771-.883.221-1.756.478-2.344 1.438 2.166-.76 4.403-1.363 6.478-2.319 2.881-1.33 5.591-1.108 8.358.206 3.138 1.489 6 3.501 9.258 4.771 4.224 1.646 8.372 1.772 12.479-.329.289-.147.613-.278.583-.801-3.355.428-6.349-.72-9.022-2.542-4.995-3.408-10.357-4.618-16.407-3.171 2.822-3.253 7.83-5.512 11.609-4.943 8.196 1.233 16.317-.333 24.834-.312-8.746-3.68-17.329-4.468-26.569-1.442 3.443-4.28 6.946-6.662 12.22-6.744 6.63-.103 13.172-1.402 18.887-5.228.672-.45 1.315-.946 1.934-1.659-3.709 1.007-7.29-.162-10.912-.301-3.887-.149-7.473 1.05-11.478 2.814l4.943-7.969c.379-.612.972-.452 1.545-.498 6.06-.483 11.119-2.891 14.977-7.702 2.335-2.912 5.024-5.469 8.562-7.47-1.303-.77-2.286-.219-3.208.042-2.449.693-4.462 2.145-6.238 3.919-4.086 4.082-9.148 6.715-14.471 9.909z"/><path d="M117.419 90.1c3.185 3.094 4.805 6.818 5.943 11.873l-4.131-2.956c-6.76-4.804-13.107-9.315-18.203-15.378-2.66-3.166-5.756-5.837-9.677-7.324-.235-.089-.471-.19-.711-.294-1.269-.545-2.655-1.14-4.547-.234 5.521 3.791 9.568 8.371 12.984 13.484 5.645 8.447 13.601 13.123 23.477 14.782.196.033.394.051.59.069.741.068 1.452.133 1.874.97l4.999 9.886 1.973 3.898c-6.321-3.468-12.033-5.948-18.434-6.26-1.914-.093-3.835-.011-5.76.07-4.072.173-8.155.346-12.191-1.137.915 1.258 1.897 2.164 2.937 3 8.831 7.096 19.381 10.163 30.247 11.281 8.644.889 14.051 5.298 19.09 12.815-14.73-6.288-28.929-6.223-43.808-1.434 5.108.433 10.098 1.205 15.04 1.97 8.585 1.329 17.022 2.634 25.67 2.094 3.843-.24 8.289 1.321 12.115 3.883 1.763 1.977 3.589 3.876 5.517 5.659-9.448-2.949-18.193-1.672-26.666 3.086-4.647 2.61-9.724 4.065-15.168 2.882-.118.805.331 1.083.762 1.35l.078.049c6.44 4.034 13.265 4.422 20.433 2.323 3.247-.951 6.308-2.341 9.367-3.73 2.148-.976 4.297-1.952 6.509-2.775 2.359-.878 4.657-1.312 6.931-1.205 3.805 3.194 8.025 5.913 12.917 7.888a118.07 118.07 0 0 0 2.679 1.031c4.424 1.661 8.914 3.347 11.958 7.428.086.114.185.22.286.328.364.39.752.805.616 1.73l-5.057-.864c-6.988-1.159-13.963-2.315-20.54-5.214-5.988-2.639-12.038-4.29-19.574-1.62 6.83 1.086 12.378 3.839 17.827 6.543l5.07 2.447c7.354 3.355 15.276 3.745 23.122 1.124l.252-.085c1.068-.364 1.975-.673 3.116.229 2.811 2.222 5.682 4.368 8.737 6.651l3.727 2.792c-10.108-1.423-18.957.468-27.089 5.534-2.653 1.653-5.621 2.19-8.664 2.74l-1.116.204c4.564 3.378 16.903 3.129 23.283 2.064 5.919-.988 11.763-2.383 17.428-4.313 3.749-1.277 7.064-1.173 10.557.687 1.222.651 2.508 1.185 3.813 1.726 1.32.548 2.66 1.104 3.972 1.798-15.599.333-28.309 7.022-40.299 17.856 4.498-1.679 9.001-2.963 13.421-4.223 7.484-2.134 14.732-4.201 21.319-8 6.747-3.892 13.232-4.928 20.466-2.358.854.304 1.78.406 2.734.512.448.05.902.1 1.358.173-.666.95-1.591 1.093-2.499 1.234-.277.043-.553.085-.82.151-7.383 1.815-13.545 5.419-18.188 11.633-3.84 5.139-7.939 10.142-14.757 11.699 7.616 1.838 14.202-.31 20.114-5.162 3.444-2.826 6.276-6.221 9.105-9.613l2.79-3.299c3.637-4.185 8.018-6.309 13.647-5.982 3.638.211 7.297.039 10.971-.744a20.54 20.54 0 0 1-.602-.111c-.43-.084-.859-.167-1.292-.19-13.094-.657-22.213-7.446-26.575-19.99-.727-2.089-1.34-4.218-1.952-6.348-.592-2.057-1.184-4.114-1.879-6.136-1.914-5.572-4.176-8.31-9.316-11.193 2.659 3.431 3.215 6.416 3.365 9.397.756 14.996 8.034 25.649 21.254 32.458.212.109.392.278.61.483.115.108.24.226.386.35-15.329-1.027-21.847-1.931-26.362-16.949-3.564-11.855-9.668-22.398-18.234-32.026 1.497 12.31 12.429 34.452 21.452 43.898-12.822-1.771-19.334-10.165-22.654-21.856l-1.372-4.972c-.941-3.463-1.883-6.926-2.991-10.334-1.218-3.748-3.136-7.185-6.52-9.646 3.366 6.61 3.84 13.74 4.262 20.914.281 4.768 2.292 8.914 5.385 12.535l.157.183c.881 1.03 1.763 2.061 2.481 3.267-5.357-2.738-10.376-6.097-14.293-10.5-2.282-2.565-2.382-6.042-2.48-9.461-.034-1.171-.067-2.335-.188-3.453-.894-8.269-3.771-15.549-9.409-21.693-.075-.082-.146-.173-.219-.266-.323-.415-.675-.867-1.55-.699 2.188 4.255 2.609 8.715 2.293 13.408-.382 5.677 1.957 10.614 5.107 15.293-3.293-2.072-5.484-5.205-7.602-8.268-4.409-6.377-7.404-13.168-6.341-21.346.862-6.623.063-13.09-4.97-18.24l-.179-.187c-.573-.603-1.189-1.25-2.505-1.123 2.071 4.874 1.687 9.81.936 14.825-1.166 7.783 1.589 14.421 6.362 20.438.574.723 1.195 1.414 1.825 2.116 1.626 1.81 3.317 3.693 4.436 6.389l-5.113-3.747-7.738-5.63a25.53 25.53 0 0 1-.486-.914c-3.478-6.873-4.873-14.063-3.746-21.775.22-1.507.514-3.007.808-4.507.729-3.715 1.458-7.433 1.064-11.268l-.056-.563c-.232-2.405-.474-4.907-3.197-7.083.237 3.683-.625 6.51-1.855 9.262-2.503 5.603-3.242 11.481-2.669 17.571.552 5.856 2.495 11.106 5.394 15.991-3.873-2.601-7.845-5.059-11.939-7.352-1.941-4.11-2.137-8.947-1.223-14.343 1.936-11.432.993-22.806-1.846-34.022-.053-.206-.082-.433-.113-.664-.099-.761-.206-1.579-1.148-1.929l-.754 7.459-1.649 16.943c-.71 8.059.086 15.995 2.717 23.749-6.052-5.171-11.272-10.54-10.969-19.192.221-6.295 1.043-12.454 2.327-18.608 1.226-5.873 2.043-11.824-.606-17.604-.092.831-.164 1.666-.236 2.5-.259 2.993-.517 5.977-1.688 8.725-3.582 8.415-6.998 16.778-3.686 26.444-1.003-1.092-1.612-2.343-2.201-3.552-.44-.904-.869-1.785-1.442-2.559-5.256-7.093-4.754-14.291-1.135-21.8 2.235-4.641 2.803-9.689 2.657-14.753-.101-3.515-.488-7.081-2.44-10.209-.167 2.691-.537 5.354-1.712 7.605-3.435 6.579-5.955 13.276-4.383 20.941-4.503-10.755-6.15-23.928 1.049-34.091 1.158-1.633 1.916-3.63 2.508-5.566 1.462-4.782 1.813-9.525-1.861-14.987.225 5.697-1.907 9.49-4.397 13.027-5.159 7.329-6.133 15.237-3.91 23.74.413 1.577.76 3.171 1.107 4.765l.483 2.189-.992.395-.039-.073c-5.571-10.522-11.142-21.045-18.335-30.609-.224.774-.157 1.409-.016 2.028 3.093 13.542 8.603 25.849 18.718 35.678z" class="D"/></g><path d="M250.976 190.078l.001-.001-1.985-1.421c-3.168-2.256-6.337-4.513-9.077-7.313-1.707-1.744-3.309-3.569-4.425-5.757-1.328-2.602-1.195-5.107.419-6.807 1.933-2.039 4.297-2.474 6.892-1.504 2.998 1.122 5.352 3.166 7.418 5.533 3.924 4.494 7.096 9.425 8.525 15.316.028-1.3.015-2.6.001-3.901-.03-2.934-.06-5.868.381-8.797.627-4.162 1.481-8.238 3.763-11.846 1.985-3.14 5.153-5.389 9.118-4.331 4.534 1.209 6.292 3.992 5.284 8.622-.547 2.513-1.594 4.812-2.642 7.111l-1.382 3.158c.038.567-.053 1.049-.23 1.472.473-.387.967-.744 1.528-1.002 3.554-3.269 7.102-6.467 12.085-7.546 2.511-.544 4.571.255 6.704 1.207l.039.039c1.722 1.75 3.443 3.5 2.419 6.312l-.84 1.096c-4.236 5.529-10.036 7.741-16.21 11.095-.28.405-.615.729-.983 1.006.497-.063 1.006-.051 1.538.093l.055-.006 4.966-.557c2.887-.241 5.772-.239 8.658-.002a47.07 47.07 0 0 0 1.312.294c.973.208 1.946.416 2.865.764 2.234.847 4.012 2.224 4.076 4.904.069 2.912-1.122 5.057-3.9 6.223-4.364 1.832-8.834 1.268-13.264.488-2.797-.493-5.571-1.117-8.345-1.741l-3.667-.813h-.001l.002.001.545.303c4.543 2.525 9.085 5.049 12.845 8.739 1.644 1.614 3.131 3.332 4.074 5.458 1.251 2.821.877 5.282-1.104 7.391-2.189 2.329-4.419 2.842-7.457 1.685-3.088-1.177-5.381-3.407-7.539-5.79-3.444-3.804-6.312-7.995-8.347-12.725-.686.525-.502 1.141-.324 1.736.057.189.112.376.14.558.947 6.289 1.244 12.567-.245 18.819a15.85 15.85 0 0 1-.779 2.381c-.948 2.282-2.278 4.209-5.035 4.352-2.588.134-5.411-1.755-6.469-4.325-1.641-3.985-1.123-8.061-.367-12.138.667-3.605 1.94-7.016 3.212-10.428l.719-1.939-2.255 2.677c-1.677 2.004-3.353 4.009-5.132 5.919-3.331 3.576-7.06 6.695-11.57 8.734-1.101.498-2.235.92-3.463 1.076-2.851.364-5.326-.185-6.965-2.766-1.65-2.596-.7-4.972.826-7.2 2.727-3.981 6.585-6.724 10.604-9.193 3.613-2.22 7.274-4.411 11.397-5.628h-.001c-1.665-.52-3.262-.156-4.858.207-.817.186-1.634.372-2.46.44-6.111.498-12.164.735-18.139-.969-2.247-1.175-4.132-2.573-3.72-5.551.408-2.945 2.28-4.68 4.813-5.811.696-.312 1.452-.492 2.206-.672l1.025-.259c6.959-.909 13.597.521 20.117 2.788.223.078.442.167.661.256.623.254 1.245.508 1.947.486z" class="B"/><circle cx="262.761" cy="196.244" r="6.175" class="C"/><path d="M144.158 192.117h0l-.76-.544c-1.213-.864-2.426-1.728-3.476-2.8-.653-.668-1.267-1.367-1.694-2.205-.508-.996-.457-1.956.16-2.607.741-.78 1.646-.947 2.64-.575 1.148.429 2.049 1.212 2.84 2.118 1.502 1.721 2.717 3.609 3.264 5.865l.001-1.494c-.012-1.123-.023-2.247.146-3.368.24-1.594.567-3.155 1.44-4.536.761-1.203 1.974-2.064 3.492-1.659 1.736.463 2.409 1.529 2.023 3.302-.209.962-.61 1.842-1.011 2.723l-.53 1.209a1.21 1.21 0 0 1-.088.563c.182-.147.371-.284.585-.383 1.361-1.252 2.72-2.476 4.628-2.89.961-.208 1.75.098 2.567.463l.015.015c.659.67 1.318 1.34.926 2.416l-.321.42c-1.623 2.117-3.843 2.964-6.208 4.249a1.66 1.66 0 0 1-.376.385 1.5 1.5 0 0 1 .589.035l.021-.002 1.902-.213a20.16 20.16 0 0 1 3.315-.001l.502.113c.373.079.745.159 1.097.292.856.324 1.537.852 1.561 1.878.027 1.115-.43 1.936-1.493 2.383-1.671.701-3.383.486-5.079.187l-3.196-.667-1.404-.311h0 .001l.208.116c1.74.967 3.479 1.934 4.919 3.347.629.617 1.199 1.275 1.56 2.09.479 1.08.336 2.022-.423 2.83-.838.892-1.692 1.088-2.855.645-1.183-.451-2.061-1.305-2.887-2.217-1.319-1.457-2.417-3.062-3.196-4.873-.263.201-.193.437-.124.665l.053.213c.363 2.409.477 4.812-.094 7.207a5.95 5.95 0 0 1-.298.911c-.363.874-.872 1.612-1.928 1.667-.991.051-2.072-.672-2.477-1.656-.629-1.526-.43-3.087-.141-4.648.256-1.381.743-2.687 1.231-3.993l.275-.743-.864 1.025-1.965 2.267c-1.275 1.369-2.703 2.563-4.43 3.344-.422.191-.856.352-1.326.412-1.092.14-2.04-.071-2.667-1.059-.632-.994-.268-1.904.316-2.757 1.044-1.524 2.522-2.575 4.061-3.52 1.383-.85 2.785-1.689 4.364-2.155h-.001c-.637-.199-1.249-.06-1.86.079l-.942.169c-2.34.19-4.658.281-6.946-.371-.86-.45-1.582-.986-1.424-2.126.156-1.127.873-1.792 1.843-2.225.267-.119.556-.188.845-.257l.392-.099c2.665-.349 5.207.199 7.703 1.067l.253.098c.239.097.477.194.746.186z" class="B"/><circle cx="148.67" cy="194.478" r="2.365" class="C"/><path d="M366.374 46.188h0l-.461-.33c-.737-.524-1.473-1.049-2.11-1.7-.397-.405-.769-.83-1.028-1.338-.309-.605-.278-1.187.097-1.582.449-.474.999-.575 1.602-.349.697.261 1.244.736 1.724 1.286.912 1.045 1.649 2.191 1.982 3.56v-.907c-.007-.682-.014-1.364.088-2.045.146-.968.345-1.915.875-2.754.461-.73 1.198-1.252 2.119-1.007 1.054.281 1.463.928 1.228 2.004-.127.584-.37 1.119-.614 1.653l-.321.734a.74.74 0 0 1-.053.342c.11-.09.224-.173.355-.233.826-.76 1.651-1.503 2.809-1.754.583-.126 1.062.059 1.558.281l.009.009c.4.407.8.813.562 1.467l-.195.255c-.985 1.285-2.333 1.799-3.768 2.579-.065.094-.143.169-.228.234a.9.9 0 0 1 .357.022l.013-.002 1.155-.13a12.21 12.21 0 0 1 2.012-.001l.305.069c.226.048.452.097.666.178.519.197.932.517.947 1.14.016.677-.261 1.175-.907 1.447-1.014.426-2.053.295-3.082.113l-1.94-.405-.852-.189h-.001.001l.127.071c1.056.587 2.111 1.174 2.985 2.031.382.375.728.774.947 1.269.291.656.204 1.228-.257 1.718-.508.541-1.027.661-1.733.392-.717-.273-1.25-.792-1.752-1.346-.801-.884-1.467-1.858-1.94-2.958-.16.122-.117.265-.075.404l.032.13c.22 1.462.289 2.921-.057 4.374a3.72 3.72 0 0 1-.181.553c-.22.53-.529.978-1.17 1.011-.602.031-1.258-.408-1.504-1.005-.381-.926-.261-1.874-.085-2.821.155-.838.451-1.631.746-2.424l.168-.451-.525.622-1.192 1.376c-.775.831-1.641 1.556-2.69 2.03-.256.116-.519.214-.805.25-.662.085-1.238-.043-1.619-.643s-.162-1.156.193-1.674c.633-.925 1.53-1.563 2.464-2.137.84-.516 1.691-1.025 2.649-1.308h0c-.387-.121-.758-.036-1.129.048l-.572.102c-1.42.116-2.827.171-4.216-.225-.522-.273-.96-.598-.865-1.29.095-.684.53-1.088 1.119-1.351.162-.072.338-.114.513-.156l.238-.06c1.618-.212 3.16.121 4.676.648l.153.059c.145.059.29.118.453.113z" class="B"/><g class="C"><circle cx="369.113" cy="47.621" r="1.435"/><path d="M159.901 82.874h.001l-.388-.278c-.619-.441-1.238-.881-1.773-1.428-.333-.341-.646-.697-.864-1.124-.259-.508-.233-.997.082-1.329a1.16 1.16 0 0 1 1.346-.294c.585.219 1.045.618 1.448 1.081.767.878 1.386 1.841 1.666 2.991v-.762c-.006-.573-.012-1.146.074-1.718.123-.813.289-1.609.735-2.314.388-.613 1.007-1.052 1.781-.846.885.236 1.229.779 1.032 1.684-.107.491-.311.94-.516 1.389l-.27.617c.007.111-.01.205-.045.287a1.43 1.43 0 0 1 .298-.196c.695-.638 1.388-1.263 2.361-1.474.49-.106.893.05 1.309.236l.008.008c.336.342.672.684.472 1.233l-.164.214c-.827 1.08-1.96 1.512-3.166 2.167-.054.079-.12.142-.192.197.097-.012.197-.01.301.018l.01-.001.97-.109c.564-.047 1.128-.047 1.691 0l.256.058.56.149c.436.165.784.434.796.958.014.569-.219.988-.762 1.216-.852.358-1.725.248-2.59.095l-1.63-.34-.716-.159h0 0l.107.059c.887.493 1.774.986 2.508 1.707.321.315.612.651.796 1.066.244.551.171 1.031-.216 1.444-.427.455-.863.555-1.456.329-.603-.23-1.051-.665-1.473-1.131-.672-.743-1.232-1.561-1.63-2.485-.134.103-.098.223-.063.339l.027.109c.185 1.228.243 2.454-.048 3.675-.037.158-.089.315-.152.465-.185.446-.445.822-.983.85-.506.026-1.057-.343-1.264-.845-.32-.778-.219-1.574-.071-2.371.13-.704.379-1.37.627-2.037l.141-.379-.441.523-1.002 1.156c-.651.698-1.379 1.308-2.26 1.706-.215.097-.436.18-.676.21-.557.071-1.041-.036-1.361-.54s-.136-.971.162-1.406c.532-.777 1.286-1.313 2.071-1.795.705-.434 1.42-.861 2.226-1.099h0c-.326-.102-.638-.031-.949.04l-.481.086c-1.193.097-2.375.144-3.542-.189-.439-.23-.807-.503-.727-1.084.08-.575.445-.914.94-1.135.136-.061.284-.096.431-.131l.2-.05c1.359-.178 2.656.102 3.929.545l.129.05c.122.05.243.099.38.095z"/></g><circle cx="162.203" cy="84.078" r="1.206" class="B"/><path d="M410.837 97.865h.001l-.388-.278c-.619-.441-1.238-.881-1.773-1.428-.333-.341-.646-.697-.864-1.124-.259-.508-.233-.997.082-1.33a1.16 1.16 0 0 1 1.346-.294c.585.219 1.045.618 1.449 1.081.766.878 1.385 1.841 1.665 2.991v-.762c-.006-.573-.012-1.146.074-1.718.123-.813.289-1.609.735-2.314.388-.613 1.007-1.052 1.781-.846.885.236 1.229.779 1.032 1.684-.107.491-.311.94-.516 1.389l-.27.617c.007.111-.01.205-.045.288.093-.076.189-.145.299-.196.694-.638 1.387-1.263 2.36-1.474.49-.106.893.05 1.309.236l.008.008c.336.342.672.684.472 1.233l-.164.214c-.827 1.08-1.96 1.512-3.166 2.167-.054.079-.12.142-.192.197.097-.012.197-.01.301.018l.01-.001.97-.109c.564-.047 1.128-.046 1.691 0l.256.058.56.149c.436.165.784.434.796.958.014.569-.219.988-.762 1.216-.852.357-1.725.247-2.59.095l-1.63-.34-.716-.159h0 0l.107.059c.887.493 1.774.986 2.508 1.707.321.315.612.651.796 1.066.244.551.171 1.032-.216 1.444-.427.455-.863.555-1.456.329-.603-.23-1.051-.666-1.472-1.131-.673-.743-1.233-1.562-1.631-2.485-.134.102-.098.222-.063.339.011.037.022.073.027.109.185 1.228.243 2.454-.048 3.675a2.94 2.94 0 0 1-.152.465c-.185.446-.445.822-.983.85-.506.026-1.057-.343-1.264-.845-.32-.778-.219-1.574-.071-2.37.13-.704.379-1.371.627-2.037l.141-.379-.441.523-1.002 1.156c-.651.699-1.379 1.308-2.26 1.706-.215.097-.436.18-.676.21-.557.071-1.041-.036-1.361-.54s-.136-.971.162-1.406c.532-.778 1.286-1.313 2.071-1.796.705-.433 1.42-.861 2.226-1.099h0c-.326-.102-.638-.031-.949.04l-.481.086c-1.193.097-2.375.144-3.542-.189-.439-.23-.807-.503-.727-1.084.08-.575.445-.914.94-1.135.136-.061.284-.096.431-.131l.2-.05c1.359-.178 2.656.102 3.929.545l.129.05c.122.05.243.099.38.095z" class="C"/><g class="B"><circle cx="413.139" cy="99.069" r="1.206"/><path d="M49.753 63.91h0l-.184-.389c-.295-.618-.59-1.237-.773-1.902-.114-.414-.204-.833-.189-1.265.018-.514.253-.889.647-1.013.472-.149.873-.014 1.19.358.366.429.553.945.669 1.486.22 1.028.287 2.058.003 3.088l.334-.601c.246-.454.492-.909.811-1.322.452-.587.932-1.142 1.592-1.503.574-.314 1.254-.389 1.774.113.595.574.628 1.153.077 1.78-.299.34-.657.605-1.015.869l-.483.368a.56.56 0 0 1-.161.207 1.27 1.27 0 0 1 .321-.024c.827-.2 1.647-.389 2.506-.129.433.131.682.43.929.759l.003.009c.116.417.231.834-.167 1.179l-.223.097c-1.125.489-2.207.334-3.445.323a.77.77 0 0 1-.237.071c.082.033.159.078.229.146l.009.004.813.339c.465.21.909.457 1.334.74l.177.157c.132.115.264.23.376.363.272.321.428.686.209 1.104-.238.454-.605.683-1.133.625-.829-.091-1.469-.56-2.084-1.059l-1.136-.982-.495-.439h0 0l.058.093c.484.777.967 1.554 1.231 2.444.115.389.197.781.161 1.189-.049.541-.316.888-.802 1.044-.536.172-.924.06-1.293-.378-.375-.445-.537-.985-.666-1.536-.205-.88-.288-1.771-.197-2.674-.151.022-.175.133-.198.24l-.026.098c-.392 1.05-.883 2.042-1.647 2.877a2.77 2.77 0 0 1-.324.3c-.341.27-.711.453-1.148.24-.41-.201-.683-.733-.626-1.219.088-.754.516-1.337.981-1.901.411-.498.899-.915 1.386-1.331l.276-.237-.576.22-1.296.473c-.819.266-1.66.428-2.529.356-.212-.017-.423-.049-.625-.13-.47-.188-.804-.484-.836-1.022s.317-.825.743-1.038c.76-.38 1.589-.472 2.419-.509.746-.033 1.497-.057 2.236.108h0c-.212-.223-.489-.303-.766-.383l-.416-.143c-.984-.446-1.936-.927-2.711-1.7-.246-.373-.416-.75-.098-1.173s.751-.526 1.238-.483c.134.012.266.048.397.085l.18.048c1.149.455 2.049 1.243 2.86 2.149l.08.096c.074.092.148.185.258.241z"/></g><g class="C"><circle cx="51.041" cy="65.868" r="1.088" transform="rotate(29.038 51.041 65.868)"/><path d="M310.793 72.357c-3.929-.417-6.891-1.315-9.516-3.455-8.336-6.795-18.142-9.885-28.67-11.035-.481-.052-.968-.047-1.534.191 7.895 4.616 16.376 7.913 24.855 11.213l-.211.787c-1.802-.194-3.612-.339-5.406-.591-6.636-.935-12.539.499-17.636 5.052-2.459 2.197-5.144 4.146-9.478 4.477 4.46 2.301 8.022 1.618 11.515.09 1.414-.619 2.86-1.369 3.995-2.39 7.062-6.348 17.185-6.261 25.727-3.797-5.944-.516-10.794 1.983-15.475 5.164-1.6 1.088-3.585 1.603-5.609 1.966 2.542 1.203 5.277 1.182 7.948.949 3.849-.336 7.621-1.21 10.939-3.312 5.369-3.402 10.777-4.416 16.611-1.06 1.489.856 3.351 1.063 4.948 2.221-7.612-1.657-13.645 1.667-19.703 5.121-2.531 1.443-5.482 1.79-8.332 2.445 4.61 1.498 9.046.354 13.386-1.091 4.548-1.514 9.14-2.68 13.889-3.401 6.526-.992 11.051 2.489 15.501 6.617-6.104-1.309-12.186-1.213-18.227.034l-18.269 3.969c.453.891 1.385.635 2.075.727 8.744 1.163 17.441.875 25.93-1.598 7.161-2.086 13.283-1.33 17.96 5.104 1.318 1.813 2.881 3.449 4.189 5.35-5.324-3.204-10.909-5.209-17.145-5.073-4.663.102-9.05 1.179-13.072 3.569-1.977 1.174-4.042 2.076-6.852 2.22 2.036 2.017 4.104 1.816 6.077 1.79 4.126-.055 7.883-1.766 11.782-2.807 5.742-1.532 11.31-1.109 16.821.92 3.23 1.189 5.87 3.082 7.408 6.278.496 1.03 1.033 2.04 2.362 2.52-1.483-2.471-2.79-5.072-4.491-7.383-2.364-3.209-2.776-6.599-1.86-10.335 1.039-4.237 2.79-8.268 3.529-12.597.958-5.613.064-10.748-3.559-15.27-.254-.318-.497-.683-1.133-.514 1.375 4.019.72 7.993-.847 11.742-2.93 7.008-3.063 13.911.248 20.988-4.716-2.649-8.761-8.239-9.018-13.034-.554-10.395-4.536-19.99-6.663-30.474-2.317 11.691-1.116 22.45 4.944 33.053-6.137-3.153-9.953-6.861-11.387-13.329-1.804-8.131-5.056-15.851-11.208-21.915-.725-.714-1.497-1.378-2.531-1.96 2.177 4.308 1.644 9.009 2.389 13.501.8 4.821 3.181 8.928 6.365 13.41L313.3 73.338c-.849-.312-.803-1.082-1.003-1.775-2.127-7.334-6.369-12.948-13.264-16.479-4.174-2.137-7.999-4.798-11.356-8.646-.618 1.799.309 2.869.862 3.936 1.472 2.838 3.768 4.948 6.4 6.684 6.058 3.994 10.577 9.556 15.854 15.299z"/></g><g class="B"><path d="M49.219 242.443c-2.442-5.155-5.078-8.765-9.246-11.322-13.235-8.119-22.121-20.009-28.709-33.809-.301-.63-.526-1.297-.471-2.181 10.055 8.559 18.592 18.544 27.134 28.526l.971-.663c-1.124-2.364-2.184-4.761-3.383-7.086-4.438-8.597-5.299-17.326-1.525-26.443 1.821-4.399 3.197-8.987 1.581-15.052 5.263 4.982 6.03 10.161 5.613 15.65-.169 2.222-.502 4.55-1.352 6.584-5.284 12.652-.338 26.405 7.093 36.871-3.538-7.855-2.444-15.656-.342-23.551.72-2.7.474-5.65.005-8.581 2.852 2.89 4.127 6.626 5.083 10.378 1.378 5.406 1.985 10.964.702 16.488-2.076 8.938-.88 16.791 6.476 23.142 1.877 1.621 3.046 4.06 5.386 5.685-5.887-9.584-4.235-19.391-2.416-29.294.759-4.136-.175-8.324-.641-12.521 4.239 5.569 4.796 12.16 4.896 18.764.105 6.92.706 13.733 1.988 20.549 1.76 9.366 8.662 13.873 16.409 17.969-4.695-7.694-7.464-16.028-8.645-24.855l-3.303-26.79c1.43.192 1.525 1.586 1.979 2.481 5.755 11.362 9.509 23.352 10.186 36.099.572 10.755 4.521 18.737 15.52 22.043 3.1.931 6.074 2.282 9.288 3.158-6.905-5.727-12.3-12.384-15.088-20.947-2.084-6.403-2.709-12.895-1.37-19.516.657-3.253.902-6.498-.241-10.396 3.719 1.812 4.432 4.726 5.337 7.427 1.893 5.65 1.352 11.586 1.792 17.396.65 8.555 3.882 15.942 9.275 22.485 3.161 3.835 6.999 6.529 12.089 7.102 1.64.185 3.272.434 4.56 2.017-4.075-.842-8.243-1.383-12.203-2.6-5.501-1.692-10.317-.637-14.971 2.393-5.279 3.436-9.937 7.745-15.484 10.816-7.193 3.983-14.617 5.212-22.507 2.432-.555-.196-1.169-.352-1.24-1.3 6.133-.043 11.236-2.83 15.598-6.753 8.153-7.335 17.497-10.807 28.72-9.67-5.858-5.164-15.406-8.011-22.062-6.074-14.431 4.2-29.406 3.35-44.707 5.45 14.827-8.731 30.063-12.225 47.401-9.023-7.224-6.859-14.096-10.292-23.594-9.163-11.94 1.42-24.013.668-35.21-4.824-1.318-.647-2.592-1.383-3.878-2.514 6.908.912 13.062-2.056 19.538-3.182 6.951-1.209 13.684.078 21.31 2.279l-10.812-13.125c-.829-1.009-1.857-.578-2.897-.521-11.008.598-20.683-2.506-28.782-10.219-4.902-4.668-10.353-8.612-17.198-11.353 2.157-1.7 4.057-.947 5.776-.701 4.57.653 8.54 2.775 12.161 5.534 8.332 6.352 18.067 9.858 28.409 14.311zm346.84 11.516c.624-5.611 1.729-9.781 4.168-13.336 7.746-11.289 11.53-25.079 13.238-40.111.078-.686.093-1.388-.141-2.227-5.359 10.882-9.31 22.744-13.266 34.603l-.845-.386.877-7.718c1.304-9.452.002-18.097-4.724-25.905-2.28-3.768-4.281-7.834-4.453-14.106-2.694 6.18-2.107 11.376-.598 16.561.611 2.1 1.364 4.259 2.423 5.998 6.592 10.824 6.057 25.382 3.008 37.418.819-8.5-1.686-15.739-4.939-22.805-1.113-2.417-1.586-5.327-1.893-8.277-1.417 3.533-1.514 7.47-1.376 11.338.197 5.575.983 11.095 3.124 16.088 3.463 8.079 4.33 15.967.43 24.014-.995 2.054-1.301 4.711-2.629 6.89 2.132-10.782-1.218-19.81-4.708-28.887-1.458-3.792-1.706-8.076-2.295-12.245-1.828 6.479-.778 12.981.604 19.378 1.448 6.702 2.515 13.432 3.092 20.34.794 9.495-3.186 15.645-7.865 21.619 1.688-8.648 1.849-17.41.756-26.233l-3.519-26.704c-.987.559-.75 1.928-.88 2.911-1.644 12.462-1.709 25.009.61 37.481 1.955 10.523.868 19.254-6.327 25.315-2.028 1.709-3.873 3.788-5.996 5.473 3.713-7.328 6.134-15.158 6.258-24.146.091-6.721-.888-13.146-3.31-19.183-1.19-2.966-2.08-6.032-2.115-10.091-2.281 2.72-2.152 5.717-2.21 8.559-.119 5.943 1.577 11.528 2.539 17.248 1.415 8.421.714 16.391-1.731 24.111-1.433 4.524-3.605 8.125-7.145 10.007-1.141.607-2.261 1.274-2.841 3.137 2.751-1.877 5.634-3.487 8.218-5.695 3.591-3.069 7.293-3.309 11.312-1.602 4.56 1.936 8.863 4.875 13.536 6.389 6.058 1.962 11.677 1.209 16.748-3.534.357-.333.765-.644.608-1.577-4.428 1.56-8.717.205-12.723-2.441-7.488-4.945-14.984-5.853-22.818-1.825 3.083-6.511 9.334-11.751 14.555-11.622 11.32.283 21.921-4.448 33.406-6.419-12.604-4.55-24.348-3.941-36.133 3.677 3.694-8.504 7.888-13.61 14.979-15.001 8.914-1.75 17.445-5.627 24.302-13.85.807-.968 1.563-2.011 2.24-3.438-4.776 2.684-9.862 1.428-14.775 2.034-5.273.649-9.841 3.649-14.849 7.765l4.899-15.485c.375-1.19 1.21-1.043 1.972-1.259 8.062-2.298 14.348-7.819 18.484-17.375 2.503-5.783 5.562-11.011 9.889-15.442-1.928-1.077-3.131.146-4.315.832-3.148 1.823-5.541 4.906-7.542 8.514-4.603 8.303-10.844 14.228-17.314 21.225z"/></g><path d="M386.082 71.346c2.961-1.365 5.04-2.852 6.526-5.219 4.719-7.518 11.568-12.528 19.495-16.214.362-.168.744-.293 1.25-.257-4.952 5.698-10.71 10.52-16.466 15.344l.373.559c1.358-.629 2.734-1.22 4.07-1.893 4.941-2.487 9.936-2.928 15.125-.717 2.504 1.067 5.12 1.88 8.596.992-2.879 2.979-5.844 3.388-8.979 3.117-1.269-.109-2.598-.314-3.756-.811-7.201-3.094-15.092-.348-21.119 3.839 4.511-1.976 8.964-1.305 13.465-.057 1.54.427 3.227.305 4.906.053-1.669 1.613-3.813 2.32-5.963 2.845-3.098.756-6.279 1.071-9.429.305-5.097-1.239-9.593-.601-13.267 3.566-.938 1.063-2.339 1.717-3.282 3.046 5.513-3.309 11.11-2.307 16.76-1.21 2.36.459 4.76-.052 7.162-.293-3.209 2.391-6.979 2.671-10.755 2.689-3.956.019-7.855.323-11.758 1.015-5.365.951-7.982 4.87-10.369 9.275 4.426-2.639 9.206-4.173 14.26-4.796l15.334-1.731c-.119.816-.916.863-1.43 1.117-6.529 3.223-13.406 5.299-20.696 5.612-6.152.264-10.738 2.475-12.691 8.743-.551 1.767-1.341 3.459-1.86 5.291 3.315-3.914 7.151-6.959 12.062-8.502 3.673-1.154 7.388-1.473 11.165-.669 1.856.395 3.709.554 5.944-.077-1.058 2.116-2.728 2.506-4.277 3.007-3.241 1.049-6.632.705-9.955.923-4.894.322-9.136 2.126-12.908 5.171-2.211 1.784-3.773 3.963-4.13 6.869-.115.936-.267 1.867-1.18 2.595.505-2.325.838-4.704 1.558-6.961.999-3.134.424-5.894-1.281-8.572-1.934-3.038-4.369-5.726-6.092-8.915-2.234-4.135-2.894-8.387-1.258-12.881.115-.316.208-.666.75-.702-.012 3.507 1.551 6.44 3.769 8.956 4.145 4.704 6.074 10.066 5.359 16.475 2.986-3.32 4.67-8.76 3.601-12.576-2.316-8.274-1.743-16.829-2.854-25.589 4.905 8.527 6.813 17.257 4.88 27.15 3.964-4.089 5.966-7.998 5.377-13.434-.742-6.834-.242-13.731 2.964-20.099.377-.75.806-1.474 1.459-2.202-.562 3.944 1.099 7.479 1.705 11.188.65 3.98-.125 7.822-1.427 12.169l7.566-6.104c.582-.469.342-1.058.315-1.653-.278-6.296 1.554-11.808 6.01-16.393 2.697-2.775 4.984-5.868 6.59-9.764.959 1.243.518 2.325.367 3.306-.399 2.608-1.636 4.865-3.234 6.919-3.68 4.726-5.741 10.271-8.347 16.157z" class="C"/><path d="M342.169 116.648c-.858-.975-2.07-1.254-3.229-1.637-2.59-.856-3.178-2.373-1.607-4.545 2.075-2.869 5.013-4.694 8.084-6.322.189-.1.386-.186.566-.506l-2.32.196c-2.533.268-5.058.373-7.563-.257-2.175-.547-2.885-1.673-2.398-3.861.038-.171.046-.36.127-.508 1.213-2.21 1.144-4.45.48-6.842-.543-1.955.851-3.338 2.989-3.263 3.191.112 6.021 1.337 8.739 2.891.144.083.292.159.55.161-.555-1.391-1.613-2.491-2.192-3.856-.41-.963-.966-1.865-1.364-2.832-1.124-2.727-.191-4.501 2.678-5.174.85-.2 1.714-.343 2.558-.563 1.893-.493 2.975-2.072 4.325-3.29.285-.312.552-.654 1.023-.693.633.054 1.242.237 1.866.343.372.046.651.238.817.569.747 1.492 1.894 2.8 2.106 4.54.274.409.166.908.321 1.345.45 1.71.461 3.448.4 4.93 1.214-1.994 2.588-4.246 4.552-5.923 2.012-1.717 3.787-1.792 5.621.308 1.568 1.797 3.041 3.611 5.527 4.167.31.069.611.326.871.568 1.332 1.24 1.549 2.774.472 4.351-1.757 2.574-4.147 4.411-6.705 5.635 2.29-.267 4.796.104 7.235.802 1.425.408 3.002 1.946 2.365 4.087-.174.584-.144 1.265-.463 1.767-1.106 1.744-.954 3.597-.53 5.449.544 2.369-.781 4.39-3.699 4.227-2.977-.166-5.711-1.262-8.191-2.932.954.716 1.057 1.96 1.727 2.872.518 1.103 1.112 2.175 1.389 3.379.609 2.642-.633 4.524-3.332 4.885-2.129.284-3.999.915-5.655 2.439-2.026 1.863-4.039 1.449-5.448-.915-1.58-2.652-1.821-5.61-1.81-8.479-.438.92-1.053 1.911-1.681 2.893-.641 1.001-1.42 1.887-2.294 2.685-.73.667-1.531 1.176-2.597.907-.329-.075-.66-.146-.992-.208-.749-.05-1.331-.393-1.593-1.095-.227-.606-.773-.895-1.132-1.355-.291-.377-.766-.733-.593-1.34z" class="B"/><path d="M352.07 92.889c.247-.671.691-1.21 1.166-1.727 1.012-1.238 2.588-1.429 3.883-.453.557.419 1.005.961 1.525 1.424 2.837-1.228 4.501-.103 4.486 3.096-.003.564.255.604.644.752 2.414.92 3.119 4.255 1.228 5.99-.428.392-.269.5.004.766.83.806 1.42 1.702.856 2.905-.523 1.116-1.425 1.636-2.655 1.465-.55-.077-.502.203-.55.59-.287 2.295-1.865 3.155-3.902 2.103-.462-.239-.748-.328-1.106.102-1.682 2.027-4.384.513-4.852-1.282-.202-.774-.506-.985-1.309-1.036-2.394-.152-3.619-1.819-3.037-4.049.147-.566-.179-.667-.477-.9-1.976-1.55-2.07-3.348-.2-4.987.42-.368.276-.607.168-.994-.322-1.147-.207-2.246.512-3.239.666-.983 1.548-1.064 2.594-.687.309.112.613.581 1.022.161z" class="C"/><circle cx="356.262" cy="100.352" r="4.135" transform="rotate(11.917 356.262 100.352)" class="B"/><path d="M54.969 99.961c-.484-.55-1.168-.707-1.822-.923-1.461-.483-1.792-1.338-.906-2.563 1.171-1.618 2.828-2.648 4.56-3.567.107-.056.218-.105.319-.285l-1.308.111c-1.429.151-2.853.21-4.267-.145-1.227-.308-1.627-.944-1.353-2.178.021-.097.026-.203.072-.287.684-1.247.645-2.51.27-3.859-.306-1.103.48-1.883 1.686-1.841 1.8.063 3.396.754 4.929 1.631a.57.57 0 0 0 .31.091c-.313-.784-.91-1.405-1.236-2.175l-.769-1.597c-.634-1.538-.108-2.539 1.511-2.919l1.443-.317c1.068-.278 1.678-1.169 2.44-1.856.161-.176.311-.369.577-.391.357.031.701.134 1.053.193.21.026.367.134.461.321.421.841 1.068 1.579 1.188 2.561.155.231.094.512.181.759.254.965.26 1.945.226 2.781.685-1.125 1.46-2.395 2.568-3.341 1.134-.968 2.136-1.011 3.17.174.885 1.014 1.716 2.037 3.118 2.351.175.039.345.184.491.32.751.7.874 1.565.266 2.454-.991 1.452-2.34 2.488-3.782 3.179 1.292-.151 2.705.059 4.081.453.804.23 1.693 1.098 1.334 2.305-.098.33-.081.714-.261.997-.624.984-.538 2.029-.299 3.073.307 1.337-.441 2.477-2.087 2.385-1.679-.094-3.221-.712-4.62-1.654.538.404.596 1.105.974 1.62.292.623.627 1.227.783 1.907.343 1.49-.357 2.552-1.879 2.755-1.201.161-2.256.516-3.19 1.376-1.142 1.051-2.278.818-3.073-.516-.891-1.496-1.027-3.165-1.02-4.783-.248.519-.594 1.078-.948 1.632-.361.565-.801 1.064-1.294 1.515-.412.376-.864.663-1.465.511l-.56-.117c-.422-.028-.751-.221-.899-.618-.128-.342-.436-.505-.638-.764-.164-.213-.432-.413-.334-.756z" class="C"/><path d="M60.553 86.559c.139-.379.39-.682.658-.974a1.52 1.52 0 0 1 2.19-.256c.314.236.567.542.86.803 1.6-.692 2.539-.058 2.53 1.746-.001.318.144.341.363.424 1.362.519 1.759 2.401.693 3.379-.241.221-.152.282.002.432.468.454.801.96.483 1.639-.295.629-.804.923-1.497.826-.311-.043-.283.115-.31.333-.162 1.295-1.052 1.78-2.201 1.186-.261-.135-.422-.185-.624.058-.949 1.143-2.473.289-2.737-.724-.114-.436-.285-.555-.738-.584-1.35-.086-2.041-1.026-1.713-2.284.083-.319-.101-.376-.269-.508-1.114-.874-1.168-1.888-.113-2.813.237-.208.156-.342.095-.56-.181-.647-.117-1.267.289-1.827.376-.554.874-.6 1.463-.388.174.063.346.328.577.091z" class="B"/><g class="C"><circle cx="62.918" cy="90.769" r="2.333" transform="rotate(11.917 62.918 90.769)"/><path d="M286.567 127.875c-.484-.55-1.168-.707-1.821-.923-1.461-.483-1.793-1.339-.907-2.564 1.171-1.618 2.828-2.648 4.56-3.566.107-.057.218-.105.32-.286l-1.309.111c-1.429.151-2.853.21-4.266-.145-1.227-.308-1.628-.944-1.353-2.178.021-.096.026-.203.072-.286.684-1.247.645-2.511.27-3.86-.306-1.102.48-1.883 1.687-1.84 1.8.063 3.396.754 4.929 1.63.081.047.165.09.31.091-.313-.784-.909-1.405-1.236-2.175l-.77-1.597c-.634-1.539-.107-2.54 1.511-2.919l1.443-.318c1.068-.278 1.678-1.169 2.44-1.855.161-.177.311-.369.577-.391.357.031.7.134 1.052.193a.57.57 0 0 1 .461.321c.422.842 1.068 1.58 1.188 2.561.155.231.094.512.181.759.254.964.26 1.945.226 2.781.685-1.125 1.46-2.396 2.568-3.342 1.134-.968 2.135-1.01 3.17.174.885 1.014 1.716 2.037 3.118 2.351.175.039.345.184.491.32.752.7.874 1.565.267 2.454-.992 1.452-2.34 2.489-3.783 3.179 1.292-.151 2.705.059 4.082.453.803.23 1.693 1.098 1.333 2.305-.098.329-.081.714-.261.997-.624.984-.538 2.029-.298 3.073.306 1.337-.441 2.477-2.087 2.385-1.679-.094-3.221-.712-4.621-1.654.539.404.597 1.105.975 1.62.292.622.627 1.227.783 1.906.343 1.49-.357 2.552-1.879 2.755-1.201.161-2.256.516-3.19 1.376-1.143 1.051-2.279.818-3.074-.516-.891-1.496-1.027-3.165-1.02-4.783-.248.52-.594 1.078-.949 1.632-.361.565-.8 1.064-1.294 1.515-.411.376-.863.663-1.464.511l-.56-.117c-.422-.028-.751-.221-.899-.618-.128-.342-.436-.505-.638-.764-.164-.213-.432-.413-.335-.756z"/></g><path d="M292.152 114.473c.139-.378.39-.682.658-.974.571-.698 1.459-.806 2.19-.255.314.236.567.542.86.803 1.601-.693 2.539-.058 2.531 1.746-.002.318.144.341.363.424 1.362.519 1.759 2.401.693 3.379-.241.222-.152.283.002.433.468.454.801.96.483 1.638-.295.63-.804.923-1.498.827-.31-.044-.283.114-.31.332-.162 1.295-1.052 1.78-2.201 1.186-.261-.134-.422-.184-.624.058-.949 1.144-2.473.29-2.737-.723-.114-.437-.285-.555-.738-.584-1.351-.086-2.042-1.027-1.714-2.285.084-.319-.1-.375-.268-.507-1.115-.874-1.168-1.888-.113-2.813.237-.208.155-.342.095-.561-.182-.647-.117-1.267.288-1.827.376-.554.874-.6 1.463-.387.175.063.346.328.577.09z" class="B"/><circle cx="294.517" cy="118.683" r="2.333" transform="rotate(11.917 294.517 118.683)" class="C"/><g class="B D"><path d="M30.168 116.213h-5.175v-5.17a1.29 1.29 0 0 0-1.287-1.29h-6.98a1.29 1.29 0 0 0-1.287 1.29v5.17h-5.175a1.29 1.29 0 0 0-1.287 1.289v6.981a1.29 1.29 0 0 0 1.287 1.29h5.175v5.17a1.29 1.29 0 0 0 1.287 1.289h6.98a1.29 1.29 0 0 0 1.287-1.289v-5.17h5.175a1.29 1.29 0 0 0 1.287-1.29v-6.981a1.29 1.29 0 0 0-1.287-1.289z"/><use xlink:href="#B"/><path d="M264.061 40.466h-5.175v-5.17a1.29 1.29 0 0 0-1.287-1.29h-6.981a1.29 1.29 0 0 0-1.287 1.29v5.17h-5.175a1.29 1.29 0 0 0-1.287 1.29v6.98a1.29 1.29 0 0 0 1.287 1.29h5.175v5.17a1.29 1.29 0 0 0 1.287 1.29h6.981a1.29 1.29 0 0 0 1.287-1.29v-5.17h5.175a1.29 1.29 0 0 0 1.287-1.29v-6.98a1.29 1.29 0 0 0-1.287-1.29z"/></g><g class="C D"><path d="M190.991 220.284h-2.572v-2.569a.64.64 0 0 0-.64-.641h-3.469a.64.64 0 0 0-.639.641v2.569h-2.572a.64.64 0 0 0-.64.641v3.469a.64.64 0 0 0 .64.641h2.572v2.569a.64.64 0 0 0 .639.641h3.469a.64.64 0 0 0 .64-.641v-2.569h2.572a.64.64 0 0 0 .639-.641v-3.469a.64.64 0 0 0-.639-.641zM34.597 138.829h-2.572v-2.569a.64.64 0 0 0-.64-.641h-3.469a.64.64 0 0 0-.64.641v2.569h-2.572a.64.64 0 0 0-.64.641v3.469a.64.64 0 0 0 .64.641h2.572v2.569a.64.64 0 0 0 .64.641h3.469a.64.64 0 0 0 .64-.641v-2.569h2.572a.64.64 0 0 0 .64-.641v-3.469a.64.64 0 0 0-.64-.641z"/></g></g><defs><clipPath id="A"><path fill="#fff" transform="translate(0 .243)" d="M0 0h436v280H0z"/></clipPath><path id="B" d="M379.066 178.459h-5.175v-5.17a1.29 1.29 0 0 0-1.287-1.29h-6.981a1.29 1.29 0 0 0-1.287 1.29v5.17h-5.175a1.29 1.29 0 0 0-1.287 1.29v6.98a1.29 1.29 0 0 0 1.287 1.29h5.175v5.17a1.29 1.29 0 0 0 1.287 1.29h6.981a1.29 1.29 0 0 0 1.287-1.29v-5.17h5.175a1.29 1.29 0 0 0 1.287-1.29v-6.98a1.29 1.29 0 0 0-1.287-1.29z"/></defs></svg>